<?xml version="1.0" encoding="utf-8" standalone="no"?>
<!DOCTYPE svg PUBLIC "-//W3C//DTD SVG 1.1//EN"
  "http://www.w3.org/Graphics/SVG/1.1/DTD/svg11.dtd">
<svg xmlns:xlink="http://www.w3.org/1999/xlink" width="432pt" height="288pt" viewBox="0 0 432 288" xmlns="http://www.w3.org/2000/svg" version="1.1">
 <metadata>
  <rdf:RDF xmlns:dc="http://purl.org/dc/elements/1.1/" xmlns:cc="http://creativecommons.org/ns#" xmlns:rdf="http://www.w3.org/1999/02/22-rdf-syntax-ns#">
   <cc:Work>
    <dc:type rdf:resource="http://purl.org/dc/dcmitype/StillImage"/>
    <dc:date>2023-05-03T02:46:56.802099</dc:date>
    <dc:format>image/svg+xml</dc:format>
    <dc:creator>
     <cc:Agent>
      <dc:title>Matplotlib v3.5.3, https://matplotlib.org/</dc:title>
     </cc:Agent>
    </dc:creator>
   </cc:Work>
  </rdf:RDF>
 </metadata>
 <defs>
  <style type="text/css">*{stroke-linejoin: round; stroke-linecap: butt}</style>
 </defs>
 <g id="figure_1">
  <g id="patch_1">
   <path d="M 0 288 
L 432 288 
L 432 0 
L 0 0 
L 0 288 
z
" style="fill: none"/>
  </g>
  <g id="axes_1">
   <g id="patch_2">
    <path d="M 54 252 
L 388.8 252 
L 388.8 34.56 
L 54 34.56 
z
" style="fill: #ffffff"/>
   </g>
   <g id="PolyCollection_1">
    <defs>
     <path id="m8cbfc7267f" d="M 138.634966 -45.883636 
L 136.765034 -45.883636 
L 135.903305 -47.880331 
L 134.662149 -49.877025 
L 133.176675 -51.873719 
L 131.755335 -53.870413 
L 130.765221 -55.867107 
L 130.419747 -57.863802 
L 130.606045 -59.860496 
L 130.9026 -61.85719 
L 130.817317 -63.853884 
L 130.107666 -65.850579 
L 128.96242 -67.847273 
L 127.897912 -69.843967 
L 127.411093 -71.840661 
L 127.614621 -73.837355 
L 128.118302 -75.83405 
L 128.266028 -77.830744 
L 127.586664 -79.827438 
L 126.152166 -81.824132 
L 124.5782 -83.820826 
L 123.633966 -85.817521 
L 123.70642 -87.814215 
L 124.494971 -89.810909 
L 125.17669 -91.807603 
L 124.955458 -93.804298 
L 123.626909 -95.800992 
L 121.760539 -97.797686 
L 120.346509 -99.79438 
L 120.1226 -101.791074 
L 121.041345 -103.787769 
L 122.266843 -105.784463 
L 122.727981 -107.781157 
L 121.857181 -109.777851 
L 120.002536 -111.774545 
L 118.213291 -113.77124 
L 117.522629 -115.767934 
L 118.211585 -117.764628 
L 119.577473 -119.761322 
L 120.392913 -121.758017 
L 119.754421 -123.754711 
L 117.73509 -125.751405 
L 115.37375 -127.748099 
L 113.97519 -129.744793 
L 114.179975 -131.741488 
L 115.458172 -133.738182 
L 116.41851 -135.734876 
L 115.759078 -137.73157 
L 113.218235 -139.728264 
L 109.850122 -141.724959 
L 107.382098 -143.721653 
L 107.045015 -145.718347 
L 108.678269 -147.715041 
L 110.770883 -149.711736 
L 111.458057 -151.70843 
L 109.807693 -153.705124 
L 106.506502 -155.701818 
L 103.445835 -157.698512 
L 102.452919 -159.695207 
L 104.024551 -161.691901 
L 106.956243 -163.688595 
L 109.148008 -165.685289 
L 109.035892 -167.681983 
L 106.660295 -169.678678 
L 103.636658 -171.675372 
L 102.043361 -173.672066 
L 102.984993 -175.66876 
L 105.82721 -177.665455 
L 108.639734 -179.662149 
L 109.534883 -181.658843 
L 107.969981 -183.655537 
L 105.125582 -185.652231 
L 103.114327 -187.648926 
L 103.570848 -189.64562 
L 106.592782 -191.642314 
L 110.744601 -193.639008 
L 114.0716 -195.635702 
L 115.376441 -197.632397 
L 114.892388 -199.629091 
L 113.96852 -201.625785 
L 114.064376 -203.622479 
L 115.774482 -205.619174 
L 118.522082 -207.615868 
L 121.060393 -209.612562 
L 122.365607 -211.609256 
L 122.28753 -213.60595 
L 121.551954 -215.602645 
L 121.173778 -217.599339 
L 121.719876 -219.596033 
L 122.930648 -221.592727 
L 123.943009 -223.589421 
L 123.941028 -225.586116 
L 122.777822 -227.58281 
L 121.145372 -229.579504 
L 120.181879 -231.576198 
L 120.789129 -233.572893 
L 123.124481 -235.569587 
L 126.585419 -237.566281 
L 130.22914 -239.562975 
L 133.279995 -241.559669 
L 135.399613 -243.556364 
L 140.000387 -243.556364 
L 140.000387 -243.556364 
L 142.120005 -241.559669 
L 145.17086 -239.562975 
L 148.814581 -237.566281 
L 152.275519 -235.569587 
L 154.610871 -233.572893 
L 155.218121 -231.576198 
L 154.254628 -229.579504 
L 152.622178 -227.58281 
L 151.458972 -225.586116 
L 151.456991 -223.589421 
L 152.469352 -221.592727 
L 153.680124 -219.596033 
L 154.226222 -217.599339 
L 153.848046 -215.602645 
L 153.11247 -213.60595 
L 153.034393 -211.609256 
L 154.339607 -209.612562 
L 156.877918 -207.615868 
L 159.625518 -205.619174 
L 161.335624 -203.622479 
L 161.43148 -201.625785 
L 160.507612 -199.629091 
L 160.023559 -197.632397 
L 161.3284 -195.635702 
L 164.655399 -193.639008 
L 168.807218 -191.642314 
L 171.829152 -189.64562 
L 172.285673 -187.648926 
L 170.274418 -185.652231 
L 167.430019 -183.655537 
L 165.865117 -181.658843 
L 166.760266 -179.662149 
L 169.57279 -177.665455 
L 172.415007 -175.66876 
L 173.356639 -173.672066 
L 171.763342 -171.675372 
L 168.739705 -169.678678 
L 166.364108 -167.681983 
L 166.251992 -165.685289 
L 168.443757 -163.688595 
L 171.375449 -161.691901 
L 172.947081 -159.695207 
L 171.954165 -157.698512 
L 168.893498 -155.701818 
L 165.592307 -153.705124 
L 163.941943 -151.70843 
L 164.629117 -149.711736 
L 166.721731 -147.715041 
L 168.354985 -145.718347 
L 168.017902 -143.721653 
L 165.549878 -141.724959 
L 162.181765 -139.728264 
L 159.640922 -137.73157 
L 158.98149 -135.734876 
L 159.941828 -133.738182 
L 161.220025 -131.741488 
L 161.42481 -129.744793 
L 160.02625 -127.748099 
L 157.66491 -125.751405 
L 155.645579 -123.754711 
L 155.007087 -121.758017 
L 155.822527 -119.761322 
L 157.188415 -117.764628 
L 157.877371 -115.767934 
L 157.186709 -113.77124 
L 155.397464 -111.774545 
L 153.542819 -109.777851 
L 152.672019 -107.781157 
L 153.133157 -105.784463 
L 154.358655 -103.787769 
L 155.2774 -101.791074 
L 155.053491 -99.79438 
L 153.639461 -97.797686 
L 151.773091 -95.800992 
L 150.444542 -93.804298 
L 150.22331 -91.807603 
L 150.905029 -89.810909 
L 151.69358 -87.814215 
L 151.766034 -85.817521 
L 150.8218 -83.820826 
L 149.247834 -81.824132 
L 147.813336 -79.827438 
L 147.133972 -77.830744 
L 147.281698 -75.83405 
L 147.785379 -73.837355 
L 147.988907 -71.840661 
L 147.502088 -69.843967 
L 146.43758 -67.847273 
L 145.292334 -65.850579 
L 144.582683 -63.853884 
L 144.4974 -61.85719 
L 144.793955 -59.860496 
L 144.980253 -57.863802 
L 144.634779 -55.867107 
L 143.644665 -53.870413 
L 142.223325 -51.873719 
L 140.737851 -49.877025 
L 139.496695 -47.880331 
L 138.634966 -45.883636 
z
" style="stroke: #7a7a7a; stroke-width: 1.5"/>
    </defs>
    <g clip-path="url(#pda7711b54c)">
     <use xlink:href="#m8cbfc7267f" x="0" y="288" style="fill: #f1bcb8; stroke: #7a7a7a; stroke-width: 1.5"/>
    </g>
   </g>
   <g id="PolyCollection_2">
    <defs>
     <path id="ma50c1b7abb" d="M 305.207458 -48.634004 
L 304.992542 -48.634004 
L 304.856344 -50.575135 
L 304.654047 -52.516266 
L 304.441002 -54.457397 
L 304.312755 -56.398528 
L 304.334942 -58.33966 
L 304.476603 -60.280791 
L 304.617414 -62.221922 
L 304.622715 -64.163053 
L 304.427173 -66.104185 
L 304.087211 -68.045316 
L 303.772745 -69.986447 
L 303.667479 -71.927578 
L 303.821891 -73.86871 
L 304.087385 -75.809841 
L 304.198376 -77.750972 
L 303.935001 -79.692103 
L 303.274772 -81.633235 
L 302.467782 -83.574366 
L 301.938995 -85.515497 
L 301.992949 -87.456628 
L 302.535388 -89.39776 
L 303.086097 -91.338891 
L 303.076095 -93.280022 
L 302.203293 -95.221153 
L 300.680421 -97.162285 
L 299.234503 -99.103416 
L 298.698225 -101.044547 
L 299.361778 -102.985678 
L 300.659171 -104.92681 
L 301.513916 -106.867941 
L 301.027101 -108.809072 
L 299.049305 -110.750203 
L 296.409919 -112.691335 
L 294.572157 -114.632466 
L 294.651232 -116.573597 
L 296.465505 -118.514728 
L 298.540008 -120.455859 
L 299.070575 -122.396991 
L 297.054404 -124.338122 
L 293.007695 -126.279253 
L 288.947618 -128.220384 
L 287.269352 -130.161516 
L 288.927423 -132.102647 
L 292.464761 -134.043778 
L 294.876413 -135.984909 
L 293.525035 -137.926041 
L 287.827294 -139.867172 
L 280.030707 -141.808303 
L 274.363522 -143.749434 
L 274.260361 -145.690566 
L 279.512885 -147.631697 
L 286.120961 -149.572828 
L 289.019814 -151.513959 
L 285.278018 -153.455091 
L 275.957764 -155.396222 
L 266.002383 -157.337353 
L 261.504361 -159.278484 
L 265.271628 -161.219616 
L 274.337518 -163.160747 
L 281.942227 -165.101878 
L 282.06576 -167.043009 
L 273.09776 -168.984141 
L 259.167288 -170.925272 
L 248.367981 -172.866403 
L 247.585016 -174.807534 
L 257.104722 -176.748665 
L 270.101212 -178.689797 
L 277.550444 -180.630928 
L 274.030887 -182.572059 
L 260.831719 -184.51319 
L 245.611094 -186.454322 
L 238.14 -188.395453 
L 243.506459 -190.336584 
L 258.164414 -192.277715 
L 272.838461 -194.218847 
L 279.265984 -196.159978 
L 274.965384 -198.101109 
L 263.999646 -200.04224 
L 254.445748 -201.983372 
L 253.34484 -203.924503 
L 261.814548 -205.865634 
L 274.557075 -207.806765 
L 284.238242 -209.747897 
L 286.430456 -211.689028 
L 281.62656 -213.630159 
L 274.352289 -215.57129 
L 270.3295 -217.512422 
L 272.739639 -219.453553 
L 280.062014 -221.394684 
L 287.465527 -223.335815 
L 290.364009 -225.276947 
L 287.174991 -227.218078 
L 280.065807 -229.159209 
L 273.781942 -231.10034 
L 272.744475 -233.041472 
L 277.993597 -234.982603 
L 286.753766 -236.923734 
L 295.075804 -238.864865 
L 300.679054 -240.805996 
L 309.520946 -240.805996 
L 309.520946 -240.805996 
L 315.124196 -238.864865 
L 323.446234 -236.923734 
L 332.206403 -234.982603 
L 337.455525 -233.041472 
L 336.418058 -231.10034 
L 330.134193 -229.159209 
L 323.025009 -227.218078 
L 319.835991 -225.276947 
L 322.734473 -223.335815 
L 330.137986 -221.394684 
L 337.460361 -219.453553 
L 339.8705 -217.512422 
L 335.847711 -215.57129 
L 328.57344 -213.630159 
L 323.769544 -211.689028 
L 325.961758 -209.747897 
L 335.642925 -207.806765 
L 348.385452 -205.865634 
L 356.85516 -203.924503 
L 355.754252 -201.983372 
L 346.200354 -200.04224 
L 335.234616 -198.101109 
L 330.934016 -196.159978 
L 337.361539 -194.218847 
L 352.035586 -192.277715 
L 366.693541 -190.336584 
L 372.06 -188.395453 
L 364.588906 -186.454322 
L 349.368281 -184.51319 
L 336.169113 -182.572059 
L 332.649556 -180.630928 
L 340.098788 -178.689797 
L 353.095278 -176.748665 
L 362.614984 -174.807534 
L 361.832019 -172.866403 
L 351.032712 -170.925272 
L 337.10224 -168.984141 
L 328.13424 -167.043009 
L 328.257773 -165.101878 
L 335.862482 -163.160747 
L 344.928372 -161.219616 
L 348.695639 -159.278484 
L 344.197617 -157.337353 
L 334.242236 -155.396222 
L 324.921982 -153.455091 
L 321.180186 -151.513959 
L 324.079039 -149.572828 
L 330.687115 -147.631697 
L 335.939639 -145.690566 
L 335.836478 -143.749434 
L 330.169293 -141.808303 
L 322.372706 -139.867172 
L 316.674965 -137.926041 
L 315.323587 -135.984909 
L 317.735239 -134.043778 
L 321.272577 -132.102647 
L 322.930648 -130.161516 
L 321.252382 -128.220384 
L 317.192305 -126.279253 
L 313.145596 -124.338122 
L 311.129425 -122.396991 
L 311.659992 -120.455859 
L 313.734495 -118.514728 
L 315.548768 -116.573597 
L 315.627843 -114.632466 
L 313.790081 -112.691335 
L 311.150695 -110.750203 
L 309.172899 -108.809072 
L 308.686084 -106.867941 
L 309.540829 -104.92681 
L 310.838222 -102.985678 
L 311.501775 -101.044547 
L 310.965497 -99.103416 
L 309.519579 -97.162285 
L 307.996707 -95.221153 
L 307.123905 -93.280022 
L 307.113903 -91.338891 
L 307.664612 -89.39776 
L 308.207051 -87.456628 
L 308.261005 -85.515497 
L 307.732218 -83.574366 
L 306.925228 -81.633235 
L 306.264999 -79.692103 
L 306.001624 -77.750972 
L 306.112615 -75.809841 
L 306.378109 -73.86871 
L 306.532521 -71.927578 
L 306.427255 -69.986447 
L 306.112789 -68.045316 
L 305.772827 -66.104185 
L 305.577285 -64.163053 
L 305.582586 -62.221922 
L 305.723397 -60.280791 
L 305.865058 -58.33966 
L 305.887245 -56.398528 
L 305.758998 -54.457397 
L 305.545953 -52.516266 
L 305.343656 -50.575135 
L 305.207458 -48.634004 
z
" style="stroke: #7a7a7a; stroke-width: 1.5"/>
    </defs>
    <g clip-path="url(#pda7711b54c)">
     <use xlink:href="#ma50c1b7abb" x="0" y="288" style="fill: #b9ccdd; stroke: #7a7a7a; stroke-width: 1.5"/>
    </g>
   </g>
   <g id="matplotlib.axis_1">
    <g id="xtick_1">
     <g id="line2d_1">
      <defs>
       <path id="m3922983ed1" d="M 0 0 
L 0 3.5 
" style="stroke: #000000; stroke-width: 0.8"/>
      </defs>
      <g>
       <use xlink:href="#m3922983ed1" x="137.7" y="252" style="stroke: #000000; stroke-width: 0.8"/>
      </g>
     </g>
     <g id="text_1">
      <!-- 0.0 -->
      <g transform="translate(129.748437 266.598437)scale(0.1 -0.1)">
       <defs>
        <path id="DejaVuSans-30" d="M 2034 4250 
Q 1547 4250 1301 3770 
Q 1056 3291 1056 2328 
Q 1056 1369 1301 889 
Q 1547 409 2034 409 
Q 2525 409 2770 889 
Q 3016 1369 3016 2328 
Q 3016 3291 2770 3770 
Q 2525 4250 2034 4250 
z
M 2034 4750 
Q 2819 4750 3233 4129 
Q 3647 3509 3647 2328 
Q 3647 1150 3233 529 
Q 2819 -91 2034 -91 
Q 1250 -91 836 529 
Q 422 1150 422 2328 
Q 422 3509 836 4129 
Q 1250 4750 2034 4750 
z
" transform="scale(0.015625)"/>
        <path id="DejaVuSans-2e" d="M 684 794 
L 1344 794 
L 1344 0 
L 684 0 
L 684 794 
z
" transform="scale(0.015625)"/>
       </defs>
       <use xlink:href="#DejaVuSans-30"/>
       <use xlink:href="#DejaVuSans-2e" x="63.623047"/>
       <use xlink:href="#DejaVuSans-30" x="95.410156"/>
      </g>
     </g>
    </g>
    <g id="xtick_2">
     <g id="line2d_2">
      <g>
       <use xlink:href="#m3922983ed1" x="305.1" y="252" style="stroke: #000000; stroke-width: 0.8"/>
      </g>
     </g>
     <g id="text_2">
      <!-- 1.0 -->
      <g transform="translate(297.148438 266.598437)scale(0.1 -0.1)">
       <defs>
        <path id="DejaVuSans-31" d="M 794 531 
L 1825 531 
L 1825 4091 
L 703 3866 
L 703 4441 
L 1819 4666 
L 2450 4666 
L 2450 531 
L 3481 531 
L 3481 0 
L 794 0 
L 794 531 
z
" transform="scale(0.015625)"/>
       </defs>
       <use xlink:href="#DejaVuSans-31"/>
       <use xlink:href="#DejaVuSans-2e" x="63.623047"/>
       <use xlink:href="#DejaVuSans-30" x="95.410156"/>
      </g>
     </g>
    </g>
    <g id="text_3">
     <!-- Diabetes_binary -->
     <g transform="translate(180.89375 280.276563)scale(0.1 -0.1)">
      <defs>
       <path id="DejaVuSans-44" d="M 1259 4147 
L 1259 519 
L 2022 519 
Q 2988 519 3436 956 
Q 3884 1394 3884 2338 
Q 3884 3275 3436 3711 
Q 2988 4147 2022 4147 
L 1259 4147 
z
M 628 4666 
L 1925 4666 
Q 3281 4666 3915 4102 
Q 4550 3538 4550 2338 
Q 4550 1131 3912 565 
Q 3275 0 1925 0 
L 628 0 
L 628 4666 
z
" transform="scale(0.015625)"/>
       <path id="DejaVuSans-69" d="M 603 3500 
L 1178 3500 
L 1178 0 
L 603 0 
L 603 3500 
z
M 603 4863 
L 1178 4863 
L 1178 4134 
L 603 4134 
L 603 4863 
z
" transform="scale(0.015625)"/>
       <path id="DejaVuSans-61" d="M 2194 1759 
Q 1497 1759 1228 1600 
Q 959 1441 959 1056 
Q 959 750 1161 570 
Q 1363 391 1709 391 
Q 2188 391 2477 730 
Q 2766 1069 2766 1631 
L 2766 1759 
L 2194 1759 
z
M 3341 1997 
L 3341 0 
L 2766 0 
L 2766 531 
Q 2569 213 2275 61 
Q 1981 -91 1556 -91 
Q 1019 -91 701 211 
Q 384 513 384 1019 
Q 384 1609 779 1909 
Q 1175 2209 1959 2209 
L 2766 2209 
L 2766 2266 
Q 2766 2663 2505 2880 
Q 2244 3097 1772 3097 
Q 1472 3097 1187 3025 
Q 903 2953 641 2809 
L 641 3341 
Q 956 3463 1253 3523 
Q 1550 3584 1831 3584 
Q 2591 3584 2966 3190 
Q 3341 2797 3341 1997 
z
" transform="scale(0.015625)"/>
       <path id="DejaVuSans-62" d="M 3116 1747 
Q 3116 2381 2855 2742 
Q 2594 3103 2138 3103 
Q 1681 3103 1420 2742 
Q 1159 2381 1159 1747 
Q 1159 1113 1420 752 
Q 1681 391 2138 391 
Q 2594 391 2855 752 
Q 3116 1113 3116 1747 
z
M 1159 2969 
Q 1341 3281 1617 3432 
Q 1894 3584 2278 3584 
Q 2916 3584 3314 3078 
Q 3713 2572 3713 1747 
Q 3713 922 3314 415 
Q 2916 -91 2278 -91 
Q 1894 -91 1617 61 
Q 1341 213 1159 525 
L 1159 0 
L 581 0 
L 581 4863 
L 1159 4863 
L 1159 2969 
z
" transform="scale(0.015625)"/>
       <path id="DejaVuSans-65" d="M 3597 1894 
L 3597 1613 
L 953 1613 
Q 991 1019 1311 708 
Q 1631 397 2203 397 
Q 2534 397 2845 478 
Q 3156 559 3463 722 
L 3463 178 
Q 3153 47 2828 -22 
Q 2503 -91 2169 -91 
Q 1331 -91 842 396 
Q 353 884 353 1716 
Q 353 2575 817 3079 
Q 1281 3584 2069 3584 
Q 2775 3584 3186 3129 
Q 3597 2675 3597 1894 
z
M 3022 2063 
Q 3016 2534 2758 2815 
Q 2500 3097 2075 3097 
Q 1594 3097 1305 2825 
Q 1016 2553 972 2059 
L 3022 2063 
z
" transform="scale(0.015625)"/>
       <path id="DejaVuSans-74" d="M 1172 4494 
L 1172 3500 
L 2356 3500 
L 2356 3053 
L 1172 3053 
L 1172 1153 
Q 1172 725 1289 603 
Q 1406 481 1766 481 
L 2356 481 
L 2356 0 
L 1766 0 
Q 1100 0 847 248 
Q 594 497 594 1153 
L 594 3053 
L 172 3053 
L 172 3500 
L 594 3500 
L 594 4494 
L 1172 4494 
z
" transform="scale(0.015625)"/>
       <path id="DejaVuSans-73" d="M 2834 3397 
L 2834 2853 
Q 2591 2978 2328 3040 
Q 2066 3103 1784 3103 
Q 1356 3103 1142 2972 
Q 928 2841 928 2578 
Q 928 2378 1081 2264 
Q 1234 2150 1697 2047 
L 1894 2003 
Q 2506 1872 2764 1633 
Q 3022 1394 3022 966 
Q 3022 478 2636 193 
Q 2250 -91 1575 -91 
Q 1294 -91 989 -36 
Q 684 19 347 128 
L 347 722 
Q 666 556 975 473 
Q 1284 391 1588 391 
Q 1994 391 2212 530 
Q 2431 669 2431 922 
Q 2431 1156 2273 1281 
Q 2116 1406 1581 1522 
L 1381 1569 
Q 847 1681 609 1914 
Q 372 2147 372 2553 
Q 372 3047 722 3315 
Q 1072 3584 1716 3584 
Q 2034 3584 2315 3537 
Q 2597 3491 2834 3397 
z
" transform="scale(0.015625)"/>
       <path id="DejaVuSans-5f" d="M 3263 -1063 
L 3263 -1509 
L -63 -1509 
L -63 -1063 
L 3263 -1063 
z
" transform="scale(0.015625)"/>
       <path id="DejaVuSans-6e" d="M 3513 2113 
L 3513 0 
L 2938 0 
L 2938 2094 
Q 2938 2591 2744 2837 
Q 2550 3084 2163 3084 
Q 1697 3084 1428 2787 
Q 1159 2491 1159 1978 
L 1159 0 
L 581 0 
L 581 3500 
L 1159 3500 
L 1159 2956 
Q 1366 3272 1645 3428 
Q 1925 3584 2291 3584 
Q 2894 3584 3203 3211 
Q 3513 2838 3513 2113 
z
" transform="scale(0.015625)"/>
       <path id="DejaVuSans-72" d="M 2631 2963 
Q 2534 3019 2420 3045 
Q 2306 3072 2169 3072 
Q 1681 3072 1420 2755 
Q 1159 2438 1159 1844 
L 1159 0 
L 581 0 
L 581 3500 
L 1159 3500 
L 1159 2956 
Q 1341 3275 1631 3429 
Q 1922 3584 2338 3584 
Q 2397 3584 2469 3576 
Q 2541 3569 2628 3553 
L 2631 2963 
z
" transform="scale(0.015625)"/>
       <path id="DejaVuSans-79" d="M 2059 -325 
Q 1816 -950 1584 -1140 
Q 1353 -1331 966 -1331 
L 506 -1331 
L 506 -850 
L 844 -850 
Q 1081 -850 1212 -737 
Q 1344 -625 1503 -206 
L 1606 56 
L 191 3500 
L 800 3500 
L 1894 763 
L 2988 3500 
L 3597 3500 
L 2059 -325 
z
" transform="scale(0.015625)"/>
      </defs>
      <use xlink:href="#DejaVuSans-44"/>
      <use xlink:href="#DejaVuSans-69" x="77.001953"/>
      <use xlink:href="#DejaVuSans-61" x="104.785156"/>
      <use xlink:href="#DejaVuSans-62" x="166.064453"/>
      <use xlink:href="#DejaVuSans-65" x="229.541016"/>
      <use xlink:href="#DejaVuSans-74" x="291.064453"/>
      <use xlink:href="#DejaVuSans-65" x="330.273438"/>
      <use xlink:href="#DejaVuSans-73" x="391.796875"/>
      <use xlink:href="#DejaVuSans-5f" x="443.896484"/>
      <use xlink:href="#DejaVuSans-62" x="493.896484"/>
      <use xlink:href="#DejaVuSans-69" x="557.373047"/>
      <use xlink:href="#DejaVuSans-6e" x="585.15625"/>
      <use xlink:href="#DejaVuSans-61" x="648.535156"/>
      <use xlink:href="#DejaVuSans-72" x="709.814453"/>
      <use xlink:href="#DejaVuSans-79" x="750.927734"/>
     </g>
    </g>
   </g>
   <g id="matplotlib.axis_2">
    <g id="ytick_1">
     <g id="line2d_3">
      <defs>
       <path id="m9e23af7234" d="M 0 0 
L -3.5 0 
" style="stroke: #000000; stroke-width: 0.8"/>
      </defs>
      <g>
       <use xlink:href="#m9e23af7234" x="54" y="245.595383" style="stroke: #000000; stroke-width: 0.8"/>
      </g>
     </g>
     <g id="text_4">
      <!-- 0 -->
      <g transform="translate(40.6375 249.394602)scale(0.1 -0.1)">
       <use xlink:href="#DejaVuSans-30"/>
      </g>
     </g>
    </g>
    <g id="ytick_2">
     <g id="line2d_4">
      <g>
       <use xlink:href="#m9e23af7234" x="54" y="216.362416" style="stroke: #000000; stroke-width: 0.8"/>
      </g>
     </g>
     <g id="text_5">
      <!-- 2 -->
      <g transform="translate(40.6375 220.161635)scale(0.1 -0.1)">
       <defs>
        <path id="DejaVuSans-32" d="M 1228 531 
L 3431 531 
L 3431 0 
L 469 0 
L 469 531 
Q 828 903 1448 1529 
Q 2069 2156 2228 2338 
Q 2531 2678 2651 2914 
Q 2772 3150 2772 3378 
Q 2772 3750 2511 3984 
Q 2250 4219 1831 4219 
Q 1534 4219 1204 4116 
Q 875 4013 500 3803 
L 500 4441 
Q 881 4594 1212 4672 
Q 1544 4750 1819 4750 
Q 2544 4750 2975 4387 
Q 3406 4025 3406 3419 
Q 3406 3131 3298 2873 
Q 3191 2616 2906 2266 
Q 2828 2175 2409 1742 
Q 1991 1309 1228 531 
z
" transform="scale(0.015625)"/>
       </defs>
       <use xlink:href="#DejaVuSans-32"/>
      </g>
     </g>
    </g>
    <g id="ytick_3">
     <g id="line2d_5">
      <g>
       <use xlink:href="#m9e23af7234" x="54" y="187.12945" style="stroke: #000000; stroke-width: 0.8"/>
      </g>
     </g>
     <g id="text_6">
      <!-- 4 -->
      <g transform="translate(40.6375 190.928669)scale(0.1 -0.1)">
       <defs>
        <path id="DejaVuSans-34" d="M 2419 4116 
L 825 1625 
L 2419 1625 
L 2419 4116 
z
M 2253 4666 
L 3047 4666 
L 3047 1625 
L 3713 1625 
L 3713 1100 
L 3047 1100 
L 3047 0 
L 2419 0 
L 2419 1100 
L 313 1100 
L 313 1709 
L 2253 4666 
z
" transform="scale(0.015625)"/>
       </defs>
       <use xlink:href="#DejaVuSans-34"/>
      </g>
     </g>
    </g>
    <g id="ytick_4">
     <g id="line2d_6">
      <g>
       <use xlink:href="#m9e23af7234" x="54" y="157.896483" style="stroke: #000000; stroke-width: 0.8"/>
      </g>
     </g>
     <g id="text_7">
      <!-- 6 -->
      <g transform="translate(40.6375 161.695702)scale(0.1 -0.1)">
       <defs>
        <path id="DejaVuSans-36" d="M 2113 2584 
Q 1688 2584 1439 2293 
Q 1191 2003 1191 1497 
Q 1191 994 1439 701 
Q 1688 409 2113 409 
Q 2538 409 2786 701 
Q 3034 994 3034 1497 
Q 3034 2003 2786 2293 
Q 2538 2584 2113 2584 
z
M 3366 4563 
L 3366 3988 
Q 3128 4100 2886 4159 
Q 2644 4219 2406 4219 
Q 1781 4219 1451 3797 
Q 1122 3375 1075 2522 
Q 1259 2794 1537 2939 
Q 1816 3084 2150 3084 
Q 2853 3084 3261 2657 
Q 3669 2231 3669 1497 
Q 3669 778 3244 343 
Q 2819 -91 2113 -91 
Q 1303 -91 875 529 
Q 447 1150 447 2328 
Q 447 3434 972 4092 
Q 1497 4750 2381 4750 
Q 2619 4750 2861 4703 
Q 3103 4656 3366 4563 
z
" transform="scale(0.015625)"/>
       </defs>
       <use xlink:href="#DejaVuSans-36"/>
      </g>
     </g>
    </g>
    <g id="ytick_5">
     <g id="line2d_7">
      <g>
       <use xlink:href="#m9e23af7234" x="54" y="128.663517" style="stroke: #000000; stroke-width: 0.8"/>
      </g>
     </g>
     <g id="text_8">
      <!-- 8 -->
      <g transform="translate(40.6375 132.462735)scale(0.1 -0.1)">
       <defs>
        <path id="DejaVuSans-38" d="M 2034 2216 
Q 1584 2216 1326 1975 
Q 1069 1734 1069 1313 
Q 1069 891 1326 650 
Q 1584 409 2034 409 
Q 2484 409 2743 651 
Q 3003 894 3003 1313 
Q 3003 1734 2745 1975 
Q 2488 2216 2034 2216 
z
M 1403 2484 
Q 997 2584 770 2862 
Q 544 3141 544 3541 
Q 544 4100 942 4425 
Q 1341 4750 2034 4750 
Q 2731 4750 3128 4425 
Q 3525 4100 3525 3541 
Q 3525 3141 3298 2862 
Q 3072 2584 2669 2484 
Q 3125 2378 3379 2068 
Q 3634 1759 3634 1313 
Q 3634 634 3220 271 
Q 2806 -91 2034 -91 
Q 1263 -91 848 271 
Q 434 634 434 1313 
Q 434 1759 690 2068 
Q 947 2378 1403 2484 
z
M 1172 3481 
Q 1172 3119 1398 2916 
Q 1625 2713 2034 2713 
Q 2441 2713 2670 2916 
Q 2900 3119 2900 3481 
Q 2900 3844 2670 4047 
Q 2441 4250 2034 4250 
Q 1625 4250 1398 4047 
Q 1172 3844 1172 3481 
z
" transform="scale(0.015625)"/>
       </defs>
       <use xlink:href="#DejaVuSans-38"/>
      </g>
     </g>
    </g>
    <g id="ytick_6">
     <g id="line2d_8">
      <g>
       <use xlink:href="#m9e23af7234" x="54" y="99.43055" style="stroke: #000000; stroke-width: 0.8"/>
      </g>
     </g>
     <g id="text_9">
      <!-- 10 -->
      <g transform="translate(34.275 103.229769)scale(0.1 -0.1)">
       <use xlink:href="#DejaVuSans-31"/>
       <use xlink:href="#DejaVuSans-30" x="63.623047"/>
      </g>
     </g>
    </g>
    <g id="ytick_7">
     <g id="line2d_9">
      <g>
       <use xlink:href="#m9e23af7234" x="54" y="70.197584" style="stroke: #000000; stroke-width: 0.8"/>
      </g>
     </g>
     <g id="text_10">
      <!-- 12 -->
      <g transform="translate(34.275 73.996802)scale(0.1 -0.1)">
       <use xlink:href="#DejaVuSans-31"/>
       <use xlink:href="#DejaVuSans-32" x="63.623047"/>
      </g>
     </g>
    </g>
    <g id="ytick_8">
     <g id="line2d_10">
      <g>
       <use xlink:href="#m9e23af7234" x="54" y="40.964617" style="stroke: #000000; stroke-width: 0.8"/>
      </g>
     </g>
     <g id="text_11">
      <!-- 14 -->
      <g transform="translate(34.275 44.763836)scale(0.1 -0.1)">
       <use xlink:href="#DejaVuSans-31"/>
       <use xlink:href="#DejaVuSans-34" x="63.623047"/>
      </g>
     </g>
    </g>
    <g id="text_12">
     <!-- Age -->
     <g transform="translate(28.195312 152.951094)rotate(-90)scale(0.1 -0.1)">
      <defs>
       <path id="DejaVuSans-41" d="M 2188 4044 
L 1331 1722 
L 3047 1722 
L 2188 4044 
z
M 1831 4666 
L 2547 4666 
L 4325 0 
L 3669 0 
L 3244 1197 
L 1141 1197 
L 716 0 
L 50 0 
L 1831 4666 
z
" transform="scale(0.015625)"/>
       <path id="DejaVuSans-67" d="M 2906 1791 
Q 2906 2416 2648 2759 
Q 2391 3103 1925 3103 
Q 1463 3103 1205 2759 
Q 947 2416 947 1791 
Q 947 1169 1205 825 
Q 1463 481 1925 481 
Q 2391 481 2648 825 
Q 2906 1169 2906 1791 
z
M 3481 434 
Q 3481 -459 3084 -895 
Q 2688 -1331 1869 -1331 
Q 1566 -1331 1297 -1286 
Q 1028 -1241 775 -1147 
L 775 -588 
Q 1028 -725 1275 -790 
Q 1522 -856 1778 -856 
Q 2344 -856 2625 -561 
Q 2906 -266 2906 331 
L 2906 616 
Q 2728 306 2450 153 
Q 2172 0 1784 0 
Q 1141 0 747 490 
Q 353 981 353 1791 
Q 353 2603 747 3093 
Q 1141 3584 1784 3584 
Q 2172 3584 2450 3431 
Q 2728 3278 2906 2969 
L 2906 3500 
L 3481 3500 
L 3481 434 
z
" transform="scale(0.015625)"/>
      </defs>
      <use xlink:href="#DejaVuSans-41"/>
      <use xlink:href="#DejaVuSans-67" x="68.408203"/>
      <use xlink:href="#DejaVuSans-65" x="131.884766"/>
     </g>
    </g>
   </g>
   <g id="line2d_11">
    <path d="M 137.7 230.9789 
L 137.7 55.5811 
" clip-path="url(#pda7711b54c)" style="fill: none; stroke: #7a7a7a; stroke-width: 1.5; stroke-linecap: square"/>
   </g>
   <g id="line2d_12">
    <path d="M 137.7 157.896483 
L 137.7 99.43055 
" clip-path="url(#pda7711b54c)" style="fill: none; stroke: #7a7a7a; stroke-width: 4.5; stroke-linecap: square"/>
   </g>
   <g id="line2d_13">
    <path d="M 305.1 187.12945 
L 305.1 55.5811 
" clip-path="url(#pda7711b54c)" style="fill: none; stroke: #7a7a7a; stroke-width: 1.5; stroke-linecap: square"/>
   </g>
   <g id="line2d_14">
    <path d="M 305.1 128.663517 
L 305.1 84.814067 
" clip-path="url(#pda7711b54c)" style="fill: none; stroke: #7a7a7a; stroke-width: 4.5; stroke-linecap: square"/>
   </g>
   <g id="patch_3">
    <path d="M 54 252 
L 54 34.56 
" style="fill: none; stroke: #000000; stroke-width: 0.8; stroke-linejoin: miter; stroke-linecap: square"/>
   </g>
   <g id="patch_4">
    <path d="M 388.8 252 
L 388.8 34.56 
" style="fill: none; stroke: #000000; stroke-width: 0.8; stroke-linejoin: miter; stroke-linecap: square"/>
   </g>
   <g id="patch_5">
    <path d="M 54 252 
L 388.8 252 
" style="fill: none; stroke: #000000; stroke-width: 0.8; stroke-linejoin: miter; stroke-linecap: square"/>
   </g>
   <g id="patch_6">
    <path d="M 54 34.56 
L 388.8 34.56 
" style="fill: none; stroke: #000000; stroke-width: 0.8; stroke-linejoin: miter; stroke-linecap: square"/>
   </g>
   <g id="PathCollection_1">
    <defs>
     <path id="m1fd7886559" d="M 0 1.5 
C 0.397805 1.5 0.77937 1.341951 1.06066 1.06066 
C 1.341951 0.77937 1.5 0.397805 1.5 0 
C 1.5 -0.397805 1.341951 -0.77937 1.06066 -1.06066 
C 0.77937 -1.341951 0.397805 -1.5 0 -1.5 
C -0.397805 -1.5 -0.77937 -1.341951 -1.06066 -1.06066 
C -1.341951 -0.77937 -1.5 -0.397805 -1.5 0 
C -1.5 0.397805 -1.341951 0.77937 -1.06066 1.06066 
C -0.77937 1.341951 -0.397805 1.5 0 1.5 
z
" style="stroke: #7a7a7a"/>
    </defs>
    <g clip-path="url(#pda7711b54c)">
     <use xlink:href="#m1fd7886559" x="137.7" y="128.663517" style="fill: #ffffff; stroke: #7a7a7a"/>
    </g>
   </g>
   <g id="PathCollection_2">
    <g clip-path="url(#pda7711b54c)">
     <use xlink:href="#m1fd7886559" x="305.1" y="99.43055" style="fill: #ffffff; stroke: #7a7a7a"/>
    </g>
   </g>
  </g>
 </g>
 <defs>
  <clipPath id="pda7711b54c">
   <rect x="54" y="34.56" width="334.8" height="217.44"/>
  </clipPath>
 </defs>
</svg>
