<?xml version="1.0" encoding="utf-8" standalone="no"?>
<!DOCTYPE svg PUBLIC "-//W3C//DTD SVG 1.1//EN"
  "http://www.w3.org/Graphics/SVG/1.1/DTD/svg11.dtd">
<svg xmlns:xlink="http://www.w3.org/1999/xlink" width="432pt" height="288pt" viewBox="0 0 432 288" xmlns="http://www.w3.org/2000/svg" version="1.1">
 <metadata>
  <rdf:RDF xmlns:dc="http://purl.org/dc/elements/1.1/" xmlns:cc="http://creativecommons.org/ns#" xmlns:rdf="http://www.w3.org/1999/02/22-rdf-syntax-ns#">
   <cc:Work>
    <dc:type rdf:resource="http://purl.org/dc/dcmitype/StillImage"/>
    <dc:date>2023-05-03T02:46:54.240044</dc:date>
    <dc:format>image/svg+xml</dc:format>
    <dc:creator>
     <cc:Agent>
      <dc:title>Matplotlib v3.5.3, https://matplotlib.org/</dc:title>
     </cc:Agent>
    </dc:creator>
   </cc:Work>
  </rdf:RDF>
 </metadata>
 <defs>
  <style type="text/css">*{stroke-linejoin: round; stroke-linecap: butt}</style>
 </defs>
 <g id="figure_1">
  <g id="patch_1">
   <path d="M 0 288 
L 432 288 
L 432 0 
L 0 0 
L 0 288 
z
" style="fill: none"/>
  </g>
  <g id="axes_1">
   <g id="patch_2">
    <path d="M 54 252 
L 388.8 252 
L 388.8 34.56 
L 54 34.56 
z
" style="fill: #ffffff"/>
   </g>
   <g id="PolyCollection_1">
    <defs>
     <path id="m37d7601e2d" d="M 138.131037 -45.883636 
L 137.268963 -45.883636 
L 136.789651 -47.880331 
L 136.084711 -49.877025 
L 135.292088 -51.873719 
L 134.684362 -53.870413 
L 134.52703 -55.867107 
L 134.895205 -57.863802 
L 135.617023 -59.860496 
L 136.400381 -61.85719 
L 137.018767 -63.853884 
L 137.399998 -65.850579 
L 137.589006 -67.847273 
L 137.6655 -69.843967 
L 137.690991 -71.840661 
L 137.698023 -73.837355 
L 137.699636 -75.83405 
L 137.699944 -77.830744 
L 137.699993 -79.827438 
L 137.699999 -81.824132 
L 137.7 -83.820826 
L 137.7 -85.817521 
L 137.7 -87.814215 
L 137.7 -89.810909 
L 137.7 -91.807603 
L 137.7 -93.804298 
L 137.7 -95.800992 
L 137.7 -97.797686 
L 137.7 -99.79438 
L 137.7 -101.791074 
L 137.7 -103.787769 
L 137.7 -105.784463 
L 137.7 -107.781157 
L 137.7 -109.777851 
L 137.7 -111.774545 
L 137.7 -113.77124 
L 137.7 -115.767934 
L 137.7 -117.764628 
L 137.7 -119.761322 
L 137.7 -121.758017 
L 137.7 -123.754711 
L 137.7 -125.751405 
L 137.7 -127.748099 
L 137.7 -129.744793 
L 137.7 -131.741488 
L 137.7 -133.738182 
L 137.7 -135.734876 
L 137.7 -137.73157 
L 137.7 -139.728264 
L 137.7 -141.724959 
L 137.7 -143.721653 
L 137.7 -145.718347 
L 137.7 -147.715041 
L 137.7 -149.711736 
L 137.7 -151.70843 
L 137.7 -153.705124 
L 137.7 -155.701818 
L 137.7 -157.698512 
L 137.7 -159.695207 
L 137.7 -161.691901 
L 137.7 -163.688595 
L 137.7 -165.685289 
L 137.7 -167.681983 
L 137.7 -169.678678 
L 137.7 -171.675372 
L 137.7 -173.672066 
L 137.7 -175.66876 
L 137.7 -177.665455 
L 137.7 -179.662149 
L 137.7 -181.658843 
L 137.7 -183.655537 
L 137.7 -185.652231 
L 137.7 -187.648926 
L 137.7 -189.64562 
L 137.7 -191.642314 
L 137.7 -193.639008 
L 137.7 -195.635702 
L 137.7 -197.632397 
L 137.7 -199.629091 
L 137.7 -201.625785 
L 137.7 -203.622479 
L 137.699999 -205.619174 
L 137.699985 -207.615868 
L 137.69986 -209.612562 
L 137.698925 -211.609256 
L 137.693056 -213.60595 
L 137.662326 -215.602645 
L 137.528279 -217.599339 
L 137.042416 -219.596033 
L 135.584433 -221.592727 
L 131.981917 -223.589421 
L 124.715585 -225.586116 
L 112.929056 -227.58281 
L 97.998129 -229.579504 
L 84.240163 -231.576198 
L 77.22268 -233.572893 
L 80.221465 -235.569587 
L 91.804818 -237.566281 
L 106.912336 -239.562975 
L 120.348595 -241.559669 
L 129.484372 -243.556364 
L 145.915628 -243.556364 
L 145.915628 -243.556364 
L 155.051405 -241.559669 
L 168.487664 -239.562975 
L 183.595182 -237.566281 
L 195.178535 -235.569587 
L 198.17732 -233.572893 
L 191.159837 -231.576198 
L 177.401871 -229.579504 
L 162.470944 -227.58281 
L 150.684415 -225.586116 
L 143.418083 -223.589421 
L 139.815567 -221.592727 
L 138.357584 -219.596033 
L 137.871721 -217.599339 
L 137.737674 -215.602645 
L 137.706944 -213.60595 
L 137.701075 -211.609256 
L 137.70014 -209.612562 
L 137.700015 -207.615868 
L 137.700001 -205.619174 
L 137.7 -203.622479 
L 137.7 -201.625785 
L 137.7 -199.629091 
L 137.7 -197.632397 
L 137.7 -195.635702 
L 137.7 -193.639008 
L 137.7 -191.642314 
L 137.7 -189.64562 
L 137.7 -187.648926 
L 137.7 -185.652231 
L 137.7 -183.655537 
L 137.7 -181.658843 
L 137.7 -179.662149 
L 137.7 -177.665455 
L 137.7 -175.66876 
L 137.7 -173.672066 
L 137.7 -171.675372 
L 137.7 -169.678678 
L 137.7 -167.681983 
L 137.7 -165.685289 
L 137.7 -163.688595 
L 137.7 -161.691901 
L 137.7 -159.695207 
L 137.7 -157.698512 
L 137.7 -155.701818 
L 137.7 -153.705124 
L 137.7 -151.70843 
L 137.7 -149.711736 
L 137.7 -147.715041 
L 137.7 -145.718347 
L 137.7 -143.721653 
L 137.7 -141.724959 
L 137.7 -139.728264 
L 137.7 -137.73157 
L 137.7 -135.734876 
L 137.7 -133.738182 
L 137.7 -131.741488 
L 137.7 -129.744793 
L 137.7 -127.748099 
L 137.7 -125.751405 
L 137.7 -123.754711 
L 137.7 -121.758017 
L 137.7 -119.761322 
L 137.7 -117.764628 
L 137.7 -115.767934 
L 137.7 -113.77124 
L 137.7 -111.774545 
L 137.7 -109.777851 
L 137.7 -107.781157 
L 137.7 -105.784463 
L 137.7 -103.787769 
L 137.7 -101.791074 
L 137.7 -99.79438 
L 137.7 -97.797686 
L 137.7 -95.800992 
L 137.7 -93.804298 
L 137.7 -91.807603 
L 137.7 -89.810909 
L 137.7 -87.814215 
L 137.7 -85.817521 
L 137.7 -83.820826 
L 137.700001 -81.824132 
L 137.700007 -79.827438 
L 137.700056 -77.830744 
L 137.700364 -75.83405 
L 137.701977 -73.837355 
L 137.709009 -71.840661 
L 137.7345 -69.843967 
L 137.810994 -67.847273 
L 138.000002 -65.850579 
L 138.381233 -63.853884 
L 138.999619 -61.85719 
L 139.782977 -59.860496 
L 140.504795 -57.863802 
L 140.87297 -55.867107 
L 140.715638 -53.870413 
L 140.107912 -51.873719 
L 139.315289 -49.877025 
L 138.610349 -47.880331 
L 138.131037 -45.883636 
z
" style="stroke: #7a7a7a; stroke-width: 1.5"/>
    </defs>
    <g clip-path="url(#pb61ef6f853)">
     <use xlink:href="#m37d7601e2d" x="0" y="288" style="fill: #f1bcb8; stroke: #7a7a7a; stroke-width: 1.5"/>
    </g>
   </g>
   <g id="PolyCollection_2">
    <defs>
     <path id="m9459780e4a" d="M 305.485278 -46.812805 
L 304.714722 -46.812805 
L 304.233082 -48.790728 
L 303.51832 -50.768651 
L 302.760111 -52.746574 
L 302.293222 -54.724497 
L 302.370037 -56.702421 
L 302.947012 -58.680344 
L 303.723227 -60.658267 
L 304.38613 -62.63619 
L 304.799868 -64.614113 
L 304.997684 -66.592036 
L 305.071718 -68.569959 
L 305.093661 -70.547882 
L 305.098848 -72.525806 
L 305.09983 -74.503729 
L 305.09998 -76.481652 
L 305.099998 -78.459575 
L 305.1 -80.437498 
L 305.1 -82.415421 
L 305.1 -84.393344 
L 305.1 -86.371268 
L 305.1 -88.349191 
L 305.1 -90.327114 
L 305.1 -92.305037 
L 305.1 -94.28296 
L 305.1 -96.260883 
L 305.1 -98.238806 
L 305.1 -100.216729 
L 305.1 -102.194653 
L 305.1 -104.172576 
L 305.1 -106.150499 
L 305.1 -108.128422 
L 305.1 -110.106345 
L 305.1 -112.084268 
L 305.1 -114.062191 
L 305.1 -116.040115 
L 305.1 -118.018038 
L 305.1 -119.995961 
L 305.1 -121.973884 
L 305.1 -123.951807 
L 305.1 -125.92973 
L 305.1 -127.907653 
L 305.1 -129.885576 
L 305.1 -131.8635 
L 305.1 -133.841423 
L 305.1 -135.819346 
L 305.1 -137.797269 
L 305.1 -139.775192 
L 305.1 -141.753115 
L 305.1 -143.731038 
L 305.1 -145.708962 
L 305.1 -147.686885 
L 305.1 -149.664808 
L 305.1 -151.642731 
L 305.1 -153.620654 
L 305.1 -155.598577 
L 305.1 -157.5765 
L 305.1 -159.554424 
L 305.1 -161.532347 
L 305.1 -163.51027 
L 305.1 -165.488193 
L 305.1 -167.466116 
L 305.1 -169.444039 
L 305.1 -171.421962 
L 305.1 -173.399885 
L 305.1 -175.377809 
L 305.1 -177.355732 
L 305.1 -179.333655 
L 305.1 -181.311578 
L 305.1 -183.289501 
L 305.1 -185.267424 
L 305.1 -187.245347 
L 305.1 -189.223271 
L 305.1 -191.201194 
L 305.1 -193.179117 
L 305.1 -195.15704 
L 305.1 -197.134963 
L 305.1 -199.112886 
L 305.1 -201.090809 
L 305.1 -203.068732 
L 305.1 -205.046656 
L 305.1 -207.024579 
L 305.099996 -209.002502 
L 305.099953 -210.980425 
L 305.099516 -212.958348 
L 305.09595 -214.936271 
L 305.072518 -216.914194 
L 304.948778 -218.892118 
L 304.425295 -220.870041 
L 302.659106 -222.847964 
L 297.939887 -224.825887 
L 288.069522 -226.80381 
L 272.254954 -228.781733 
L 253.737165 -230.759656 
L 239.972534 -232.737579 
L 238.14 -234.715503 
L 249.278335 -236.693426 
L 267.366577 -238.671349 
L 284.418326 -240.649272 
L 295.908609 -242.627195 
L 314.291391 -242.627195 
L 314.291391 -242.627195 
L 325.781674 -240.649272 
L 342.833423 -238.671349 
L 360.921665 -236.693426 
L 372.06 -234.715503 
L 370.227466 -232.737579 
L 356.462835 -230.759656 
L 337.945046 -228.781733 
L 322.130478 -226.80381 
L 312.260113 -224.825887 
L 307.540894 -222.847964 
L 305.774705 -220.870041 
L 305.251222 -218.892118 
L 305.127482 -216.914194 
L 305.10405 -214.936271 
L 305.100484 -212.958348 
L 305.100047 -210.980425 
L 305.100004 -209.002502 
L 305.1 -207.024579 
L 305.1 -205.046656 
L 305.1 -203.068732 
L 305.1 -201.090809 
L 305.1 -199.112886 
L 305.1 -197.134963 
L 305.1 -195.15704 
L 305.1 -193.179117 
L 305.1 -191.201194 
L 305.1 -189.223271 
L 305.1 -187.245347 
L 305.1 -185.267424 
L 305.1 -183.289501 
L 305.1 -181.311578 
L 305.1 -179.333655 
L 305.1 -177.355732 
L 305.1 -175.377809 
L 305.1 -173.399885 
L 305.1 -171.421962 
L 305.1 -169.444039 
L 305.1 -167.466116 
L 305.1 -165.488193 
L 305.1 -163.51027 
L 305.1 -161.532347 
L 305.1 -159.554424 
L 305.1 -157.5765 
L 305.1 -155.598577 
L 305.1 -153.620654 
L 305.1 -151.642731 
L 305.1 -149.664808 
L 305.1 -147.686885 
L 305.1 -145.708962 
L 305.1 -143.731038 
L 305.1 -141.753115 
L 305.1 -139.775192 
L 305.1 -137.797269 
L 305.1 -135.819346 
L 305.1 -133.841423 
L 305.1 -131.8635 
L 305.1 -129.885576 
L 305.1 -127.907653 
L 305.1 -125.92973 
L 305.1 -123.951807 
L 305.1 -121.973884 
L 305.1 -119.995961 
L 305.1 -118.018038 
L 305.1 -116.040115 
L 305.1 -114.062191 
L 305.1 -112.084268 
L 305.1 -110.106345 
L 305.1 -108.128422 
L 305.1 -106.150499 
L 305.1 -104.172576 
L 305.1 -102.194653 
L 305.1 -100.216729 
L 305.1 -98.238806 
L 305.1 -96.260883 
L 305.1 -94.28296 
L 305.1 -92.305037 
L 305.1 -90.327114 
L 305.1 -88.349191 
L 305.1 -86.371268 
L 305.1 -84.393344 
L 305.1 -82.415421 
L 305.1 -80.437498 
L 305.100002 -78.459575 
L 305.10002 -76.481652 
L 305.10017 -74.503729 
L 305.101152 -72.525806 
L 305.106339 -70.547882 
L 305.128282 -68.569959 
L 305.202316 -66.592036 
L 305.400132 -64.614113 
L 305.81387 -62.63619 
L 306.476773 -60.658267 
L 307.252988 -58.680344 
L 307.829963 -56.702421 
L 307.906778 -54.724497 
L 307.439889 -52.746574 
L 306.68168 -50.768651 
L 305.966918 -48.790728 
L 305.485278 -46.812805 
z
" style="stroke: #7a7a7a; stroke-width: 1.5"/>
    </defs>
    <g clip-path="url(#pb61ef6f853)">
     <use xlink:href="#m9459780e4a" x="0" y="288" style="fill: #b9ccdd; stroke: #7a7a7a; stroke-width: 1.5"/>
    </g>
   </g>
   <g id="matplotlib.axis_1">
    <g id="xtick_1">
     <g id="line2d_1">
      <defs>
       <path id="md9571b5652" d="M 0 0 
L 0 3.5 
" style="stroke: #000000; stroke-width: 0.8"/>
      </defs>
      <g>
       <use xlink:href="#md9571b5652" x="137.7" y="252" style="stroke: #000000; stroke-width: 0.8"/>
      </g>
     </g>
     <g id="text_1">
      <!-- 0.0 -->
      <g transform="translate(129.748437 266.598437)scale(0.1 -0.1)">
       <defs>
        <path id="DejaVuSans-30" d="M 2034 4250 
Q 1547 4250 1301 3770 
Q 1056 3291 1056 2328 
Q 1056 1369 1301 889 
Q 1547 409 2034 409 
Q 2525 409 2770 889 
Q 3016 1369 3016 2328 
Q 3016 3291 2770 3770 
Q 2525 4250 2034 4250 
z
M 2034 4750 
Q 2819 4750 3233 4129 
Q 3647 3509 3647 2328 
Q 3647 1150 3233 529 
Q 2819 -91 2034 -91 
Q 1250 -91 836 529 
Q 422 1150 422 2328 
Q 422 3509 836 4129 
Q 1250 4750 2034 4750 
z
" transform="scale(0.015625)"/>
        <path id="DejaVuSans-2e" d="M 684 794 
L 1344 794 
L 1344 0 
L 684 0 
L 684 794 
z
" transform="scale(0.015625)"/>
       </defs>
       <use xlink:href="#DejaVuSans-30"/>
       <use xlink:href="#DejaVuSans-2e" x="63.623047"/>
       <use xlink:href="#DejaVuSans-30" x="95.410156"/>
      </g>
     </g>
    </g>
    <g id="xtick_2">
     <g id="line2d_2">
      <g>
       <use xlink:href="#md9571b5652" x="305.1" y="252" style="stroke: #000000; stroke-width: 0.8"/>
      </g>
     </g>
     <g id="text_2">
      <!-- 1.0 -->
      <g transform="translate(297.148438 266.598437)scale(0.1 -0.1)">
       <defs>
        <path id="DejaVuSans-31" d="M 794 531 
L 1825 531 
L 1825 4091 
L 703 3866 
L 703 4441 
L 1819 4666 
L 2450 4666 
L 2450 531 
L 3481 531 
L 3481 0 
L 794 0 
L 794 531 
z
" transform="scale(0.015625)"/>
       </defs>
       <use xlink:href="#DejaVuSans-31"/>
       <use xlink:href="#DejaVuSans-2e" x="63.623047"/>
       <use xlink:href="#DejaVuSans-30" x="95.410156"/>
      </g>
     </g>
    </g>
    <g id="text_3">
     <!-- Diabetes_binary -->
     <g transform="translate(180.89375 280.276563)scale(0.1 -0.1)">
      <defs>
       <path id="DejaVuSans-44" d="M 1259 4147 
L 1259 519 
L 2022 519 
Q 2988 519 3436 956 
Q 3884 1394 3884 2338 
Q 3884 3275 3436 3711 
Q 2988 4147 2022 4147 
L 1259 4147 
z
M 628 4666 
L 1925 4666 
Q 3281 4666 3915 4102 
Q 4550 3538 4550 2338 
Q 4550 1131 3912 565 
Q 3275 0 1925 0 
L 628 0 
L 628 4666 
z
" transform="scale(0.015625)"/>
       <path id="DejaVuSans-69" d="M 603 3500 
L 1178 3500 
L 1178 0 
L 603 0 
L 603 3500 
z
M 603 4863 
L 1178 4863 
L 1178 4134 
L 603 4134 
L 603 4863 
z
" transform="scale(0.015625)"/>
       <path id="DejaVuSans-61" d="M 2194 1759 
Q 1497 1759 1228 1600 
Q 959 1441 959 1056 
Q 959 750 1161 570 
Q 1363 391 1709 391 
Q 2188 391 2477 730 
Q 2766 1069 2766 1631 
L 2766 1759 
L 2194 1759 
z
M 3341 1997 
L 3341 0 
L 2766 0 
L 2766 531 
Q 2569 213 2275 61 
Q 1981 -91 1556 -91 
Q 1019 -91 701 211 
Q 384 513 384 1019 
Q 384 1609 779 1909 
Q 1175 2209 1959 2209 
L 2766 2209 
L 2766 2266 
Q 2766 2663 2505 2880 
Q 2244 3097 1772 3097 
Q 1472 3097 1187 3025 
Q 903 2953 641 2809 
L 641 3341 
Q 956 3463 1253 3523 
Q 1550 3584 1831 3584 
Q 2591 3584 2966 3190 
Q 3341 2797 3341 1997 
z
" transform="scale(0.015625)"/>
       <path id="DejaVuSans-62" d="M 3116 1747 
Q 3116 2381 2855 2742 
Q 2594 3103 2138 3103 
Q 1681 3103 1420 2742 
Q 1159 2381 1159 1747 
Q 1159 1113 1420 752 
Q 1681 391 2138 391 
Q 2594 391 2855 752 
Q 3116 1113 3116 1747 
z
M 1159 2969 
Q 1341 3281 1617 3432 
Q 1894 3584 2278 3584 
Q 2916 3584 3314 3078 
Q 3713 2572 3713 1747 
Q 3713 922 3314 415 
Q 2916 -91 2278 -91 
Q 1894 -91 1617 61 
Q 1341 213 1159 525 
L 1159 0 
L 581 0 
L 581 4863 
L 1159 4863 
L 1159 2969 
z
" transform="scale(0.015625)"/>
       <path id="DejaVuSans-65" d="M 3597 1894 
L 3597 1613 
L 953 1613 
Q 991 1019 1311 708 
Q 1631 397 2203 397 
Q 2534 397 2845 478 
Q 3156 559 3463 722 
L 3463 178 
Q 3153 47 2828 -22 
Q 2503 -91 2169 -91 
Q 1331 -91 842 396 
Q 353 884 353 1716 
Q 353 2575 817 3079 
Q 1281 3584 2069 3584 
Q 2775 3584 3186 3129 
Q 3597 2675 3597 1894 
z
M 3022 2063 
Q 3016 2534 2758 2815 
Q 2500 3097 2075 3097 
Q 1594 3097 1305 2825 
Q 1016 2553 972 2059 
L 3022 2063 
z
" transform="scale(0.015625)"/>
       <path id="DejaVuSans-74" d="M 1172 4494 
L 1172 3500 
L 2356 3500 
L 2356 3053 
L 1172 3053 
L 1172 1153 
Q 1172 725 1289 603 
Q 1406 481 1766 481 
L 2356 481 
L 2356 0 
L 1766 0 
Q 1100 0 847 248 
Q 594 497 594 1153 
L 594 3053 
L 172 3053 
L 172 3500 
L 594 3500 
L 594 4494 
L 1172 4494 
z
" transform="scale(0.015625)"/>
       <path id="DejaVuSans-73" d="M 2834 3397 
L 2834 2853 
Q 2591 2978 2328 3040 
Q 2066 3103 1784 3103 
Q 1356 3103 1142 2972 
Q 928 2841 928 2578 
Q 928 2378 1081 2264 
Q 1234 2150 1697 2047 
L 1894 2003 
Q 2506 1872 2764 1633 
Q 3022 1394 3022 966 
Q 3022 478 2636 193 
Q 2250 -91 1575 -91 
Q 1294 -91 989 -36 
Q 684 19 347 128 
L 347 722 
Q 666 556 975 473 
Q 1284 391 1588 391 
Q 1994 391 2212 530 
Q 2431 669 2431 922 
Q 2431 1156 2273 1281 
Q 2116 1406 1581 1522 
L 1381 1569 
Q 847 1681 609 1914 
Q 372 2147 372 2553 
Q 372 3047 722 3315 
Q 1072 3584 1716 3584 
Q 2034 3584 2315 3537 
Q 2597 3491 2834 3397 
z
" transform="scale(0.015625)"/>
       <path id="DejaVuSans-5f" d="M 3263 -1063 
L 3263 -1509 
L -63 -1509 
L -63 -1063 
L 3263 -1063 
z
" transform="scale(0.015625)"/>
       <path id="DejaVuSans-6e" d="M 3513 2113 
L 3513 0 
L 2938 0 
L 2938 2094 
Q 2938 2591 2744 2837 
Q 2550 3084 2163 3084 
Q 1697 3084 1428 2787 
Q 1159 2491 1159 1978 
L 1159 0 
L 581 0 
L 581 3500 
L 1159 3500 
L 1159 2956 
Q 1366 3272 1645 3428 
Q 1925 3584 2291 3584 
Q 2894 3584 3203 3211 
Q 3513 2838 3513 2113 
z
" transform="scale(0.015625)"/>
       <path id="DejaVuSans-72" d="M 2631 2963 
Q 2534 3019 2420 3045 
Q 2306 3072 2169 3072 
Q 1681 3072 1420 2755 
Q 1159 2438 1159 1844 
L 1159 0 
L 581 0 
L 581 3500 
L 1159 3500 
L 1159 2956 
Q 1341 3275 1631 3429 
Q 1922 3584 2338 3584 
Q 2397 3584 2469 3576 
Q 2541 3569 2628 3553 
L 2631 2963 
z
" transform="scale(0.015625)"/>
       <path id="DejaVuSans-79" d="M 2059 -325 
Q 1816 -950 1584 -1140 
Q 1353 -1331 966 -1331 
L 506 -1331 
L 506 -850 
L 844 -850 
Q 1081 -850 1212 -737 
Q 1344 -625 1503 -206 
L 1606 56 
L 191 3500 
L 800 3500 
L 1894 763 
L 2988 3500 
L 3597 3500 
L 2059 -325 
z
" transform="scale(0.015625)"/>
      </defs>
      <use xlink:href="#DejaVuSans-44"/>
      <use xlink:href="#DejaVuSans-69" x="77.001953"/>
      <use xlink:href="#DejaVuSans-61" x="104.785156"/>
      <use xlink:href="#DejaVuSans-62" x="166.064453"/>
      <use xlink:href="#DejaVuSans-65" x="229.541016"/>
      <use xlink:href="#DejaVuSans-74" x="291.064453"/>
      <use xlink:href="#DejaVuSans-65" x="330.273438"/>
      <use xlink:href="#DejaVuSans-73" x="391.796875"/>
      <use xlink:href="#DejaVuSans-5f" x="443.896484"/>
      <use xlink:href="#DejaVuSans-62" x="493.896484"/>
      <use xlink:href="#DejaVuSans-69" x="557.373047"/>
      <use xlink:href="#DejaVuSans-6e" x="585.15625"/>
      <use xlink:href="#DejaVuSans-61" x="648.535156"/>
      <use xlink:href="#DejaVuSans-72" x="709.814453"/>
      <use xlink:href="#DejaVuSans-79" x="750.927734"/>
     </g>
    </g>
   </g>
   <g id="matplotlib.axis_2">
    <g id="ytick_1">
     <g id="line2d_3">
      <defs>
       <path id="mff5d3b04ff" d="M 0 0 
L -3.5 0 
" style="stroke: #000000; stroke-width: 0.8"/>
      </defs>
      <g>
       <use xlink:href="#mff5d3b04ff" x="54" y="232.548296" style="stroke: #000000; stroke-width: 0.8"/>
      </g>
     </g>
     <g id="text_4">
      <!-- 0.0 -->
      <g transform="translate(31.096875 236.347515)scale(0.1 -0.1)">
       <use xlink:href="#DejaVuSans-30"/>
       <use xlink:href="#DejaVuSans-2e" x="63.623047"/>
       <use xlink:href="#DejaVuSans-30" x="95.410156"/>
      </g>
     </g>
    </g>
    <g id="ytick_2">
     <g id="line2d_4">
      <g>
       <use xlink:href="#mff5d3b04ff" x="54" y="196.840978" style="stroke: #000000; stroke-width: 0.8"/>
      </g>
     </g>
     <g id="text_5">
      <!-- 0.2 -->
      <g transform="translate(31.096875 200.640197)scale(0.1 -0.1)">
       <defs>
        <path id="DejaVuSans-32" d="M 1228 531 
L 3431 531 
L 3431 0 
L 469 0 
L 469 531 
Q 828 903 1448 1529 
Q 2069 2156 2228 2338 
Q 2531 2678 2651 2914 
Q 2772 3150 2772 3378 
Q 2772 3750 2511 3984 
Q 2250 4219 1831 4219 
Q 1534 4219 1204 4116 
Q 875 4013 500 3803 
L 500 4441 
Q 881 4594 1212 4672 
Q 1544 4750 1819 4750 
Q 2544 4750 2975 4387 
Q 3406 4025 3406 3419 
Q 3406 3131 3298 2873 
Q 3191 2616 2906 2266 
Q 2828 2175 2409 1742 
Q 1991 1309 1228 531 
z
" transform="scale(0.015625)"/>
       </defs>
       <use xlink:href="#DejaVuSans-30"/>
       <use xlink:href="#DejaVuSans-2e" x="63.623047"/>
       <use xlink:href="#DejaVuSans-32" x="95.410156"/>
      </g>
     </g>
    </g>
    <g id="ytick_3">
     <g id="line2d_5">
      <g>
       <use xlink:href="#mff5d3b04ff" x="54" y="161.133659" style="stroke: #000000; stroke-width: 0.8"/>
      </g>
     </g>
     <g id="text_6">
      <!-- 0.4 -->
      <g transform="translate(31.096875 164.932878)scale(0.1 -0.1)">
       <defs>
        <path id="DejaVuSans-34" d="M 2419 4116 
L 825 1625 
L 2419 1625 
L 2419 4116 
z
M 2253 4666 
L 3047 4666 
L 3047 1625 
L 3713 1625 
L 3713 1100 
L 3047 1100 
L 3047 0 
L 2419 0 
L 2419 1100 
L 313 1100 
L 313 1709 
L 2253 4666 
z
" transform="scale(0.015625)"/>
       </defs>
       <use xlink:href="#DejaVuSans-30"/>
       <use xlink:href="#DejaVuSans-2e" x="63.623047"/>
       <use xlink:href="#DejaVuSans-34" x="95.410156"/>
      </g>
     </g>
    </g>
    <g id="ytick_4">
     <g id="line2d_6">
      <g>
       <use xlink:href="#mff5d3b04ff" x="54" y="125.426341" style="stroke: #000000; stroke-width: 0.8"/>
      </g>
     </g>
     <g id="text_7">
      <!-- 0.6 -->
      <g transform="translate(31.096875 129.225559)scale(0.1 -0.1)">
       <defs>
        <path id="DejaVuSans-36" d="M 2113 2584 
Q 1688 2584 1439 2293 
Q 1191 2003 1191 1497 
Q 1191 994 1439 701 
Q 1688 409 2113 409 
Q 2538 409 2786 701 
Q 3034 994 3034 1497 
Q 3034 2003 2786 2293 
Q 2538 2584 2113 2584 
z
M 3366 4563 
L 3366 3988 
Q 3128 4100 2886 4159 
Q 2644 4219 2406 4219 
Q 1781 4219 1451 3797 
Q 1122 3375 1075 2522 
Q 1259 2794 1537 2939 
Q 1816 3084 2150 3084 
Q 2853 3084 3261 2657 
Q 3669 2231 3669 1497 
Q 3669 778 3244 343 
Q 2819 -91 2113 -91 
Q 1303 -91 875 529 
Q 447 1150 447 2328 
Q 447 3434 972 4092 
Q 1497 4750 2381 4750 
Q 2619 4750 2861 4703 
Q 3103 4656 3366 4563 
z
" transform="scale(0.015625)"/>
       </defs>
       <use xlink:href="#DejaVuSans-30"/>
       <use xlink:href="#DejaVuSans-2e" x="63.623047"/>
       <use xlink:href="#DejaVuSans-36" x="95.410156"/>
      </g>
     </g>
    </g>
    <g id="ytick_5">
     <g id="line2d_7">
      <g>
       <use xlink:href="#mff5d3b04ff" x="54" y="89.719022" style="stroke: #000000; stroke-width: 0.8"/>
      </g>
     </g>
     <g id="text_8">
      <!-- 0.8 -->
      <g transform="translate(31.096875 93.518241)scale(0.1 -0.1)">
       <defs>
        <path id="DejaVuSans-38" d="M 2034 2216 
Q 1584 2216 1326 1975 
Q 1069 1734 1069 1313 
Q 1069 891 1326 650 
Q 1584 409 2034 409 
Q 2484 409 2743 651 
Q 3003 894 3003 1313 
Q 3003 1734 2745 1975 
Q 2488 2216 2034 2216 
z
M 1403 2484 
Q 997 2584 770 2862 
Q 544 3141 544 3541 
Q 544 4100 942 4425 
Q 1341 4750 2034 4750 
Q 2731 4750 3128 4425 
Q 3525 4100 3525 3541 
Q 3525 3141 3298 2862 
Q 3072 2584 2669 2484 
Q 3125 2378 3379 2068 
Q 3634 1759 3634 1313 
Q 3634 634 3220 271 
Q 2806 -91 2034 -91 
Q 1263 -91 848 271 
Q 434 634 434 1313 
Q 434 1759 690 2068 
Q 947 2378 1403 2484 
z
M 1172 3481 
Q 1172 3119 1398 2916 
Q 1625 2713 2034 2713 
Q 2441 2713 2670 2916 
Q 2900 3119 2900 3481 
Q 2900 3844 2670 4047 
Q 2441 4250 2034 4250 
Q 1625 4250 1398 4047 
Q 1172 3844 1172 3481 
z
" transform="scale(0.015625)"/>
       </defs>
       <use xlink:href="#DejaVuSans-30"/>
       <use xlink:href="#DejaVuSans-2e" x="63.623047"/>
       <use xlink:href="#DejaVuSans-38" x="95.410156"/>
      </g>
     </g>
    </g>
    <g id="ytick_6">
     <g id="line2d_8">
      <g>
       <use xlink:href="#mff5d3b04ff" x="54" y="54.011704" style="stroke: #000000; stroke-width: 0.8"/>
      </g>
     </g>
     <g id="text_9">
      <!-- 1.0 -->
      <g transform="translate(31.096875 57.810922)scale(0.1 -0.1)">
       <use xlink:href="#DejaVuSans-31"/>
       <use xlink:href="#DejaVuSans-2e" x="63.623047"/>
       <use xlink:href="#DejaVuSans-30" x="95.410156"/>
      </g>
     </g>
    </g>
    <g id="text_10">
     <!-- AnyHealthcare -->
     <g transform="translate(25.017187 180.08)rotate(-90)scale(0.1 -0.1)">
      <defs>
       <path id="DejaVuSans-41" d="M 2188 4044 
L 1331 1722 
L 3047 1722 
L 2188 4044 
z
M 1831 4666 
L 2547 4666 
L 4325 0 
L 3669 0 
L 3244 1197 
L 1141 1197 
L 716 0 
L 50 0 
L 1831 4666 
z
" transform="scale(0.015625)"/>
       <path id="DejaVuSans-48" d="M 628 4666 
L 1259 4666 
L 1259 2753 
L 3553 2753 
L 3553 4666 
L 4184 4666 
L 4184 0 
L 3553 0 
L 3553 2222 
L 1259 2222 
L 1259 0 
L 628 0 
L 628 4666 
z
" transform="scale(0.015625)"/>
       <path id="DejaVuSans-6c" d="M 603 4863 
L 1178 4863 
L 1178 0 
L 603 0 
L 603 4863 
z
" transform="scale(0.015625)"/>
       <path id="DejaVuSans-68" d="M 3513 2113 
L 3513 0 
L 2938 0 
L 2938 2094 
Q 2938 2591 2744 2837 
Q 2550 3084 2163 3084 
Q 1697 3084 1428 2787 
Q 1159 2491 1159 1978 
L 1159 0 
L 581 0 
L 581 4863 
L 1159 4863 
L 1159 2956 
Q 1366 3272 1645 3428 
Q 1925 3584 2291 3584 
Q 2894 3584 3203 3211 
Q 3513 2838 3513 2113 
z
" transform="scale(0.015625)"/>
       <path id="DejaVuSans-63" d="M 3122 3366 
L 3122 2828 
Q 2878 2963 2633 3030 
Q 2388 3097 2138 3097 
Q 1578 3097 1268 2742 
Q 959 2388 959 1747 
Q 959 1106 1268 751 
Q 1578 397 2138 397 
Q 2388 397 2633 464 
Q 2878 531 3122 666 
L 3122 134 
Q 2881 22 2623 -34 
Q 2366 -91 2075 -91 
Q 1284 -91 818 406 
Q 353 903 353 1747 
Q 353 2603 823 3093 
Q 1294 3584 2113 3584 
Q 2378 3584 2631 3529 
Q 2884 3475 3122 3366 
z
" transform="scale(0.015625)"/>
      </defs>
      <use xlink:href="#DejaVuSans-41"/>
      <use xlink:href="#DejaVuSans-6e" x="68.408203"/>
      <use xlink:href="#DejaVuSans-79" x="131.787109"/>
      <use xlink:href="#DejaVuSans-48" x="190.966797"/>
      <use xlink:href="#DejaVuSans-65" x="266.162109"/>
      <use xlink:href="#DejaVuSans-61" x="327.685547"/>
      <use xlink:href="#DejaVuSans-6c" x="388.964844"/>
      <use xlink:href="#DejaVuSans-74" x="416.748047"/>
      <use xlink:href="#DejaVuSans-68" x="455.957031"/>
      <use xlink:href="#DejaVuSans-63" x="519.335938"/>
      <use xlink:href="#DejaVuSans-61" x="574.316406"/>
      <use xlink:href="#DejaVuSans-72" x="635.595703"/>
      <use xlink:href="#DejaVuSans-65" x="674.458984"/>
     </g>
    </g>
   </g>
   <g id="line2d_9">
    <path d="M 137.7 54.011704 
L 137.7 54.011704 
" clip-path="url(#pb61ef6f853)" style="fill: none; stroke: #7a7a7a; stroke-width: 1.5; stroke-linecap: square"/>
   </g>
   <g id="line2d_10">
    <path d="M 137.7 54.011704 
L 137.7 54.011704 
" clip-path="url(#pb61ef6f853)" style="fill: none; stroke: #7a7a7a; stroke-width: 4.5; stroke-linecap: square"/>
   </g>
   <g id="line2d_11">
    <path d="M 305.1 54.011704 
L 305.1 54.011704 
" clip-path="url(#pb61ef6f853)" style="fill: none; stroke: #7a7a7a; stroke-width: 1.5; stroke-linecap: square"/>
   </g>
   <g id="line2d_12">
    <path d="M 305.1 54.011704 
L 305.1 54.011704 
" clip-path="url(#pb61ef6f853)" style="fill: none; stroke: #7a7a7a; stroke-width: 4.5; stroke-linecap: square"/>
   </g>
   <g id="patch_3">
    <path d="M 54 252 
L 54 34.56 
" style="fill: none; stroke: #000000; stroke-width: 0.8; stroke-linejoin: miter; stroke-linecap: square"/>
   </g>
   <g id="patch_4">
    <path d="M 388.8 252 
L 388.8 34.56 
" style="fill: none; stroke: #000000; stroke-width: 0.8; stroke-linejoin: miter; stroke-linecap: square"/>
   </g>
   <g id="patch_5">
    <path d="M 54 252 
L 388.8 252 
" style="fill: none; stroke: #000000; stroke-width: 0.8; stroke-linejoin: miter; stroke-linecap: square"/>
   </g>
   <g id="patch_6">
    <path d="M 54 34.56 
L 388.8 34.56 
" style="fill: none; stroke: #000000; stroke-width: 0.8; stroke-linejoin: miter; stroke-linecap: square"/>
   </g>
   <g id="PathCollection_1">
    <defs>
     <path id="mb2f8a1ebf6" d="M 0 1.5 
C 0.397805 1.5 0.77937 1.341951 1.06066 1.06066 
C 1.341951 0.77937 1.5 0.397805 1.5 0 
C 1.5 -0.397805 1.341951 -0.77937 1.06066 -1.06066 
C 0.77937 -1.341951 0.397805 -1.5 0 -1.5 
C -0.397805 -1.5 -0.77937 -1.341951 -1.06066 -1.06066 
C -1.341951 -0.77937 -1.5 -0.397805 -1.5 0 
C -1.5 0.397805 -1.341951 0.77937 -1.06066 1.06066 
C -0.77937 1.341951 -0.397805 1.5 0 1.5 
z
" style="stroke: #7a7a7a"/>
    </defs>
    <g clip-path="url(#pb61ef6f853)">
     <use xlink:href="#mb2f8a1ebf6" x="137.7" y="54.011704" style="fill: #ffffff; stroke: #7a7a7a"/>
    </g>
   </g>
   <g id="PathCollection_2">
    <g clip-path="url(#pb61ef6f853)">
     <use xlink:href="#mb2f8a1ebf6" x="305.1" y="54.011704" style="fill: #ffffff; stroke: #7a7a7a"/>
    </g>
   </g>
  </g>
 </g>
 <defs>
  <clipPath id="pb61ef6f853">
   <rect x="54" y="34.56" width="334.8" height="217.44"/>
  </clipPath>
 </defs>
</svg>
