<?xml version="1.0" encoding="utf-8" standalone="no"?>
<!DOCTYPE svg PUBLIC "-//W3C//DTD SVG 1.1//EN"
  "http://www.w3.org/Graphics/SVG/1.1/DTD/svg11.dtd">
<svg xmlns:xlink="http://www.w3.org/1999/xlink" width="432pt" height="288pt" viewBox="0 0 432 288" xmlns="http://www.w3.org/2000/svg" version="1.1">
 <metadata>
  <rdf:RDF xmlns:dc="http://purl.org/dc/elements/1.1/" xmlns:cc="http://creativecommons.org/ns#" xmlns:rdf="http://www.w3.org/1999/02/22-rdf-syntax-ns#">
   <cc:Work>
    <dc:type rdf:resource="http://purl.org/dc/dcmitype/StillImage"/>
    <dc:date>2023-05-03T02:46:51.468188</dc:date>
    <dc:format>image/svg+xml</dc:format>
    <dc:creator>
     <cc:Agent>
      <dc:title>Matplotlib v3.5.3, https://matplotlib.org/</dc:title>
     </cc:Agent>
    </dc:creator>
   </cc:Work>
  </rdf:RDF>
 </metadata>
 <defs>
  <style type="text/css">*{stroke-linejoin: round; stroke-linecap: butt}</style>
 </defs>
 <g id="figure_1">
  <g id="patch_1">
   <path d="M 0 288 
L 432 288 
L 432 0 
L 0 0 
L 0 288 
z
" style="fill: none"/>
  </g>
  <g id="axes_1">
   <g id="patch_2">
    <path d="M 54 252 
L 388.8 252 
L 388.8 34.56 
L 54 34.56 
z
" style="fill: #ffffff"/>
   </g>
   <g id="PolyCollection_1">
    <defs>
     <path id="m1fcad9686b" d="M 137.701778 -45.883636 
L 137.698222 -45.883636 
L 137.685091 -47.87386 
L 137.643514 -49.864083 
L 137.595214 -51.854306 
L 137.511931 -53.84453 
L 137.214112 -55.834753 
L 136.528868 -57.824976 
L 135.11575 -59.8152 
L 132.413834 -61.805423 
L 127.852791 -63.795646 
L 120.876123 -65.78587 
L 111.81488 -67.776093 
L 101.979875 -69.766316 
L 93.083549 -71.75654 
L 85.540181 -73.746763 
L 80.193957 -75.736986 
L 79.494753 -77.72721 
L 75.700909 -79.717433 
L 70.74 -81.707656 
L 77.68239 -83.69788 
L 89.571154 -85.688103 
L 94.814199 -87.678326 
L 98.133899 -89.66855 
L 103.579026 -91.658773 
L 108.98459 -93.648996 
L 113.779495 -95.63922 
L 118.278799 -97.629443 
L 122.204712 -99.619666 
L 124.957553 -101.60989 
L 126.709967 -103.600113 
L 128.19167 -105.590336 
L 129.670362 -107.58056 
L 131.142281 -109.570783 
L 132.573618 -111.561007 
L 133.572054 -113.55123 
L 134.045179 -115.541453 
L 134.478642 -117.531677 
L 135.13942 -119.5219 
L 135.788649 -121.512123 
L 136.086845 -123.502347 
L 136.279063 -125.49257 
L 136.506681 -127.482793 
L 136.709252 -129.473017 
L 136.880523 -131.46324 
L 136.905759 -133.453463 
L 137.068249 -135.443687 
L 137.170488 -137.43391 
L 137.229259 -139.424133 
L 137.365084 -141.414357 
L 137.444544 -143.40458 
L 137.474694 -145.394803 
L 137.4948 -147.385027 
L 137.487689 -149.37525 
L 137.537598 -151.365473 
L 137.601558 -153.355697 
L 137.610276 -155.34592 
L 137.601524 -157.336143 
L 137.628677 -159.326367 
L 137.655651 -161.31659 
L 137.668659 -163.306813 
L 137.678251 -165.297037 
L 137.685329 -167.28726 
L 137.682582 -169.277483 
L 137.671526 -171.267707 
L 137.67516 -173.25793 
L 137.681749 -175.248153 
L 137.678977 -177.238377 
L 137.650403 -179.2286 
L 137.628654 -181.218823 
L 137.593619 -183.209047 
L 137.607289 -185.19927 
L 137.65331 -187.189493 
L 137.645101 -189.179717 
L 137.602824 -191.16994 
L 137.563183 -193.160163 
L 137.587345 -195.150387 
L 137.55198 -197.14061 
L 137.603036 -199.130833 
L 137.654656 -201.121057 
L 137.635595 -203.11128 
L 137.638328 -205.101503 
L 137.627268 -207.091727 
L 137.613726 -209.08195 
L 137.662578 -211.072173 
L 137.666594 -213.062397 
L 137.650219 -215.05262 
L 137.671475 -217.042843 
L 137.686192 -219.033067 
L 137.69165 -221.02329 
L 137.69164 -223.013513 
L 137.666442 -225.003737 
L 137.659481 -226.99396 
L 137.685659 -228.984183 
L 137.681843 -230.974407 
L 137.666718 -232.96463 
L 137.683823 -234.954853 
L 137.694735 -236.945077 
L 137.689552 -238.9353 
L 137.692069 -240.925523 
L 137.698499 -242.915747 
L 137.701501 -242.915747 
L 137.701501 -242.915747 
L 137.707931 -240.925523 
L 137.710448 -238.9353 
L 137.705265 -236.945077 
L 137.716177 -234.954853 
L 137.733282 -232.96463 
L 137.718157 -230.974407 
L 137.714341 -228.984183 
L 137.740519 -226.99396 
L 137.733558 -225.003737 
L 137.70836 -223.013513 
L 137.70835 -221.02329 
L 137.713808 -219.033067 
L 137.728525 -217.042843 
L 137.749781 -215.05262 
L 137.733406 -213.062397 
L 137.737422 -211.072173 
L 137.786274 -209.08195 
L 137.772732 -207.091727 
L 137.761672 -205.101503 
L 137.764405 -203.11128 
L 137.745344 -201.121057 
L 137.796964 -199.130833 
L 137.84802 -197.14061 
L 137.812655 -195.150387 
L 137.836817 -193.160163 
L 137.797176 -191.16994 
L 137.754899 -189.179717 
L 137.74669 -187.189493 
L 137.792711 -185.19927 
L 137.806381 -183.209047 
L 137.771346 -181.218823 
L 137.749597 -179.2286 
L 137.721023 -177.238377 
L 137.718251 -175.248153 
L 137.72484 -173.25793 
L 137.728474 -171.267707 
L 137.717418 -169.277483 
L 137.714671 -167.28726 
L 137.721749 -165.297037 
L 137.731341 -163.306813 
L 137.744349 -161.31659 
L 137.771323 -159.326367 
L 137.798476 -157.336143 
L 137.789724 -155.34592 
L 137.798442 -153.355697 
L 137.862402 -151.365473 
L 137.912311 -149.37525 
L 137.9052 -147.385027 
L 137.925306 -145.394803 
L 137.955456 -143.40458 
L 138.034916 -141.414357 
L 138.170741 -139.424133 
L 138.229512 -137.43391 
L 138.331751 -135.443687 
L 138.494241 -133.453463 
L 138.519477 -131.46324 
L 138.690748 -129.473017 
L 138.893319 -127.482793 
L 139.120937 -125.49257 
L 139.313155 -123.502347 
L 139.611351 -121.512123 
L 140.26058 -119.5219 
L 140.921358 -117.531677 
L 141.354821 -115.541453 
L 141.827946 -113.55123 
L 142.826382 -111.561007 
L 144.257719 -109.570783 
L 145.729638 -107.58056 
L 147.20833 -105.590336 
L 148.690033 -103.600113 
L 150.442447 -101.60989 
L 153.195288 -99.619666 
L 157.121201 -97.629443 
L 161.620505 -95.63922 
L 166.41541 -93.648996 
L 171.820974 -91.658773 
L 177.266101 -89.66855 
L 180.585801 -87.678326 
L 185.828846 -85.688103 
L 197.71761 -83.69788 
L 204.66 -81.707656 
L 199.699091 -79.717433 
L 195.905247 -77.72721 
L 195.206043 -75.736986 
L 189.859819 -73.746763 
L 182.316451 -71.75654 
L 173.420125 -69.766316 
L 163.58512 -67.776093 
L 154.523877 -65.78587 
L 147.547209 -63.795646 
L 142.986166 -61.805423 
L 140.28425 -59.8152 
L 138.871132 -57.824976 
L 138.185888 -55.834753 
L 137.888069 -53.84453 
L 137.804786 -51.854306 
L 137.756486 -49.864083 
L 137.714909 -47.87386 
L 137.701778 -45.883636 
z
" style="stroke: #7a7a7a; stroke-width: 1.5"/>
    </defs>
    <g clip-path="url(#pa6c032a7ed)">
     <use xlink:href="#m1fcad9686b" x="0" y="288" style="fill: #f1bcb8; stroke: #7a7a7a; stroke-width: 1.5"/>
    </g>
   </g>
   <g id="PolyCollection_2">
    <defs>
     <path id="m9d5a0c5cda" d="M 305.102842 -47.455687 
L 305.097158 -47.455687 
L 305.084209 -49.436502 
L 305.051602 -51.417317 
L 304.986661 -53.398132 
L 304.86594 -55.378947 
L 304.653049 -57.359762 
L 304.268578 -59.340577 
L 303.666289 -61.321392 
L 302.76314 -63.302207 
L 301.227765 -65.283021 
L 298.57127 -67.263836 
L 294.832436 -69.244651 
L 290.50631 -71.225466 
L 285.170059 -73.206281 
L 278.901174 -75.187096 
L 273.379495 -77.167911 
L 266.661261 -79.148726 
L 258.182259 -81.129541 
L 254.111795 -83.110356 
L 255.622593 -85.091171 
L 257.025455 -87.071986 
L 257.640599 -89.0528 
L 259.021184 -91.033615 
L 260.466911 -93.01443 
L 262.500591 -94.995245 
L 266.443999 -96.97606 
L 271.36067 -98.956875 
L 275.704262 -100.93769 
L 279.076733 -102.918505 
L 281.676081 -104.89932 
L 284.092732 -106.880135 
L 286.725566 -108.86095 
L 289.544872 -110.841764 
L 292.202284 -112.822579 
L 293.817229 -114.803394 
L 294.660295 -116.784209 
L 295.977718 -118.765024 
L 297.598111 -120.745839 
L 298.694113 -122.726654 
L 299.494614 -124.707469 
L 300.33249 -126.688284 
L 301.039944 -128.669099 
L 301.516548 -130.649914 
L 301.960646 -132.630729 
L 302.525737 -134.611543 
L 303.016519 -136.592358 
L 303.302583 -138.573173 
L 303.571018 -140.553988 
L 303.813057 -142.534803 
L 303.94607 -144.515618 
L 304.155641 -146.496433 
L 304.372965 -148.477248 
L 304.461108 -150.458063 
L 304.524015 -152.438878 
L 304.600952 -154.419693 
L 304.679434 -156.400507 
L 304.744733 -158.381322 
L 304.762718 -160.362137 
L 304.796352 -162.342952 
L 304.862412 -164.323767 
L 304.898034 -166.304582 
L 304.916697 -168.285397 
L 304.946251 -170.266212 
L 304.974742 -172.247027 
L 304.998423 -174.227842 
L 305.007627 -176.208657 
L 304.997821 -178.189472 
L 304.985608 -180.170286 
L 304.990196 -182.151101 
L 305.020681 -184.131916 
L 305.039138 -186.112731 
L 305.031534 -188.093546 
L 305.032638 -190.074361 
L 305.025754 -192.055176 
L 305.024007 -194.035991 
L 305.037988 -196.016806 
L 305.040311 -197.997621 
L 305.025326 -199.978436 
L 304.99456 -201.95925 
L 304.995831 -203.940065 
L 305.024032 -205.92088 
L 305.035087 -207.901695 
L 305.048548 -209.88251 
L 305.05865 -211.863325 
L 305.028536 -213.84414 
L 305.014927 -215.824955 
L 305.045277 -217.80577 
L 305.065686 -219.786585 
L 305.079986 -221.7674 
L 305.075418 -223.748215 
L 305.054754 -225.729029 
L 305.063662 -227.709844 
L 305.086545 -229.690659 
L 305.091035 -231.671474 
L 305.090873 -233.652289 
L 305.092119 -235.633104 
L 305.081806 -237.613919 
L 305.072007 -239.594734 
L 305.08325 -241.575549 
L 305.096215 -243.556364 
L 305.103785 -243.556364 
L 305.103785 -243.556364 
L 305.11675 -241.575549 
L 305.127993 -239.594734 
L 305.118194 -237.613919 
L 305.107881 -235.633104 
L 305.109127 -233.652289 
L 305.108965 -231.671474 
L 305.113455 -229.690659 
L 305.136338 -227.709844 
L 305.145246 -225.729029 
L 305.124582 -223.748215 
L 305.120014 -221.7674 
L 305.134314 -219.786585 
L 305.154723 -217.80577 
L 305.185073 -215.824955 
L 305.171464 -213.84414 
L 305.14135 -211.863325 
L 305.151452 -209.88251 
L 305.164913 -207.901695 
L 305.175968 -205.92088 
L 305.204169 -203.940065 
L 305.20544 -201.95925 
L 305.174674 -199.978436 
L 305.159689 -197.997621 
L 305.162012 -196.016806 
L 305.175993 -194.035991 
L 305.174246 -192.055176 
L 305.167362 -190.074361 
L 305.168466 -188.093546 
L 305.160862 -186.112731 
L 305.179319 -184.131916 
L 305.209804 -182.151101 
L 305.214392 -180.170286 
L 305.202179 -178.189472 
L 305.192373 -176.208657 
L 305.201577 -174.227842 
L 305.225258 -172.247027 
L 305.253749 -170.266212 
L 305.283303 -168.285397 
L 305.301966 -166.304582 
L 305.337588 -164.323767 
L 305.403648 -162.342952 
L 305.437282 -160.362137 
L 305.455267 -158.381322 
L 305.520566 -156.400507 
L 305.599048 -154.419693 
L 305.675985 -152.438878 
L 305.738892 -150.458063 
L 305.827035 -148.477248 
L 306.044359 -146.496433 
L 306.25393 -144.515618 
L 306.386943 -142.534803 
L 306.628982 -140.553988 
L 306.897417 -138.573173 
L 307.183481 -136.592358 
L 307.674263 -134.611543 
L 308.239354 -132.630729 
L 308.683452 -130.649914 
L 309.160056 -128.669099 
L 309.86751 -126.688284 
L 310.705386 -124.707469 
L 311.505887 -122.726654 
L 312.601889 -120.745839 
L 314.222282 -118.765024 
L 315.539705 -116.784209 
L 316.382771 -114.803394 
L 317.997716 -112.822579 
L 320.655128 -110.841764 
L 323.474434 -108.86095 
L 326.107268 -106.880135 
L 328.523919 -104.89932 
L 331.123267 -102.918505 
L 334.495738 -100.93769 
L 338.83933 -98.956875 
L 343.756001 -96.97606 
L 347.699409 -94.995245 
L 349.733089 -93.01443 
L 351.178816 -91.033615 
L 352.559401 -89.0528 
L 353.174545 -87.071986 
L 354.577407 -85.091171 
L 356.088205 -83.110356 
L 352.017741 -81.129541 
L 343.538739 -79.148726 
L 336.820505 -77.167911 
L 331.298826 -75.187096 
L 325.029941 -73.206281 
L 319.69369 -71.225466 
L 315.367564 -69.244651 
L 311.62873 -67.263836 
L 308.972235 -65.283021 
L 307.43686 -63.302207 
L 306.533711 -61.321392 
L 305.931422 -59.340577 
L 305.546951 -57.359762 
L 305.33406 -55.378947 
L 305.213339 -53.398132 
L 305.148398 -51.417317 
L 305.115791 -49.436502 
L 305.102842 -47.455687 
z
" style="stroke: #7a7a7a; stroke-width: 1.5"/>
    </defs>
    <g clip-path="url(#pa6c032a7ed)">
     <use xlink:href="#m9d5a0c5cda" x="0" y="288" style="fill: #b9ccdd; stroke: #7a7a7a; stroke-width: 1.5"/>
    </g>
   </g>
   <g id="matplotlib.axis_1">
    <g id="xtick_1">
     <g id="line2d_1">
      <defs>
       <path id="m6c8c370369" d="M 0 0 
L 0 3.5 
" style="stroke: #000000; stroke-width: 0.8"/>
      </defs>
      <g>
       <use xlink:href="#m6c8c370369" x="137.7" y="252" style="stroke: #000000; stroke-width: 0.8"/>
      </g>
     </g>
     <g id="text_1">
      <!-- 0.0 -->
      <g transform="translate(129.748437 266.598437)scale(0.1 -0.1)">
       <defs>
        <path id="DejaVuSans-30" d="M 2034 4250 
Q 1547 4250 1301 3770 
Q 1056 3291 1056 2328 
Q 1056 1369 1301 889 
Q 1547 409 2034 409 
Q 2525 409 2770 889 
Q 3016 1369 3016 2328 
Q 3016 3291 2770 3770 
Q 2525 4250 2034 4250 
z
M 2034 4750 
Q 2819 4750 3233 4129 
Q 3647 3509 3647 2328 
Q 3647 1150 3233 529 
Q 2819 -91 2034 -91 
Q 1250 -91 836 529 
Q 422 1150 422 2328 
Q 422 3509 836 4129 
Q 1250 4750 2034 4750 
z
" transform="scale(0.015625)"/>
        <path id="DejaVuSans-2e" d="M 684 794 
L 1344 794 
L 1344 0 
L 684 0 
L 684 794 
z
" transform="scale(0.015625)"/>
       </defs>
       <use xlink:href="#DejaVuSans-30"/>
       <use xlink:href="#DejaVuSans-2e" x="63.623047"/>
       <use xlink:href="#DejaVuSans-30" x="95.410156"/>
      </g>
     </g>
    </g>
    <g id="xtick_2">
     <g id="line2d_2">
      <g>
       <use xlink:href="#m6c8c370369" x="305.1" y="252" style="stroke: #000000; stroke-width: 0.8"/>
      </g>
     </g>
     <g id="text_2">
      <!-- 1.0 -->
      <g transform="translate(297.148438 266.598437)scale(0.1 -0.1)">
       <defs>
        <path id="DejaVuSans-31" d="M 794 531 
L 1825 531 
L 1825 4091 
L 703 3866 
L 703 4441 
L 1819 4666 
L 2450 4666 
L 2450 531 
L 3481 531 
L 3481 0 
L 794 0 
L 794 531 
z
" transform="scale(0.015625)"/>
       </defs>
       <use xlink:href="#DejaVuSans-31"/>
       <use xlink:href="#DejaVuSans-2e" x="63.623047"/>
       <use xlink:href="#DejaVuSans-30" x="95.410156"/>
      </g>
     </g>
    </g>
    <g id="text_3">
     <!-- Diabetes_binary -->
     <g transform="translate(180.89375 280.276563)scale(0.1 -0.1)">
      <defs>
       <path id="DejaVuSans-44" d="M 1259 4147 
L 1259 519 
L 2022 519 
Q 2988 519 3436 956 
Q 3884 1394 3884 2338 
Q 3884 3275 3436 3711 
Q 2988 4147 2022 4147 
L 1259 4147 
z
M 628 4666 
L 1925 4666 
Q 3281 4666 3915 4102 
Q 4550 3538 4550 2338 
Q 4550 1131 3912 565 
Q 3275 0 1925 0 
L 628 0 
L 628 4666 
z
" transform="scale(0.015625)"/>
       <path id="DejaVuSans-69" d="M 603 3500 
L 1178 3500 
L 1178 0 
L 603 0 
L 603 3500 
z
M 603 4863 
L 1178 4863 
L 1178 4134 
L 603 4134 
L 603 4863 
z
" transform="scale(0.015625)"/>
       <path id="DejaVuSans-61" d="M 2194 1759 
Q 1497 1759 1228 1600 
Q 959 1441 959 1056 
Q 959 750 1161 570 
Q 1363 391 1709 391 
Q 2188 391 2477 730 
Q 2766 1069 2766 1631 
L 2766 1759 
L 2194 1759 
z
M 3341 1997 
L 3341 0 
L 2766 0 
L 2766 531 
Q 2569 213 2275 61 
Q 1981 -91 1556 -91 
Q 1019 -91 701 211 
Q 384 513 384 1019 
Q 384 1609 779 1909 
Q 1175 2209 1959 2209 
L 2766 2209 
L 2766 2266 
Q 2766 2663 2505 2880 
Q 2244 3097 1772 3097 
Q 1472 3097 1187 3025 
Q 903 2953 641 2809 
L 641 3341 
Q 956 3463 1253 3523 
Q 1550 3584 1831 3584 
Q 2591 3584 2966 3190 
Q 3341 2797 3341 1997 
z
" transform="scale(0.015625)"/>
       <path id="DejaVuSans-62" d="M 3116 1747 
Q 3116 2381 2855 2742 
Q 2594 3103 2138 3103 
Q 1681 3103 1420 2742 
Q 1159 2381 1159 1747 
Q 1159 1113 1420 752 
Q 1681 391 2138 391 
Q 2594 391 2855 752 
Q 3116 1113 3116 1747 
z
M 1159 2969 
Q 1341 3281 1617 3432 
Q 1894 3584 2278 3584 
Q 2916 3584 3314 3078 
Q 3713 2572 3713 1747 
Q 3713 922 3314 415 
Q 2916 -91 2278 -91 
Q 1894 -91 1617 61 
Q 1341 213 1159 525 
L 1159 0 
L 581 0 
L 581 4863 
L 1159 4863 
L 1159 2969 
z
" transform="scale(0.015625)"/>
       <path id="DejaVuSans-65" d="M 3597 1894 
L 3597 1613 
L 953 1613 
Q 991 1019 1311 708 
Q 1631 397 2203 397 
Q 2534 397 2845 478 
Q 3156 559 3463 722 
L 3463 178 
Q 3153 47 2828 -22 
Q 2503 -91 2169 -91 
Q 1331 -91 842 396 
Q 353 884 353 1716 
Q 353 2575 817 3079 
Q 1281 3584 2069 3584 
Q 2775 3584 3186 3129 
Q 3597 2675 3597 1894 
z
M 3022 2063 
Q 3016 2534 2758 2815 
Q 2500 3097 2075 3097 
Q 1594 3097 1305 2825 
Q 1016 2553 972 2059 
L 3022 2063 
z
" transform="scale(0.015625)"/>
       <path id="DejaVuSans-74" d="M 1172 4494 
L 1172 3500 
L 2356 3500 
L 2356 3053 
L 1172 3053 
L 1172 1153 
Q 1172 725 1289 603 
Q 1406 481 1766 481 
L 2356 481 
L 2356 0 
L 1766 0 
Q 1100 0 847 248 
Q 594 497 594 1153 
L 594 3053 
L 172 3053 
L 172 3500 
L 594 3500 
L 594 4494 
L 1172 4494 
z
" transform="scale(0.015625)"/>
       <path id="DejaVuSans-73" d="M 2834 3397 
L 2834 2853 
Q 2591 2978 2328 3040 
Q 2066 3103 1784 3103 
Q 1356 3103 1142 2972 
Q 928 2841 928 2578 
Q 928 2378 1081 2264 
Q 1234 2150 1697 2047 
L 1894 2003 
Q 2506 1872 2764 1633 
Q 3022 1394 3022 966 
Q 3022 478 2636 193 
Q 2250 -91 1575 -91 
Q 1294 -91 989 -36 
Q 684 19 347 128 
L 347 722 
Q 666 556 975 473 
Q 1284 391 1588 391 
Q 1994 391 2212 530 
Q 2431 669 2431 922 
Q 2431 1156 2273 1281 
Q 2116 1406 1581 1522 
L 1381 1569 
Q 847 1681 609 1914 
Q 372 2147 372 2553 
Q 372 3047 722 3315 
Q 1072 3584 1716 3584 
Q 2034 3584 2315 3537 
Q 2597 3491 2834 3397 
z
" transform="scale(0.015625)"/>
       <path id="DejaVuSans-5f" d="M 3263 -1063 
L 3263 -1509 
L -63 -1509 
L -63 -1063 
L 3263 -1063 
z
" transform="scale(0.015625)"/>
       <path id="DejaVuSans-6e" d="M 3513 2113 
L 3513 0 
L 2938 0 
L 2938 2094 
Q 2938 2591 2744 2837 
Q 2550 3084 2163 3084 
Q 1697 3084 1428 2787 
Q 1159 2491 1159 1978 
L 1159 0 
L 581 0 
L 581 3500 
L 1159 3500 
L 1159 2956 
Q 1366 3272 1645 3428 
Q 1925 3584 2291 3584 
Q 2894 3584 3203 3211 
Q 3513 2838 3513 2113 
z
" transform="scale(0.015625)"/>
       <path id="DejaVuSans-72" d="M 2631 2963 
Q 2534 3019 2420 3045 
Q 2306 3072 2169 3072 
Q 1681 3072 1420 2755 
Q 1159 2438 1159 1844 
L 1159 0 
L 581 0 
L 581 3500 
L 1159 3500 
L 1159 2956 
Q 1341 3275 1631 3429 
Q 1922 3584 2338 3584 
Q 2397 3584 2469 3576 
Q 2541 3569 2628 3553 
L 2631 2963 
z
" transform="scale(0.015625)"/>
       <path id="DejaVuSans-79" d="M 2059 -325 
Q 1816 -950 1584 -1140 
Q 1353 -1331 966 -1331 
L 506 -1331 
L 506 -850 
L 844 -850 
Q 1081 -850 1212 -737 
Q 1344 -625 1503 -206 
L 1606 56 
L 191 3500 
L 800 3500 
L 1894 763 
L 2988 3500 
L 3597 3500 
L 2059 -325 
z
" transform="scale(0.015625)"/>
      </defs>
      <use xlink:href="#DejaVuSans-44"/>
      <use xlink:href="#DejaVuSans-69" x="77.001953"/>
      <use xlink:href="#DejaVuSans-61" x="104.785156"/>
      <use xlink:href="#DejaVuSans-62" x="166.064453"/>
      <use xlink:href="#DejaVuSans-65" x="229.541016"/>
      <use xlink:href="#DejaVuSans-74" x="291.064453"/>
      <use xlink:href="#DejaVuSans-65" x="330.273438"/>
      <use xlink:href="#DejaVuSans-73" x="391.796875"/>
      <use xlink:href="#DejaVuSans-5f" x="443.896484"/>
      <use xlink:href="#DejaVuSans-62" x="493.896484"/>
      <use xlink:href="#DejaVuSans-69" x="557.373047"/>
      <use xlink:href="#DejaVuSans-6e" x="585.15625"/>
      <use xlink:href="#DejaVuSans-61" x="648.535156"/>
      <use xlink:href="#DejaVuSans-72" x="709.814453"/>
      <use xlink:href="#DejaVuSans-79" x="750.927734"/>
     </g>
    </g>
   </g>
   <g id="matplotlib.axis_2">
    <g id="ytick_1">
     <g id="line2d_3">
      <defs>
       <path id="m0b7c97f051" d="M 0 0 
L -3.5 0 
" style="stroke: #000000; stroke-width: 0.8"/>
      </defs>
      <g>
       <use xlink:href="#m0b7c97f051" x="54" y="221.043679" style="stroke: #000000; stroke-width: 0.8"/>
      </g>
     </g>
     <g id="text_4">
      <!-- 20 -->
      <g transform="translate(34.275 224.842898)scale(0.1 -0.1)">
       <defs>
        <path id="DejaVuSans-32" d="M 1228 531 
L 3431 531 
L 3431 0 
L 469 0 
L 469 531 
Q 828 903 1448 1529 
Q 2069 2156 2228 2338 
Q 2531 2678 2651 2914 
Q 2772 3150 2772 3378 
Q 2772 3750 2511 3984 
Q 2250 4219 1831 4219 
Q 1534 4219 1204 4116 
Q 875 4013 500 3803 
L 500 4441 
Q 881 4594 1212 4672 
Q 1544 4750 1819 4750 
Q 2544 4750 2975 4387 
Q 3406 4025 3406 3419 
Q 3406 3131 3298 2873 
Q 3191 2616 2906 2266 
Q 2828 2175 2409 1742 
Q 1991 1309 1228 531 
z
" transform="scale(0.015625)"/>
       </defs>
       <use xlink:href="#DejaVuSans-32"/>
       <use xlink:href="#DejaVuSans-30" x="63.623047"/>
      </g>
     </g>
    </g>
    <g id="ytick_2">
     <g id="line2d_4">
      <g>
       <use xlink:href="#m0b7c97f051" x="54" y="176.790324" style="stroke: #000000; stroke-width: 0.8"/>
      </g>
     </g>
     <g id="text_5">
      <!-- 40 -->
      <g transform="translate(34.275 180.589543)scale(0.1 -0.1)">
       <defs>
        <path id="DejaVuSans-34" d="M 2419 4116 
L 825 1625 
L 2419 1625 
L 2419 4116 
z
M 2253 4666 
L 3047 4666 
L 3047 1625 
L 3713 1625 
L 3713 1100 
L 3047 1100 
L 3047 0 
L 2419 0 
L 2419 1100 
L 313 1100 
L 313 1709 
L 2253 4666 
z
" transform="scale(0.015625)"/>
       </defs>
       <use xlink:href="#DejaVuSans-34"/>
       <use xlink:href="#DejaVuSans-30" x="63.623047"/>
      </g>
     </g>
    </g>
    <g id="ytick_3">
     <g id="line2d_5">
      <g>
       <use xlink:href="#m0b7c97f051" x="54" y="132.53697" style="stroke: #000000; stroke-width: 0.8"/>
      </g>
     </g>
     <g id="text_6">
      <!-- 60 -->
      <g transform="translate(34.275 136.336189)scale(0.1 -0.1)">
       <defs>
        <path id="DejaVuSans-36" d="M 2113 2584 
Q 1688 2584 1439 2293 
Q 1191 2003 1191 1497 
Q 1191 994 1439 701 
Q 1688 409 2113 409 
Q 2538 409 2786 701 
Q 3034 994 3034 1497 
Q 3034 2003 2786 2293 
Q 2538 2584 2113 2584 
z
M 3366 4563 
L 3366 3988 
Q 3128 4100 2886 4159 
Q 2644 4219 2406 4219 
Q 1781 4219 1451 3797 
Q 1122 3375 1075 2522 
Q 1259 2794 1537 2939 
Q 1816 3084 2150 3084 
Q 2853 3084 3261 2657 
Q 3669 2231 3669 1497 
Q 3669 778 3244 343 
Q 2819 -91 2113 -91 
Q 1303 -91 875 529 
Q 447 1150 447 2328 
Q 447 3434 972 4092 
Q 1497 4750 2381 4750 
Q 2619 4750 2861 4703 
Q 3103 4656 3366 4563 
z
" transform="scale(0.015625)"/>
       </defs>
       <use xlink:href="#DejaVuSans-36"/>
       <use xlink:href="#DejaVuSans-30" x="63.623047"/>
      </g>
     </g>
    </g>
    <g id="ytick_4">
     <g id="line2d_6">
      <g>
       <use xlink:href="#m0b7c97f051" x="54" y="88.283615" style="stroke: #000000; stroke-width: 0.8"/>
      </g>
     </g>
     <g id="text_7">
      <!-- 80 -->
      <g transform="translate(34.275 92.082834)scale(0.1 -0.1)">
       <defs>
        <path id="DejaVuSans-38" d="M 2034 2216 
Q 1584 2216 1326 1975 
Q 1069 1734 1069 1313 
Q 1069 891 1326 650 
Q 1584 409 2034 409 
Q 2484 409 2743 651 
Q 3003 894 3003 1313 
Q 3003 1734 2745 1975 
Q 2488 2216 2034 2216 
z
M 1403 2484 
Q 997 2584 770 2862 
Q 544 3141 544 3541 
Q 544 4100 942 4425 
Q 1341 4750 2034 4750 
Q 2731 4750 3128 4425 
Q 3525 4100 3525 3541 
Q 3525 3141 3298 2862 
Q 3072 2584 2669 2484 
Q 3125 2378 3379 2068 
Q 3634 1759 3634 1313 
Q 3634 634 3220 271 
Q 2806 -91 2034 -91 
Q 1263 -91 848 271 
Q 434 634 434 1313 
Q 434 1759 690 2068 
Q 947 2378 1403 2484 
z
M 1172 3481 
Q 1172 3119 1398 2916 
Q 1625 2713 2034 2713 
Q 2441 2713 2670 2916 
Q 2900 3119 2900 3481 
Q 2900 3844 2670 4047 
Q 2441 4250 2034 4250 
Q 1625 4250 1398 4047 
Q 1172 3844 1172 3481 
z
" transform="scale(0.015625)"/>
       </defs>
       <use xlink:href="#DejaVuSans-38"/>
       <use xlink:href="#DejaVuSans-30" x="63.623047"/>
      </g>
     </g>
    </g>
    <g id="ytick_5">
     <g id="line2d_7">
      <g>
       <use xlink:href="#m0b7c97f051" x="54" y="44.030261" style="stroke: #000000; stroke-width: 0.8"/>
      </g>
     </g>
     <g id="text_8">
      <!-- 100 -->
      <g transform="translate(27.9125 47.829479)scale(0.1 -0.1)">
       <use xlink:href="#DejaVuSans-31"/>
       <use xlink:href="#DejaVuSans-30" x="63.623047"/>
       <use xlink:href="#DejaVuSans-30" x="127.246094"/>
      </g>
     </g>
    </g>
    <g id="text_9">
     <!-- BMI -->
     <g transform="translate(21.832812 152.499531)rotate(-90)scale(0.1 -0.1)">
      <defs>
       <path id="DejaVuSans-42" d="M 1259 2228 
L 1259 519 
L 2272 519 
Q 2781 519 3026 730 
Q 3272 941 3272 1375 
Q 3272 1813 3026 2020 
Q 2781 2228 2272 2228 
L 1259 2228 
z
M 1259 4147 
L 1259 2741 
L 2194 2741 
Q 2656 2741 2882 2914 
Q 3109 3088 3109 3444 
Q 3109 3797 2882 3972 
Q 2656 4147 2194 4147 
L 1259 4147 
z
M 628 4666 
L 2241 4666 
Q 2963 4666 3353 4366 
Q 3744 4066 3744 3513 
Q 3744 3084 3544 2831 
Q 3344 2578 2956 2516 
Q 3422 2416 3680 2098 
Q 3938 1781 3938 1306 
Q 3938 681 3513 340 
Q 3088 0 2303 0 
L 628 0 
L 628 4666 
z
" transform="scale(0.015625)"/>
       <path id="DejaVuSans-4d" d="M 628 4666 
L 1569 4666 
L 2759 1491 
L 3956 4666 
L 4897 4666 
L 4897 0 
L 4281 0 
L 4281 4097 
L 3078 897 
L 2444 897 
L 1241 4097 
L 1241 0 
L 628 0 
L 628 4666 
z
" transform="scale(0.015625)"/>
       <path id="DejaVuSans-49" d="M 628 4666 
L 1259 4666 
L 1259 0 
L 628 0 
L 628 4666 
z
" transform="scale(0.015625)"/>
      </defs>
      <use xlink:href="#DejaVuSans-42"/>
      <use xlink:href="#DejaVuSans-4d" x="68.603516"/>
      <use xlink:href="#DejaVuSans-49" x="154.882812"/>
     </g>
    </g>
   </g>
   <g id="line2d_8">
    <path d="M 137.7 234.319685 
L 137.7 174.577657 
" clip-path="url(#pa6c032a7ed)" style="fill: none; stroke: #7a7a7a; stroke-width: 1.5; stroke-linecap: square"/>
   </g>
   <g id="line2d_9">
    <path d="M 137.7 212.193008 
L 137.7 196.704334 
" clip-path="url(#pa6c032a7ed)" style="fill: none; stroke: #7a7a7a; stroke-width: 4.5; stroke-linecap: square"/>
   </g>
   <g id="line2d_10">
    <path d="M 305.1 232.107018 
L 305.1 161.30165 
" clip-path="url(#pa6c032a7ed)" style="fill: none; stroke: #7a7a7a; stroke-width: 1.5; stroke-linecap: square"/>
   </g>
   <g id="line2d_11">
    <path d="M 305.1 205.555005 
L 305.1 187.853663 
" clip-path="url(#pa6c032a7ed)" style="fill: none; stroke: #7a7a7a; stroke-width: 4.5; stroke-linecap: square"/>
   </g>
   <g id="patch_3">
    <path d="M 54 252 
L 54 34.56 
" style="fill: none; stroke: #000000; stroke-width: 0.8; stroke-linejoin: miter; stroke-linecap: square"/>
   </g>
   <g id="patch_4">
    <path d="M 388.8 252 
L 388.8 34.56 
" style="fill: none; stroke: #000000; stroke-width: 0.8; stroke-linejoin: miter; stroke-linecap: square"/>
   </g>
   <g id="patch_5">
    <path d="M 54 252 
L 388.8 252 
" style="fill: none; stroke: #000000; stroke-width: 0.8; stroke-linejoin: miter; stroke-linecap: square"/>
   </g>
   <g id="patch_6">
    <path d="M 54 34.56 
L 388.8 34.56 
" style="fill: none; stroke: #000000; stroke-width: 0.8; stroke-linejoin: miter; stroke-linecap: square"/>
   </g>
   <g id="PathCollection_1">
    <defs>
     <path id="m14d99a77d3" d="M 0 1.5 
C 0.397805 1.5 0.77937 1.341951 1.06066 1.06066 
C 1.341951 0.77937 1.5 0.397805 1.5 0 
C 1.5 -0.397805 1.341951 -0.77937 1.06066 -1.06066 
C 0.77937 -1.341951 0.397805 -1.5 0 -1.5 
C -0.397805 -1.5 -0.77937 -1.341951 -1.06066 -1.06066 
C -1.341951 -0.77937 -1.5 -0.397805 -1.5 0 
C -1.5 0.397805 -1.341951 0.77937 -1.06066 1.06066 
C -0.77937 1.341951 -0.397805 1.5 0 1.5 
z
" style="stroke: #7a7a7a"/>
    </defs>
    <g clip-path="url(#pa6c032a7ed)">
     <use xlink:href="#m14d99a77d3" x="137.7" y="205.555005" style="fill: #ffffff; stroke: #7a7a7a"/>
    </g>
   </g>
   <g id="PathCollection_2">
    <g clip-path="url(#pa6c032a7ed)">
     <use xlink:href="#m14d99a77d3" x="305.1" y="196.704334" style="fill: #ffffff; stroke: #7a7a7a"/>
    </g>
   </g>
  </g>
 </g>
 <defs>
  <clipPath id="pa6c032a7ed">
   <rect x="54" y="34.56" width="334.8" height="217.44"/>
  </clipPath>
 </defs>
</svg>
