<?xml version="1.0" encoding="utf-8" standalone="no"?>
<!DOCTYPE svg PUBLIC "-//W3C//DTD SVG 1.1//EN"
  "http://www.w3.org/Graphics/SVG/1.1/DTD/svg11.dtd">
<svg xmlns:xlink="http://www.w3.org/1999/xlink" width="432pt" height="288pt" viewBox="0 0 432 288" xmlns="http://www.w3.org/2000/svg" version="1.1">
 <metadata>
  <rdf:RDF xmlns:dc="http://purl.org/dc/elements/1.1/" xmlns:cc="http://creativecommons.org/ns#" xmlns:rdf="http://www.w3.org/1999/02/22-rdf-syntax-ns#">
   <cc:Work>
    <dc:type rdf:resource="http://purl.org/dc/dcmitype/StillImage"/>
    <dc:date>2023-05-03T02:46:56.109707</dc:date>
    <dc:format>image/svg+xml</dc:format>
    <dc:creator>
     <cc:Agent>
      <dc:title>Matplotlib v3.5.3, https://matplotlib.org/</dc:title>
     </cc:Agent>
    </dc:creator>
   </cc:Work>
  </rdf:RDF>
 </metadata>
 <defs>
  <style type="text/css">*{stroke-linejoin: round; stroke-linecap: butt}</style>
 </defs>
 <g id="figure_1">
  <g id="patch_1">
   <path d="M 0 288 
L 432 288 
L 432 0 
L 0 0 
L 0 288 
z
" style="fill: none"/>
  </g>
  <g id="axes_1">
   <g id="patch_2">
    <path d="M 54 252 
L 388.8 252 
L 388.8 34.56 
L 54 34.56 
z
" style="fill: #ffffff"/>
   </g>
   <g id="PolyCollection_1">
    <defs>
     <path id="m1412c1d498" d="M 146.766879 -51.475583 
L 128.633121 -51.475583 
L 122.409435 -53.359309 
L 113.872178 -55.243034 
L 103.388452 -57.12676 
L 92.04468 -59.010486 
L 81.564498 -60.894211 
L 73.920815 -62.777937 
L 70.74 -64.661662 
L 72.739844 -66.545388 
L 79.466379 -68.429114 
L 89.461291 -70.312839 
L 100.775666 -72.196565 
L 111.582908 -74.08029 
L 120.630057 -75.964016 
L 127.390574 -77.847741 
L 131.946502 -79.731467 
L 134.732951 -81.615193 
L 136.28612 -83.498918 
L 137.07742 -85.382644 
L 137.446678 -87.266369 
L 137.604754 -89.150095 
L 137.666909 -91.033821 
L 137.689376 -92.917546 
L 137.696848 -94.801272 
L 137.699136 -96.684997 
L 137.699781 -98.568723 
L 137.699949 -100.452449 
L 137.699989 -102.336174 
L 137.699998 -104.2199 
L 137.7 -106.103625 
L 137.7 -107.987351 
L 137.7 -109.871077 
L 137.7 -111.754802 
L 137.7 -113.638528 
L 137.7 -115.522253 
L 137.7 -117.405979 
L 137.7 -119.289705 
L 137.7 -121.17343 
L 137.7 -123.057156 
L 137.7 -124.940881 
L 137.7 -126.824607 
L 137.7 -128.708332 
L 137.7 -130.592058 
L 137.7 -132.475784 
L 137.7 -134.359509 
L 137.7 -136.243235 
L 137.7 -138.12696 
L 137.7 -140.010686 
L 137.7 -141.894412 
L 137.7 -143.778137 
L 137.7 -145.661863 
L 137.7 -147.545588 
L 137.7 -149.429314 
L 137.7 -151.31304 
L 137.7 -153.196765 
L 137.7 -155.080491 
L 137.7 -156.964216 
L 137.7 -158.847942 
L 137.7 -160.731668 
L 137.7 -162.615393 
L 137.7 -164.499119 
L 137.7 -166.382844 
L 137.7 -168.26657 
L 137.7 -170.150295 
L 137.7 -172.034021 
L 137.7 -173.917747 
L 137.7 -175.801472 
L 137.7 -177.685198 
L 137.7 -179.568923 
L 137.7 -181.452649 
L 137.7 -183.336375 
L 137.7 -185.2201 
L 137.699998 -187.103826 
L 137.699992 -188.987551 
L 137.699966 -190.871277 
L 137.699866 -192.755003 
L 137.699511 -194.638728 
L 137.698353 -196.522454 
L 137.694869 -198.406179 
L 137.685231 -200.289905 
L 137.66072 -202.173631 
L 137.603463 -204.057356 
L 137.480763 -205.941082 
L 137.239929 -207.824807 
L 136.807861 -209.708533 
L 136.101417 -211.592259 
L 135.05313 -213.475984 
L 133.650276 -215.35971 
L 131.974502 -217.243435 
L 130.220092 -219.127161 
L 128.670278 -221.010886 
L 127.627259 -222.894612 
L 127.317163 -224.778338 
L 127.810381 -226.662063 
L 128.995613 -228.545789 
L 130.620673 -230.429514 
L 132.379641 -232.31324 
L 134.005251 -234.196966 
L 135.329041 -236.080691 
L 136.294087 -237.964417 
L 139.105913 -237.964417 
L 139.105913 -237.964417 
L 140.070959 -236.080691 
L 141.394749 -234.196966 
L 143.020359 -232.31324 
L 144.779327 -230.429514 
L 146.404387 -228.545789 
L 147.589619 -226.662063 
L 148.082837 -224.778338 
L 147.772741 -222.894612 
L 146.729722 -221.010886 
L 145.179908 -219.127161 
L 143.425498 -217.243435 
L 141.749724 -215.35971 
L 140.34687 -213.475984 
L 139.298583 -211.592259 
L 138.592139 -209.708533 
L 138.160071 -207.824807 
L 137.919237 -205.941082 
L 137.796537 -204.057356 
L 137.73928 -202.173631 
L 137.714769 -200.289905 
L 137.705131 -198.406179 
L 137.701647 -196.522454 
L 137.700489 -194.638728 
L 137.700134 -192.755003 
L 137.700034 -190.871277 
L 137.700008 -188.987551 
L 137.700002 -187.103826 
L 137.7 -185.2201 
L 137.7 -183.336375 
L 137.7 -181.452649 
L 137.7 -179.568923 
L 137.7 -177.685198 
L 137.7 -175.801472 
L 137.7 -173.917747 
L 137.7 -172.034021 
L 137.7 -170.150295 
L 137.7 -168.26657 
L 137.7 -166.382844 
L 137.7 -164.499119 
L 137.7 -162.615393 
L 137.7 -160.731668 
L 137.7 -158.847942 
L 137.7 -156.964216 
L 137.7 -155.080491 
L 137.7 -153.196765 
L 137.7 -151.31304 
L 137.7 -149.429314 
L 137.7 -147.545588 
L 137.7 -145.661863 
L 137.7 -143.778137 
L 137.7 -141.894412 
L 137.7 -140.010686 
L 137.7 -138.12696 
L 137.7 -136.243235 
L 137.7 -134.359509 
L 137.7 -132.475784 
L 137.7 -130.592058 
L 137.7 -128.708332 
L 137.7 -126.824607 
L 137.7 -124.940881 
L 137.7 -123.057156 
L 137.7 -121.17343 
L 137.7 -119.289705 
L 137.7 -117.405979 
L 137.7 -115.522253 
L 137.7 -113.638528 
L 137.7 -111.754802 
L 137.7 -109.871077 
L 137.7 -107.987351 
L 137.7 -106.103625 
L 137.700002 -104.2199 
L 137.700011 -102.336174 
L 137.700051 -100.452449 
L 137.700219 -98.568723 
L 137.700864 -96.684997 
L 137.703152 -94.801272 
L 137.710624 -92.917546 
L 137.733091 -91.033821 
L 137.795246 -89.150095 
L 137.953322 -87.266369 
L 138.32258 -85.382644 
L 139.11388 -83.498918 
L 140.667049 -81.615193 
L 143.453498 -79.731467 
L 148.009426 -77.847741 
L 154.769943 -75.964016 
L 163.817092 -74.08029 
L 174.624334 -72.196565 
L 185.938709 -70.312839 
L 195.933621 -68.429114 
L 202.660156 -66.545388 
L 204.66 -64.661662 
L 201.479185 -62.777937 
L 193.835502 -60.894211 
L 183.35532 -59.010486 
L 172.011548 -57.12676 
L 161.527822 -55.243034 
L 152.990565 -53.359309 
L 146.766879 -51.475583 
z
" style="stroke: #7a7a7a; stroke-width: 1.5"/>
    </defs>
    <g clip-path="url(#pcefa642a0a)">
     <use xlink:href="#m1412c1d498" x="0" y="288" style="fill: #f1bcb8; stroke: #7a7a7a; stroke-width: 1.5"/>
    </g>
   </g>
   <g id="PolyCollection_2">
    <defs>
     <path id="mefe9d83b37" d="M 309.74671 -45.883636 
L 300.45329 -45.883636 
L 298.179472 -47.880331 
L 295.238534 -49.877025 
L 291.655261 -51.873719 
L 287.562332 -53.870413 
L 283.212311 -55.867107 
L 278.964153 -57.863802 
L 275.240548 -59.860496 
L 272.461087 -61.85719 
L 270.965139 -63.853884 
L 270.943828 -65.850579 
L 272.399918 -67.847273 
L 275.147224 -69.843967 
L 278.849722 -71.840661 
L 283.089022 -73.837355 
L 287.441518 -75.83405 
L 291.545734 -77.830744 
L 295.14578 -79.827438 
L 298.105655 -81.824132 
L 300.397861 -83.820826 
L 302.075508 -85.817521 
L 303.238693 -87.814215 
L 304.004046 -89.810909 
L 304.482588 -91.807603 
L 304.767213 -93.804298 
L 304.928381 -95.800992 
L 305.015321 -97.797686 
L 305.060025 -99.79438 
L 305.081944 -101.791074 
L 305.092197 -103.787769 
L 305.096774 -105.784463 
L 305.098724 -107.781157 
L 305.099517 -109.777851 
L 305.099825 -111.774545 
L 305.099939 -113.77124 
L 305.09998 -115.767934 
L 305.099994 -117.764628 
L 305.099998 -119.761322 
L 305.099999 -121.758017 
L 305.1 -123.754711 
L 305.1 -125.751405 
L 305.1 -127.748099 
L 305.1 -129.744793 
L 305.1 -131.741488 
L 305.1 -133.738182 
L 305.1 -135.734876 
L 305.1 -137.73157 
L 305.1 -139.728264 
L 305.1 -141.724959 
L 305.1 -143.721653 
L 305.1 -145.718347 
L 305.1 -147.715041 
L 305.1 -149.711736 
L 305.1 -151.70843 
L 305.1 -153.705124 
L 305.1 -155.701818 
L 305.1 -157.698512 
L 305.1 -159.695207 
L 305.1 -161.691901 
L 305.1 -163.688595 
L 305.1 -165.685289 
L 305.1 -167.681983 
L 305.099999 -169.678678 
L 305.099996 -171.675372 
L 305.099988 -173.672066 
L 305.099964 -175.66876 
L 305.099897 -177.665455 
L 305.099715 -179.662149 
L 305.099247 -181.658843 
L 305.098095 -183.655537 
L 305.095393 -185.652231 
L 305.08934 -187.648926 
L 305.0764 -189.64562 
L 305.050008 -191.642314 
L 304.998681 -193.639008 
L 304.903532 -195.635702 
L 304.735498 -197.632397 
L 304.45298 -199.629091 
L 304.001138 -201.625785 
L 303.314427 -203.622479 
L 302.323993 -205.619174 
L 300.97074 -207.615868 
L 299.223315 -209.612562 
L 297.097952 -211.609256 
L 294.67494 -213.60595 
L 292.105352 -215.602645 
L 289.602592 -217.599339 
L 287.416744 -219.596033 
L 285.794813 -221.592727 
L 284.93518 -223.589421 
L 284.947761 -225.586116 
L 285.830925 -227.58281 
L 287.471839 -229.579504 
L 289.670149 -231.576198 
L 292.178139 -233.572893 
L 294.746266 -235.569587 
L 297.162613 -237.566281 
L 299.278074 -239.562975 
L 301.01432 -241.559669 
L 302.356716 -243.556364 
L 307.843284 -243.556364 
L 307.843284 -243.556364 
L 309.18568 -241.559669 
L 310.921926 -239.562975 
L 313.037387 -237.566281 
L 315.453734 -235.569587 
L 318.021861 -233.572893 
L 320.529851 -231.576198 
L 322.728161 -229.579504 
L 324.369075 -227.58281 
L 325.252239 -225.586116 
L 325.26482 -223.589421 
L 324.405187 -221.592727 
L 322.783256 -219.596033 
L 320.597408 -217.599339 
L 318.094648 -215.602645 
L 315.52506 -213.60595 
L 313.102048 -211.609256 
L 310.976685 -209.612562 
L 309.22926 -207.615868 
L 307.876007 -205.619174 
L 306.885573 -203.622479 
L 306.198862 -201.625785 
L 305.74702 -199.629091 
L 305.464502 -197.632397 
L 305.296468 -195.635702 
L 305.201319 -193.639008 
L 305.149992 -191.642314 
L 305.1236 -189.64562 
L 305.11066 -187.648926 
L 305.104607 -185.652231 
L 305.101905 -183.655537 
L 305.100753 -181.658843 
L 305.100285 -179.662149 
L 305.100103 -177.665455 
L 305.100036 -175.66876 
L 305.100012 -173.672066 
L 305.100004 -171.675372 
L 305.100001 -169.678678 
L 305.1 -167.681983 
L 305.1 -165.685289 
L 305.1 -163.688595 
L 305.1 -161.691901 
L 305.1 -159.695207 
L 305.1 -157.698512 
L 305.1 -155.701818 
L 305.1 -153.705124 
L 305.1 -151.70843 
L 305.1 -149.711736 
L 305.1 -147.715041 
L 305.1 -145.718347 
L 305.1 -143.721653 
L 305.1 -141.724959 
L 305.1 -139.728264 
L 305.1 -137.73157 
L 305.1 -135.734876 
L 305.1 -133.738182 
L 305.1 -131.741488 
L 305.1 -129.744793 
L 305.1 -127.748099 
L 305.1 -125.751405 
L 305.1 -123.754711 
L 305.100001 -121.758017 
L 305.100002 -119.761322 
L 305.100006 -117.764628 
L 305.10002 -115.767934 
L 305.100061 -113.77124 
L 305.100175 -111.774545 
L 305.100483 -109.777851 
L 305.101276 -107.781157 
L 305.103226 -105.784463 
L 305.107803 -103.787769 
L 305.118056 -101.791074 
L 305.139975 -99.79438 
L 305.184679 -97.797686 
L 305.271619 -95.800992 
L 305.432787 -93.804298 
L 305.717412 -91.807603 
L 306.195954 -89.810909 
L 306.961307 -87.814215 
L 308.124492 -85.817521 
L 309.802139 -83.820826 
L 312.094345 -81.824132 
L 315.05422 -79.827438 
L 318.654266 -77.830744 
L 322.758482 -75.83405 
L 327.110978 -73.837355 
L 331.350278 -71.840661 
L 335.052776 -69.843967 
L 337.800082 -67.847273 
L 339.256172 -65.850579 
L 339.234861 -63.853884 
L 337.738913 -61.85719 
L 334.959452 -59.860496 
L 331.235847 -57.863802 
L 326.987689 -55.867107 
L 322.637668 -53.870413 
L 318.544739 -51.873719 
L 314.961466 -49.877025 
L 312.020528 -47.880331 
L 309.74671 -45.883636 
z
" style="stroke: #7a7a7a; stroke-width: 1.5"/>
    </defs>
    <g clip-path="url(#pcefa642a0a)">
     <use xlink:href="#mefe9d83b37" x="0" y="288" style="fill: #b9ccdd; stroke: #7a7a7a; stroke-width: 1.5"/>
    </g>
   </g>
   <g id="matplotlib.axis_1">
    <g id="xtick_1">
     <g id="line2d_1">
      <defs>
       <path id="m1c4e04c74e" d="M 0 0 
L 0 3.5 
" style="stroke: #000000; stroke-width: 0.8"/>
      </defs>
      <g>
       <use xlink:href="#m1c4e04c74e" x="137.7" y="252" style="stroke: #000000; stroke-width: 0.8"/>
      </g>
     </g>
     <g id="text_1">
      <!-- 0.0 -->
      <g transform="translate(129.748437 266.598437)scale(0.1 -0.1)">
       <defs>
        <path id="DejaVuSans-30" d="M 2034 4250 
Q 1547 4250 1301 3770 
Q 1056 3291 1056 2328 
Q 1056 1369 1301 889 
Q 1547 409 2034 409 
Q 2525 409 2770 889 
Q 3016 1369 3016 2328 
Q 3016 3291 2770 3770 
Q 2525 4250 2034 4250 
z
M 2034 4750 
Q 2819 4750 3233 4129 
Q 3647 3509 3647 2328 
Q 3647 1150 3233 529 
Q 2819 -91 2034 -91 
Q 1250 -91 836 529 
Q 422 1150 422 2328 
Q 422 3509 836 4129 
Q 1250 4750 2034 4750 
z
" transform="scale(0.015625)"/>
        <path id="DejaVuSans-2e" d="M 684 794 
L 1344 794 
L 1344 0 
L 684 0 
L 684 794 
z
" transform="scale(0.015625)"/>
       </defs>
       <use xlink:href="#DejaVuSans-30"/>
       <use xlink:href="#DejaVuSans-2e" x="63.623047"/>
       <use xlink:href="#DejaVuSans-30" x="95.410156"/>
      </g>
     </g>
    </g>
    <g id="xtick_2">
     <g id="line2d_2">
      <g>
       <use xlink:href="#m1c4e04c74e" x="305.1" y="252" style="stroke: #000000; stroke-width: 0.8"/>
      </g>
     </g>
     <g id="text_2">
      <!-- 1.0 -->
      <g transform="translate(297.148438 266.598437)scale(0.1 -0.1)">
       <defs>
        <path id="DejaVuSans-31" d="M 794 531 
L 1825 531 
L 1825 4091 
L 703 3866 
L 703 4441 
L 1819 4666 
L 2450 4666 
L 2450 531 
L 3481 531 
L 3481 0 
L 794 0 
L 794 531 
z
" transform="scale(0.015625)"/>
       </defs>
       <use xlink:href="#DejaVuSans-31"/>
       <use xlink:href="#DejaVuSans-2e" x="63.623047"/>
       <use xlink:href="#DejaVuSans-30" x="95.410156"/>
      </g>
     </g>
    </g>
    <g id="text_3">
     <!-- Diabetes_binary -->
     <g transform="translate(180.89375 280.276563)scale(0.1 -0.1)">
      <defs>
       <path id="DejaVuSans-44" d="M 1259 4147 
L 1259 519 
L 2022 519 
Q 2988 519 3436 956 
Q 3884 1394 3884 2338 
Q 3884 3275 3436 3711 
Q 2988 4147 2022 4147 
L 1259 4147 
z
M 628 4666 
L 1925 4666 
Q 3281 4666 3915 4102 
Q 4550 3538 4550 2338 
Q 4550 1131 3912 565 
Q 3275 0 1925 0 
L 628 0 
L 628 4666 
z
" transform="scale(0.015625)"/>
       <path id="DejaVuSans-69" d="M 603 3500 
L 1178 3500 
L 1178 0 
L 603 0 
L 603 3500 
z
M 603 4863 
L 1178 4863 
L 1178 4134 
L 603 4134 
L 603 4863 
z
" transform="scale(0.015625)"/>
       <path id="DejaVuSans-61" d="M 2194 1759 
Q 1497 1759 1228 1600 
Q 959 1441 959 1056 
Q 959 750 1161 570 
Q 1363 391 1709 391 
Q 2188 391 2477 730 
Q 2766 1069 2766 1631 
L 2766 1759 
L 2194 1759 
z
M 3341 1997 
L 3341 0 
L 2766 0 
L 2766 531 
Q 2569 213 2275 61 
Q 1981 -91 1556 -91 
Q 1019 -91 701 211 
Q 384 513 384 1019 
Q 384 1609 779 1909 
Q 1175 2209 1959 2209 
L 2766 2209 
L 2766 2266 
Q 2766 2663 2505 2880 
Q 2244 3097 1772 3097 
Q 1472 3097 1187 3025 
Q 903 2953 641 2809 
L 641 3341 
Q 956 3463 1253 3523 
Q 1550 3584 1831 3584 
Q 2591 3584 2966 3190 
Q 3341 2797 3341 1997 
z
" transform="scale(0.015625)"/>
       <path id="DejaVuSans-62" d="M 3116 1747 
Q 3116 2381 2855 2742 
Q 2594 3103 2138 3103 
Q 1681 3103 1420 2742 
Q 1159 2381 1159 1747 
Q 1159 1113 1420 752 
Q 1681 391 2138 391 
Q 2594 391 2855 752 
Q 3116 1113 3116 1747 
z
M 1159 2969 
Q 1341 3281 1617 3432 
Q 1894 3584 2278 3584 
Q 2916 3584 3314 3078 
Q 3713 2572 3713 1747 
Q 3713 922 3314 415 
Q 2916 -91 2278 -91 
Q 1894 -91 1617 61 
Q 1341 213 1159 525 
L 1159 0 
L 581 0 
L 581 4863 
L 1159 4863 
L 1159 2969 
z
" transform="scale(0.015625)"/>
       <path id="DejaVuSans-65" d="M 3597 1894 
L 3597 1613 
L 953 1613 
Q 991 1019 1311 708 
Q 1631 397 2203 397 
Q 2534 397 2845 478 
Q 3156 559 3463 722 
L 3463 178 
Q 3153 47 2828 -22 
Q 2503 -91 2169 -91 
Q 1331 -91 842 396 
Q 353 884 353 1716 
Q 353 2575 817 3079 
Q 1281 3584 2069 3584 
Q 2775 3584 3186 3129 
Q 3597 2675 3597 1894 
z
M 3022 2063 
Q 3016 2534 2758 2815 
Q 2500 3097 2075 3097 
Q 1594 3097 1305 2825 
Q 1016 2553 972 2059 
L 3022 2063 
z
" transform="scale(0.015625)"/>
       <path id="DejaVuSans-74" d="M 1172 4494 
L 1172 3500 
L 2356 3500 
L 2356 3053 
L 1172 3053 
L 1172 1153 
Q 1172 725 1289 603 
Q 1406 481 1766 481 
L 2356 481 
L 2356 0 
L 1766 0 
Q 1100 0 847 248 
Q 594 497 594 1153 
L 594 3053 
L 172 3053 
L 172 3500 
L 594 3500 
L 594 4494 
L 1172 4494 
z
" transform="scale(0.015625)"/>
       <path id="DejaVuSans-73" d="M 2834 3397 
L 2834 2853 
Q 2591 2978 2328 3040 
Q 2066 3103 1784 3103 
Q 1356 3103 1142 2972 
Q 928 2841 928 2578 
Q 928 2378 1081 2264 
Q 1234 2150 1697 2047 
L 1894 2003 
Q 2506 1872 2764 1633 
Q 3022 1394 3022 966 
Q 3022 478 2636 193 
Q 2250 -91 1575 -91 
Q 1294 -91 989 -36 
Q 684 19 347 128 
L 347 722 
Q 666 556 975 473 
Q 1284 391 1588 391 
Q 1994 391 2212 530 
Q 2431 669 2431 922 
Q 2431 1156 2273 1281 
Q 2116 1406 1581 1522 
L 1381 1569 
Q 847 1681 609 1914 
Q 372 2147 372 2553 
Q 372 3047 722 3315 
Q 1072 3584 1716 3584 
Q 2034 3584 2315 3537 
Q 2597 3491 2834 3397 
z
" transform="scale(0.015625)"/>
       <path id="DejaVuSans-5f" d="M 3263 -1063 
L 3263 -1509 
L -63 -1509 
L -63 -1063 
L 3263 -1063 
z
" transform="scale(0.015625)"/>
       <path id="DejaVuSans-6e" d="M 3513 2113 
L 3513 0 
L 2938 0 
L 2938 2094 
Q 2938 2591 2744 2837 
Q 2550 3084 2163 3084 
Q 1697 3084 1428 2787 
Q 1159 2491 1159 1978 
L 1159 0 
L 581 0 
L 581 3500 
L 1159 3500 
L 1159 2956 
Q 1366 3272 1645 3428 
Q 1925 3584 2291 3584 
Q 2894 3584 3203 3211 
Q 3513 2838 3513 2113 
z
" transform="scale(0.015625)"/>
       <path id="DejaVuSans-72" d="M 2631 2963 
Q 2534 3019 2420 3045 
Q 2306 3072 2169 3072 
Q 1681 3072 1420 2755 
Q 1159 2438 1159 1844 
L 1159 0 
L 581 0 
L 581 3500 
L 1159 3500 
L 1159 2956 
Q 1341 3275 1631 3429 
Q 1922 3584 2338 3584 
Q 2397 3584 2469 3576 
Q 2541 3569 2628 3553 
L 2631 2963 
z
" transform="scale(0.015625)"/>
       <path id="DejaVuSans-79" d="M 2059 -325 
Q 1816 -950 1584 -1140 
Q 1353 -1331 966 -1331 
L 506 -1331 
L 506 -850 
L 844 -850 
Q 1081 -850 1212 -737 
Q 1344 -625 1503 -206 
L 1606 56 
L 191 3500 
L 800 3500 
L 1894 763 
L 2988 3500 
L 3597 3500 
L 2059 -325 
z
" transform="scale(0.015625)"/>
      </defs>
      <use xlink:href="#DejaVuSans-44"/>
      <use xlink:href="#DejaVuSans-69" x="77.001953"/>
      <use xlink:href="#DejaVuSans-61" x="104.785156"/>
      <use xlink:href="#DejaVuSans-62" x="166.064453"/>
      <use xlink:href="#DejaVuSans-65" x="229.541016"/>
      <use xlink:href="#DejaVuSans-74" x="291.064453"/>
      <use xlink:href="#DejaVuSans-65" x="330.273438"/>
      <use xlink:href="#DejaVuSans-73" x="391.796875"/>
      <use xlink:href="#DejaVuSans-5f" x="443.896484"/>
      <use xlink:href="#DejaVuSans-62" x="493.896484"/>
      <use xlink:href="#DejaVuSans-69" x="557.373047"/>
      <use xlink:href="#DejaVuSans-6e" x="585.15625"/>
      <use xlink:href="#DejaVuSans-61" x="648.535156"/>
      <use xlink:href="#DejaVuSans-72" x="709.814453"/>
      <use xlink:href="#DejaVuSans-79" x="750.927734"/>
     </g>
    </g>
   </g>
   <g id="matplotlib.axis_2">
    <g id="ytick_1">
     <g id="line2d_3">
      <defs>
       <path id="mb706f4680c" d="M 0 0 
L -3.5 0 
" style="stroke: #000000; stroke-width: 0.8"/>
      </defs>
      <g>
       <use xlink:href="#mb706f4680c" x="54" y="223.119568" style="stroke: #000000; stroke-width: 0.8"/>
      </g>
     </g>
     <g id="text_4">
      <!-- 0.0 -->
      <g transform="translate(31.096875 226.918787)scale(0.1 -0.1)">
       <use xlink:href="#DejaVuSans-30"/>
       <use xlink:href="#DejaVuSans-2e" x="63.623047"/>
       <use xlink:href="#DejaVuSans-30" x="95.410156"/>
      </g>
     </g>
    </g>
    <g id="ytick_2">
     <g id="line2d_4">
      <g>
       <use xlink:href="#mb706f4680c" x="54" y="191.183741" style="stroke: #000000; stroke-width: 0.8"/>
      </g>
     </g>
     <g id="text_5">
      <!-- 0.2 -->
      <g transform="translate(31.096875 194.98296)scale(0.1 -0.1)">
       <defs>
        <path id="DejaVuSans-32" d="M 1228 531 
L 3431 531 
L 3431 0 
L 469 0 
L 469 531 
Q 828 903 1448 1529 
Q 2069 2156 2228 2338 
Q 2531 2678 2651 2914 
Q 2772 3150 2772 3378 
Q 2772 3750 2511 3984 
Q 2250 4219 1831 4219 
Q 1534 4219 1204 4116 
Q 875 4013 500 3803 
L 500 4441 
Q 881 4594 1212 4672 
Q 1544 4750 1819 4750 
Q 2544 4750 2975 4387 
Q 3406 4025 3406 3419 
Q 3406 3131 3298 2873 
Q 3191 2616 2906 2266 
Q 2828 2175 2409 1742 
Q 1991 1309 1228 531 
z
" transform="scale(0.015625)"/>
       </defs>
       <use xlink:href="#DejaVuSans-30"/>
       <use xlink:href="#DejaVuSans-2e" x="63.623047"/>
       <use xlink:href="#DejaVuSans-32" x="95.410156"/>
      </g>
     </g>
    </g>
    <g id="ytick_3">
     <g id="line2d_5">
      <g>
       <use xlink:href="#mb706f4680c" x="54" y="159.247914" style="stroke: #000000; stroke-width: 0.8"/>
      </g>
     </g>
     <g id="text_6">
      <!-- 0.4 -->
      <g transform="translate(31.096875 163.047132)scale(0.1 -0.1)">
       <defs>
        <path id="DejaVuSans-34" d="M 2419 4116 
L 825 1625 
L 2419 1625 
L 2419 4116 
z
M 2253 4666 
L 3047 4666 
L 3047 1625 
L 3713 1625 
L 3713 1100 
L 3047 1100 
L 3047 0 
L 2419 0 
L 2419 1100 
L 313 1100 
L 313 1709 
L 2253 4666 
z
" transform="scale(0.015625)"/>
       </defs>
       <use xlink:href="#DejaVuSans-30"/>
       <use xlink:href="#DejaVuSans-2e" x="63.623047"/>
       <use xlink:href="#DejaVuSans-34" x="95.410156"/>
      </g>
     </g>
    </g>
    <g id="ytick_4">
     <g id="line2d_6">
      <g>
       <use xlink:href="#mb706f4680c" x="54" y="127.312086" style="stroke: #000000; stroke-width: 0.8"/>
      </g>
     </g>
     <g id="text_7">
      <!-- 0.6 -->
      <g transform="translate(31.096875 131.111305)scale(0.1 -0.1)">
       <defs>
        <path id="DejaVuSans-36" d="M 2113 2584 
Q 1688 2584 1439 2293 
Q 1191 2003 1191 1497 
Q 1191 994 1439 701 
Q 1688 409 2113 409 
Q 2538 409 2786 701 
Q 3034 994 3034 1497 
Q 3034 2003 2786 2293 
Q 2538 2584 2113 2584 
z
M 3366 4563 
L 3366 3988 
Q 3128 4100 2886 4159 
Q 2644 4219 2406 4219 
Q 1781 4219 1451 3797 
Q 1122 3375 1075 2522 
Q 1259 2794 1537 2939 
Q 1816 3084 2150 3084 
Q 2853 3084 3261 2657 
Q 3669 2231 3669 1497 
Q 3669 778 3244 343 
Q 2819 -91 2113 -91 
Q 1303 -91 875 529 
Q 447 1150 447 2328 
Q 447 3434 972 4092 
Q 1497 4750 2381 4750 
Q 2619 4750 2861 4703 
Q 3103 4656 3366 4563 
z
" transform="scale(0.015625)"/>
       </defs>
       <use xlink:href="#DejaVuSans-30"/>
       <use xlink:href="#DejaVuSans-2e" x="63.623047"/>
       <use xlink:href="#DejaVuSans-36" x="95.410156"/>
      </g>
     </g>
    </g>
    <g id="ytick_5">
     <g id="line2d_7">
      <g>
       <use xlink:href="#mb706f4680c" x="54" y="95.376259" style="stroke: #000000; stroke-width: 0.8"/>
      </g>
     </g>
     <g id="text_8">
      <!-- 0.8 -->
      <g transform="translate(31.096875 99.175478)scale(0.1 -0.1)">
       <defs>
        <path id="DejaVuSans-38" d="M 2034 2216 
Q 1584 2216 1326 1975 
Q 1069 1734 1069 1313 
Q 1069 891 1326 650 
Q 1584 409 2034 409 
Q 2484 409 2743 651 
Q 3003 894 3003 1313 
Q 3003 1734 2745 1975 
Q 2488 2216 2034 2216 
z
M 1403 2484 
Q 997 2584 770 2862 
Q 544 3141 544 3541 
Q 544 4100 942 4425 
Q 1341 4750 2034 4750 
Q 2731 4750 3128 4425 
Q 3525 4100 3525 3541 
Q 3525 3141 3298 2862 
Q 3072 2584 2669 2484 
Q 3125 2378 3379 2068 
Q 3634 1759 3634 1313 
Q 3634 634 3220 271 
Q 2806 -91 2034 -91 
Q 1263 -91 848 271 
Q 434 634 434 1313 
Q 434 1759 690 2068 
Q 947 2378 1403 2484 
z
M 1172 3481 
Q 1172 3119 1398 2916 
Q 1625 2713 2034 2713 
Q 2441 2713 2670 2916 
Q 2900 3119 2900 3481 
Q 2900 3844 2670 4047 
Q 2441 4250 2034 4250 
Q 1625 4250 1398 4047 
Q 1172 3844 1172 3481 
z
" transform="scale(0.015625)"/>
       </defs>
       <use xlink:href="#DejaVuSans-30"/>
       <use xlink:href="#DejaVuSans-2e" x="63.623047"/>
       <use xlink:href="#DejaVuSans-38" x="95.410156"/>
      </g>
     </g>
    </g>
    <g id="ytick_6">
     <g id="line2d_8">
      <g>
       <use xlink:href="#mb706f4680c" x="54" y="63.440432" style="stroke: #000000; stroke-width: 0.8"/>
      </g>
     </g>
     <g id="text_9">
      <!-- 1.0 -->
      <g transform="translate(31.096875 67.23965)scale(0.1 -0.1)">
       <use xlink:href="#DejaVuSans-31"/>
       <use xlink:href="#DejaVuSans-2e" x="63.623047"/>
       <use xlink:href="#DejaVuSans-30" x="95.410156"/>
      </g>
     </g>
    </g>
    <g id="text_10">
     <!-- DiffWalk -->
     <g transform="translate(25.017187 164.012812)rotate(-90)scale(0.1 -0.1)">
      <defs>
       <path id="DejaVuSans-66" d="M 2375 4863 
L 2375 4384 
L 1825 4384 
Q 1516 4384 1395 4259 
Q 1275 4134 1275 3809 
L 1275 3500 
L 2222 3500 
L 2222 3053 
L 1275 3053 
L 1275 0 
L 697 0 
L 697 3053 
L 147 3053 
L 147 3500 
L 697 3500 
L 697 3744 
Q 697 4328 969 4595 
Q 1241 4863 1831 4863 
L 2375 4863 
z
" transform="scale(0.015625)"/>
       <path id="DejaVuSans-57" d="M 213 4666 
L 850 4666 
L 1831 722 
L 2809 4666 
L 3519 4666 
L 4500 722 
L 5478 4666 
L 6119 4666 
L 4947 0 
L 4153 0 
L 3169 4050 
L 2175 0 
L 1381 0 
L 213 4666 
z
" transform="scale(0.015625)"/>
       <path id="DejaVuSans-6c" d="M 603 4863 
L 1178 4863 
L 1178 0 
L 603 0 
L 603 4863 
z
" transform="scale(0.015625)"/>
       <path id="DejaVuSans-6b" d="M 581 4863 
L 1159 4863 
L 1159 1991 
L 2875 3500 
L 3609 3500 
L 1753 1863 
L 3688 0 
L 2938 0 
L 1159 1709 
L 1159 0 
L 581 0 
L 581 4863 
z
" transform="scale(0.015625)"/>
      </defs>
      <use xlink:href="#DejaVuSans-44"/>
      <use xlink:href="#DejaVuSans-69" x="77.001953"/>
      <use xlink:href="#DejaVuSans-66" x="104.785156"/>
      <use xlink:href="#DejaVuSans-66" x="139.990234"/>
      <use xlink:href="#DejaVuSans-57" x="175.195312"/>
      <use xlink:href="#DejaVuSans-61" x="267.697266"/>
      <use xlink:href="#DejaVuSans-6c" x="328.976562"/>
      <use xlink:href="#DejaVuSans-6b" x="356.759766"/>
     </g>
    </g>
   </g>
   <g id="line2d_9">
    <path d="M 137.7 223.119568 
L 137.7 223.119568 
" clip-path="url(#pcefa642a0a)" style="fill: none; stroke: #7a7a7a; stroke-width: 1.5; stroke-linecap: square"/>
   </g>
   <g id="line2d_10">
    <path d="M 137.7 223.119568 
L 137.7 223.119568 
" clip-path="url(#pcefa642a0a)" style="fill: none; stroke: #7a7a7a; stroke-width: 4.5; stroke-linecap: square"/>
   </g>
   <g id="line2d_11">
    <path d="M 305.1 223.119568 
L 305.1 63.440432 
" clip-path="url(#pcefa642a0a)" style="fill: none; stroke: #7a7a7a; stroke-width: 1.5; stroke-linecap: square"/>
   </g>
   <g id="line2d_12">
    <path d="M 305.1 223.119568 
L 305.1 63.440432 
" clip-path="url(#pcefa642a0a)" style="fill: none; stroke: #7a7a7a; stroke-width: 4.5; stroke-linecap: square"/>
   </g>
   <g id="patch_3">
    <path d="M 54 252 
L 54 34.56 
" style="fill: none; stroke: #000000; stroke-width: 0.8; stroke-linejoin: miter; stroke-linecap: square"/>
   </g>
   <g id="patch_4">
    <path d="M 388.8 252 
L 388.8 34.56 
" style="fill: none; stroke: #000000; stroke-width: 0.8; stroke-linejoin: miter; stroke-linecap: square"/>
   </g>
   <g id="patch_5">
    <path d="M 54 252 
L 388.8 252 
" style="fill: none; stroke: #000000; stroke-width: 0.8; stroke-linejoin: miter; stroke-linecap: square"/>
   </g>
   <g id="patch_6">
    <path d="M 54 34.56 
L 388.8 34.56 
" style="fill: none; stroke: #000000; stroke-width: 0.8; stroke-linejoin: miter; stroke-linecap: square"/>
   </g>
   <g id="PathCollection_1">
    <defs>
     <path id="mef9bec269d" d="M 0 1.5 
C 0.397805 1.5 0.77937 1.341951 1.06066 1.06066 
C 1.341951 0.77937 1.5 0.397805 1.5 0 
C 1.5 -0.397805 1.341951 -0.77937 1.06066 -1.06066 
C 0.77937 -1.341951 0.397805 -1.5 0 -1.5 
C -0.397805 -1.5 -0.77937 -1.341951 -1.06066 -1.06066 
C -1.341951 -0.77937 -1.5 -0.397805 -1.5 0 
C -1.5 0.397805 -1.341951 0.77937 -1.06066 1.06066 
C -0.77937 1.341951 -0.397805 1.5 0 1.5 
z
" style="stroke: #7a7a7a"/>
    </defs>
    <g clip-path="url(#pcefa642a0a)">
     <use xlink:href="#mef9bec269d" x="137.7" y="223.119568" style="fill: #ffffff; stroke: #7a7a7a"/>
    </g>
   </g>
   <g id="PathCollection_2">
    <g clip-path="url(#pcefa642a0a)">
     <use xlink:href="#mef9bec269d" x="305.1" y="223.119568" style="fill: #ffffff; stroke: #7a7a7a"/>
    </g>
   </g>
  </g>
 </g>
 <defs>
  <clipPath id="pcefa642a0a">
   <rect x="54" y="34.56" width="334.8" height="217.44"/>
  </clipPath>
 </defs>
</svg>
