<?xml version="1.0" encoding="utf-8" standalone="no"?>
<!DOCTYPE svg PUBLIC "-//W3C//DTD SVG 1.1//EN"
  "http://www.w3.org/Graphics/SVG/1.1/DTD/svg11.dtd">
<svg xmlns:xlink="http://www.w3.org/1999/xlink" width="432pt" height="288pt" viewBox="0 0 432 288" xmlns="http://www.w3.org/2000/svg" version="1.1">
 <metadata>
  <rdf:RDF xmlns:dc="http://purl.org/dc/elements/1.1/" xmlns:cc="http://creativecommons.org/ns#" xmlns:rdf="http://www.w3.org/1999/02/22-rdf-syntax-ns#">
   <cc:Work>
    <dc:type rdf:resource="http://purl.org/dc/dcmitype/StillImage"/>
    <dc:date>2023-05-03T02:46:57.233460</dc:date>
    <dc:format>image/svg+xml</dc:format>
    <dc:creator>
     <cc:Agent>
      <dc:title>Matplotlib v3.5.3, https://matplotlib.org/</dc:title>
     </cc:Agent>
    </dc:creator>
   </cc:Work>
  </rdf:RDF>
 </metadata>
 <defs>
  <style type="text/css">*{stroke-linejoin: round; stroke-linecap: butt}</style>
 </defs>
 <g id="figure_1">
  <g id="patch_1">
   <path d="M 0 288 
L 432 288 
L 432 0 
L 0 0 
L 0 288 
z
" style="fill: none"/>
  </g>
  <g id="axes_1">
   <g id="patch_2">
    <path d="M 54 252 
L 388.8 252 
L 388.8 34.56 
L 54 34.56 
z
" style="fill: #ffffff"/>
   </g>
   <g id="PolyCollection_1">
    <defs>
     <path id="me3c6313792" d="M 137.716401 -46.724824 
L 137.683599 -46.724824 
L 137.662669 -48.704524 
L 137.631575 -50.684225 
L 137.599007 -52.663925 
L 137.579969 -54.643626 
L 137.585125 -56.623326 
L 137.611471 -58.603027 
L 137.645061 -60.582727 
L 137.672546 -62.562428 
L 137.688953 -64.542128 
L 137.69642 -66.521829 
L 137.699064 -68.50153 
L 137.699787 -70.48123 
L 137.69982 -72.460931 
L 137.698993 -74.440631 
L 137.694476 -76.420332 
L 137.675496 -78.400032 
L 137.612456 -80.379733 
L 137.448154 -82.359433 
L 137.116587 -84.339134 
L 136.611706 -86.318834 
L 136.06527 -88.298535 
L 135.722686 -90.278235 
L 135.774095 -92.257936 
L 136.18949 -94.237636 
L 136.746014 -96.217337 
L 137.214834 -98.197038 
L 137.501314 -100.176738 
L 137.63448 -102.156439 
L 137.682598 -104.136139 
L 137.696244 -106.11584 
L 137.699051 -108.09554 
L 137.697766 -110.075241 
L 137.687963 -112.054941 
L 137.645694 -114.034642 
L 137.502553 -116.014342 
L 137.121919 -117.994043 
L 136.337124 -119.973743 
L 135.112658 -121.953444 
L 133.744686 -123.933144 
L 132.831022 -125.912845 
L 132.87359 -127.892545 
L 133.847522 -129.872246 
L 135.223799 -131.851947 
L 136.418374 -133.831647 
L 137.165846 -135.811348 
L 137.520731 -137.791048 
L 137.651533 -139.770749 
L 137.689241 -141.750449 
L 137.696248 -143.73015 
L 137.686245 -145.70985 
L 137.622964 -147.689551 
L 137.346138 -149.669251 
L 136.390617 -151.648952 
L 133.798497 -153.628652 
L 128.338899 -155.608353 
L 119.613621 -157.588053 
L 109.561176 -159.567754 
L 102.447502 -161.547455 
L 102.136582 -163.527155 
L 108.810054 -165.506856 
L 118.801836 -167.486556 
L 127.745438 -169.466257 
L 133.477649 -171.445957 
L 136.25783 -173.425658 
L 137.303331 -175.405358 
L 137.611946 -177.385059 
L 137.682481 -179.364759 
L 137.684392 -181.34446 
L 137.622159 -183.32416 
L 137.337156 -185.303861 
L 136.333675 -187.283561 
L 133.556704 -189.263262 
L 127.582618 -191.242962 
L 117.806095 -193.222663 
L 106.200653 -195.202364 
L 97.538243 -197.182064 
L 96.466187 -199.161765 
L 103.610241 -201.141465 
L 115.005323 -203.121166 
L 125.533834 -205.100866 
L 132.448141 -207.080567 
L 135.874413 -209.060267 
L 137.188976 -211.039968 
L 137.584545 -213.019668 
L 137.676572 -214.999369 
L 137.678423 -216.979069 
L 137.590169 -218.95877 
L 137.178937 -220.93847 
L 135.703117 -222.918171 
L 131.537288 -224.897872 
L 122.384848 -226.877572 
L 107.052124 -228.857273 
L 88.313403 -230.836973 
L 73.616319 -232.816674 
L 70.74 -234.796374 
L 81.360488 -236.776075 
L 99.528401 -238.755775 
L 116.874413 -240.735476 
L 128.550785 -242.715176 
L 146.849215 -242.715176 
L 146.849215 -242.715176 
L 158.525587 -240.735476 
L 175.871599 -238.755775 
L 194.039512 -236.776075 
L 204.66 -234.796374 
L 201.783681 -232.816674 
L 187.086597 -230.836973 
L 168.347876 -228.857273 
L 153.015152 -226.877572 
L 143.862712 -224.897872 
L 139.696883 -222.918171 
L 138.221063 -220.93847 
L 137.809831 -218.95877 
L 137.721577 -216.979069 
L 137.723428 -214.999369 
L 137.815455 -213.019668 
L 138.211024 -211.039968 
L 139.525587 -209.060267 
L 142.951859 -207.080567 
L 149.866166 -205.100866 
L 160.394677 -203.121166 
L 171.789759 -201.141465 
L 178.933813 -199.161765 
L 177.861757 -197.182064 
L 169.199347 -195.202364 
L 157.593905 -193.222663 
L 147.817382 -191.242962 
L 141.843296 -189.263262 
L 139.066325 -187.283561 
L 138.062844 -185.303861 
L 137.777841 -183.32416 
L 137.715608 -181.34446 
L 137.717519 -179.364759 
L 137.788054 -177.385059 
L 138.096669 -175.405358 
L 139.14217 -173.425658 
L 141.922351 -171.445957 
L 147.654562 -169.466257 
L 156.598164 -167.486556 
L 166.589946 -165.506856 
L 173.263418 -163.527155 
L 172.952498 -161.547455 
L 165.838824 -159.567754 
L 155.786379 -157.588053 
L 147.061101 -155.608353 
L 141.601503 -153.628652 
L 139.009383 -151.648952 
L 138.053862 -149.669251 
L 137.777036 -147.689551 
L 137.713755 -145.70985 
L 137.703752 -143.73015 
L 137.710759 -141.750449 
L 137.748467 -139.770749 
L 137.879269 -137.791048 
L 138.234154 -135.811348 
L 138.981626 -133.831647 
L 140.176201 -131.851947 
L 141.552478 -129.872246 
L 142.52641 -127.892545 
L 142.568978 -125.912845 
L 141.655314 -123.933144 
L 140.287342 -121.953444 
L 139.062876 -119.973743 
L 138.278081 -117.994043 
L 137.897447 -116.014342 
L 137.754306 -114.034642 
L 137.712037 -112.054941 
L 137.702234 -110.075241 
L 137.700949 -108.09554 
L 137.703756 -106.11584 
L 137.717402 -104.136139 
L 137.76552 -102.156439 
L 137.898686 -100.176738 
L 138.185166 -98.197038 
L 138.653986 -96.217337 
L 139.21051 -94.237636 
L 139.625905 -92.257936 
L 139.677314 -90.278235 
L 139.33473 -88.298535 
L 138.788294 -86.318834 
L 138.283413 -84.339134 
L 137.951846 -82.359433 
L 137.787544 -80.379733 
L 137.724504 -78.400032 
L 137.705524 -76.420332 
L 137.701007 -74.440631 
L 137.70018 -72.460931 
L 137.700213 -70.48123 
L 137.700936 -68.50153 
L 137.70358 -66.521829 
L 137.711047 -64.542128 
L 137.727454 -62.562428 
L 137.754939 -60.582727 
L 137.788529 -58.603027 
L 137.814875 -56.623326 
L 137.820031 -54.643626 
L 137.800993 -52.663925 
L 137.768425 -50.684225 
L 137.737331 -48.704524 
L 137.716401 -46.724824 
z
" style="stroke: #7a7a7a; stroke-width: 1.5"/>
    </defs>
    <g clip-path="url(#p4a0e61fbd8)">
     <use xlink:href="#me3c6313792" x="0" y="288" style="fill: #f1bcb8; stroke: #7a7a7a; stroke-width: 1.5"/>
    </g>
   </g>
   <g id="PolyCollection_2">
    <defs>
     <path id="m5b57792fc3" d="M 305.125053 -45.883636 
L 305.074947 -45.883636 
L 305.046265 -47.880331 
L 305.003966 -49.877025 
L 304.956999 -51.873719 
L 304.922577 -53.870413 
L 304.916585 -55.867107 
L 304.942016 -57.863802 
L 304.986618 -59.860496 
L 305.0322 -61.85719 
L 305.066219 -63.853884 
L 305.085974 -65.850579 
L 305.095128 -67.847273 
L 305.09844 -69.843967 
L 305.098642 -71.840661 
L 305.094544 -73.837355 
L 305.076322 -75.83405 
L 305.013397 -77.830744 
L 304.835968 -79.827438 
L 304.429279 -81.824132 
L 303.680351 -83.820826 
L 302.596347 -85.817521 
L 301.421075 -87.814215 
L 300.595759 -89.810909 
L 300.5051 -91.807603 
L 301.19443 -93.804298 
L 302.334036 -95.800992 
L 303.467841 -97.797686 
L 304.297523 -99.79438 
L 304.771252 -101.791074 
L 304.987741 -103.787769 
L 305.067726 -105.784463 
L 305.090184 -107.781157 
L 305.086786 -109.777851 
L 305.048959 -111.774545 
L 304.916551 -113.77124 
L 304.548177 -115.767934 
L 303.716712 -117.764628 
L 302.21077 -119.761322 
L 300.071882 -121.758017 
L 297.809075 -123.754711 
L 296.291263 -125.751405 
L 296.232555 -127.748099 
L 297.662326 -129.744793 
L 299.90208 -131.741488 
L 302.073255 -133.738182 
L 303.63149 -135.734876 
L 304.50632 -137.73157 
L 304.899772 -139.728264 
L 305.041882 -141.724959 
L 305.074555 -143.721653 
L 305.034197 -145.718347 
L 304.829116 -147.715041 
L 304.136212 -149.711736 
L 302.238791 -151.70843 
L 298.022257 -153.705124 
L 290.512038 -155.701818 
L 280.047656 -157.698512 
L 269.252745 -159.695207 
L 262.361698 -161.691901 
L 262.644649 -163.688595 
L 269.960027 -165.685289 
L 280.866049 -167.681983 
L 291.174819 -169.678678 
L 298.432984 -171.675372 
L 302.440371 -173.672066 
L 304.215703 -175.66876 
L 304.853031 -177.665455 
L 305.030439 -179.662149 
L 305.022951 -181.658843 
L 304.818949 -183.655537 
L 304.117666 -185.652231 
L 302.222714 -187.648926 
L 298.076465 -189.64562 
L 290.814815 -191.642314 
L 280.891386 -193.639008 
L 270.917186 -195.635702 
L 264.88394 -197.632397 
L 265.677421 -199.629091 
L 272.900853 -201.625785 
L 283.187218 -203.622479 
L 292.674769 -205.619174 
L 299.229629 -207.615868 
L 302.789067 -209.612562 
L 304.341692 -211.609256 
L 304.890379 -213.60595 
L 305.037969 -215.602645 
L 305.016766 -217.599339 
L 304.789239 -219.596033 
L 304.026456 -221.592727 
L 301.996869 -223.589421 
L 297.625121 -225.586116 
L 290.097464 -227.58281 
L 280.011245 -229.579504 
L 270.141939 -231.576198 
L 264.514642 -233.572893 
L 265.840456 -235.569587 
L 273.457199 -237.566281 
L 283.850025 -239.562975 
L 293.20962 -241.559669 
L 299.556464 -243.556364 
L 310.643536 -243.556364 
L 310.643536 -243.556364 
L 316.99038 -241.559669 
L 326.349975 -239.562975 
L 336.742801 -237.566281 
L 344.359544 -235.569587 
L 345.685358 -233.572893 
L 340.058061 -231.576198 
L 330.188755 -229.579504 
L 320.102536 -227.58281 
L 312.574879 -225.586116 
L 308.203131 -223.589421 
L 306.173544 -221.592727 
L 305.410761 -219.596033 
L 305.183234 -217.599339 
L 305.162031 -215.602645 
L 305.309621 -213.60595 
L 305.858308 -211.609256 
L 307.410933 -209.612562 
L 310.970371 -207.615868 
L 317.525231 -205.619174 
L 327.012782 -203.622479 
L 337.299147 -201.625785 
L 344.522579 -199.629091 
L 345.31606 -197.632397 
L 339.282814 -195.635702 
L 329.308614 -193.639008 
L 319.385185 -191.642314 
L 312.123535 -189.64562 
L 307.977286 -187.648926 
L 306.082334 -185.652231 
L 305.381051 -183.655537 
L 305.177049 -181.658843 
L 305.169561 -179.662149 
L 305.346969 -177.665455 
L 305.984297 -175.66876 
L 307.759629 -173.672066 
L 311.767016 -171.675372 
L 319.025181 -169.678678 
L 329.333951 -167.681983 
L 340.239973 -165.685289 
L 347.555351 -163.688595 
L 347.838302 -161.691901 
L 340.947255 -159.695207 
L 330.152344 -157.698512 
L 319.687962 -155.701818 
L 312.177743 -153.705124 
L 307.961209 -151.70843 
L 306.063788 -149.711736 
L 305.370884 -147.715041 
L 305.165803 -145.718347 
L 305.125445 -143.721653 
L 305.158118 -141.724959 
L 305.300228 -139.728264 
L 305.69368 -137.73157 
L 306.56851 -135.734876 
L 308.126745 -133.738182 
L 310.29792 -131.741488 
L 312.537674 -129.744793 
L 313.967445 -127.748099 
L 313.908737 -125.751405 
L 312.390925 -123.754711 
L 310.128118 -121.758017 
L 307.98923 -119.761322 
L 306.483288 -117.764628 
L 305.651823 -115.767934 
L 305.283449 -113.77124 
L 305.151041 -111.774545 
L 305.113214 -109.777851 
L 305.109816 -107.781157 
L 305.132274 -105.784463 
L 305.212259 -103.787769 
L 305.428748 -101.791074 
L 305.902477 -99.79438 
L 306.732159 -97.797686 
L 307.865964 -95.800992 
L 309.00557 -93.804298 
L 309.6949 -91.807603 
L 309.604241 -89.810909 
L 308.778925 -87.814215 
L 307.603653 -85.817521 
L 306.519649 -83.820826 
L 305.770721 -81.824132 
L 305.364032 -79.827438 
L 305.186603 -77.830744 
L 305.123678 -75.83405 
L 305.105456 -73.837355 
L 305.101358 -71.840661 
L 305.10156 -69.843967 
L 305.104872 -67.847273 
L 305.114026 -65.850579 
L 305.133781 -63.853884 
L 305.1678 -61.85719 
L 305.213382 -59.860496 
L 305.257984 -57.863802 
L 305.283415 -55.867107 
L 305.277423 -53.870413 
L 305.243001 -51.873719 
L 305.196034 -49.877025 
L 305.153735 -47.880331 
L 305.125053 -45.883636 
z
" style="stroke: #7a7a7a; stroke-width: 1.5"/>
    </defs>
    <g clip-path="url(#p4a0e61fbd8)">
     <use xlink:href="#m5b57792fc3" x="0" y="288" style="fill: #b9ccdd; stroke: #7a7a7a; stroke-width: 1.5"/>
    </g>
   </g>
   <g id="matplotlib.axis_1">
    <g id="xtick_1">
     <g id="line2d_1">
      <defs>
       <path id="m2bb28678fe" d="M 0 0 
L 0 3.5 
" style="stroke: #000000; stroke-width: 0.8"/>
      </defs>
      <g>
       <use xlink:href="#m2bb28678fe" x="137.7" y="252" style="stroke: #000000; stroke-width: 0.8"/>
      </g>
     </g>
     <g id="text_1">
      <!-- 0.0 -->
      <g transform="translate(129.748437 266.598437)scale(0.1 -0.1)">
       <defs>
        <path id="DejaVuSans-30" d="M 2034 4250 
Q 1547 4250 1301 3770 
Q 1056 3291 1056 2328 
Q 1056 1369 1301 889 
Q 1547 409 2034 409 
Q 2525 409 2770 889 
Q 3016 1369 3016 2328 
Q 3016 3291 2770 3770 
Q 2525 4250 2034 4250 
z
M 2034 4750 
Q 2819 4750 3233 4129 
Q 3647 3509 3647 2328 
Q 3647 1150 3233 529 
Q 2819 -91 2034 -91 
Q 1250 -91 836 529 
Q 422 1150 422 2328 
Q 422 3509 836 4129 
Q 1250 4750 2034 4750 
z
" transform="scale(0.015625)"/>
        <path id="DejaVuSans-2e" d="M 684 794 
L 1344 794 
L 1344 0 
L 684 0 
L 684 794 
z
" transform="scale(0.015625)"/>
       </defs>
       <use xlink:href="#DejaVuSans-30"/>
       <use xlink:href="#DejaVuSans-2e" x="63.623047"/>
       <use xlink:href="#DejaVuSans-30" x="95.410156"/>
      </g>
     </g>
    </g>
    <g id="xtick_2">
     <g id="line2d_2">
      <g>
       <use xlink:href="#m2bb28678fe" x="305.1" y="252" style="stroke: #000000; stroke-width: 0.8"/>
      </g>
     </g>
     <g id="text_2">
      <!-- 1.0 -->
      <g transform="translate(297.148438 266.598437)scale(0.1 -0.1)">
       <defs>
        <path id="DejaVuSans-31" d="M 794 531 
L 1825 531 
L 1825 4091 
L 703 3866 
L 703 4441 
L 1819 4666 
L 2450 4666 
L 2450 531 
L 3481 531 
L 3481 0 
L 794 0 
L 794 531 
z
" transform="scale(0.015625)"/>
       </defs>
       <use xlink:href="#DejaVuSans-31"/>
       <use xlink:href="#DejaVuSans-2e" x="63.623047"/>
       <use xlink:href="#DejaVuSans-30" x="95.410156"/>
      </g>
     </g>
    </g>
    <g id="text_3">
     <!-- Diabetes_binary -->
     <g transform="translate(180.89375 280.276563)scale(0.1 -0.1)">
      <defs>
       <path id="DejaVuSans-44" d="M 1259 4147 
L 1259 519 
L 2022 519 
Q 2988 519 3436 956 
Q 3884 1394 3884 2338 
Q 3884 3275 3436 3711 
Q 2988 4147 2022 4147 
L 1259 4147 
z
M 628 4666 
L 1925 4666 
Q 3281 4666 3915 4102 
Q 4550 3538 4550 2338 
Q 4550 1131 3912 565 
Q 3275 0 1925 0 
L 628 0 
L 628 4666 
z
" transform="scale(0.015625)"/>
       <path id="DejaVuSans-69" d="M 603 3500 
L 1178 3500 
L 1178 0 
L 603 0 
L 603 3500 
z
M 603 4863 
L 1178 4863 
L 1178 4134 
L 603 4134 
L 603 4863 
z
" transform="scale(0.015625)"/>
       <path id="DejaVuSans-61" d="M 2194 1759 
Q 1497 1759 1228 1600 
Q 959 1441 959 1056 
Q 959 750 1161 570 
Q 1363 391 1709 391 
Q 2188 391 2477 730 
Q 2766 1069 2766 1631 
L 2766 1759 
L 2194 1759 
z
M 3341 1997 
L 3341 0 
L 2766 0 
L 2766 531 
Q 2569 213 2275 61 
Q 1981 -91 1556 -91 
Q 1019 -91 701 211 
Q 384 513 384 1019 
Q 384 1609 779 1909 
Q 1175 2209 1959 2209 
L 2766 2209 
L 2766 2266 
Q 2766 2663 2505 2880 
Q 2244 3097 1772 3097 
Q 1472 3097 1187 3025 
Q 903 2953 641 2809 
L 641 3341 
Q 956 3463 1253 3523 
Q 1550 3584 1831 3584 
Q 2591 3584 2966 3190 
Q 3341 2797 3341 1997 
z
" transform="scale(0.015625)"/>
       <path id="DejaVuSans-62" d="M 3116 1747 
Q 3116 2381 2855 2742 
Q 2594 3103 2138 3103 
Q 1681 3103 1420 2742 
Q 1159 2381 1159 1747 
Q 1159 1113 1420 752 
Q 1681 391 2138 391 
Q 2594 391 2855 752 
Q 3116 1113 3116 1747 
z
M 1159 2969 
Q 1341 3281 1617 3432 
Q 1894 3584 2278 3584 
Q 2916 3584 3314 3078 
Q 3713 2572 3713 1747 
Q 3713 922 3314 415 
Q 2916 -91 2278 -91 
Q 1894 -91 1617 61 
Q 1341 213 1159 525 
L 1159 0 
L 581 0 
L 581 4863 
L 1159 4863 
L 1159 2969 
z
" transform="scale(0.015625)"/>
       <path id="DejaVuSans-65" d="M 3597 1894 
L 3597 1613 
L 953 1613 
Q 991 1019 1311 708 
Q 1631 397 2203 397 
Q 2534 397 2845 478 
Q 3156 559 3463 722 
L 3463 178 
Q 3153 47 2828 -22 
Q 2503 -91 2169 -91 
Q 1331 -91 842 396 
Q 353 884 353 1716 
Q 353 2575 817 3079 
Q 1281 3584 2069 3584 
Q 2775 3584 3186 3129 
Q 3597 2675 3597 1894 
z
M 3022 2063 
Q 3016 2534 2758 2815 
Q 2500 3097 2075 3097 
Q 1594 3097 1305 2825 
Q 1016 2553 972 2059 
L 3022 2063 
z
" transform="scale(0.015625)"/>
       <path id="DejaVuSans-74" d="M 1172 4494 
L 1172 3500 
L 2356 3500 
L 2356 3053 
L 1172 3053 
L 1172 1153 
Q 1172 725 1289 603 
Q 1406 481 1766 481 
L 2356 481 
L 2356 0 
L 1766 0 
Q 1100 0 847 248 
Q 594 497 594 1153 
L 594 3053 
L 172 3053 
L 172 3500 
L 594 3500 
L 594 4494 
L 1172 4494 
z
" transform="scale(0.015625)"/>
       <path id="DejaVuSans-73" d="M 2834 3397 
L 2834 2853 
Q 2591 2978 2328 3040 
Q 2066 3103 1784 3103 
Q 1356 3103 1142 2972 
Q 928 2841 928 2578 
Q 928 2378 1081 2264 
Q 1234 2150 1697 2047 
L 1894 2003 
Q 2506 1872 2764 1633 
Q 3022 1394 3022 966 
Q 3022 478 2636 193 
Q 2250 -91 1575 -91 
Q 1294 -91 989 -36 
Q 684 19 347 128 
L 347 722 
Q 666 556 975 473 
Q 1284 391 1588 391 
Q 1994 391 2212 530 
Q 2431 669 2431 922 
Q 2431 1156 2273 1281 
Q 2116 1406 1581 1522 
L 1381 1569 
Q 847 1681 609 1914 
Q 372 2147 372 2553 
Q 372 3047 722 3315 
Q 1072 3584 1716 3584 
Q 2034 3584 2315 3537 
Q 2597 3491 2834 3397 
z
" transform="scale(0.015625)"/>
       <path id="DejaVuSans-5f" d="M 3263 -1063 
L 3263 -1509 
L -63 -1509 
L -63 -1063 
L 3263 -1063 
z
" transform="scale(0.015625)"/>
       <path id="DejaVuSans-6e" d="M 3513 2113 
L 3513 0 
L 2938 0 
L 2938 2094 
Q 2938 2591 2744 2837 
Q 2550 3084 2163 3084 
Q 1697 3084 1428 2787 
Q 1159 2491 1159 1978 
L 1159 0 
L 581 0 
L 581 3500 
L 1159 3500 
L 1159 2956 
Q 1366 3272 1645 3428 
Q 1925 3584 2291 3584 
Q 2894 3584 3203 3211 
Q 3513 2838 3513 2113 
z
" transform="scale(0.015625)"/>
       <path id="DejaVuSans-72" d="M 2631 2963 
Q 2534 3019 2420 3045 
Q 2306 3072 2169 3072 
Q 1681 3072 1420 2755 
Q 1159 2438 1159 1844 
L 1159 0 
L 581 0 
L 581 3500 
L 1159 3500 
L 1159 2956 
Q 1341 3275 1631 3429 
Q 1922 3584 2338 3584 
Q 2397 3584 2469 3576 
Q 2541 3569 2628 3553 
L 2631 2963 
z
" transform="scale(0.015625)"/>
       <path id="DejaVuSans-79" d="M 2059 -325 
Q 1816 -950 1584 -1140 
Q 1353 -1331 966 -1331 
L 506 -1331 
L 506 -850 
L 844 -850 
Q 1081 -850 1212 -737 
Q 1344 -625 1503 -206 
L 1606 56 
L 191 3500 
L 800 3500 
L 1894 763 
L 2988 3500 
L 3597 3500 
L 2059 -325 
z
" transform="scale(0.015625)"/>
      </defs>
      <use xlink:href="#DejaVuSans-44"/>
      <use xlink:href="#DejaVuSans-69" x="77.001953"/>
      <use xlink:href="#DejaVuSans-61" x="104.785156"/>
      <use xlink:href="#DejaVuSans-62" x="166.064453"/>
      <use xlink:href="#DejaVuSans-65" x="229.541016"/>
      <use xlink:href="#DejaVuSans-74" x="291.064453"/>
      <use xlink:href="#DejaVuSans-65" x="330.273438"/>
      <use xlink:href="#DejaVuSans-73" x="391.796875"/>
      <use xlink:href="#DejaVuSans-5f" x="443.896484"/>
      <use xlink:href="#DejaVuSans-62" x="493.896484"/>
      <use xlink:href="#DejaVuSans-69" x="557.373047"/>
      <use xlink:href="#DejaVuSans-6e" x="585.15625"/>
      <use xlink:href="#DejaVuSans-61" x="648.535156"/>
      <use xlink:href="#DejaVuSans-72" x="709.814453"/>
      <use xlink:href="#DejaVuSans-79" x="750.927734"/>
     </g>
    </g>
   </g>
   <g id="matplotlib.axis_2">
    <g id="ytick_1">
     <g id="line2d_3">
      <defs>
       <path id="mac9c5ea2be" d="M 0 0 
L -3.5 0 
" style="stroke: #000000; stroke-width: 0.8"/>
      </defs>
      <g>
       <use xlink:href="#mac9c5ea2be" x="54" y="232.767808" style="stroke: #000000; stroke-width: 0.8"/>
      </g>
     </g>
     <g id="text_4">
      <!-- 1 -->
      <g transform="translate(40.6375 236.567027)scale(0.1 -0.1)">
       <use xlink:href="#DejaVuSans-31"/>
      </g>
     </g>
    </g>
    <g id="ytick_2">
     <g id="line2d_4">
      <g>
       <use xlink:href="#mac9c5ea2be" x="54" y="196.972685" style="stroke: #000000; stroke-width: 0.8"/>
      </g>
     </g>
     <g id="text_5">
      <!-- 2 -->
      <g transform="translate(40.6375 200.771903)scale(0.1 -0.1)">
       <defs>
        <path id="DejaVuSans-32" d="M 1228 531 
L 3431 531 
L 3431 0 
L 469 0 
L 469 531 
Q 828 903 1448 1529 
Q 2069 2156 2228 2338 
Q 2531 2678 2651 2914 
Q 2772 3150 2772 3378 
Q 2772 3750 2511 3984 
Q 2250 4219 1831 4219 
Q 1534 4219 1204 4116 
Q 875 4013 500 3803 
L 500 4441 
Q 881 4594 1212 4672 
Q 1544 4750 1819 4750 
Q 2544 4750 2975 4387 
Q 3406 4025 3406 3419 
Q 3406 3131 3298 2873 
Q 3191 2616 2906 2266 
Q 2828 2175 2409 1742 
Q 1991 1309 1228 531 
z
" transform="scale(0.015625)"/>
       </defs>
       <use xlink:href="#DejaVuSans-32"/>
      </g>
     </g>
    </g>
    <g id="ytick_3">
     <g id="line2d_5">
      <g>
       <use xlink:href="#mac9c5ea2be" x="54" y="161.177562" style="stroke: #000000; stroke-width: 0.8"/>
      </g>
     </g>
     <g id="text_6">
      <!-- 3 -->
      <g transform="translate(40.6375 164.97678)scale(0.1 -0.1)">
       <defs>
        <path id="DejaVuSans-33" d="M 2597 2516 
Q 3050 2419 3304 2112 
Q 3559 1806 3559 1356 
Q 3559 666 3084 287 
Q 2609 -91 1734 -91 
Q 1441 -91 1130 -33 
Q 819 25 488 141 
L 488 750 
Q 750 597 1062 519 
Q 1375 441 1716 441 
Q 2309 441 2620 675 
Q 2931 909 2931 1356 
Q 2931 1769 2642 2001 
Q 2353 2234 1838 2234 
L 1294 2234 
L 1294 2753 
L 1863 2753 
Q 2328 2753 2575 2939 
Q 2822 3125 2822 3475 
Q 2822 3834 2567 4026 
Q 2313 4219 1838 4219 
Q 1578 4219 1281 4162 
Q 984 4106 628 3988 
L 628 4550 
Q 988 4650 1302 4700 
Q 1616 4750 1894 4750 
Q 2613 4750 3031 4423 
Q 3450 4097 3450 3541 
Q 3450 3153 3228 2886 
Q 3006 2619 2597 2516 
z
" transform="scale(0.015625)"/>
       </defs>
       <use xlink:href="#DejaVuSans-33"/>
      </g>
     </g>
    </g>
    <g id="ytick_4">
     <g id="line2d_6">
      <g>
       <use xlink:href="#mac9c5ea2be" x="54" y="125.382438" style="stroke: #000000; stroke-width: 0.8"/>
      </g>
     </g>
     <g id="text_7">
      <!-- 4 -->
      <g transform="translate(40.6375 129.181657)scale(0.1 -0.1)">
       <defs>
        <path id="DejaVuSans-34" d="M 2419 4116 
L 825 1625 
L 2419 1625 
L 2419 4116 
z
M 2253 4666 
L 3047 4666 
L 3047 1625 
L 3713 1625 
L 3713 1100 
L 3047 1100 
L 3047 0 
L 2419 0 
L 2419 1100 
L 313 1100 
L 313 1709 
L 2253 4666 
z
" transform="scale(0.015625)"/>
       </defs>
       <use xlink:href="#DejaVuSans-34"/>
      </g>
     </g>
    </g>
    <g id="ytick_5">
     <g id="line2d_7">
      <g>
       <use xlink:href="#mac9c5ea2be" x="54" y="89.587315" style="stroke: #000000; stroke-width: 0.8"/>
      </g>
     </g>
     <g id="text_8">
      <!-- 5 -->
      <g transform="translate(40.6375 93.386534)scale(0.1 -0.1)">
       <defs>
        <path id="DejaVuSans-35" d="M 691 4666 
L 3169 4666 
L 3169 4134 
L 1269 4134 
L 1269 2991 
Q 1406 3038 1543 3061 
Q 1681 3084 1819 3084 
Q 2600 3084 3056 2656 
Q 3513 2228 3513 1497 
Q 3513 744 3044 326 
Q 2575 -91 1722 -91 
Q 1428 -91 1123 -41 
Q 819 9 494 109 
L 494 744 
Q 775 591 1075 516 
Q 1375 441 1709 441 
Q 2250 441 2565 725 
Q 2881 1009 2881 1497 
Q 2881 1984 2565 2268 
Q 2250 2553 1709 2553 
Q 1456 2553 1204 2497 
Q 953 2441 691 2322 
L 691 4666 
z
" transform="scale(0.015625)"/>
       </defs>
       <use xlink:href="#DejaVuSans-35"/>
      </g>
     </g>
    </g>
    <g id="ytick_6">
     <g id="line2d_8">
      <g>
       <use xlink:href="#mac9c5ea2be" x="54" y="53.792192" style="stroke: #000000; stroke-width: 0.8"/>
      </g>
     </g>
     <g id="text_9">
      <!-- 6 -->
      <g transform="translate(40.6375 57.591411)scale(0.1 -0.1)">
       <defs>
        <path id="DejaVuSans-36" d="M 2113 2584 
Q 1688 2584 1439 2293 
Q 1191 2003 1191 1497 
Q 1191 994 1439 701 
Q 1688 409 2113 409 
Q 2538 409 2786 701 
Q 3034 994 3034 1497 
Q 3034 2003 2786 2293 
Q 2538 2584 2113 2584 
z
M 3366 4563 
L 3366 3988 
Q 3128 4100 2886 4159 
Q 2644 4219 2406 4219 
Q 1781 4219 1451 3797 
Q 1122 3375 1075 2522 
Q 1259 2794 1537 2939 
Q 1816 3084 2150 3084 
Q 2853 3084 3261 2657 
Q 3669 2231 3669 1497 
Q 3669 778 3244 343 
Q 2819 -91 2113 -91 
Q 1303 -91 875 529 
Q 447 1150 447 2328 
Q 447 3434 972 4092 
Q 1497 4750 2381 4750 
Q 2619 4750 2861 4703 
Q 3103 4656 3366 4563 
z
" transform="scale(0.015625)"/>
       </defs>
       <use xlink:href="#DejaVuSans-36"/>
      </g>
     </g>
    </g>
    <g id="text_10">
     <!-- Education -->
     <g transform="translate(34.557812 168.172969)rotate(-90)scale(0.1 -0.1)">
      <defs>
       <path id="DejaVuSans-45" d="M 628 4666 
L 3578 4666 
L 3578 4134 
L 1259 4134 
L 1259 2753 
L 3481 2753 
L 3481 2222 
L 1259 2222 
L 1259 531 
L 3634 531 
L 3634 0 
L 628 0 
L 628 4666 
z
" transform="scale(0.015625)"/>
       <path id="DejaVuSans-64" d="M 2906 2969 
L 2906 4863 
L 3481 4863 
L 3481 0 
L 2906 0 
L 2906 525 
Q 2725 213 2448 61 
Q 2172 -91 1784 -91 
Q 1150 -91 751 415 
Q 353 922 353 1747 
Q 353 2572 751 3078 
Q 1150 3584 1784 3584 
Q 2172 3584 2448 3432 
Q 2725 3281 2906 2969 
z
M 947 1747 
Q 947 1113 1208 752 
Q 1469 391 1925 391 
Q 2381 391 2643 752 
Q 2906 1113 2906 1747 
Q 2906 2381 2643 2742 
Q 2381 3103 1925 3103 
Q 1469 3103 1208 2742 
Q 947 2381 947 1747 
z
" transform="scale(0.015625)"/>
       <path id="DejaVuSans-75" d="M 544 1381 
L 544 3500 
L 1119 3500 
L 1119 1403 
Q 1119 906 1312 657 
Q 1506 409 1894 409 
Q 2359 409 2629 706 
Q 2900 1003 2900 1516 
L 2900 3500 
L 3475 3500 
L 3475 0 
L 2900 0 
L 2900 538 
Q 2691 219 2414 64 
Q 2138 -91 1772 -91 
Q 1169 -91 856 284 
Q 544 659 544 1381 
z
M 1991 3584 
L 1991 3584 
z
" transform="scale(0.015625)"/>
       <path id="DejaVuSans-63" d="M 3122 3366 
L 3122 2828 
Q 2878 2963 2633 3030 
Q 2388 3097 2138 3097 
Q 1578 3097 1268 2742 
Q 959 2388 959 1747 
Q 959 1106 1268 751 
Q 1578 397 2138 397 
Q 2388 397 2633 464 
Q 2878 531 3122 666 
L 3122 134 
Q 2881 22 2623 -34 
Q 2366 -91 2075 -91 
Q 1284 -91 818 406 
Q 353 903 353 1747 
Q 353 2603 823 3093 
Q 1294 3584 2113 3584 
Q 2378 3584 2631 3529 
Q 2884 3475 3122 3366 
z
" transform="scale(0.015625)"/>
       <path id="DejaVuSans-6f" d="M 1959 3097 
Q 1497 3097 1228 2736 
Q 959 2375 959 1747 
Q 959 1119 1226 758 
Q 1494 397 1959 397 
Q 2419 397 2687 759 
Q 2956 1122 2956 1747 
Q 2956 2369 2687 2733 
Q 2419 3097 1959 3097 
z
M 1959 3584 
Q 2709 3584 3137 3096 
Q 3566 2609 3566 1747 
Q 3566 888 3137 398 
Q 2709 -91 1959 -91 
Q 1206 -91 779 398 
Q 353 888 353 1747 
Q 353 2609 779 3096 
Q 1206 3584 1959 3584 
z
" transform="scale(0.015625)"/>
      </defs>
      <use xlink:href="#DejaVuSans-45"/>
      <use xlink:href="#DejaVuSans-64" x="63.183594"/>
      <use xlink:href="#DejaVuSans-75" x="126.660156"/>
      <use xlink:href="#DejaVuSans-63" x="190.039062"/>
      <use xlink:href="#DejaVuSans-61" x="245.019531"/>
      <use xlink:href="#DejaVuSans-74" x="306.298828"/>
      <use xlink:href="#DejaVuSans-69" x="345.507812"/>
      <use xlink:href="#DejaVuSans-6f" x="373.291016"/>
      <use xlink:href="#DejaVuSans-6e" x="434.472656"/>
     </g>
    </g>
   </g>
   <g id="line2d_9">
    <path d="M 137.7 232.767808 
L 137.7 53.792192 
" clip-path="url(#p4a0e61fbd8)" style="fill: none; stroke: #7a7a7a; stroke-width: 1.5; stroke-linecap: square"/>
   </g>
   <g id="line2d_10">
    <path d="M 137.7 125.382438 
L 137.7 53.792192 
" clip-path="url(#p4a0e61fbd8)" style="fill: none; stroke: #7a7a7a; stroke-width: 4.5; stroke-linecap: square"/>
   </g>
   <g id="line2d_11">
    <path d="M 305.1 232.767808 
L 305.1 53.792192 
" clip-path="url(#p4a0e61fbd8)" style="fill: none; stroke: #7a7a7a; stroke-width: 1.5; stroke-linecap: square"/>
   </g>
   <g id="line2d_12">
    <path d="M 305.1 125.382438 
L 305.1 53.792192 
" clip-path="url(#p4a0e61fbd8)" style="fill: none; stroke: #7a7a7a; stroke-width: 4.5; stroke-linecap: square"/>
   </g>
   <g id="patch_3">
    <path d="M 54 252 
L 54 34.56 
" style="fill: none; stroke: #000000; stroke-width: 0.8; stroke-linejoin: miter; stroke-linecap: square"/>
   </g>
   <g id="patch_4">
    <path d="M 388.8 252 
L 388.8 34.56 
" style="fill: none; stroke: #000000; stroke-width: 0.8; stroke-linejoin: miter; stroke-linecap: square"/>
   </g>
   <g id="patch_5">
    <path d="M 54 252 
L 388.8 252 
" style="fill: none; stroke: #000000; stroke-width: 0.8; stroke-linejoin: miter; stroke-linecap: square"/>
   </g>
   <g id="patch_6">
    <path d="M 54 34.56 
L 388.8 34.56 
" style="fill: none; stroke: #000000; stroke-width: 0.8; stroke-linejoin: miter; stroke-linecap: square"/>
   </g>
   <g id="PathCollection_1">
    <defs>
     <path id="m24f9a6f1ea" d="M 0 1.5 
C 0.397805 1.5 0.77937 1.341951 1.06066 1.06066 
C 1.341951 0.77937 1.5 0.397805 1.5 0 
C 1.5 -0.397805 1.341951 -0.77937 1.06066 -1.06066 
C 0.77937 -1.341951 0.397805 -1.5 0 -1.5 
C -0.397805 -1.5 -0.77937 -1.341951 -1.06066 -1.06066 
C -1.341951 -0.77937 -1.5 -0.397805 -1.5 0 
C -1.5 0.397805 -1.341951 0.77937 -1.06066 1.06066 
C -0.77937 1.341951 -0.397805 1.5 0 1.5 
z
" style="stroke: #7a7a7a"/>
    </defs>
    <g clip-path="url(#p4a0e61fbd8)">
     <use xlink:href="#m24f9a6f1ea" x="137.7" y="89.587315" style="fill: #ffffff; stroke: #7a7a7a"/>
    </g>
   </g>
   <g id="PathCollection_2">
    <g clip-path="url(#p4a0e61fbd8)">
     <use xlink:href="#m24f9a6f1ea" x="305.1" y="89.587315" style="fill: #ffffff; stroke: #7a7a7a"/>
    </g>
   </g>
  </g>
 </g>
 <defs>
  <clipPath id="p4a0e61fbd8">
   <rect x="54" y="34.56" width="334.8" height="217.44"/>
  </clipPath>
 </defs>
</svg>
