<?xml version="1.0" encoding="utf-8" standalone="no"?>
<!DOCTYPE svg PUBLIC "-//W3C//DTD SVG 1.1//EN"
  "http://www.w3.org/Graphics/SVG/1.1/DTD/svg11.dtd">
<svg xmlns:xlink="http://www.w3.org/1999/xlink" width="432pt" height="288pt" viewBox="0 0 432 288" xmlns="http://www.w3.org/2000/svg" version="1.1">
 <metadata>
  <rdf:RDF xmlns:dc="http://purl.org/dc/elements/1.1/" xmlns:cc="http://creativecommons.org/ns#" xmlns:rdf="http://www.w3.org/1999/02/22-rdf-syntax-ns#">
   <cc:Work>
    <dc:type rdf:resource="http://purl.org/dc/dcmitype/StillImage"/>
    <dc:date>2023-05-03T02:46:53.113907</dc:date>
    <dc:format>image/svg+xml</dc:format>
    <dc:creator>
     <cc:Agent>
      <dc:title>Matplotlib v3.5.3, https://matplotlib.org/</dc:title>
     </cc:Agent>
    </dc:creator>
   </cc:Work>
  </rdf:RDF>
 </metadata>
 <defs>
  <style type="text/css">*{stroke-linejoin: round; stroke-linecap: butt}</style>
 </defs>
 <g id="figure_1">
  <g id="patch_1">
   <path d="M 0 288 
L 432 288 
L 432 0 
L 0 0 
L 0 288 
z
" style="fill: none"/>
  </g>
  <g id="axes_1">
   <g id="patch_2">
    <path d="M 54 252 
L 388.8 252 
L 388.8 34.56 
L 54 34.56 
z
" style="fill: #ffffff"/>
   </g>
   <g id="PolyCollection_1">
    <defs>
     <path id="m7010502b0e" d="M 142.86415 -46.357994 
L 132.53585 -46.357994 
L 129.996202 -48.345105 
L 126.708633 -50.332216 
L 122.701789 -52.319327 
L 118.126521 -54.306439 
L 113.269212 -56.29355 
L 108.535953 -58.280661 
L 104.403471 -60.267772 
L 101.342752 -62.254884 
L 99.731459 -64.241995 
L 99.777438 -66.229106 
L 101.474675 -68.216217 
L 104.604589 -70.203329 
L 108.782275 -72.19044 
L 113.534191 -74.177551 
L 118.385681 -76.164662 
L 122.936194 -78.151773 
L 126.906603 -80.138885 
L 130.15327 -82.125996 
L 132.653383 -84.113107 
L 134.472378 -86.100218 
L 135.725733 -88.08733 
L 136.545032 -90.074441 
L 137.053788 -92.061552 
L 137.354203 -94.048663 
L 137.523027 -96.035775 
L 137.613377 -98.022886 
L 137.659449 -100.009997 
L 137.681844 -101.997108 
L 137.692226 -103.98422 
L 137.696816 -105.971331 
L 137.698753 -107.958442 
L 137.699533 -109.945553 
L 137.699833 -111.932665 
L 137.699943 -113.919776 
L 137.699981 -115.906887 
L 137.699994 -117.893998 
L 137.699998 -119.88111 
L 137.699999 -121.868221 
L 137.7 -123.855332 
L 137.7 -125.842443 
L 137.7 -127.829554 
L 137.7 -129.816666 
L 137.7 -131.803777 
L 137.7 -133.790888 
L 137.7 -135.777999 
L 137.7 -137.765111 
L 137.7 -139.752222 
L 137.7 -141.739333 
L 137.7 -143.726444 
L 137.7 -145.713556 
L 137.7 -147.700667 
L 137.7 -149.687778 
L 137.7 -151.674889 
L 137.7 -153.662001 
L 137.7 -155.649112 
L 137.7 -157.636223 
L 137.7 -159.623334 
L 137.7 -161.610446 
L 137.7 -163.597557 
L 137.7 -165.584668 
L 137.699999 -167.571779 
L 137.699997 -169.55889 
L 137.69999 -171.546002 
L 137.699967 -173.533113 
L 137.699899 -175.520224 
L 137.699705 -177.507335 
L 137.699176 -179.494447 
L 137.697801 -181.481558 
L 137.694385 -183.468669 
L 137.686289 -185.45578 
L 137.667981 -187.442892 
L 137.628485 -189.430003 
L 137.547234 -191.417114 
L 137.387896 -193.404225 
L 137.090165 -195.391337 
L 136.560363 -197.378448 
L 135.663138 -199.365559 
L 134.218251 -201.35267 
L 132.007877 -203.339782 
L 128.799962 -205.326893 
L 124.390849 -207.314004 
L 118.66514 -209.301115 
L 111.663063 -211.288227 
L 103.637937 -213.275338 
L 95.082019 -215.262449 
L 86.701704 -217.24956 
L 79.334083 -219.236671 
L 73.814275 -221.223783 
L 70.821087 -223.210894 
L 70.74 -225.198005 
L 73.581619 -227.185116 
L 78.979397 -229.172228 
L 86.267298 -231.159339 
L 94.61471 -233.14645 
L 103.180891 -235.133561 
L 111.249676 -237.120673 
L 118.316006 -239.107784 
L 124.11385 -241.094895 
L 128.592684 -243.082006 
L 146.807316 -243.082006 
L 146.807316 -243.082006 
L 151.28615 -241.094895 
L 157.083994 -239.107784 
L 164.150324 -237.120673 
L 172.219109 -235.133561 
L 180.78529 -233.14645 
L 189.132702 -231.159339 
L 196.420603 -229.172228 
L 201.818381 -227.185116 
L 204.66 -225.198005 
L 204.578913 -223.210894 
L 201.585725 -221.223783 
L 196.065917 -219.236671 
L 188.698296 -217.24956 
L 180.317981 -215.262449 
L 171.762063 -213.275338 
L 163.736937 -211.288227 
L 156.73486 -209.301115 
L 151.009151 -207.314004 
L 146.600038 -205.326893 
L 143.392123 -203.339782 
L 141.181749 -201.35267 
L 139.736862 -199.365559 
L 138.839637 -197.378448 
L 138.309835 -195.391337 
L 138.012104 -193.404225 
L 137.852766 -191.417114 
L 137.771515 -189.430003 
L 137.732019 -187.442892 
L 137.713711 -185.45578 
L 137.705615 -183.468669 
L 137.702199 -181.481558 
L 137.700824 -179.494447 
L 137.700295 -177.507335 
L 137.700101 -175.520224 
L 137.700033 -173.533113 
L 137.70001 -171.546002 
L 137.700003 -169.55889 
L 137.700001 -167.571779 
L 137.7 -165.584668 
L 137.7 -163.597557 
L 137.7 -161.610446 
L 137.7 -159.623334 
L 137.7 -157.636223 
L 137.7 -155.649112 
L 137.7 -153.662001 
L 137.7 -151.674889 
L 137.7 -149.687778 
L 137.7 -147.700667 
L 137.7 -145.713556 
L 137.7 -143.726444 
L 137.7 -141.739333 
L 137.7 -139.752222 
L 137.7 -137.765111 
L 137.7 -135.777999 
L 137.7 -133.790888 
L 137.7 -131.803777 
L 137.7 -129.816666 
L 137.7 -127.829554 
L 137.7 -125.842443 
L 137.7 -123.855332 
L 137.700001 -121.868221 
L 137.700002 -119.88111 
L 137.700006 -117.893998 
L 137.700019 -115.906887 
L 137.700057 -113.919776 
L 137.700167 -111.932665 
L 137.700467 -109.945553 
L 137.701247 -107.958442 
L 137.703184 -105.971331 
L 137.707774 -103.98422 
L 137.718156 -101.997108 
L 137.740551 -100.009997 
L 137.786623 -98.022886 
L 137.876973 -96.035775 
L 138.045797 -94.048663 
L 138.346212 -92.061552 
L 138.854968 -90.074441 
L 139.674267 -88.08733 
L 140.927622 -86.100218 
L 142.746617 -84.113107 
L 145.24673 -82.125996 
L 148.493397 -80.138885 
L 152.463806 -78.151773 
L 157.014319 -76.164662 
L 161.865809 -74.177551 
L 166.617725 -72.19044 
L 170.795411 -70.203329 
L 173.925325 -68.216217 
L 175.622562 -66.229106 
L 175.668541 -64.241995 
L 174.057248 -62.254884 
L 170.996529 -60.267772 
L 166.864047 -58.280661 
L 162.130788 -56.29355 
L 157.273479 -54.306439 
L 152.698211 -52.319327 
L 148.691367 -50.332216 
L 145.403798 -48.345105 
L 142.86415 -46.357994 
z
" style="stroke: #7a7a7a; stroke-width: 1.5"/>
    </defs>
    <g clip-path="url(#pc2770c4965)">
     <use xlink:href="#m7010502b0e" x="0" y="288" style="fill: #f1bcb8; stroke: #7a7a7a; stroke-width: 1.5"/>
    </g>
   </g>
   <g id="PolyCollection_2">
    <defs>
     <path id="m96021a1221" d="M 310.870935 -45.883636 
L 299.329065 -45.883636 
L 296.555473 -47.880331 
L 292.97916 -49.877025 
L 288.626716 -51.873719 
L 283.649843 -53.870413 
L 278.340157 -55.867107 
L 273.115507 -57.863802 
L 268.473268 -59.860496 
L 264.915396 -61.85719 
L 262.85999 -63.853884 
L 262.560622 -65.850579 
L 264.054923 -67.847273 
L 267.156812 -69.843967 
L 271.494577 -71.840661 
L 276.584058 -73.837355 
L 281.917039 -75.83405 
L 287.042698 -77.830744 
L 291.624662 -79.827438 
L 295.465499 -81.824132 
L 298.500339 -83.820826 
L 300.768714 -85.817521 
L 302.376579 -87.814215 
L 303.459351 -89.810909 
L 304.153067 -91.807603 
L 304.576369 -93.804298 
L 304.822582 -95.800992 
L 304.959186 -97.797686 
L 305.03152 -99.79438 
L 305.068093 -101.791074 
L 305.085757 -103.787769 
L 305.093909 -105.784463 
L 305.097504 -107.781157 
L 305.09902 -109.777851 
L 305.099631 -111.774545 
L 305.099867 -113.77124 
L 305.099954 -115.767934 
L 305.099985 -117.764628 
L 305.099995 -119.761322 
L 305.099999 -121.758017 
L 305.1 -123.754711 
L 305.1 -125.751405 
L 305.1 -127.748099 
L 305.1 -129.744793 
L 305.1 -131.741488 
L 305.1 -133.738182 
L 305.1 -135.734876 
L 305.1 -137.73157 
L 305.1 -139.728264 
L 305.1 -141.724959 
L 305.1 -143.721653 
L 305.1 -145.718347 
L 305.1 -147.715041 
L 305.1 -149.711736 
L 305.1 -151.70843 
L 305.1 -153.705124 
L 305.1 -155.701818 
L 305.1 -157.698512 
L 305.1 -159.695207 
L 305.1 -161.691901 
L 305.1 -163.688595 
L 305.099999 -165.685289 
L 305.099998 -167.681983 
L 305.099993 -169.678678 
L 305.099979 -171.675372 
L 305.099935 -173.672066 
L 305.099812 -175.66876 
L 305.09948 -177.665455 
L 305.098616 -179.662149 
L 305.096475 -181.658843 
L 305.091398 -183.655537 
L 305.079886 -185.652231 
L 305.054942 -187.648926 
L 305.003293 -189.64562 
L 304.901142 -191.642314 
L 304.708229 -193.639008 
L 304.360526 -195.635702 
L 303.762739 -197.632397 
L 302.783072 -199.629091 
L 301.253978 -201.625785 
L 298.983348 -203.622479 
L 295.779943 -205.619174 
L 291.494135 -207.615868 
L 286.070098 -209.612562 
L 279.599436 -211.609256 
L 272.36097 -213.60595 
L 264.829721 -215.602645 
L 257.642345 -217.599339 
L 251.516543 -219.596033 
L 247.136049 -221.592727 
L 245.025793 -223.589421 
L 245.448562 -225.586116 
L 248.351211 -227.58281 
L 253.375645 -229.579504 
L 259.931427 -231.576198 
L 267.309688 -233.572893 
L 274.808039 -235.569587 
L 281.836391 -237.566281 
L 287.982922 -239.562975 
L 293.033399 -241.559669 
L 296.950272 -243.556364 
L 313.249728 -243.556364 
L 313.249728 -243.556364 
L 317.166601 -241.559669 
L 322.217078 -239.562975 
L 328.363609 -237.566281 
L 335.391961 -235.569587 
L 342.890312 -233.572893 
L 350.268573 -231.576198 
L 356.824355 -229.579504 
L 361.848789 -227.58281 
L 364.751438 -225.586116 
L 365.174207 -223.589421 
L 363.063951 -221.592727 
L 358.683457 -219.596033 
L 352.557655 -217.599339 
L 345.370279 -215.602645 
L 337.83903 -213.60595 
L 330.600564 -211.609256 
L 324.129902 -209.612562 
L 318.705865 -207.615868 
L 314.420057 -205.619174 
L 311.216652 -203.622479 
L 308.946022 -201.625785 
L 307.416928 -199.629091 
L 306.437261 -197.632397 
L 305.839474 -195.635702 
L 305.491771 -193.639008 
L 305.298858 -191.642314 
L 305.196707 -189.64562 
L 305.145058 -187.648926 
L 305.120114 -185.652231 
L 305.108602 -183.655537 
L 305.103525 -181.658843 
L 305.101384 -179.662149 
L 305.10052 -177.665455 
L 305.100188 -175.66876 
L 305.100065 -173.672066 
L 305.100021 -171.675372 
L 305.100007 -169.678678 
L 305.100002 -167.681983 
L 305.100001 -165.685289 
L 305.1 -163.688595 
L 305.1 -161.691901 
L 305.1 -159.695207 
L 305.1 -157.698512 
L 305.1 -155.701818 
L 305.1 -153.705124 
L 305.1 -151.70843 
L 305.1 -149.711736 
L 305.1 -147.715041 
L 305.1 -145.718347 
L 305.1 -143.721653 
L 305.1 -141.724959 
L 305.1 -139.728264 
L 305.1 -137.73157 
L 305.1 -135.734876 
L 305.1 -133.738182 
L 305.1 -131.741488 
L 305.1 -129.744793 
L 305.1 -127.748099 
L 305.1 -125.751405 
L 305.1 -123.754711 
L 305.100001 -121.758017 
L 305.100005 -119.761322 
L 305.100015 -117.764628 
L 305.100046 -115.767934 
L 305.100133 -113.77124 
L 305.100369 -111.774545 
L 305.10098 -109.777851 
L 305.102496 -107.781157 
L 305.106091 -105.784463 
L 305.114243 -103.787769 
L 305.131907 -101.791074 
L 305.16848 -99.79438 
L 305.240814 -97.797686 
L 305.377418 -95.800992 
L 305.623631 -93.804298 
L 306.046933 -91.807603 
L 306.740649 -89.810909 
L 307.823421 -87.814215 
L 309.431286 -85.817521 
L 311.699661 -83.820826 
L 314.734501 -81.824132 
L 318.575338 -79.827438 
L 323.157302 -77.830744 
L 328.282961 -75.83405 
L 333.615942 -73.837355 
L 338.705423 -71.840661 
L 343.043188 -69.843967 
L 346.145077 -67.847273 
L 347.639378 -65.850579 
L 347.34001 -63.853884 
L 345.284604 -61.85719 
L 341.726732 -59.860496 
L 337.084493 -57.863802 
L 331.859843 -55.867107 
L 326.550157 -53.870413 
L 321.573284 -51.873719 
L 317.22084 -49.877025 
L 313.644527 -47.880331 
L 310.870935 -45.883636 
z
" style="stroke: #7a7a7a; stroke-width: 1.5"/>
    </defs>
    <g clip-path="url(#pc2770c4965)">
     <use xlink:href="#m96021a1221" x="0" y="288" style="fill: #b9ccdd; stroke: #7a7a7a; stroke-width: 1.5"/>
    </g>
   </g>
   <g id="matplotlib.axis_1">
    <g id="xtick_1">
     <g id="line2d_1">
      <defs>
       <path id="mf06768a82d" d="M 0 0 
L 0 3.5 
" style="stroke: #000000; stroke-width: 0.8"/>
      </defs>
      <g>
       <use xlink:href="#mf06768a82d" x="137.7" y="252" style="stroke: #000000; stroke-width: 0.8"/>
      </g>
     </g>
     <g id="text_1">
      <!-- 0.0 -->
      <g transform="translate(129.748437 266.598437)scale(0.1 -0.1)">
       <defs>
        <path id="DejaVuSans-30" d="M 2034 4250 
Q 1547 4250 1301 3770 
Q 1056 3291 1056 2328 
Q 1056 1369 1301 889 
Q 1547 409 2034 409 
Q 2525 409 2770 889 
Q 3016 1369 3016 2328 
Q 3016 3291 2770 3770 
Q 2525 4250 2034 4250 
z
M 2034 4750 
Q 2819 4750 3233 4129 
Q 3647 3509 3647 2328 
Q 3647 1150 3233 529 
Q 2819 -91 2034 -91 
Q 1250 -91 836 529 
Q 422 1150 422 2328 
Q 422 3509 836 4129 
Q 1250 4750 2034 4750 
z
" transform="scale(0.015625)"/>
        <path id="DejaVuSans-2e" d="M 684 794 
L 1344 794 
L 1344 0 
L 684 0 
L 684 794 
z
" transform="scale(0.015625)"/>
       </defs>
       <use xlink:href="#DejaVuSans-30"/>
       <use xlink:href="#DejaVuSans-2e" x="63.623047"/>
       <use xlink:href="#DejaVuSans-30" x="95.410156"/>
      </g>
     </g>
    </g>
    <g id="xtick_2">
     <g id="line2d_2">
      <g>
       <use xlink:href="#mf06768a82d" x="305.1" y="252" style="stroke: #000000; stroke-width: 0.8"/>
      </g>
     </g>
     <g id="text_2">
      <!-- 1.0 -->
      <g transform="translate(297.148438 266.598437)scale(0.1 -0.1)">
       <defs>
        <path id="DejaVuSans-31" d="M 794 531 
L 1825 531 
L 1825 4091 
L 703 3866 
L 703 4441 
L 1819 4666 
L 2450 4666 
L 2450 531 
L 3481 531 
L 3481 0 
L 794 0 
L 794 531 
z
" transform="scale(0.015625)"/>
       </defs>
       <use xlink:href="#DejaVuSans-31"/>
       <use xlink:href="#DejaVuSans-2e" x="63.623047"/>
       <use xlink:href="#DejaVuSans-30" x="95.410156"/>
      </g>
     </g>
    </g>
    <g id="text_3">
     <!-- Diabetes_binary -->
     <g transform="translate(180.89375 280.276563)scale(0.1 -0.1)">
      <defs>
       <path id="DejaVuSans-44" d="M 1259 4147 
L 1259 519 
L 2022 519 
Q 2988 519 3436 956 
Q 3884 1394 3884 2338 
Q 3884 3275 3436 3711 
Q 2988 4147 2022 4147 
L 1259 4147 
z
M 628 4666 
L 1925 4666 
Q 3281 4666 3915 4102 
Q 4550 3538 4550 2338 
Q 4550 1131 3912 565 
Q 3275 0 1925 0 
L 628 0 
L 628 4666 
z
" transform="scale(0.015625)"/>
       <path id="DejaVuSans-69" d="M 603 3500 
L 1178 3500 
L 1178 0 
L 603 0 
L 603 3500 
z
M 603 4863 
L 1178 4863 
L 1178 4134 
L 603 4134 
L 603 4863 
z
" transform="scale(0.015625)"/>
       <path id="DejaVuSans-61" d="M 2194 1759 
Q 1497 1759 1228 1600 
Q 959 1441 959 1056 
Q 959 750 1161 570 
Q 1363 391 1709 391 
Q 2188 391 2477 730 
Q 2766 1069 2766 1631 
L 2766 1759 
L 2194 1759 
z
M 3341 1997 
L 3341 0 
L 2766 0 
L 2766 531 
Q 2569 213 2275 61 
Q 1981 -91 1556 -91 
Q 1019 -91 701 211 
Q 384 513 384 1019 
Q 384 1609 779 1909 
Q 1175 2209 1959 2209 
L 2766 2209 
L 2766 2266 
Q 2766 2663 2505 2880 
Q 2244 3097 1772 3097 
Q 1472 3097 1187 3025 
Q 903 2953 641 2809 
L 641 3341 
Q 956 3463 1253 3523 
Q 1550 3584 1831 3584 
Q 2591 3584 2966 3190 
Q 3341 2797 3341 1997 
z
" transform="scale(0.015625)"/>
       <path id="DejaVuSans-62" d="M 3116 1747 
Q 3116 2381 2855 2742 
Q 2594 3103 2138 3103 
Q 1681 3103 1420 2742 
Q 1159 2381 1159 1747 
Q 1159 1113 1420 752 
Q 1681 391 2138 391 
Q 2594 391 2855 752 
Q 3116 1113 3116 1747 
z
M 1159 2969 
Q 1341 3281 1617 3432 
Q 1894 3584 2278 3584 
Q 2916 3584 3314 3078 
Q 3713 2572 3713 1747 
Q 3713 922 3314 415 
Q 2916 -91 2278 -91 
Q 1894 -91 1617 61 
Q 1341 213 1159 525 
L 1159 0 
L 581 0 
L 581 4863 
L 1159 4863 
L 1159 2969 
z
" transform="scale(0.015625)"/>
       <path id="DejaVuSans-65" d="M 3597 1894 
L 3597 1613 
L 953 1613 
Q 991 1019 1311 708 
Q 1631 397 2203 397 
Q 2534 397 2845 478 
Q 3156 559 3463 722 
L 3463 178 
Q 3153 47 2828 -22 
Q 2503 -91 2169 -91 
Q 1331 -91 842 396 
Q 353 884 353 1716 
Q 353 2575 817 3079 
Q 1281 3584 2069 3584 
Q 2775 3584 3186 3129 
Q 3597 2675 3597 1894 
z
M 3022 2063 
Q 3016 2534 2758 2815 
Q 2500 3097 2075 3097 
Q 1594 3097 1305 2825 
Q 1016 2553 972 2059 
L 3022 2063 
z
" transform="scale(0.015625)"/>
       <path id="DejaVuSans-74" d="M 1172 4494 
L 1172 3500 
L 2356 3500 
L 2356 3053 
L 1172 3053 
L 1172 1153 
Q 1172 725 1289 603 
Q 1406 481 1766 481 
L 2356 481 
L 2356 0 
L 1766 0 
Q 1100 0 847 248 
Q 594 497 594 1153 
L 594 3053 
L 172 3053 
L 172 3500 
L 594 3500 
L 594 4494 
L 1172 4494 
z
" transform="scale(0.015625)"/>
       <path id="DejaVuSans-73" d="M 2834 3397 
L 2834 2853 
Q 2591 2978 2328 3040 
Q 2066 3103 1784 3103 
Q 1356 3103 1142 2972 
Q 928 2841 928 2578 
Q 928 2378 1081 2264 
Q 1234 2150 1697 2047 
L 1894 2003 
Q 2506 1872 2764 1633 
Q 3022 1394 3022 966 
Q 3022 478 2636 193 
Q 2250 -91 1575 -91 
Q 1294 -91 989 -36 
Q 684 19 347 128 
L 347 722 
Q 666 556 975 473 
Q 1284 391 1588 391 
Q 1994 391 2212 530 
Q 2431 669 2431 922 
Q 2431 1156 2273 1281 
Q 2116 1406 1581 1522 
L 1381 1569 
Q 847 1681 609 1914 
Q 372 2147 372 2553 
Q 372 3047 722 3315 
Q 1072 3584 1716 3584 
Q 2034 3584 2315 3537 
Q 2597 3491 2834 3397 
z
" transform="scale(0.015625)"/>
       <path id="DejaVuSans-5f" d="M 3263 -1063 
L 3263 -1509 
L -63 -1509 
L -63 -1063 
L 3263 -1063 
z
" transform="scale(0.015625)"/>
       <path id="DejaVuSans-6e" d="M 3513 2113 
L 3513 0 
L 2938 0 
L 2938 2094 
Q 2938 2591 2744 2837 
Q 2550 3084 2163 3084 
Q 1697 3084 1428 2787 
Q 1159 2491 1159 1978 
L 1159 0 
L 581 0 
L 581 3500 
L 1159 3500 
L 1159 2956 
Q 1366 3272 1645 3428 
Q 1925 3584 2291 3584 
Q 2894 3584 3203 3211 
Q 3513 2838 3513 2113 
z
" transform="scale(0.015625)"/>
       <path id="DejaVuSans-72" d="M 2631 2963 
Q 2534 3019 2420 3045 
Q 2306 3072 2169 3072 
Q 1681 3072 1420 2755 
Q 1159 2438 1159 1844 
L 1159 0 
L 581 0 
L 581 3500 
L 1159 3500 
L 1159 2956 
Q 1341 3275 1631 3429 
Q 1922 3584 2338 3584 
Q 2397 3584 2469 3576 
Q 2541 3569 2628 3553 
L 2631 2963 
z
" transform="scale(0.015625)"/>
       <path id="DejaVuSans-79" d="M 2059 -325 
Q 1816 -950 1584 -1140 
Q 1353 -1331 966 -1331 
L 506 -1331 
L 506 -850 
L 844 -850 
Q 1081 -850 1212 -737 
Q 1344 -625 1503 -206 
L 1606 56 
L 191 3500 
L 800 3500 
L 1894 763 
L 2988 3500 
L 3597 3500 
L 2059 -325 
z
" transform="scale(0.015625)"/>
      </defs>
      <use xlink:href="#DejaVuSans-44"/>
      <use xlink:href="#DejaVuSans-69" x="77.001953"/>
      <use xlink:href="#DejaVuSans-61" x="104.785156"/>
      <use xlink:href="#DejaVuSans-62" x="166.064453"/>
      <use xlink:href="#DejaVuSans-65" x="229.541016"/>
      <use xlink:href="#DejaVuSans-74" x="291.064453"/>
      <use xlink:href="#DejaVuSans-65" x="330.273438"/>
      <use xlink:href="#DejaVuSans-73" x="391.796875"/>
      <use xlink:href="#DejaVuSans-5f" x="443.896484"/>
      <use xlink:href="#DejaVuSans-62" x="493.896484"/>
      <use xlink:href="#DejaVuSans-69" x="557.373047"/>
      <use xlink:href="#DejaVuSans-6e" x="585.15625"/>
      <use xlink:href="#DejaVuSans-61" x="648.535156"/>
      <use xlink:href="#DejaVuSans-72" x="709.814453"/>
      <use xlink:href="#DejaVuSans-79" x="750.927734"/>
     </g>
    </g>
   </g>
   <g id="matplotlib.axis_2">
    <g id="ytick_1">
     <g id="line2d_3">
      <defs>
       <path id="m321799c8b1" d="M 0 0 
L -3.5 0 
" style="stroke: #000000; stroke-width: 0.8"/>
      </defs>
      <g>
       <use xlink:href="#m321799c8b1" x="54" y="222.818465" style="stroke: #000000; stroke-width: 0.8"/>
      </g>
     </g>
     <g id="text_4">
      <!-- 0.0 -->
      <g transform="translate(31.096875 226.617684)scale(0.1 -0.1)">
       <use xlink:href="#DejaVuSans-30"/>
       <use xlink:href="#DejaVuSans-2e" x="63.623047"/>
       <use xlink:href="#DejaVuSans-30" x="95.410156"/>
      </g>
     </g>
    </g>
    <g id="ytick_2">
     <g id="line2d_4">
      <g>
       <use xlink:href="#m321799c8b1" x="54" y="191.003079" style="stroke: #000000; stroke-width: 0.8"/>
      </g>
     </g>
     <g id="text_5">
      <!-- 0.2 -->
      <g transform="translate(31.096875 194.802298)scale(0.1 -0.1)">
       <defs>
        <path id="DejaVuSans-32" d="M 1228 531 
L 3431 531 
L 3431 0 
L 469 0 
L 469 531 
Q 828 903 1448 1529 
Q 2069 2156 2228 2338 
Q 2531 2678 2651 2914 
Q 2772 3150 2772 3378 
Q 2772 3750 2511 3984 
Q 2250 4219 1831 4219 
Q 1534 4219 1204 4116 
Q 875 4013 500 3803 
L 500 4441 
Q 881 4594 1212 4672 
Q 1544 4750 1819 4750 
Q 2544 4750 2975 4387 
Q 3406 4025 3406 3419 
Q 3406 3131 3298 2873 
Q 3191 2616 2906 2266 
Q 2828 2175 2409 1742 
Q 1991 1309 1228 531 
z
" transform="scale(0.015625)"/>
       </defs>
       <use xlink:href="#DejaVuSans-30"/>
       <use xlink:href="#DejaVuSans-2e" x="63.623047"/>
       <use xlink:href="#DejaVuSans-32" x="95.410156"/>
      </g>
     </g>
    </g>
    <g id="ytick_3">
     <g id="line2d_5">
      <g>
       <use xlink:href="#m321799c8b1" x="54" y="159.187693" style="stroke: #000000; stroke-width: 0.8"/>
      </g>
     </g>
     <g id="text_6">
      <!-- 0.4 -->
      <g transform="translate(31.096875 162.986912)scale(0.1 -0.1)">
       <defs>
        <path id="DejaVuSans-34" d="M 2419 4116 
L 825 1625 
L 2419 1625 
L 2419 4116 
z
M 2253 4666 
L 3047 4666 
L 3047 1625 
L 3713 1625 
L 3713 1100 
L 3047 1100 
L 3047 0 
L 2419 0 
L 2419 1100 
L 313 1100 
L 313 1709 
L 2253 4666 
z
" transform="scale(0.015625)"/>
       </defs>
       <use xlink:href="#DejaVuSans-30"/>
       <use xlink:href="#DejaVuSans-2e" x="63.623047"/>
       <use xlink:href="#DejaVuSans-34" x="95.410156"/>
      </g>
     </g>
    </g>
    <g id="ytick_4">
     <g id="line2d_6">
      <g>
       <use xlink:href="#m321799c8b1" x="54" y="127.372307" style="stroke: #000000; stroke-width: 0.8"/>
      </g>
     </g>
     <g id="text_7">
      <!-- 0.6 -->
      <g transform="translate(31.096875 131.171526)scale(0.1 -0.1)">
       <defs>
        <path id="DejaVuSans-36" d="M 2113 2584 
Q 1688 2584 1439 2293 
Q 1191 2003 1191 1497 
Q 1191 994 1439 701 
Q 1688 409 2113 409 
Q 2538 409 2786 701 
Q 3034 994 3034 1497 
Q 3034 2003 2786 2293 
Q 2538 2584 2113 2584 
z
M 3366 4563 
L 3366 3988 
Q 3128 4100 2886 4159 
Q 2644 4219 2406 4219 
Q 1781 4219 1451 3797 
Q 1122 3375 1075 2522 
Q 1259 2794 1537 2939 
Q 1816 3084 2150 3084 
Q 2853 3084 3261 2657 
Q 3669 2231 3669 1497 
Q 3669 778 3244 343 
Q 2819 -91 2113 -91 
Q 1303 -91 875 529 
Q 447 1150 447 2328 
Q 447 3434 972 4092 
Q 1497 4750 2381 4750 
Q 2619 4750 2861 4703 
Q 3103 4656 3366 4563 
z
" transform="scale(0.015625)"/>
       </defs>
       <use xlink:href="#DejaVuSans-30"/>
       <use xlink:href="#DejaVuSans-2e" x="63.623047"/>
       <use xlink:href="#DejaVuSans-36" x="95.410156"/>
      </g>
     </g>
    </g>
    <g id="ytick_5">
     <g id="line2d_7">
      <g>
       <use xlink:href="#m321799c8b1" x="54" y="95.556921" style="stroke: #000000; stroke-width: 0.8"/>
      </g>
     </g>
     <g id="text_8">
      <!-- 0.8 -->
      <g transform="translate(31.096875 99.35614)scale(0.1 -0.1)">
       <defs>
        <path id="DejaVuSans-38" d="M 2034 2216 
Q 1584 2216 1326 1975 
Q 1069 1734 1069 1313 
Q 1069 891 1326 650 
Q 1584 409 2034 409 
Q 2484 409 2743 651 
Q 3003 894 3003 1313 
Q 3003 1734 2745 1975 
Q 2488 2216 2034 2216 
z
M 1403 2484 
Q 997 2584 770 2862 
Q 544 3141 544 3541 
Q 544 4100 942 4425 
Q 1341 4750 2034 4750 
Q 2731 4750 3128 4425 
Q 3525 4100 3525 3541 
Q 3525 3141 3298 2862 
Q 3072 2584 2669 2484 
Q 3125 2378 3379 2068 
Q 3634 1759 3634 1313 
Q 3634 634 3220 271 
Q 2806 -91 2034 -91 
Q 1263 -91 848 271 
Q 434 634 434 1313 
Q 434 1759 690 2068 
Q 947 2378 1403 2484 
z
M 1172 3481 
Q 1172 3119 1398 2916 
Q 1625 2713 2034 2713 
Q 2441 2713 2670 2916 
Q 2900 3119 2900 3481 
Q 2900 3844 2670 4047 
Q 2441 4250 2034 4250 
Q 1625 4250 1398 4047 
Q 1172 3844 1172 3481 
z
" transform="scale(0.015625)"/>
       </defs>
       <use xlink:href="#DejaVuSans-30"/>
       <use xlink:href="#DejaVuSans-2e" x="63.623047"/>
       <use xlink:href="#DejaVuSans-38" x="95.410156"/>
      </g>
     </g>
    </g>
    <g id="ytick_6">
     <g id="line2d_8">
      <g>
       <use xlink:href="#m321799c8b1" x="54" y="63.741535" style="stroke: #000000; stroke-width: 0.8"/>
      </g>
     </g>
     <g id="text_9">
      <!-- 1.0 -->
      <g transform="translate(31.096875 67.540754)scale(0.1 -0.1)">
       <use xlink:href="#DejaVuSans-31"/>
       <use xlink:href="#DejaVuSans-2e" x="63.623047"/>
       <use xlink:href="#DejaVuSans-30" x="95.410156"/>
      </g>
     </g>
    </g>
    <g id="text_10">
     <!-- Fruits -->
     <g transform="translate(25.017187 156.971406)rotate(-90)scale(0.1 -0.1)">
      <defs>
       <path id="DejaVuSans-46" d="M 628 4666 
L 3309 4666 
L 3309 4134 
L 1259 4134 
L 1259 2759 
L 3109 2759 
L 3109 2228 
L 1259 2228 
L 1259 0 
L 628 0 
L 628 4666 
z
" transform="scale(0.015625)"/>
       <path id="DejaVuSans-75" d="M 544 1381 
L 544 3500 
L 1119 3500 
L 1119 1403 
Q 1119 906 1312 657 
Q 1506 409 1894 409 
Q 2359 409 2629 706 
Q 2900 1003 2900 1516 
L 2900 3500 
L 3475 3500 
L 3475 0 
L 2900 0 
L 2900 538 
Q 2691 219 2414 64 
Q 2138 -91 1772 -91 
Q 1169 -91 856 284 
Q 544 659 544 1381 
z
M 1991 3584 
L 1991 3584 
z
" transform="scale(0.015625)"/>
      </defs>
      <use xlink:href="#DejaVuSans-46"/>
      <use xlink:href="#DejaVuSans-72" x="50.269531"/>
      <use xlink:href="#DejaVuSans-75" x="91.382812"/>
      <use xlink:href="#DejaVuSans-69" x="154.761719"/>
      <use xlink:href="#DejaVuSans-74" x="182.544922"/>
      <use xlink:href="#DejaVuSans-73" x="221.753906"/>
     </g>
    </g>
   </g>
   <g id="line2d_9">
    <path d="M 137.7 222.818465 
L 137.7 63.741535 
" clip-path="url(#pc2770c4965)" style="fill: none; stroke: #7a7a7a; stroke-width: 1.5; stroke-linecap: square"/>
   </g>
   <g id="line2d_10">
    <path d="M 137.7 222.818465 
L 137.7 63.741535 
" clip-path="url(#pc2770c4965)" style="fill: none; stroke: #7a7a7a; stroke-width: 4.5; stroke-linecap: square"/>
   </g>
   <g id="line2d_11">
    <path d="M 305.1 222.818465 
L 305.1 63.741535 
" clip-path="url(#pc2770c4965)" style="fill: none; stroke: #7a7a7a; stroke-width: 1.5; stroke-linecap: square"/>
   </g>
   <g id="line2d_12">
    <path d="M 305.1 222.818465 
L 305.1 63.741535 
" clip-path="url(#pc2770c4965)" style="fill: none; stroke: #7a7a7a; stroke-width: 4.5; stroke-linecap: square"/>
   </g>
   <g id="patch_3">
    <path d="M 54 252 
L 54 34.56 
" style="fill: none; stroke: #000000; stroke-width: 0.8; stroke-linejoin: miter; stroke-linecap: square"/>
   </g>
   <g id="patch_4">
    <path d="M 388.8 252 
L 388.8 34.56 
" style="fill: none; stroke: #000000; stroke-width: 0.8; stroke-linejoin: miter; stroke-linecap: square"/>
   </g>
   <g id="patch_5">
    <path d="M 54 252 
L 388.8 252 
" style="fill: none; stroke: #000000; stroke-width: 0.8; stroke-linejoin: miter; stroke-linecap: square"/>
   </g>
   <g id="patch_6">
    <path d="M 54 34.56 
L 388.8 34.56 
" style="fill: none; stroke: #000000; stroke-width: 0.8; stroke-linejoin: miter; stroke-linecap: square"/>
   </g>
   <g id="PathCollection_1">
    <defs>
     <path id="mdfa4d02cae" d="M 0 1.5 
C 0.397805 1.5 0.77937 1.341951 1.06066 1.06066 
C 1.341951 0.77937 1.5 0.397805 1.5 0 
C 1.5 -0.397805 1.341951 -0.77937 1.06066 -1.06066 
C 0.77937 -1.341951 0.397805 -1.5 0 -1.5 
C -0.397805 -1.5 -0.77937 -1.341951 -1.06066 -1.06066 
C -1.341951 -0.77937 -1.5 -0.397805 -1.5 0 
C -1.5 0.397805 -1.341951 0.77937 -1.06066 1.06066 
C -0.77937 1.341951 -0.397805 1.5 0 1.5 
z
" style="stroke: #7a7a7a"/>
    </defs>
    <g clip-path="url(#pc2770c4965)">
     <use xlink:href="#mdfa4d02cae" x="137.7" y="63.741535" style="fill: #ffffff; stroke: #7a7a7a"/>
    </g>
   </g>
   <g id="PathCollection_2">
    <g clip-path="url(#pc2770c4965)">
     <use xlink:href="#mdfa4d02cae" x="305.1" y="63.741535" style="fill: #ffffff; stroke: #7a7a7a"/>
    </g>
   </g>
  </g>
 </g>
 <defs>
  <clipPath id="pc2770c4965">
   <rect x="54" y="34.56" width="334.8" height="217.44"/>
  </clipPath>
 </defs>
</svg>
