<?xml version="1.0" encoding="utf-8" standalone="no"?>
<!DOCTYPE svg PUBLIC "-//W3C//DTD SVG 1.1//EN"
  "http://www.w3.org/Graphics/SVG/1.1/DTD/svg11.dtd">
<svg xmlns:xlink="http://www.w3.org/1999/xlink" width="432pt" height="288pt" viewBox="0 0 432 288" xmlns="http://www.w3.org/2000/svg" version="1.1">
 <metadata>
  <rdf:RDF xmlns:dc="http://purl.org/dc/elements/1.1/" xmlns:cc="http://creativecommons.org/ns#" xmlns:rdf="http://www.w3.org/1999/02/22-rdf-syntax-ns#">
   <cc:Work>
    <dc:type rdf:resource="http://purl.org/dc/dcmitype/StillImage"/>
    <dc:date>2023-05-03T02:46:54.910991</dc:date>
    <dc:format>image/svg+xml</dc:format>
    <dc:creator>
     <cc:Agent>
      <dc:title>Matplotlib v3.5.3, https://matplotlib.org/</dc:title>
     </cc:Agent>
    </dc:creator>
   </cc:Work>
  </rdf:RDF>
 </metadata>
 <defs>
  <style type="text/css">*{stroke-linejoin: round; stroke-linecap: butt}</style>
 </defs>
 <g id="figure_1">
  <g id="patch_1">
   <path d="M 0 288 
L 432 288 
L 432 0 
L 0 0 
L 0 288 
z
" style="fill: none"/>
  </g>
  <g id="axes_1">
   <g id="patch_2">
    <path d="M 54 252 
L 388.8 252 
L 388.8 34.56 
L 54 34.56 
z
" style="fill: #ffffff"/>
   </g>
   <g id="PolyCollection_1">
    <defs>
     <path id="m00cc8de585" d="M 142.524345 -45.883636 
L 132.875655 -45.883636 
L 128.396035 -47.880331 
L 121.948781 -49.877025 
L 114.29133 -51.873719 
L 107.160934 -53.870413 
L 102.725524 -55.867107 
L 102.538845 -57.863802 
L 106.669305 -59.860496 
L 113.659897 -61.85719 
L 121.350759 -63.853884 
L 127.939427 -65.850579 
L 132.584718 -67.847273 
L 135.346675 -69.843967 
L 136.749525 -71.840661 
L 137.362608 -73.837355 
L 137.592667 -75.83405 
L 137.659512 -77.830744 
L 137.643363 -79.827438 
L 137.514931 -81.824132 
L 137.104984 -83.820826 
L 136.008901 -85.817521 
L 133.479156 -87.814215 
L 128.451828 -89.810909 
L 119.911899 -91.807603 
L 107.665546 -93.804298 
L 93.182953 -95.800992 
L 79.777219 -97.797686 
L 71.541002 -99.79438 
L 71.364673 -101.791074 
L 79.312849 -103.787769 
L 92.58654 -105.784463 
L 107.100703 -107.781157 
L 119.480636 -109.777851 
L 128.177051 -111.774545 
L 133.330549 -113.77124 
L 135.940007 -115.767934 
L 137.077374 -117.764628 
L 137.504963 -119.761322 
L 137.638351 -121.758017 
L 137.649591 -123.754711 
L 137.558179 -125.751405 
L 137.249917 -127.748099 
L 136.42498 -129.744793 
L 134.526221 -131.741488 
L 130.764519 -133.738182 
L 124.395633 -135.734876 
L 115.295853 -137.73157 
L 104.580859 -139.728264 
L 94.722003 -141.724959 
L 88.741318 -143.721653 
L 88.741318 -145.718347 
L 94.722003 -147.715041 
L 104.580859 -149.711736 
L 115.295853 -151.70843 
L 124.395633 -153.705124 
L 130.764521 -155.701818 
L 134.526229 -157.698512 
L 136.425038 -159.695207 
L 137.250278 -161.691901 
L 137.560134 -163.688595 
L 137.658901 -165.685289 
L 137.677274 -167.681983 
L 137.647816 -169.678678 
L 137.537614 -171.675372 
L 137.241664 -173.672066 
L 136.562207 -175.66876 
L 135.220263 -177.665455 
L 132.955754 -179.662149 
L 129.732071 -181.658843 
L 125.952644 -183.655537 
L 122.49623 -185.652231 
L 120.426558 -187.648926 
L 120.472474 -189.64562 
L 122.61715 -191.642314 
L 126.107947 -193.639008 
L 129.879154 -195.635702 
L 133.068053 -197.632397 
L 135.291815 -199.629091 
L 136.600911 -201.625785 
L 137.259649 -203.622479 
L 137.545084 -205.619174 
L 137.651936 -207.615868 
L 137.685858 -209.612562 
L 137.691983 -211.609256 
L 137.681297 -213.60595 
L 137.641854 -215.602645 
L 137.536302 -217.599339 
L 137.294708 -219.596033 
L 136.819043 -221.592727 
L 136.019028 -223.589421 
L 134.884323 -225.586116 
L 133.559798 -227.58281 
L 132.355873 -229.579504 
L 131.644522 -231.576198 
L 131.676672 -233.572893 
L 132.440542 -235.569587 
L 133.668543 -237.566281 
L 134.987315 -239.562975 
L 136.097665 -241.559669 
L 136.869148 -243.556364 
L 138.530852 -243.556364 
L 138.530852 -243.556364 
L 139.302335 -241.559669 
L 140.412685 -239.562975 
L 141.731457 -237.566281 
L 142.959458 -235.569587 
L 143.723328 -233.572893 
L 143.755478 -231.576198 
L 143.044127 -229.579504 
L 141.840202 -227.58281 
L 140.515677 -225.586116 
L 139.380972 -223.589421 
L 138.580957 -221.592727 
L 138.105292 -219.596033 
L 137.863698 -217.599339 
L 137.758146 -215.602645 
L 137.718703 -213.60595 
L 137.708017 -211.609256 
L 137.714142 -209.612562 
L 137.748064 -207.615868 
L 137.854916 -205.619174 
L 138.140351 -203.622479 
L 138.799089 -201.625785 
L 140.108185 -199.629091 
L 142.331947 -197.632397 
L 145.520846 -195.635702 
L 149.292053 -193.639008 
L 152.78285 -191.642314 
L 154.927526 -189.64562 
L 154.973442 -187.648926 
L 152.90377 -185.652231 
L 149.447356 -183.655537 
L 145.667929 -181.658843 
L 142.444246 -179.662149 
L 140.179737 -177.665455 
L 138.837793 -175.66876 
L 138.158336 -173.672066 
L 137.862386 -171.675372 
L 137.752184 -169.678678 
L 137.722726 -167.681983 
L 137.741099 -165.685289 
L 137.839866 -163.688595 
L 138.149722 -161.691901 
L 138.974962 -159.695207 
L 140.873771 -157.698512 
L 144.635479 -155.701818 
L 151.004367 -153.705124 
L 160.104147 -151.70843 
L 170.819141 -149.711736 
L 180.677997 -147.715041 
L 186.658682 -145.718347 
L 186.658682 -143.721653 
L 180.677997 -141.724959 
L 170.819141 -139.728264 
L 160.104147 -137.73157 
L 151.004367 -135.734876 
L 144.635481 -133.738182 
L 140.873779 -131.741488 
L 138.97502 -129.744793 
L 138.150083 -127.748099 
L 137.841821 -125.751405 
L 137.750409 -123.754711 
L 137.761649 -121.758017 
L 137.895037 -119.761322 
L 138.322626 -117.764628 
L 139.459993 -115.767934 
L 142.069451 -113.77124 
L 147.222949 -111.774545 
L 155.919364 -109.777851 
L 168.299297 -107.781157 
L 182.81346 -105.784463 
L 196.087151 -103.787769 
L 204.035327 -101.791074 
L 203.858998 -99.79438 
L 195.622781 -97.797686 
L 182.217047 -95.800992 
L 167.734454 -93.804298 
L 155.488101 -91.807603 
L 146.948172 -89.810909 
L 141.920844 -87.814215 
L 139.391099 -85.817521 
L 138.295016 -83.820826 
L 137.885069 -81.824132 
L 137.756637 -79.827438 
L 137.740488 -77.830744 
L 137.807333 -75.83405 
L 138.037392 -73.837355 
L 138.650475 -71.840661 
L 140.053325 -69.843967 
L 142.815282 -67.847273 
L 147.460573 -65.850579 
L 154.049241 -63.853884 
L 161.740103 -61.85719 
L 168.730695 -59.860496 
L 172.861155 -57.863802 
L 172.674476 -55.867107 
L 168.239066 -53.870413 
L 161.10867 -51.873719 
L 153.451219 -49.877025 
L 147.003965 -47.880331 
L 142.524345 -45.883636 
z
" style="stroke: #7a7a7a; stroke-width: 1.5"/>
    </defs>
    <g clip-path="url(#p618c39fce5)">
     <use xlink:href="#m00cc8de585" x="0" y="288" style="fill: #f1bcb8; stroke: #7a7a7a; stroke-width: 1.5"/>
    </g>
   </g>
   <g id="PolyCollection_2">
    <defs>
     <path id="m4b8ff665ec" d="M 305.880601 -46.033062 
L 304.319399 -46.033062 
L 303.583723 -48.026737 
L 302.522728 -50.020413 
L 301.26669 -52.014088 
L 300.110927 -54.007764 
L 299.418044 -56.001439 
L 299.437503 -57.995115 
L 300.16201 -59.98879 
L 301.331881 -61.982466 
L 302.583881 -63.976141 
L 303.629822 -65.969817 
L 304.348307 -67.963492 
L 304.763684 -69.957168 
L 304.968306 -71.950843 
L 305.05472 -73.944519 
L 305.085502 -75.938194 
L 305.091617 -77.93187 
L 305.078228 -79.925546 
L 305.020354 -81.919221 
L 304.836193 -83.912897 
L 304.33398 -85.906572 
L 303.153439 -87.900248 
L 300.771572 -89.893923 
L 296.677818 -91.887599 
L 290.759933 -93.881274 
L 283.734657 -95.87495 
L 277.245159 -97.868625 
L 273.322215 -99.862301 
L 273.376676 -101.855976 
L 277.388127 -103.849652 
L 283.917111 -105.843327 
L 290.931083 -107.837003 
L 296.806837 -109.830678 
L 300.852474 -111.824354 
L 303.196357 -113.818029 
L 304.353387 -115.811705 
L 304.843447 -117.80538 
L 305.02105 -119.799056 
L 305.069785 -121.792731 
L 305.051942 -123.786407 
L 304.934149 -125.780083 
L 304.551594 -127.773758 
L 303.505142 -129.767434 
L 301.040332 -131.761109 
L 296.057316 -133.754785 
L 287.474692 -135.74846 
L 275.038669 -137.742136 
L 260.234571 -139.735811 
L 246.506752 -141.729487 
L 238.14 -143.723162 
L 238.14 -145.716838 
L 246.506752 -147.710513 
L 260.234571 -149.704189 
L 275.038669 -151.697864 
L 287.474692 -153.69154 
L 296.057316 -155.685215 
L 301.040331 -157.678891 
L 303.505129 -159.672566 
L 304.551506 -161.666242 
L 304.93365 -163.659917 
L 305.049459 -165.653593 
L 305.058985 -167.647269 
L 304.979949 -169.640944 
L 304.706575 -171.63462 
L 303.954544 -173.628295 
L 302.179355 -175.621971 
L 298.583267 -177.615646 
L 292.376278 -179.609322 
L 283.361449 -181.602997 
L 272.600316 -183.596673 
L 262.583273 -185.590348 
L 256.428735 -187.584024 
L 256.345179 -189.577699 
L 262.363926 -191.571375 
L 272.320388 -193.56505 
L 283.098863 -195.558726 
L 292.178332 -197.552401 
L 298.459143 -199.546077 
L 302.113502 -201.539752 
L 303.924729 -203.533428 
L 304.695184 -205.527103 
L 304.977397 -207.520779 
L 305.064576 -209.514454 
L 305.078337 -211.50813 
L 305.0442 -213.501806 
L 304.918594 -215.495481 
L 304.57121 -217.489157 
L 303.749433 -219.482832 
L 302.081358 -221.476508 
L 299.196077 -223.470183 
L 294.995797 -225.463859 
L 289.968027 -227.457534 
L 285.270071 -229.45121 
L 282.360605 -231.444885 
L 282.282463 -233.438561 
L 285.064935 -235.432236 
L 289.706234 -237.425912 
L 294.75022 -239.419587 
L 299.010951 -241.413263 
L 301.965271 -243.406938 
L 308.234729 -243.406938 
L 308.234729 -243.406938 
L 311.189049 -241.413263 
L 315.44978 -239.419587 
L 320.493766 -237.425912 
L 325.135065 -235.432236 
L 327.917537 -233.438561 
L 327.839395 -231.444885 
L 324.929929 -229.45121 
L 320.231973 -227.457534 
L 315.204203 -225.463859 
L 311.003923 -223.470183 
L 308.118642 -221.476508 
L 306.450567 -219.482832 
L 305.62879 -217.489157 
L 305.281406 -215.495481 
L 305.1558 -213.501806 
L 305.121663 -211.50813 
L 305.135424 -209.514454 
L 305.222603 -207.520779 
L 305.504816 -205.527103 
L 306.275271 -203.533428 
L 308.086498 -201.539752 
L 311.740857 -199.546077 
L 318.021668 -197.552401 
L 327.101137 -195.558726 
L 337.879612 -193.56505 
L 347.836074 -191.571375 
L 353.854821 -189.577699 
L 353.771265 -187.584024 
L 347.616727 -185.590348 
L 337.599684 -183.596673 
L 326.838551 -181.602997 
L 317.823722 -179.609322 
L 311.616733 -177.615646 
L 308.020645 -175.621971 
L 306.245456 -173.628295 
L 305.493425 -171.63462 
L 305.220051 -169.640944 
L 305.141015 -167.647269 
L 305.150541 -165.653593 
L 305.26635 -163.659917 
L 305.648494 -161.666242 
L 306.694871 -159.672566 
L 309.159669 -157.678891 
L 314.142684 -155.685215 
L 322.725308 -153.69154 
L 335.161331 -151.697864 
L 349.965429 -149.704189 
L 363.693248 -147.710513 
L 372.06 -145.716838 
L 372.06 -143.723162 
L 363.693248 -141.729487 
L 349.965429 -139.735811 
L 335.161331 -137.742136 
L 322.725308 -135.74846 
L 314.142684 -133.754785 
L 309.159668 -131.761109 
L 306.694858 -129.767434 
L 305.648406 -127.773758 
L 305.265851 -125.780083 
L 305.148058 -123.786407 
L 305.130215 -121.792731 
L 305.17895 -119.799056 
L 305.356553 -117.80538 
L 305.846613 -115.811705 
L 307.003643 -113.818029 
L 309.347526 -111.824354 
L 313.393163 -109.830678 
L 319.268917 -107.837003 
L 326.282889 -105.843327 
L 332.811873 -103.849652 
L 336.823324 -101.855976 
L 336.877785 -99.862301 
L 332.954841 -97.868625 
L 326.465343 -95.87495 
L 319.440067 -93.881274 
L 313.522182 -91.887599 
L 309.428428 -89.893923 
L 307.046561 -87.900248 
L 305.86602 -85.906572 
L 305.363807 -83.912897 
L 305.179646 -81.919221 
L 305.121772 -79.925546 
L 305.108383 -77.93187 
L 305.114498 -75.938194 
L 305.14528 -73.944519 
L 305.231694 -71.950843 
L 305.436316 -69.957168 
L 305.851693 -67.963492 
L 306.570178 -65.969817 
L 307.616119 -63.976141 
L 308.868119 -61.982466 
L 310.03799 -59.98879 
L 310.762497 -57.995115 
L 310.781956 -56.001439 
L 310.089073 -54.007764 
L 308.93331 -52.014088 
L 307.677272 -50.020413 
L 306.616277 -48.026737 
L 305.880601 -46.033062 
z
" style="stroke: #7a7a7a; stroke-width: 1.5"/>
    </defs>
    <g clip-path="url(#p618c39fce5)">
     <use xlink:href="#m4b8ff665ec" x="0" y="288" style="fill: #b9ccdd; stroke: #7a7a7a; stroke-width: 1.5"/>
    </g>
   </g>
   <g id="matplotlib.axis_1">
    <g id="xtick_1">
     <g id="line2d_1">
      <defs>
       <path id="m9a562f4d62" d="M 0 0 
L 0 3.5 
" style="stroke: #000000; stroke-width: 0.8"/>
      </defs>
      <g>
       <use xlink:href="#m9a562f4d62" x="137.7" y="252" style="stroke: #000000; stroke-width: 0.8"/>
      </g>
     </g>
     <g id="text_1">
      <!-- 0.0 -->
      <g transform="translate(129.748437 266.598437)scale(0.1 -0.1)">
       <defs>
        <path id="DejaVuSans-30" d="M 2034 4250 
Q 1547 4250 1301 3770 
Q 1056 3291 1056 2328 
Q 1056 1369 1301 889 
Q 1547 409 2034 409 
Q 2525 409 2770 889 
Q 3016 1369 3016 2328 
Q 3016 3291 2770 3770 
Q 2525 4250 2034 4250 
z
M 2034 4750 
Q 2819 4750 3233 4129 
Q 3647 3509 3647 2328 
Q 3647 1150 3233 529 
Q 2819 -91 2034 -91 
Q 1250 -91 836 529 
Q 422 1150 422 2328 
Q 422 3509 836 4129 
Q 1250 4750 2034 4750 
z
" transform="scale(0.015625)"/>
        <path id="DejaVuSans-2e" d="M 684 794 
L 1344 794 
L 1344 0 
L 684 0 
L 684 794 
z
" transform="scale(0.015625)"/>
       </defs>
       <use xlink:href="#DejaVuSans-30"/>
       <use xlink:href="#DejaVuSans-2e" x="63.623047"/>
       <use xlink:href="#DejaVuSans-30" x="95.410156"/>
      </g>
     </g>
    </g>
    <g id="xtick_2">
     <g id="line2d_2">
      <g>
       <use xlink:href="#m9a562f4d62" x="305.1" y="252" style="stroke: #000000; stroke-width: 0.8"/>
      </g>
     </g>
     <g id="text_2">
      <!-- 1.0 -->
      <g transform="translate(297.148438 266.598437)scale(0.1 -0.1)">
       <defs>
        <path id="DejaVuSans-31" d="M 794 531 
L 1825 531 
L 1825 4091 
L 703 3866 
L 703 4441 
L 1819 4666 
L 2450 4666 
L 2450 531 
L 3481 531 
L 3481 0 
L 794 0 
L 794 531 
z
" transform="scale(0.015625)"/>
       </defs>
       <use xlink:href="#DejaVuSans-31"/>
       <use xlink:href="#DejaVuSans-2e" x="63.623047"/>
       <use xlink:href="#DejaVuSans-30" x="95.410156"/>
      </g>
     </g>
    </g>
    <g id="text_3">
     <!-- Diabetes_binary -->
     <g transform="translate(180.89375 280.276563)scale(0.1 -0.1)">
      <defs>
       <path id="DejaVuSans-44" d="M 1259 4147 
L 1259 519 
L 2022 519 
Q 2988 519 3436 956 
Q 3884 1394 3884 2338 
Q 3884 3275 3436 3711 
Q 2988 4147 2022 4147 
L 1259 4147 
z
M 628 4666 
L 1925 4666 
Q 3281 4666 3915 4102 
Q 4550 3538 4550 2338 
Q 4550 1131 3912 565 
Q 3275 0 1925 0 
L 628 0 
L 628 4666 
z
" transform="scale(0.015625)"/>
       <path id="DejaVuSans-69" d="M 603 3500 
L 1178 3500 
L 1178 0 
L 603 0 
L 603 3500 
z
M 603 4863 
L 1178 4863 
L 1178 4134 
L 603 4134 
L 603 4863 
z
" transform="scale(0.015625)"/>
       <path id="DejaVuSans-61" d="M 2194 1759 
Q 1497 1759 1228 1600 
Q 959 1441 959 1056 
Q 959 750 1161 570 
Q 1363 391 1709 391 
Q 2188 391 2477 730 
Q 2766 1069 2766 1631 
L 2766 1759 
L 2194 1759 
z
M 3341 1997 
L 3341 0 
L 2766 0 
L 2766 531 
Q 2569 213 2275 61 
Q 1981 -91 1556 -91 
Q 1019 -91 701 211 
Q 384 513 384 1019 
Q 384 1609 779 1909 
Q 1175 2209 1959 2209 
L 2766 2209 
L 2766 2266 
Q 2766 2663 2505 2880 
Q 2244 3097 1772 3097 
Q 1472 3097 1187 3025 
Q 903 2953 641 2809 
L 641 3341 
Q 956 3463 1253 3523 
Q 1550 3584 1831 3584 
Q 2591 3584 2966 3190 
Q 3341 2797 3341 1997 
z
" transform="scale(0.015625)"/>
       <path id="DejaVuSans-62" d="M 3116 1747 
Q 3116 2381 2855 2742 
Q 2594 3103 2138 3103 
Q 1681 3103 1420 2742 
Q 1159 2381 1159 1747 
Q 1159 1113 1420 752 
Q 1681 391 2138 391 
Q 2594 391 2855 752 
Q 3116 1113 3116 1747 
z
M 1159 2969 
Q 1341 3281 1617 3432 
Q 1894 3584 2278 3584 
Q 2916 3584 3314 3078 
Q 3713 2572 3713 1747 
Q 3713 922 3314 415 
Q 2916 -91 2278 -91 
Q 1894 -91 1617 61 
Q 1341 213 1159 525 
L 1159 0 
L 581 0 
L 581 4863 
L 1159 4863 
L 1159 2969 
z
" transform="scale(0.015625)"/>
       <path id="DejaVuSans-65" d="M 3597 1894 
L 3597 1613 
L 953 1613 
Q 991 1019 1311 708 
Q 1631 397 2203 397 
Q 2534 397 2845 478 
Q 3156 559 3463 722 
L 3463 178 
Q 3153 47 2828 -22 
Q 2503 -91 2169 -91 
Q 1331 -91 842 396 
Q 353 884 353 1716 
Q 353 2575 817 3079 
Q 1281 3584 2069 3584 
Q 2775 3584 3186 3129 
Q 3597 2675 3597 1894 
z
M 3022 2063 
Q 3016 2534 2758 2815 
Q 2500 3097 2075 3097 
Q 1594 3097 1305 2825 
Q 1016 2553 972 2059 
L 3022 2063 
z
" transform="scale(0.015625)"/>
       <path id="DejaVuSans-74" d="M 1172 4494 
L 1172 3500 
L 2356 3500 
L 2356 3053 
L 1172 3053 
L 1172 1153 
Q 1172 725 1289 603 
Q 1406 481 1766 481 
L 2356 481 
L 2356 0 
L 1766 0 
Q 1100 0 847 248 
Q 594 497 594 1153 
L 594 3053 
L 172 3053 
L 172 3500 
L 594 3500 
L 594 4494 
L 1172 4494 
z
" transform="scale(0.015625)"/>
       <path id="DejaVuSans-73" d="M 2834 3397 
L 2834 2853 
Q 2591 2978 2328 3040 
Q 2066 3103 1784 3103 
Q 1356 3103 1142 2972 
Q 928 2841 928 2578 
Q 928 2378 1081 2264 
Q 1234 2150 1697 2047 
L 1894 2003 
Q 2506 1872 2764 1633 
Q 3022 1394 3022 966 
Q 3022 478 2636 193 
Q 2250 -91 1575 -91 
Q 1294 -91 989 -36 
Q 684 19 347 128 
L 347 722 
Q 666 556 975 473 
Q 1284 391 1588 391 
Q 1994 391 2212 530 
Q 2431 669 2431 922 
Q 2431 1156 2273 1281 
Q 2116 1406 1581 1522 
L 1381 1569 
Q 847 1681 609 1914 
Q 372 2147 372 2553 
Q 372 3047 722 3315 
Q 1072 3584 1716 3584 
Q 2034 3584 2315 3537 
Q 2597 3491 2834 3397 
z
" transform="scale(0.015625)"/>
       <path id="DejaVuSans-5f" d="M 3263 -1063 
L 3263 -1509 
L -63 -1509 
L -63 -1063 
L 3263 -1063 
z
" transform="scale(0.015625)"/>
       <path id="DejaVuSans-6e" d="M 3513 2113 
L 3513 0 
L 2938 0 
L 2938 2094 
Q 2938 2591 2744 2837 
Q 2550 3084 2163 3084 
Q 1697 3084 1428 2787 
Q 1159 2491 1159 1978 
L 1159 0 
L 581 0 
L 581 3500 
L 1159 3500 
L 1159 2956 
Q 1366 3272 1645 3428 
Q 1925 3584 2291 3584 
Q 2894 3584 3203 3211 
Q 3513 2838 3513 2113 
z
" transform="scale(0.015625)"/>
       <path id="DejaVuSans-72" d="M 2631 2963 
Q 2534 3019 2420 3045 
Q 2306 3072 2169 3072 
Q 1681 3072 1420 2755 
Q 1159 2438 1159 1844 
L 1159 0 
L 581 0 
L 581 3500 
L 1159 3500 
L 1159 2956 
Q 1341 3275 1631 3429 
Q 1922 3584 2338 3584 
Q 2397 3584 2469 3576 
Q 2541 3569 2628 3553 
L 2631 2963 
z
" transform="scale(0.015625)"/>
       <path id="DejaVuSans-79" d="M 2059 -325 
Q 1816 -950 1584 -1140 
Q 1353 -1331 966 -1331 
L 506 -1331 
L 506 -850 
L 844 -850 
Q 1081 -850 1212 -737 
Q 1344 -625 1503 -206 
L 1606 56 
L 191 3500 
L 800 3500 
L 1894 763 
L 2988 3500 
L 3597 3500 
L 2059 -325 
z
" transform="scale(0.015625)"/>
      </defs>
      <use xlink:href="#DejaVuSans-44"/>
      <use xlink:href="#DejaVuSans-69" x="77.001953"/>
      <use xlink:href="#DejaVuSans-61" x="104.785156"/>
      <use xlink:href="#DejaVuSans-62" x="166.064453"/>
      <use xlink:href="#DejaVuSans-65" x="229.541016"/>
      <use xlink:href="#DejaVuSans-74" x="291.064453"/>
      <use xlink:href="#DejaVuSans-65" x="330.273438"/>
      <use xlink:href="#DejaVuSans-73" x="391.796875"/>
      <use xlink:href="#DejaVuSans-5f" x="443.896484"/>
      <use xlink:href="#DejaVuSans-62" x="493.896484"/>
      <use xlink:href="#DejaVuSans-69" x="557.373047"/>
      <use xlink:href="#DejaVuSans-6e" x="585.15625"/>
      <use xlink:href="#DejaVuSans-61" x="648.535156"/>
      <use xlink:href="#DejaVuSans-72" x="709.814453"/>
      <use xlink:href="#DejaVuSans-79" x="750.927734"/>
     </g>
    </g>
   </g>
   <g id="matplotlib.axis_2">
    <g id="ytick_1">
     <g id="line2d_3">
      <defs>
       <path id="mfa192b173f" d="M 0 0 
L -3.5 0 
" style="stroke: #000000; stroke-width: 0.8"/>
      </defs>
      <g>
       <use xlink:href="#mfa192b173f" x="54" y="231.052964" style="stroke: #000000; stroke-width: 0.8"/>
      </g>
     </g>
     <g id="text_4">
      <!-- 1 -->
      <g transform="translate(40.6375 234.852182)scale(0.1 -0.1)">
       <use xlink:href="#DejaVuSans-31"/>
      </g>
     </g>
    </g>
    <g id="ytick_2">
     <g id="line2d_4">
      <g>
       <use xlink:href="#mfa192b173f" x="54" y="187.166482" style="stroke: #000000; stroke-width: 0.8"/>
      </g>
     </g>
     <g id="text_5">
      <!-- 2 -->
      <g transform="translate(40.6375 190.965701)scale(0.1 -0.1)">
       <defs>
        <path id="DejaVuSans-32" d="M 1228 531 
L 3431 531 
L 3431 0 
L 469 0 
L 469 531 
Q 828 903 1448 1529 
Q 2069 2156 2228 2338 
Q 2531 2678 2651 2914 
Q 2772 3150 2772 3378 
Q 2772 3750 2511 3984 
Q 2250 4219 1831 4219 
Q 1534 4219 1204 4116 
Q 875 4013 500 3803 
L 500 4441 
Q 881 4594 1212 4672 
Q 1544 4750 1819 4750 
Q 2544 4750 2975 4387 
Q 3406 4025 3406 3419 
Q 3406 3131 3298 2873 
Q 3191 2616 2906 2266 
Q 2828 2175 2409 1742 
Q 1991 1309 1228 531 
z
" transform="scale(0.015625)"/>
       </defs>
       <use xlink:href="#DejaVuSans-32"/>
      </g>
     </g>
    </g>
    <g id="ytick_3">
     <g id="line2d_5">
      <g>
       <use xlink:href="#mfa192b173f" x="54" y="143.28" style="stroke: #000000; stroke-width: 0.8"/>
      </g>
     </g>
     <g id="text_6">
      <!-- 3 -->
      <g transform="translate(40.6375 147.079219)scale(0.1 -0.1)">
       <defs>
        <path id="DejaVuSans-33" d="M 2597 2516 
Q 3050 2419 3304 2112 
Q 3559 1806 3559 1356 
Q 3559 666 3084 287 
Q 2609 -91 1734 -91 
Q 1441 -91 1130 -33 
Q 819 25 488 141 
L 488 750 
Q 750 597 1062 519 
Q 1375 441 1716 441 
Q 2309 441 2620 675 
Q 2931 909 2931 1356 
Q 2931 1769 2642 2001 
Q 2353 2234 1838 2234 
L 1294 2234 
L 1294 2753 
L 1863 2753 
Q 2328 2753 2575 2939 
Q 2822 3125 2822 3475 
Q 2822 3834 2567 4026 
Q 2313 4219 1838 4219 
Q 1578 4219 1281 4162 
Q 984 4106 628 3988 
L 628 4550 
Q 988 4650 1302 4700 
Q 1616 4750 1894 4750 
Q 2613 4750 3031 4423 
Q 3450 4097 3450 3541 
Q 3450 3153 3228 2886 
Q 3006 2619 2597 2516 
z
" transform="scale(0.015625)"/>
       </defs>
       <use xlink:href="#DejaVuSans-33"/>
      </g>
     </g>
    </g>
    <g id="ytick_4">
     <g id="line2d_6">
      <g>
       <use xlink:href="#mfa192b173f" x="54" y="99.393518" style="stroke: #000000; stroke-width: 0.8"/>
      </g>
     </g>
     <g id="text_7">
      <!-- 4 -->
      <g transform="translate(40.6375 103.192737)scale(0.1 -0.1)">
       <defs>
        <path id="DejaVuSans-34" d="M 2419 4116 
L 825 1625 
L 2419 1625 
L 2419 4116 
z
M 2253 4666 
L 3047 4666 
L 3047 1625 
L 3713 1625 
L 3713 1100 
L 3047 1100 
L 3047 0 
L 2419 0 
L 2419 1100 
L 313 1100 
L 313 1709 
L 2253 4666 
z
" transform="scale(0.015625)"/>
       </defs>
       <use xlink:href="#DejaVuSans-34"/>
      </g>
     </g>
    </g>
    <g id="ytick_5">
     <g id="line2d_7">
      <g>
       <use xlink:href="#mfa192b173f" x="54" y="55.507036" style="stroke: #000000; stroke-width: 0.8"/>
      </g>
     </g>
     <g id="text_8">
      <!-- 5 -->
      <g transform="translate(40.6375 59.306255)scale(0.1 -0.1)">
       <defs>
        <path id="DejaVuSans-35" d="M 691 4666 
L 3169 4666 
L 3169 4134 
L 1269 4134 
L 1269 2991 
Q 1406 3038 1543 3061 
Q 1681 3084 1819 3084 
Q 2600 3084 3056 2656 
Q 3513 2228 3513 1497 
Q 3513 744 3044 326 
Q 2575 -91 1722 -91 
Q 1428 -91 1123 -41 
Q 819 9 494 109 
L 494 744 
Q 775 591 1075 516 
Q 1375 441 1709 441 
Q 2250 441 2565 725 
Q 2881 1009 2881 1497 
Q 2881 1984 2565 2268 
Q 2250 2553 1709 2553 
Q 1456 2553 1204 2497 
Q 953 2441 691 2322 
L 691 4666 
z
" transform="scale(0.015625)"/>
       </defs>
       <use xlink:href="#DejaVuSans-35"/>
      </g>
     </g>
    </g>
    <g id="text_9">
     <!-- GenHlth -->
     <g transform="translate(34.557812 163.677656)rotate(-90)scale(0.1 -0.1)">
      <defs>
       <path id="DejaVuSans-47" d="M 3809 666 
L 3809 1919 
L 2778 1919 
L 2778 2438 
L 4434 2438 
L 4434 434 
Q 4069 175 3628 42 
Q 3188 -91 2688 -91 
Q 1594 -91 976 548 
Q 359 1188 359 2328 
Q 359 3472 976 4111 
Q 1594 4750 2688 4750 
Q 3144 4750 3555 4637 
Q 3966 4525 4313 4306 
L 4313 3634 
Q 3963 3931 3569 4081 
Q 3175 4231 2741 4231 
Q 1884 4231 1454 3753 
Q 1025 3275 1025 2328 
Q 1025 1384 1454 906 
Q 1884 428 2741 428 
Q 3075 428 3337 486 
Q 3600 544 3809 666 
z
" transform="scale(0.015625)"/>
       <path id="DejaVuSans-48" d="M 628 4666 
L 1259 4666 
L 1259 2753 
L 3553 2753 
L 3553 4666 
L 4184 4666 
L 4184 0 
L 3553 0 
L 3553 2222 
L 1259 2222 
L 1259 0 
L 628 0 
L 628 4666 
z
" transform="scale(0.015625)"/>
       <path id="DejaVuSans-6c" d="M 603 4863 
L 1178 4863 
L 1178 0 
L 603 0 
L 603 4863 
z
" transform="scale(0.015625)"/>
       <path id="DejaVuSans-68" d="M 3513 2113 
L 3513 0 
L 2938 0 
L 2938 2094 
Q 2938 2591 2744 2837 
Q 2550 3084 2163 3084 
Q 1697 3084 1428 2787 
Q 1159 2491 1159 1978 
L 1159 0 
L 581 0 
L 581 4863 
L 1159 4863 
L 1159 2956 
Q 1366 3272 1645 3428 
Q 1925 3584 2291 3584 
Q 2894 3584 3203 3211 
Q 3513 2838 3513 2113 
z
" transform="scale(0.015625)"/>
      </defs>
      <use xlink:href="#DejaVuSans-47"/>
      <use xlink:href="#DejaVuSans-65" x="77.490234"/>
      <use xlink:href="#DejaVuSans-6e" x="139.013672"/>
      <use xlink:href="#DejaVuSans-48" x="202.392578"/>
      <use xlink:href="#DejaVuSans-6c" x="277.587891"/>
      <use xlink:href="#DejaVuSans-74" x="305.371094"/>
      <use xlink:href="#DejaVuSans-68" x="344.580078"/>
     </g>
    </g>
   </g>
   <g id="line2d_8">
    <path d="M 137.7 231.052964 
L 137.7 99.393518 
" clip-path="url(#p618c39fce5)" style="fill: none; stroke: #7a7a7a; stroke-width: 1.5; stroke-linecap: square"/>
   </g>
   <g id="line2d_9">
    <path d="M 137.7 187.166482 
L 137.7 143.28 
" clip-path="url(#p618c39fce5)" style="fill: none; stroke: #7a7a7a; stroke-width: 4.5; stroke-linecap: square"/>
   </g>
   <g id="line2d_10">
    <path d="M 305.1 187.166482 
L 305.1 55.507036 
" clip-path="url(#p618c39fce5)" style="fill: none; stroke: #7a7a7a; stroke-width: 1.5; stroke-linecap: square"/>
   </g>
   <g id="line2d_11">
    <path d="M 305.1 143.28 
L 305.1 99.393518 
" clip-path="url(#p618c39fce5)" style="fill: none; stroke: #7a7a7a; stroke-width: 4.5; stroke-linecap: square"/>
   </g>
   <g id="patch_3">
    <path d="M 54 252 
L 54 34.56 
" style="fill: none; stroke: #000000; stroke-width: 0.8; stroke-linejoin: miter; stroke-linecap: square"/>
   </g>
   <g id="patch_4">
    <path d="M 388.8 252 
L 388.8 34.56 
" style="fill: none; stroke: #000000; stroke-width: 0.8; stroke-linejoin: miter; stroke-linecap: square"/>
   </g>
   <g id="patch_5">
    <path d="M 54 252 
L 388.8 252 
" style="fill: none; stroke: #000000; stroke-width: 0.8; stroke-linejoin: miter; stroke-linecap: square"/>
   </g>
   <g id="patch_6">
    <path d="M 54 34.56 
L 388.8 34.56 
" style="fill: none; stroke: #000000; stroke-width: 0.8; stroke-linejoin: miter; stroke-linecap: square"/>
   </g>
   <g id="PathCollection_1">
    <defs>
     <path id="m1f99464f47" d="M 0 1.5 
C 0.397805 1.5 0.77937 1.341951 1.06066 1.06066 
C 1.341951 0.77937 1.5 0.397805 1.5 0 
C 1.5 -0.397805 1.341951 -0.77937 1.06066 -1.06066 
C 0.77937 -1.341951 0.397805 -1.5 0 -1.5 
C -0.397805 -1.5 -0.77937 -1.341951 -1.06066 -1.06066 
C -1.341951 -0.77937 -1.5 -0.397805 -1.5 0 
C -1.5 0.397805 -1.341951 0.77937 -1.06066 1.06066 
C -0.77937 1.341951 -0.397805 1.5 0 1.5 
z
" style="stroke: #7a7a7a"/>
    </defs>
    <g clip-path="url(#p618c39fce5)">
     <use xlink:href="#m1f99464f47" x="137.7" y="187.166482" style="fill: #ffffff; stroke: #7a7a7a"/>
    </g>
   </g>
   <g id="PathCollection_2">
    <g clip-path="url(#p618c39fce5)">
     <use xlink:href="#m1f99464f47" x="305.1" y="143.28" style="fill: #ffffff; stroke: #7a7a7a"/>
    </g>
   </g>
  </g>
 </g>
 <defs>
  <clipPath id="p618c39fce5">
   <rect x="54" y="34.56" width="334.8" height="217.44"/>
  </clipPath>
 </defs>
</svg>
