<?xml version="1.0" encoding="utf-8" standalone="no"?>
<!DOCTYPE svg PUBLIC "-//W3C//DTD SVG 1.1//EN"
  "http://www.w3.org/Graphics/SVG/1.1/DTD/svg11.dtd">
<svg xmlns:xlink="http://www.w3.org/1999/xlink" width="432pt" height="288pt" viewBox="0 0 432 288" xmlns="http://www.w3.org/2000/svg" version="1.1">
 <metadata>
  <rdf:RDF xmlns:dc="http://purl.org/dc/elements/1.1/" xmlns:cc="http://creativecommons.org/ns#" xmlns:rdf="http://www.w3.org/1999/02/22-rdf-syntax-ns#">
   <cc:Work>
    <dc:type rdf:resource="http://purl.org/dc/dcmitype/StillImage"/>
    <dc:date>2023-05-03T02:46:52.448908</dc:date>
    <dc:format>image/svg+xml</dc:format>
    <dc:creator>
     <cc:Agent>
      <dc:title>Matplotlib v3.5.3, https://matplotlib.org/</dc:title>
     </cc:Agent>
    </dc:creator>
   </cc:Work>
  </rdf:RDF>
 </metadata>
 <defs>
  <style type="text/css">*{stroke-linejoin: round; stroke-linecap: butt}</style>
 </defs>
 <g id="figure_1">
  <g id="patch_1">
   <path d="M 0 288 
L 432 288 
L 432 0 
L 0 0 
L 0 288 
z
" style="fill: none"/>
  </g>
  <g id="axes_1">
   <g id="patch_2">
    <path d="M 54 252 
L 388.8 252 
L 388.8 34.56 
L 54 34.56 
z
" style="fill: #ffffff"/>
   </g>
   <g id="PolyCollection_1">
    <defs>
     <path id="med86ee75cc" d="M 146.848502 -52.204589 
L 128.551498 -52.204589 
L 120.190984 -54.073587 
L 108.185202 -55.942585 
L 93.878804 -57.811583 
L 80.394676 -59.680582 
L 71.695728 -61.54958 
L 70.74 -63.418578 
L 77.869149 -65.287576 
L 90.612976 -67.156574 
L 105.060489 -69.025573 
L 117.772521 -70.894571 
L 126.98413 -72.763569 
L 132.624617 -74.632567 
L 135.582729 -76.501565 
L 136.922052 -78.370564 
L 137.448238 -80.239562 
L 137.628237 -82.10856 
L 137.681983 -83.977558 
L 137.696016 -85.846556 
L 137.699224 -87.715555 
L 137.699867 -89.584553 
L 137.69998 -91.453551 
L 137.699997 -93.322549 
L 137.7 -95.191547 
L 137.7 -97.060546 
L 137.7 -98.929544 
L 137.7 -100.798542 
L 137.7 -102.66754 
L 137.7 -104.536539 
L 137.7 -106.405537 
L 137.7 -108.274535 
L 137.7 -110.143533 
L 137.7 -112.012531 
L 137.7 -113.88153 
L 137.7 -115.750528 
L 137.7 -117.619526 
L 137.7 -119.488524 
L 137.7 -121.357522 
L 137.7 -123.226521 
L 137.7 -125.095519 
L 137.7 -126.964517 
L 137.7 -128.833515 
L 137.7 -130.702513 
L 137.7 -132.571512 
L 137.7 -134.44051 
L 137.7 -136.309508 
L 137.7 -138.178506 
L 137.7 -140.047504 
L 137.7 -141.916503 
L 137.7 -143.785501 
L 137.7 -145.654499 
L 137.7 -147.523497 
L 137.7 -149.392496 
L 137.7 -151.261494 
L 137.7 -153.130492 
L 137.7 -154.99949 
L 137.7 -156.868488 
L 137.7 -158.737487 
L 137.7 -160.606485 
L 137.7 -162.475483 
L 137.7 -164.344481 
L 137.7 -166.213479 
L 137.7 -168.082478 
L 137.7 -169.951476 
L 137.7 -171.820474 
L 137.7 -173.689472 
L 137.7 -175.55847 
L 137.7 -177.427469 
L 137.7 -179.296467 
L 137.7 -181.165465 
L 137.7 -183.034463 
L 137.7 -184.903461 
L 137.7 -186.77246 
L 137.7 -188.641458 
L 137.7 -190.510456 
L 137.7 -192.379454 
L 137.7 -194.248453 
L 137.7 -196.117451 
L 137.699998 -197.986449 
L 137.69999 -199.855447 
L 137.699939 -201.724445 
L 137.699687 -203.593444 
L 137.698587 -205.462442 
L 137.694371 -207.33144 
L 137.680251 -209.200438 
L 137.638975 -211.069436 
L 137.533913 -212.938435 
L 137.301867 -214.807433 
L 136.859405 -216.676431 
L 136.13681 -218.545429 
L 135.139628 -220.414427 
L 134.006309 -222.283426 
L 133.006633 -224.152424 
L 132.447394 -226.021422 
L 132.522365 -227.89042 
L 133.204745 -229.759418 
L 134.262493 -231.628417 
L 135.384743 -233.497415 
L 136.326524 -235.366413 
L 136.982355 -237.235411 
L 138.417645 -237.235411 
L 138.417645 -237.235411 
L 139.073476 -235.366413 
L 140.015257 -233.497415 
L 141.137507 -231.628417 
L 142.195255 -229.759418 
L 142.877635 -227.89042 
L 142.952606 -226.021422 
L 142.393367 -224.152424 
L 141.393691 -222.283426 
L 140.260372 -220.414427 
L 139.26319 -218.545429 
L 138.540595 -216.676431 
L 138.098133 -214.807433 
L 137.866087 -212.938435 
L 137.761025 -211.069436 
L 137.719749 -209.200438 
L 137.705629 -207.33144 
L 137.701413 -205.462442 
L 137.700313 -203.593444 
L 137.700061 -201.724445 
L 137.70001 -199.855447 
L 137.700002 -197.986449 
L 137.7 -196.117451 
L 137.7 -194.248453 
L 137.7 -192.379454 
L 137.7 -190.510456 
L 137.7 -188.641458 
L 137.7 -186.77246 
L 137.7 -184.903461 
L 137.7 -183.034463 
L 137.7 -181.165465 
L 137.7 -179.296467 
L 137.7 -177.427469 
L 137.7 -175.55847 
L 137.7 -173.689472 
L 137.7 -171.820474 
L 137.7 -169.951476 
L 137.7 -168.082478 
L 137.7 -166.213479 
L 137.7 -164.344481 
L 137.7 -162.475483 
L 137.7 -160.606485 
L 137.7 -158.737487 
L 137.7 -156.868488 
L 137.7 -154.99949 
L 137.7 -153.130492 
L 137.7 -151.261494 
L 137.7 -149.392496 
L 137.7 -147.523497 
L 137.7 -145.654499 
L 137.7 -143.785501 
L 137.7 -141.916503 
L 137.7 -140.047504 
L 137.7 -138.178506 
L 137.7 -136.309508 
L 137.7 -134.44051 
L 137.7 -132.571512 
L 137.7 -130.702513 
L 137.7 -128.833515 
L 137.7 -126.964517 
L 137.7 -125.095519 
L 137.7 -123.226521 
L 137.7 -121.357522 
L 137.7 -119.488524 
L 137.7 -117.619526 
L 137.7 -115.750528 
L 137.7 -113.88153 
L 137.7 -112.012531 
L 137.7 -110.143533 
L 137.7 -108.274535 
L 137.7 -106.405537 
L 137.7 -104.536539 
L 137.7 -102.66754 
L 137.7 -100.798542 
L 137.7 -98.929544 
L 137.7 -97.060546 
L 137.7 -95.191547 
L 137.700003 -93.322549 
L 137.70002 -91.453551 
L 137.700133 -89.584553 
L 137.700776 -87.715555 
L 137.703984 -85.846556 
L 137.718017 -83.977558 
L 137.771763 -82.10856 
L 137.951762 -80.239562 
L 138.477948 -78.370564 
L 139.817271 -76.501565 
L 142.775383 -74.632567 
L 148.41587 -72.763569 
L 157.627479 -70.894571 
L 170.339511 -69.025573 
L 184.787024 -67.156574 
L 197.530851 -65.287576 
L 204.66 -63.418578 
L 203.704272 -61.54958 
L 195.005324 -59.680582 
L 181.521196 -57.811583 
L 167.214798 -55.942585 
L 155.209016 -54.073587 
L 146.848502 -52.204589 
z
" style="stroke: #7a7a7a; stroke-width: 1.5"/>
    </defs>
    <g clip-path="url(#p9aa92e13c9)">
     <use xlink:href="#med86ee75cc" x="0" y="288" style="fill: #f1bcb8; stroke: #7a7a7a; stroke-width: 1.5"/>
    </g>
   </g>
   <g id="PolyCollection_2">
    <defs>
     <path id="mf3b0bcc867" d="M 309.884485 -45.883636 
L 300.315515 -45.883636 
L 297.620025 -47.880331 
L 294.047466 -49.877025 
L 289.664515 -51.873719 
L 284.726041 -53.870413 
L 279.682822 -55.867107 
L 275.130745 -57.863802 
L 271.701936 -59.860496 
L 269.922629 -61.85719 
L 270.081125 -63.853884 
L 272.151341 -65.850579 
L 275.799838 -67.847273 
L 280.473708 -69.843967 
L 285.537481 -71.840661 
L 290.412521 -73.837355 
L 294.677631 -75.83405 
L 298.109916 -77.830744 
L 300.669068 -79.827438 
L 302.445367 -81.824132 
L 303.596821 -83.820826 
L 304.295523 -85.817521 
L 304.693076 -87.814215 
L 304.90546 -89.810909 
L 305.012097 -91.807603 
L 305.06246 -93.804298 
L 305.084848 -95.800992 
L 305.09422 -97.797686 
L 305.097916 -99.79438 
L 305.09929 -101.791074 
L 305.099771 -103.787769 
L 305.09993 -105.784463 
L 305.09998 -107.781157 
L 305.099995 -109.777851 
L 305.099999 -111.774545 
L 305.1 -113.77124 
L 305.1 -115.767934 
L 305.1 -117.764628 
L 305.1 -119.761322 
L 305.1 -121.758017 
L 305.1 -123.754711 
L 305.1 -125.751405 
L 305.1 -127.748099 
L 305.1 -129.744793 
L 305.1 -131.741488 
L 305.1 -133.738182 
L 305.1 -135.734876 
L 305.1 -137.73157 
L 305.1 -139.728264 
L 305.1 -141.724959 
L 305.1 -143.721653 
L 305.1 -145.718347 
L 305.1 -147.715041 
L 305.1 -149.711736 
L 305.1 -151.70843 
L 305.1 -153.705124 
L 305.1 -155.701818 
L 305.1 -157.698512 
L 305.1 -159.695207 
L 305.1 -161.691901 
L 305.1 -163.688595 
L 305.1 -165.685289 
L 305.1 -167.681983 
L 305.1 -169.678678 
L 305.1 -171.675372 
L 305.1 -173.672066 
L 305.1 -175.66876 
L 305.1 -177.665455 
L 305.099998 -179.662149 
L 305.099994 -181.658843 
L 305.09998 -183.655537 
L 305.099934 -185.652231 
L 305.099796 -187.648926 
L 305.099402 -189.64562 
L 305.098342 -191.642314 
L 305.095654 -193.639008 
L 305.089233 -195.635702 
L 305.074789 -197.632397 
L 305.044205 -199.629091 
L 304.983292 -201.625785 
L 304.869271 -203.622479 
L 304.668879 -205.619174 
L 304.338634 -207.615868 
L 303.82918 -209.612562 
L 303.095199 -211.609256 
L 302.110797 -213.60595 
L 300.887536 -215.602645 
L 299.489343 -217.599339 
L 298.03702 -219.596033 
L 296.696524 -221.592727 
L 295.650112 -223.589421 
L 295.05636 -225.586116 
L 295.010903 -227.58281 
L 295.521219 -229.579504 
L 296.504624 -231.576198 
L 297.810189 -233.572893 
L 299.256617 -235.569587 
L 300.673003 -237.566281 
L 301.930062 -239.562975 
L 302.954695 -241.559669 
L 303.727779 -243.556364 
L 306.472221 -243.556364 
L 306.472221 -243.556364 
L 307.245305 -241.559669 
L 308.269938 -239.562975 
L 309.526997 -237.566281 
L 310.943383 -235.569587 
L 312.389811 -233.572893 
L 313.695376 -231.576198 
L 314.678781 -229.579504 
L 315.189097 -227.58281 
L 315.14364 -225.586116 
L 314.549888 -223.589421 
L 313.503476 -221.592727 
L 312.16298 -219.596033 
L 310.710657 -217.599339 
L 309.312464 -215.602645 
L 308.089203 -213.60595 
L 307.104801 -211.609256 
L 306.37082 -209.612562 
L 305.861366 -207.615868 
L 305.531121 -205.619174 
L 305.330729 -203.622479 
L 305.216708 -201.625785 
L 305.155795 -199.629091 
L 305.125211 -197.632397 
L 305.110767 -195.635702 
L 305.104346 -193.639008 
L 305.101658 -191.642314 
L 305.100598 -189.64562 
L 305.100204 -187.648926 
L 305.100066 -185.652231 
L 305.10002 -183.655537 
L 305.100006 -181.658843 
L 305.100002 -179.662149 
L 305.1 -177.665455 
L 305.1 -175.66876 
L 305.1 -173.672066 
L 305.1 -171.675372 
L 305.1 -169.678678 
L 305.1 -167.681983 
L 305.1 -165.685289 
L 305.1 -163.688595 
L 305.1 -161.691901 
L 305.1 -159.695207 
L 305.1 -157.698512 
L 305.1 -155.701818 
L 305.1 -153.705124 
L 305.1 -151.70843 
L 305.1 -149.711736 
L 305.1 -147.715041 
L 305.1 -145.718347 
L 305.1 -143.721653 
L 305.1 -141.724959 
L 305.1 -139.728264 
L 305.1 -137.73157 
L 305.1 -135.734876 
L 305.1 -133.738182 
L 305.1 -131.741488 
L 305.1 -129.744793 
L 305.1 -127.748099 
L 305.1 -125.751405 
L 305.1 -123.754711 
L 305.1 -121.758017 
L 305.1 -119.761322 
L 305.1 -117.764628 
L 305.1 -115.767934 
L 305.1 -113.77124 
L 305.100001 -111.774545 
L 305.100005 -109.777851 
L 305.10002 -107.781157 
L 305.10007 -105.784463 
L 305.100229 -103.787769 
L 305.10071 -101.791074 
L 305.102084 -99.79438 
L 305.10578 -97.797686 
L 305.115152 -95.800992 
L 305.13754 -93.804298 
L 305.187903 -91.807603 
L 305.29454 -89.810909 
L 305.506924 -87.814215 
L 305.904477 -85.817521 
L 306.603179 -83.820826 
L 307.754633 -81.824132 
L 309.530932 -79.827438 
L 312.090084 -77.830744 
L 315.522369 -75.83405 
L 319.787479 -73.837355 
L 324.662519 -71.840661 
L 329.726292 -69.843967 
L 334.400162 -67.847273 
L 338.048659 -65.850579 
L 340.118875 -63.853884 
L 340.277371 -61.85719 
L 338.498064 -59.860496 
L 335.069255 -57.863802 
L 330.517178 -55.867107 
L 325.473959 -53.870413 
L 320.535485 -51.873719 
L 316.152534 -49.877025 
L 312.579975 -47.880331 
L 309.884485 -45.883636 
z
" style="stroke: #7a7a7a; stroke-width: 1.5"/>
    </defs>
    <g clip-path="url(#p9aa92e13c9)">
     <use xlink:href="#mf3b0bcc867" x="0" y="288" style="fill: #b9ccdd; stroke: #7a7a7a; stroke-width: 1.5"/>
    </g>
   </g>
   <g id="matplotlib.axis_1">
    <g id="xtick_1">
     <g id="line2d_1">
      <defs>
       <path id="mcd029f3814" d="M 0 0 
L 0 3.5 
" style="stroke: #000000; stroke-width: 0.8"/>
      </defs>
      <g>
       <use xlink:href="#mcd029f3814" x="137.7" y="252" style="stroke: #000000; stroke-width: 0.8"/>
      </g>
     </g>
     <g id="text_1">
      <!-- 0.0 -->
      <g transform="translate(129.748437 266.598437)scale(0.1 -0.1)">
       <defs>
        <path id="DejaVuSans-30" d="M 2034 4250 
Q 1547 4250 1301 3770 
Q 1056 3291 1056 2328 
Q 1056 1369 1301 889 
Q 1547 409 2034 409 
Q 2525 409 2770 889 
Q 3016 1369 3016 2328 
Q 3016 3291 2770 3770 
Q 2525 4250 2034 4250 
z
M 2034 4750 
Q 2819 4750 3233 4129 
Q 3647 3509 3647 2328 
Q 3647 1150 3233 529 
Q 2819 -91 2034 -91 
Q 1250 -91 836 529 
Q 422 1150 422 2328 
Q 422 3509 836 4129 
Q 1250 4750 2034 4750 
z
" transform="scale(0.015625)"/>
        <path id="DejaVuSans-2e" d="M 684 794 
L 1344 794 
L 1344 0 
L 684 0 
L 684 794 
z
" transform="scale(0.015625)"/>
       </defs>
       <use xlink:href="#DejaVuSans-30"/>
       <use xlink:href="#DejaVuSans-2e" x="63.623047"/>
       <use xlink:href="#DejaVuSans-30" x="95.410156"/>
      </g>
     </g>
    </g>
    <g id="xtick_2">
     <g id="line2d_2">
      <g>
       <use xlink:href="#mcd029f3814" x="305.1" y="252" style="stroke: #000000; stroke-width: 0.8"/>
      </g>
     </g>
     <g id="text_2">
      <!-- 1.0 -->
      <g transform="translate(297.148438 266.598437)scale(0.1 -0.1)">
       <defs>
        <path id="DejaVuSans-31" d="M 794 531 
L 1825 531 
L 1825 4091 
L 703 3866 
L 703 4441 
L 1819 4666 
L 2450 4666 
L 2450 531 
L 3481 531 
L 3481 0 
L 794 0 
L 794 531 
z
" transform="scale(0.015625)"/>
       </defs>
       <use xlink:href="#DejaVuSans-31"/>
       <use xlink:href="#DejaVuSans-2e" x="63.623047"/>
       <use xlink:href="#DejaVuSans-30" x="95.410156"/>
      </g>
     </g>
    </g>
    <g id="text_3">
     <!-- Diabetes_binary -->
     <g transform="translate(180.89375 280.276563)scale(0.1 -0.1)">
      <defs>
       <path id="DejaVuSans-44" d="M 1259 4147 
L 1259 519 
L 2022 519 
Q 2988 519 3436 956 
Q 3884 1394 3884 2338 
Q 3884 3275 3436 3711 
Q 2988 4147 2022 4147 
L 1259 4147 
z
M 628 4666 
L 1925 4666 
Q 3281 4666 3915 4102 
Q 4550 3538 4550 2338 
Q 4550 1131 3912 565 
Q 3275 0 1925 0 
L 628 0 
L 628 4666 
z
" transform="scale(0.015625)"/>
       <path id="DejaVuSans-69" d="M 603 3500 
L 1178 3500 
L 1178 0 
L 603 0 
L 603 3500 
z
M 603 4863 
L 1178 4863 
L 1178 4134 
L 603 4134 
L 603 4863 
z
" transform="scale(0.015625)"/>
       <path id="DejaVuSans-61" d="M 2194 1759 
Q 1497 1759 1228 1600 
Q 959 1441 959 1056 
Q 959 750 1161 570 
Q 1363 391 1709 391 
Q 2188 391 2477 730 
Q 2766 1069 2766 1631 
L 2766 1759 
L 2194 1759 
z
M 3341 1997 
L 3341 0 
L 2766 0 
L 2766 531 
Q 2569 213 2275 61 
Q 1981 -91 1556 -91 
Q 1019 -91 701 211 
Q 384 513 384 1019 
Q 384 1609 779 1909 
Q 1175 2209 1959 2209 
L 2766 2209 
L 2766 2266 
Q 2766 2663 2505 2880 
Q 2244 3097 1772 3097 
Q 1472 3097 1187 3025 
Q 903 2953 641 2809 
L 641 3341 
Q 956 3463 1253 3523 
Q 1550 3584 1831 3584 
Q 2591 3584 2966 3190 
Q 3341 2797 3341 1997 
z
" transform="scale(0.015625)"/>
       <path id="DejaVuSans-62" d="M 3116 1747 
Q 3116 2381 2855 2742 
Q 2594 3103 2138 3103 
Q 1681 3103 1420 2742 
Q 1159 2381 1159 1747 
Q 1159 1113 1420 752 
Q 1681 391 2138 391 
Q 2594 391 2855 752 
Q 3116 1113 3116 1747 
z
M 1159 2969 
Q 1341 3281 1617 3432 
Q 1894 3584 2278 3584 
Q 2916 3584 3314 3078 
Q 3713 2572 3713 1747 
Q 3713 922 3314 415 
Q 2916 -91 2278 -91 
Q 1894 -91 1617 61 
Q 1341 213 1159 525 
L 1159 0 
L 581 0 
L 581 4863 
L 1159 4863 
L 1159 2969 
z
" transform="scale(0.015625)"/>
       <path id="DejaVuSans-65" d="M 3597 1894 
L 3597 1613 
L 953 1613 
Q 991 1019 1311 708 
Q 1631 397 2203 397 
Q 2534 397 2845 478 
Q 3156 559 3463 722 
L 3463 178 
Q 3153 47 2828 -22 
Q 2503 -91 2169 -91 
Q 1331 -91 842 396 
Q 353 884 353 1716 
Q 353 2575 817 3079 
Q 1281 3584 2069 3584 
Q 2775 3584 3186 3129 
Q 3597 2675 3597 1894 
z
M 3022 2063 
Q 3016 2534 2758 2815 
Q 2500 3097 2075 3097 
Q 1594 3097 1305 2825 
Q 1016 2553 972 2059 
L 3022 2063 
z
" transform="scale(0.015625)"/>
       <path id="DejaVuSans-74" d="M 1172 4494 
L 1172 3500 
L 2356 3500 
L 2356 3053 
L 1172 3053 
L 1172 1153 
Q 1172 725 1289 603 
Q 1406 481 1766 481 
L 2356 481 
L 2356 0 
L 1766 0 
Q 1100 0 847 248 
Q 594 497 594 1153 
L 594 3053 
L 172 3053 
L 172 3500 
L 594 3500 
L 594 4494 
L 1172 4494 
z
" transform="scale(0.015625)"/>
       <path id="DejaVuSans-73" d="M 2834 3397 
L 2834 2853 
Q 2591 2978 2328 3040 
Q 2066 3103 1784 3103 
Q 1356 3103 1142 2972 
Q 928 2841 928 2578 
Q 928 2378 1081 2264 
Q 1234 2150 1697 2047 
L 1894 2003 
Q 2506 1872 2764 1633 
Q 3022 1394 3022 966 
Q 3022 478 2636 193 
Q 2250 -91 1575 -91 
Q 1294 -91 989 -36 
Q 684 19 347 128 
L 347 722 
Q 666 556 975 473 
Q 1284 391 1588 391 
Q 1994 391 2212 530 
Q 2431 669 2431 922 
Q 2431 1156 2273 1281 
Q 2116 1406 1581 1522 
L 1381 1569 
Q 847 1681 609 1914 
Q 372 2147 372 2553 
Q 372 3047 722 3315 
Q 1072 3584 1716 3584 
Q 2034 3584 2315 3537 
Q 2597 3491 2834 3397 
z
" transform="scale(0.015625)"/>
       <path id="DejaVuSans-5f" d="M 3263 -1063 
L 3263 -1509 
L -63 -1509 
L -63 -1063 
L 3263 -1063 
z
" transform="scale(0.015625)"/>
       <path id="DejaVuSans-6e" d="M 3513 2113 
L 3513 0 
L 2938 0 
L 2938 2094 
Q 2938 2591 2744 2837 
Q 2550 3084 2163 3084 
Q 1697 3084 1428 2787 
Q 1159 2491 1159 1978 
L 1159 0 
L 581 0 
L 581 3500 
L 1159 3500 
L 1159 2956 
Q 1366 3272 1645 3428 
Q 1925 3584 2291 3584 
Q 2894 3584 3203 3211 
Q 3513 2838 3513 2113 
z
" transform="scale(0.015625)"/>
       <path id="DejaVuSans-72" d="M 2631 2963 
Q 2534 3019 2420 3045 
Q 2306 3072 2169 3072 
Q 1681 3072 1420 2755 
Q 1159 2438 1159 1844 
L 1159 0 
L 581 0 
L 581 3500 
L 1159 3500 
L 1159 2956 
Q 1341 3275 1631 3429 
Q 1922 3584 2338 3584 
Q 2397 3584 2469 3576 
Q 2541 3569 2628 3553 
L 2631 2963 
z
" transform="scale(0.015625)"/>
       <path id="DejaVuSans-79" d="M 2059 -325 
Q 1816 -950 1584 -1140 
Q 1353 -1331 966 -1331 
L 506 -1331 
L 506 -850 
L 844 -850 
Q 1081 -850 1212 -737 
Q 1344 -625 1503 -206 
L 1606 56 
L 191 3500 
L 800 3500 
L 1894 763 
L 2988 3500 
L 3597 3500 
L 2059 -325 
z
" transform="scale(0.015625)"/>
      </defs>
      <use xlink:href="#DejaVuSans-44"/>
      <use xlink:href="#DejaVuSans-69" x="77.001953"/>
      <use xlink:href="#DejaVuSans-61" x="104.785156"/>
      <use xlink:href="#DejaVuSans-62" x="166.064453"/>
      <use xlink:href="#DejaVuSans-65" x="229.541016"/>
      <use xlink:href="#DejaVuSans-74" x="291.064453"/>
      <use xlink:href="#DejaVuSans-65" x="330.273438"/>
      <use xlink:href="#DejaVuSans-73" x="391.796875"/>
      <use xlink:href="#DejaVuSans-5f" x="443.896484"/>
      <use xlink:href="#DejaVuSans-62" x="493.896484"/>
      <use xlink:href="#DejaVuSans-69" x="557.373047"/>
      <use xlink:href="#DejaVuSans-6e" x="585.15625"/>
      <use xlink:href="#DejaVuSans-61" x="648.535156"/>
      <use xlink:href="#DejaVuSans-72" x="709.814453"/>
      <use xlink:href="#DejaVuSans-79" x="750.927734"/>
     </g>
    </g>
   </g>
   <g id="matplotlib.axis_2">
    <g id="ytick_1">
     <g id="line2d_3">
      <defs>
       <path id="m026aa7304b" d="M 0 0 
L -3.5 0 
" style="stroke: #000000; stroke-width: 0.8"/>
      </defs>
      <g>
       <use xlink:href="#m026aa7304b" x="54" y="225.304274" style="stroke: #000000; stroke-width: 0.8"/>
      </g>
     </g>
     <g id="text_4">
      <!-- 0.0 -->
      <g transform="translate(31.096875 229.103492)scale(0.1 -0.1)">
       <use xlink:href="#DejaVuSans-30"/>
       <use xlink:href="#DejaVuSans-2e" x="63.623047"/>
       <use xlink:href="#DejaVuSans-30" x="95.410156"/>
      </g>
     </g>
    </g>
    <g id="ytick_2">
     <g id="line2d_4">
      <g>
       <use xlink:href="#m026aa7304b" x="54" y="192.494564" style="stroke: #000000; stroke-width: 0.8"/>
      </g>
     </g>
     <g id="text_5">
      <!-- 0.2 -->
      <g transform="translate(31.096875 196.293783)scale(0.1 -0.1)">
       <defs>
        <path id="DejaVuSans-32" d="M 1228 531 
L 3431 531 
L 3431 0 
L 469 0 
L 469 531 
Q 828 903 1448 1529 
Q 2069 2156 2228 2338 
Q 2531 2678 2651 2914 
Q 2772 3150 2772 3378 
Q 2772 3750 2511 3984 
Q 2250 4219 1831 4219 
Q 1534 4219 1204 4116 
Q 875 4013 500 3803 
L 500 4441 
Q 881 4594 1212 4672 
Q 1544 4750 1819 4750 
Q 2544 4750 2975 4387 
Q 3406 4025 3406 3419 
Q 3406 3131 3298 2873 
Q 3191 2616 2906 2266 
Q 2828 2175 2409 1742 
Q 1991 1309 1228 531 
z
" transform="scale(0.015625)"/>
       </defs>
       <use xlink:href="#DejaVuSans-30"/>
       <use xlink:href="#DejaVuSans-2e" x="63.623047"/>
       <use xlink:href="#DejaVuSans-32" x="95.410156"/>
      </g>
     </g>
    </g>
    <g id="ytick_3">
     <g id="line2d_5">
      <g>
       <use xlink:href="#m026aa7304b" x="54" y="159.684855" style="stroke: #000000; stroke-width: 0.8"/>
      </g>
     </g>
     <g id="text_6">
      <!-- 0.4 -->
      <g transform="translate(31.096875 163.484073)scale(0.1 -0.1)">
       <defs>
        <path id="DejaVuSans-34" d="M 2419 4116 
L 825 1625 
L 2419 1625 
L 2419 4116 
z
M 2253 4666 
L 3047 4666 
L 3047 1625 
L 3713 1625 
L 3713 1100 
L 3047 1100 
L 3047 0 
L 2419 0 
L 2419 1100 
L 313 1100 
L 313 1709 
L 2253 4666 
z
" transform="scale(0.015625)"/>
       </defs>
       <use xlink:href="#DejaVuSans-30"/>
       <use xlink:href="#DejaVuSans-2e" x="63.623047"/>
       <use xlink:href="#DejaVuSans-34" x="95.410156"/>
      </g>
     </g>
    </g>
    <g id="ytick_4">
     <g id="line2d_6">
      <g>
       <use xlink:href="#m026aa7304b" x="54" y="126.875145" style="stroke: #000000; stroke-width: 0.8"/>
      </g>
     </g>
     <g id="text_7">
      <!-- 0.6 -->
      <g transform="translate(31.096875 130.674364)scale(0.1 -0.1)">
       <defs>
        <path id="DejaVuSans-36" d="M 2113 2584 
Q 1688 2584 1439 2293 
Q 1191 2003 1191 1497 
Q 1191 994 1439 701 
Q 1688 409 2113 409 
Q 2538 409 2786 701 
Q 3034 994 3034 1497 
Q 3034 2003 2786 2293 
Q 2538 2584 2113 2584 
z
M 3366 4563 
L 3366 3988 
Q 3128 4100 2886 4159 
Q 2644 4219 2406 4219 
Q 1781 4219 1451 3797 
Q 1122 3375 1075 2522 
Q 1259 2794 1537 2939 
Q 1816 3084 2150 3084 
Q 2853 3084 3261 2657 
Q 3669 2231 3669 1497 
Q 3669 778 3244 343 
Q 2819 -91 2113 -91 
Q 1303 -91 875 529 
Q 447 1150 447 2328 
Q 447 3434 972 4092 
Q 1497 4750 2381 4750 
Q 2619 4750 2861 4703 
Q 3103 4656 3366 4563 
z
" transform="scale(0.015625)"/>
       </defs>
       <use xlink:href="#DejaVuSans-30"/>
       <use xlink:href="#DejaVuSans-2e" x="63.623047"/>
       <use xlink:href="#DejaVuSans-36" x="95.410156"/>
      </g>
     </g>
    </g>
    <g id="ytick_5">
     <g id="line2d_7">
      <g>
       <use xlink:href="#m026aa7304b" x="54" y="94.065436" style="stroke: #000000; stroke-width: 0.8"/>
      </g>
     </g>
     <g id="text_8">
      <!-- 0.8 -->
      <g transform="translate(31.096875 97.864655)scale(0.1 -0.1)">
       <defs>
        <path id="DejaVuSans-38" d="M 2034 2216 
Q 1584 2216 1326 1975 
Q 1069 1734 1069 1313 
Q 1069 891 1326 650 
Q 1584 409 2034 409 
Q 2484 409 2743 651 
Q 3003 894 3003 1313 
Q 3003 1734 2745 1975 
Q 2488 2216 2034 2216 
z
M 1403 2484 
Q 997 2584 770 2862 
Q 544 3141 544 3541 
Q 544 4100 942 4425 
Q 1341 4750 2034 4750 
Q 2731 4750 3128 4425 
Q 3525 4100 3525 3541 
Q 3525 3141 3298 2862 
Q 3072 2584 2669 2484 
Q 3125 2378 3379 2068 
Q 3634 1759 3634 1313 
Q 3634 634 3220 271 
Q 2806 -91 2034 -91 
Q 1263 -91 848 271 
Q 434 634 434 1313 
Q 434 1759 690 2068 
Q 947 2378 1403 2484 
z
M 1172 3481 
Q 1172 3119 1398 2916 
Q 1625 2713 2034 2713 
Q 2441 2713 2670 2916 
Q 2900 3119 2900 3481 
Q 2900 3844 2670 4047 
Q 2441 4250 2034 4250 
Q 1625 4250 1398 4047 
Q 1172 3844 1172 3481 
z
" transform="scale(0.015625)"/>
       </defs>
       <use xlink:href="#DejaVuSans-30"/>
       <use xlink:href="#DejaVuSans-2e" x="63.623047"/>
       <use xlink:href="#DejaVuSans-38" x="95.410156"/>
      </g>
     </g>
    </g>
    <g id="ytick_6">
     <g id="line2d_8">
      <g>
       <use xlink:href="#m026aa7304b" x="54" y="61.255726" style="stroke: #000000; stroke-width: 0.8"/>
      </g>
     </g>
     <g id="text_9">
      <!-- 1.0 -->
      <g transform="translate(31.096875 65.054945)scale(0.1 -0.1)">
       <use xlink:href="#DejaVuSans-31"/>
       <use xlink:href="#DejaVuSans-2e" x="63.623047"/>
       <use xlink:href="#DejaVuSans-30" x="95.410156"/>
      </g>
     </g>
    </g>
    <g id="text_10">
     <!-- HeartDiseaseorAttack -->
     <g transform="translate(25.017187 197.938594)rotate(-90)scale(0.1 -0.1)">
      <defs>
       <path id="DejaVuSans-48" d="M 628 4666 
L 1259 4666 
L 1259 2753 
L 3553 2753 
L 3553 4666 
L 4184 4666 
L 4184 0 
L 3553 0 
L 3553 2222 
L 1259 2222 
L 1259 0 
L 628 0 
L 628 4666 
z
" transform="scale(0.015625)"/>
       <path id="DejaVuSans-6f" d="M 1959 3097 
Q 1497 3097 1228 2736 
Q 959 2375 959 1747 
Q 959 1119 1226 758 
Q 1494 397 1959 397 
Q 2419 397 2687 759 
Q 2956 1122 2956 1747 
Q 2956 2369 2687 2733 
Q 2419 3097 1959 3097 
z
M 1959 3584 
Q 2709 3584 3137 3096 
Q 3566 2609 3566 1747 
Q 3566 888 3137 398 
Q 2709 -91 1959 -91 
Q 1206 -91 779 398 
Q 353 888 353 1747 
Q 353 2609 779 3096 
Q 1206 3584 1959 3584 
z
" transform="scale(0.015625)"/>
       <path id="DejaVuSans-41" d="M 2188 4044 
L 1331 1722 
L 3047 1722 
L 2188 4044 
z
M 1831 4666 
L 2547 4666 
L 4325 0 
L 3669 0 
L 3244 1197 
L 1141 1197 
L 716 0 
L 50 0 
L 1831 4666 
z
" transform="scale(0.015625)"/>
       <path id="DejaVuSans-63" d="M 3122 3366 
L 3122 2828 
Q 2878 2963 2633 3030 
Q 2388 3097 2138 3097 
Q 1578 3097 1268 2742 
Q 959 2388 959 1747 
Q 959 1106 1268 751 
Q 1578 397 2138 397 
Q 2388 397 2633 464 
Q 2878 531 3122 666 
L 3122 134 
Q 2881 22 2623 -34 
Q 2366 -91 2075 -91 
Q 1284 -91 818 406 
Q 353 903 353 1747 
Q 353 2603 823 3093 
Q 1294 3584 2113 3584 
Q 2378 3584 2631 3529 
Q 2884 3475 3122 3366 
z
" transform="scale(0.015625)"/>
       <path id="DejaVuSans-6b" d="M 581 4863 
L 1159 4863 
L 1159 1991 
L 2875 3500 
L 3609 3500 
L 1753 1863 
L 3688 0 
L 2938 0 
L 1159 1709 
L 1159 0 
L 581 0 
L 581 4863 
z
" transform="scale(0.015625)"/>
      </defs>
      <use xlink:href="#DejaVuSans-48"/>
      <use xlink:href="#DejaVuSans-65" x="75.195312"/>
      <use xlink:href="#DejaVuSans-61" x="136.71875"/>
      <use xlink:href="#DejaVuSans-72" x="197.998047"/>
      <use xlink:href="#DejaVuSans-74" x="239.111328"/>
      <use xlink:href="#DejaVuSans-44" x="278.320312"/>
      <use xlink:href="#DejaVuSans-69" x="355.322266"/>
      <use xlink:href="#DejaVuSans-73" x="383.105469"/>
      <use xlink:href="#DejaVuSans-65" x="435.205078"/>
      <use xlink:href="#DejaVuSans-61" x="496.728516"/>
      <use xlink:href="#DejaVuSans-73" x="558.007812"/>
      <use xlink:href="#DejaVuSans-65" x="610.107422"/>
      <use xlink:href="#DejaVuSans-6f" x="671.630859"/>
      <use xlink:href="#DejaVuSans-72" x="732.8125"/>
      <use xlink:href="#DejaVuSans-41" x="773.925781"/>
      <use xlink:href="#DejaVuSans-74" x="840.583984"/>
      <use xlink:href="#DejaVuSans-74" x="879.792969"/>
      <use xlink:href="#DejaVuSans-61" x="919.001953"/>
      <use xlink:href="#DejaVuSans-63" x="980.28125"/>
      <use xlink:href="#DejaVuSans-6b" x="1035.261719"/>
     </g>
    </g>
   </g>
   <g id="line2d_9">
    <path d="M 137.7 225.304274 
L 137.7 225.304274 
" clip-path="url(#p9aa92e13c9)" style="fill: none; stroke: #7a7a7a; stroke-width: 1.5; stroke-linecap: square"/>
   </g>
   <g id="line2d_10">
    <path d="M 137.7 225.304274 
L 137.7 225.304274 
" clip-path="url(#p9aa92e13c9)" style="fill: none; stroke: #7a7a7a; stroke-width: 4.5; stroke-linecap: square"/>
   </g>
   <g id="line2d_11">
    <path d="M 305.1 225.304274 
L 305.1 225.304274 
" clip-path="url(#p9aa92e13c9)" style="fill: none; stroke: #7a7a7a; stroke-width: 1.5; stroke-linecap: square"/>
   </g>
   <g id="line2d_12">
    <path d="M 305.1 225.304274 
L 305.1 225.304274 
" clip-path="url(#p9aa92e13c9)" style="fill: none; stroke: #7a7a7a; stroke-width: 4.5; stroke-linecap: square"/>
   </g>
   <g id="patch_3">
    <path d="M 54 252 
L 54 34.56 
" style="fill: none; stroke: #000000; stroke-width: 0.8; stroke-linejoin: miter; stroke-linecap: square"/>
   </g>
   <g id="patch_4">
    <path d="M 388.8 252 
L 388.8 34.56 
" style="fill: none; stroke: #000000; stroke-width: 0.8; stroke-linejoin: miter; stroke-linecap: square"/>
   </g>
   <g id="patch_5">
    <path d="M 54 252 
L 388.8 252 
" style="fill: none; stroke: #000000; stroke-width: 0.8; stroke-linejoin: miter; stroke-linecap: square"/>
   </g>
   <g id="patch_6">
    <path d="M 54 34.56 
L 388.8 34.56 
" style="fill: none; stroke: #000000; stroke-width: 0.8; stroke-linejoin: miter; stroke-linecap: square"/>
   </g>
   <g id="PathCollection_1">
    <defs>
     <path id="m524816a876" d="M 0 1.5 
C 0.397805 1.5 0.77937 1.341951 1.06066 1.06066 
C 1.341951 0.77937 1.5 0.397805 1.5 0 
C 1.5 -0.397805 1.341951 -0.77937 1.06066 -1.06066 
C 0.77937 -1.341951 0.397805 -1.5 0 -1.5 
C -0.397805 -1.5 -0.77937 -1.341951 -1.06066 -1.06066 
C -1.341951 -0.77937 -1.5 -0.397805 -1.5 0 
C -1.5 0.397805 -1.341951 0.77937 -1.06066 1.06066 
C -0.77937 1.341951 -0.397805 1.5 0 1.5 
z
" style="stroke: #7a7a7a"/>
    </defs>
    <g clip-path="url(#p9aa92e13c9)">
     <use xlink:href="#m524816a876" x="137.7" y="225.304274" style="fill: #ffffff; stroke: #7a7a7a"/>
    </g>
   </g>
   <g id="PathCollection_2">
    <g clip-path="url(#p9aa92e13c9)">
     <use xlink:href="#m524816a876" x="305.1" y="225.304274" style="fill: #ffffff; stroke: #7a7a7a"/>
    </g>
   </g>
  </g>
 </g>
 <defs>
  <clipPath id="p9aa92e13c9">
   <rect x="54" y="34.56" width="334.8" height="217.44"/>
  </clipPath>
 </defs>
</svg>
