<?xml version="1.0" encoding="utf-8" standalone="no"?>
<!DOCTYPE svg PUBLIC "-//W3C//DTD SVG 1.1//EN"
  "http://www.w3.org/Graphics/SVG/1.1/DTD/svg11.dtd">
<svg xmlns:xlink="http://www.w3.org/1999/xlink" width="432pt" height="288pt" viewBox="0 0 432 288" xmlns="http://www.w3.org/2000/svg" version="1.1">
 <metadata>
  <rdf:RDF xmlns:dc="http://purl.org/dc/elements/1.1/" xmlns:cc="http://creativecommons.org/ns#" xmlns:rdf="http://www.w3.org/1999/02/22-rdf-syntax-ns#">
   <cc:Work>
    <dc:type rdf:resource="http://purl.org/dc/dcmitype/StillImage"/>
    <dc:date>2023-05-03T02:46:50.447831</dc:date>
    <dc:format>image/svg+xml</dc:format>
    <dc:creator>
     <cc:Agent>
      <dc:title>Matplotlib v3.5.3, https://matplotlib.org/</dc:title>
     </cc:Agent>
    </dc:creator>
   </cc:Work>
  </rdf:RDF>
 </metadata>
 <defs>
  <style type="text/css">*{stroke-linejoin: round; stroke-linecap: butt}</style>
 </defs>
 <g id="figure_1">
  <g id="patch_1">
   <path d="M 0 288 
L 432 288 
L 432 0 
L 0 0 
L 0 288 
z
" style="fill: none"/>
  </g>
  <g id="axes_1">
   <g id="patch_2">
    <path d="M 54 252 
L 388.8 252 
L 388.8 34.56 
L 54 34.56 
z
" style="fill: #ffffff"/>
   </g>
   <g id="PolyCollection_1">
    <defs>
     <path id="m0b52523278" d="M 145.816937 -45.883636 
L 129.583063 -45.883636 
L 125.630578 -47.880331 
L 120.522765 -49.877025 
L 114.301256 -51.873719 
L 107.192662 -53.870413 
L 99.629501 -55.867107 
L 92.227867 -57.863802 
L 85.715416 -59.860496 
L 80.817809 -61.85719 
L 78.126853 -63.853884 
L 77.983098 -65.850579 
L 80.405032 -67.847273 
L 85.085168 -69.843967 
L 91.454191 -71.840661 
L 98.794673 -73.837355 
L 106.37304 -75.83405 
L 113.556517 -77.830744 
L 119.890403 -79.827438 
L 125.125789 -81.824132 
L 129.202721 -83.820826 
L 132.203939 -85.817521 
L 134.297519 -87.814215 
L 135.683899 -89.810909 
L 136.556592 -91.807603 
L 137.079327 -93.804298 
L 137.377524 -95.800992 
L 137.539637 -97.797686 
L 137.623672 -99.79438 
L 137.665228 -101.791074 
L 137.684838 -103.787769 
L 137.693672 -105.784463 
L 137.697472 -107.781157 
L 137.699034 -109.777851 
L 137.699646 -111.774545 
L 137.699876 -113.77124 
L 137.699958 -115.767934 
L 137.699987 -117.764628 
L 137.699996 -119.761322 
L 137.699999 -121.758017 
L 137.7 -123.754711 
L 137.7 -125.751405 
L 137.7 -127.748099 
L 137.7 -129.744793 
L 137.7 -131.741488 
L 137.7 -133.738182 
L 137.7 -135.734876 
L 137.7 -137.73157 
L 137.7 -139.728264 
L 137.7 -141.724959 
L 137.7 -143.721653 
L 137.7 -145.718347 
L 137.7 -147.715041 
L 137.7 -149.711736 
L 137.7 -151.70843 
L 137.7 -153.705124 
L 137.7 -155.701818 
L 137.7 -157.698512 
L 137.7 -159.695207 
L 137.7 -161.691901 
L 137.7 -163.688595 
L 137.7 -165.685289 
L 137.699999 -167.681983 
L 137.699997 -169.678678 
L 137.699992 -171.675372 
L 137.699974 -173.672066 
L 137.699924 -175.66876 
L 137.699782 -177.665455 
L 137.699404 -179.662149 
L 137.698442 -181.658843 
L 137.6961 -183.655537 
L 137.690656 -185.652231 
L 137.678571 -187.648926 
L 137.652962 -189.64562 
L 137.601175 -191.642314 
L 137.501271 -193.639008 
L 137.317504 -195.635702 
L 136.995363 -197.632397 
L 136.457557 -199.629091 
L 135.603186 -201.625785 
L 134.312995 -203.622479 
L 132.463463 -205.619174 
L 129.951011 -207.615868 
L 126.72465 -209.612562 
L 122.821326 -211.609256 
L 118.394433 -213.60595 
L 113.724185 -215.602645 
L 109.200536 -217.599339 
L 105.27556 -219.596033 
L 102.391377 -221.592727 
L 100.898835 -223.589421 
L 100.987425 -225.586116 
L 102.645755 -227.58281 
L 105.663956 -229.579504 
L 109.677322 -231.576198 
L 114.238656 -233.572893 
L 118.899534 -235.569587 
L 123.28028 -237.566281 
L 127.114349 -239.562975 
L 130.262093 -241.559669 
L 132.697853 -243.556364 
L 142.702147 -243.556364 
L 142.702147 -243.556364 
L 145.137907 -241.559669 
L 148.285651 -239.562975 
L 152.11972 -237.566281 
L 156.500466 -235.569587 
L 161.161344 -233.572893 
L 165.722678 -231.576198 
L 169.736044 -229.579504 
L 172.754245 -227.58281 
L 174.412575 -225.586116 
L 174.501165 -223.589421 
L 173.008623 -221.592727 
L 170.12444 -219.596033 
L 166.199464 -217.599339 
L 161.675815 -215.602645 
L 157.005567 -213.60595 
L 152.578674 -211.609256 
L 148.67535 -209.612562 
L 145.448989 -207.615868 
L 142.936537 -205.619174 
L 141.087005 -203.622479 
L 139.796814 -201.625785 
L 138.942443 -199.629091 
L 138.404637 -197.632397 
L 138.082496 -195.635702 
L 137.898729 -193.639008 
L 137.798825 -191.642314 
L 137.747038 -189.64562 
L 137.721429 -187.648926 
L 137.709344 -185.652231 
L 137.7039 -183.655537 
L 137.701558 -181.658843 
L 137.700596 -179.662149 
L 137.700218 -177.665455 
L 137.700076 -175.66876 
L 137.700026 -173.672066 
L 137.700008 -171.675372 
L 137.700003 -169.678678 
L 137.700001 -167.681983 
L 137.7 -165.685289 
L 137.7 -163.688595 
L 137.7 -161.691901 
L 137.7 -159.695207 
L 137.7 -157.698512 
L 137.7 -155.701818 
L 137.7 -153.705124 
L 137.7 -151.70843 
L 137.7 -149.711736 
L 137.7 -147.715041 
L 137.7 -145.718347 
L 137.7 -143.721653 
L 137.7 -141.724959 
L 137.7 -139.728264 
L 137.7 -137.73157 
L 137.7 -135.734876 
L 137.7 -133.738182 
L 137.7 -131.741488 
L 137.7 -129.744793 
L 137.7 -127.748099 
L 137.7 -125.751405 
L 137.7 -123.754711 
L 137.700001 -121.758017 
L 137.700004 -119.761322 
L 137.700013 -117.764628 
L 137.700042 -115.767934 
L 137.700124 -113.77124 
L 137.700354 -111.774545 
L 137.700966 -109.777851 
L 137.702528 -107.781157 
L 137.706328 -105.784463 
L 137.715162 -103.787769 
L 137.734772 -101.791074 
L 137.776328 -99.79438 
L 137.860363 -97.797686 
L 138.022476 -95.800992 
L 138.320673 -93.804298 
L 138.843408 -91.807603 
L 139.716101 -89.810909 
L 141.102481 -87.814215 
L 143.196061 -85.817521 
L 146.197279 -83.820826 
L 150.274211 -81.824132 
L 155.509597 -79.827438 
L 161.843483 -77.830744 
L 169.02696 -75.83405 
L 176.605327 -73.837355 
L 183.945809 -71.840661 
L 190.314832 -69.843967 
L 194.994968 -67.847273 
L 197.416902 -65.850579 
L 197.273147 -63.853884 
L 194.582191 -61.85719 
L 189.684584 -59.860496 
L 183.172133 -57.863802 
L 175.770499 -55.867107 
L 168.207338 -53.870413 
L 161.098744 -51.873719 
L 154.877235 -49.877025 
L 149.769422 -47.880331 
L 145.816937 -45.883636 
z
" style="stroke: #7a7a7a; stroke-width: 1.5"/>
    </defs>
    <g clip-path="url(#p7f9c07d6fe)">
     <use xlink:href="#m0b52523278" x="0" y="288" style="fill: #f1bcb8; stroke: #7a7a7a; stroke-width: 1.5"/>
    </g>
   </g>
   <g id="PolyCollection_2">
    <defs>
     <path id="m486a9e1543" d="M 309.570723 -46.493776 
L 300.629277 -46.493776 
L 298.385634 -48.478144 
L 295.4711 -50.462512 
L 291.914616 -52.446881 
L 287.859363 -54.431249 
L 283.574252 -56.415617 
L 279.436988 -58.399985 
L 275.885301 -60.384353 
L 273.342988 -62.368721 
L 272.137339 -64.35309 
L 272.429985 -66.337458 
L 274.18133 -68.321826 
L 277.159337 -70.306194 
L 280.99001 -72.290562 
L 285.234395 -74.27493 
L 289.470289 -76.259299 
L 293.357933 -78.243667 
L 296.676694 -80.228035 
L 299.330144 -82.212403 
L 301.326087 -84.196771 
L 302.742981 -86.181139 
L 303.694345 -88.165507 
L 304.299541 -90.149876 
L 304.664745 -92.134244 
L 304.874008 -94.118612 
L 304.987957 -96.10298 
L 305.046958 -98.087348 
L 305.076022 -100.071716 
L 305.08965 -102.056085 
L 305.095734 -104.040453 
L 305.098321 -106.024821 
L 305.099369 -108.009189 
L 305.099774 -109.993557 
L 305.099922 -111.977925 
L 305.099975 -113.962294 
L 305.099992 -115.946662 
L 305.099998 -117.93103 
L 305.099999 -119.915398 
L 305.1 -121.899766 
L 305.1 -123.884134 
L 305.1 -125.868502 
L 305.1 -127.852871 
L 305.1 -129.837239 
L 305.1 -131.821607 
L 305.1 -133.805975 
L 305.1 -135.790343 
L 305.1 -137.774711 
L 305.1 -139.75908 
L 305.1 -141.743448 
L 305.1 -143.727816 
L 305.1 -145.712184 
L 305.1 -147.696552 
L 305.1 -149.68092 
L 305.1 -151.665289 
L 305.1 -153.649657 
L 305.1 -155.634025 
L 305.1 -157.618393 
L 305.1 -159.602761 
L 305.1 -161.587129 
L 305.1 -163.571498 
L 305.1 -165.555866 
L 305.1 -167.540234 
L 305.099999 -169.524602 
L 305.099995 -171.50897 
L 305.099984 -173.493338 
L 305.099948 -175.477706 
L 305.099842 -177.462075 
L 305.09954 -179.446443 
L 305.098718 -181.430811 
L 305.09659 -183.415179 
L 305.091334 -185.399547 
L 305.078975 -187.383915 
L 305.051292 -189.368284 
L 304.99225 -191.352652 
L 304.872396 -193.33702 
L 304.640923 -195.321388 
L 304.215828 -197.305756 
L 303.473957 -199.290124 
L 302.244567 -201.274493 
L 300.311976 -203.258861 
L 297.433714 -205.243229 
L 293.379175 -207.227597 
L 287.988986 -209.211965 
L 281.24729 -211.196333 
L 273.349971 -213.180701 
L 264.745222 -215.16507 
L 256.123222 -217.149438 
L 248.341634 -219.133806 
L 242.292142 -221.118174 
L 238.73448 -223.102542 
L 238.14 -225.08691 
L 240.589143 -227.071279 
L 245.753571 -229.055647 
L 252.96843 -231.040015 
L 261.372824 -233.024383 
L 270.077553 -235.008751 
L 278.315351 -236.993119 
L 285.539955 -238.977488 
L 291.460509 -240.961856 
L 296.018221 -242.946224 
L 314.181779 -242.946224 
L 314.181779 -242.946224 
L 318.739491 -240.961856 
L 324.660045 -238.977488 
L 331.884649 -236.993119 
L 340.122447 -235.008751 
L 348.827176 -233.024383 
L 357.23157 -231.040015 
L 364.446429 -229.055647 
L 369.610857 -227.071279 
L 372.06 -225.08691 
L 371.46552 -223.102542 
L 367.907858 -221.118174 
L 361.858366 -219.133806 
L 354.076778 -217.149438 
L 345.454778 -215.16507 
L 336.850029 -213.180701 
L 328.95271 -211.196333 
L 322.211014 -209.211965 
L 316.820825 -207.227597 
L 312.766286 -205.243229 
L 309.888024 -203.258861 
L 307.955433 -201.274493 
L 306.726043 -199.290124 
L 305.984172 -197.305756 
L 305.559077 -195.321388 
L 305.327604 -193.33702 
L 305.20775 -191.352652 
L 305.148708 -189.368284 
L 305.121025 -187.383915 
L 305.108666 -185.399547 
L 305.10341 -183.415179 
L 305.101282 -181.430811 
L 305.10046 -179.446443 
L 305.100158 -177.462075 
L 305.100052 -175.477706 
L 305.100016 -173.493338 
L 305.100005 -171.50897 
L 305.100001 -169.524602 
L 305.1 -167.540234 
L 305.1 -165.555866 
L 305.1 -163.571498 
L 305.1 -161.587129 
L 305.1 -159.602761 
L 305.1 -157.618393 
L 305.1 -155.634025 
L 305.1 -153.649657 
L 305.1 -151.665289 
L 305.1 -149.68092 
L 305.1 -147.696552 
L 305.1 -145.712184 
L 305.1 -143.727816 
L 305.1 -141.743448 
L 305.1 -139.75908 
L 305.1 -137.774711 
L 305.1 -135.790343 
L 305.1 -133.805975 
L 305.1 -131.821607 
L 305.1 -129.837239 
L 305.1 -127.852871 
L 305.1 -125.868502 
L 305.1 -123.884134 
L 305.1 -121.899766 
L 305.100001 -119.915398 
L 305.100002 -117.93103 
L 305.100008 -115.946662 
L 305.100025 -113.962294 
L 305.100078 -111.977925 
L 305.100226 -109.993557 
L 305.100631 -108.009189 
L 305.101679 -106.024821 
L 305.104266 -104.040453 
L 305.11035 -102.056085 
L 305.123978 -100.071716 
L 305.153042 -98.087348 
L 305.212043 -96.10298 
L 305.325992 -94.118612 
L 305.535255 -92.134244 
L 305.900459 -90.149876 
L 306.505655 -88.165507 
L 307.457019 -86.181139 
L 308.873913 -84.196771 
L 310.869856 -82.212403 
L 313.523306 -80.228035 
L 316.842067 -78.243667 
L 320.729711 -76.259299 
L 324.965605 -74.27493 
L 329.20999 -72.290562 
L 333.040663 -70.306194 
L 336.01867 -68.321826 
L 337.770015 -66.337458 
L 338.062661 -64.35309 
L 336.857012 -62.368721 
L 334.314699 -60.384353 
L 330.763012 -58.399985 
L 326.625748 -56.415617 
L 322.340637 -54.431249 
L 318.285384 -52.446881 
L 314.7289 -50.462512 
L 311.814366 -48.478144 
L 309.570723 -46.493776 
z
" style="stroke: #7a7a7a; stroke-width: 1.5"/>
    </defs>
    <g clip-path="url(#p7f9c07d6fe)">
     <use xlink:href="#m486a9e1543" x="0" y="288" style="fill: #b9ccdd; stroke: #7a7a7a; stroke-width: 1.5"/>
    </g>
   </g>
   <g id="matplotlib.axis_1">
    <g id="xtick_1">
     <g id="line2d_1">
      <defs>
       <path id="meea0055c25" d="M 0 0 
L 0 3.5 
" style="stroke: #000000; stroke-width: 0.8"/>
      </defs>
      <g>
       <use xlink:href="#meea0055c25" x="137.7" y="252" style="stroke: #000000; stroke-width: 0.8"/>
      </g>
     </g>
     <g id="text_1">
      <!-- 0.0 -->
      <g transform="translate(129.748437 266.598437)scale(0.1 -0.1)">
       <defs>
        <path id="DejaVuSans-30" d="M 2034 4250 
Q 1547 4250 1301 3770 
Q 1056 3291 1056 2328 
Q 1056 1369 1301 889 
Q 1547 409 2034 409 
Q 2525 409 2770 889 
Q 3016 1369 3016 2328 
Q 3016 3291 2770 3770 
Q 2525 4250 2034 4250 
z
M 2034 4750 
Q 2819 4750 3233 4129 
Q 3647 3509 3647 2328 
Q 3647 1150 3233 529 
Q 2819 -91 2034 -91 
Q 1250 -91 836 529 
Q 422 1150 422 2328 
Q 422 3509 836 4129 
Q 1250 4750 2034 4750 
z
" transform="scale(0.015625)"/>
        <path id="DejaVuSans-2e" d="M 684 794 
L 1344 794 
L 1344 0 
L 684 0 
L 684 794 
z
" transform="scale(0.015625)"/>
       </defs>
       <use xlink:href="#DejaVuSans-30"/>
       <use xlink:href="#DejaVuSans-2e" x="63.623047"/>
       <use xlink:href="#DejaVuSans-30" x="95.410156"/>
      </g>
     </g>
    </g>
    <g id="xtick_2">
     <g id="line2d_2">
      <g>
       <use xlink:href="#meea0055c25" x="305.1" y="252" style="stroke: #000000; stroke-width: 0.8"/>
      </g>
     </g>
     <g id="text_2">
      <!-- 1.0 -->
      <g transform="translate(297.148438 266.598437)scale(0.1 -0.1)">
       <defs>
        <path id="DejaVuSans-31" d="M 794 531 
L 1825 531 
L 1825 4091 
L 703 3866 
L 703 4441 
L 1819 4666 
L 2450 4666 
L 2450 531 
L 3481 531 
L 3481 0 
L 794 0 
L 794 531 
z
" transform="scale(0.015625)"/>
       </defs>
       <use xlink:href="#DejaVuSans-31"/>
       <use xlink:href="#DejaVuSans-2e" x="63.623047"/>
       <use xlink:href="#DejaVuSans-30" x="95.410156"/>
      </g>
     </g>
    </g>
    <g id="text_3">
     <!-- Diabetes_binary -->
     <g transform="translate(180.89375 280.276563)scale(0.1 -0.1)">
      <defs>
       <path id="DejaVuSans-44" d="M 1259 4147 
L 1259 519 
L 2022 519 
Q 2988 519 3436 956 
Q 3884 1394 3884 2338 
Q 3884 3275 3436 3711 
Q 2988 4147 2022 4147 
L 1259 4147 
z
M 628 4666 
L 1925 4666 
Q 3281 4666 3915 4102 
Q 4550 3538 4550 2338 
Q 4550 1131 3912 565 
Q 3275 0 1925 0 
L 628 0 
L 628 4666 
z
" transform="scale(0.015625)"/>
       <path id="DejaVuSans-69" d="M 603 3500 
L 1178 3500 
L 1178 0 
L 603 0 
L 603 3500 
z
M 603 4863 
L 1178 4863 
L 1178 4134 
L 603 4134 
L 603 4863 
z
" transform="scale(0.015625)"/>
       <path id="DejaVuSans-61" d="M 2194 1759 
Q 1497 1759 1228 1600 
Q 959 1441 959 1056 
Q 959 750 1161 570 
Q 1363 391 1709 391 
Q 2188 391 2477 730 
Q 2766 1069 2766 1631 
L 2766 1759 
L 2194 1759 
z
M 3341 1997 
L 3341 0 
L 2766 0 
L 2766 531 
Q 2569 213 2275 61 
Q 1981 -91 1556 -91 
Q 1019 -91 701 211 
Q 384 513 384 1019 
Q 384 1609 779 1909 
Q 1175 2209 1959 2209 
L 2766 2209 
L 2766 2266 
Q 2766 2663 2505 2880 
Q 2244 3097 1772 3097 
Q 1472 3097 1187 3025 
Q 903 2953 641 2809 
L 641 3341 
Q 956 3463 1253 3523 
Q 1550 3584 1831 3584 
Q 2591 3584 2966 3190 
Q 3341 2797 3341 1997 
z
" transform="scale(0.015625)"/>
       <path id="DejaVuSans-62" d="M 3116 1747 
Q 3116 2381 2855 2742 
Q 2594 3103 2138 3103 
Q 1681 3103 1420 2742 
Q 1159 2381 1159 1747 
Q 1159 1113 1420 752 
Q 1681 391 2138 391 
Q 2594 391 2855 752 
Q 3116 1113 3116 1747 
z
M 1159 2969 
Q 1341 3281 1617 3432 
Q 1894 3584 2278 3584 
Q 2916 3584 3314 3078 
Q 3713 2572 3713 1747 
Q 3713 922 3314 415 
Q 2916 -91 2278 -91 
Q 1894 -91 1617 61 
Q 1341 213 1159 525 
L 1159 0 
L 581 0 
L 581 4863 
L 1159 4863 
L 1159 2969 
z
" transform="scale(0.015625)"/>
       <path id="DejaVuSans-65" d="M 3597 1894 
L 3597 1613 
L 953 1613 
Q 991 1019 1311 708 
Q 1631 397 2203 397 
Q 2534 397 2845 478 
Q 3156 559 3463 722 
L 3463 178 
Q 3153 47 2828 -22 
Q 2503 -91 2169 -91 
Q 1331 -91 842 396 
Q 353 884 353 1716 
Q 353 2575 817 3079 
Q 1281 3584 2069 3584 
Q 2775 3584 3186 3129 
Q 3597 2675 3597 1894 
z
M 3022 2063 
Q 3016 2534 2758 2815 
Q 2500 3097 2075 3097 
Q 1594 3097 1305 2825 
Q 1016 2553 972 2059 
L 3022 2063 
z
" transform="scale(0.015625)"/>
       <path id="DejaVuSans-74" d="M 1172 4494 
L 1172 3500 
L 2356 3500 
L 2356 3053 
L 1172 3053 
L 1172 1153 
Q 1172 725 1289 603 
Q 1406 481 1766 481 
L 2356 481 
L 2356 0 
L 1766 0 
Q 1100 0 847 248 
Q 594 497 594 1153 
L 594 3053 
L 172 3053 
L 172 3500 
L 594 3500 
L 594 4494 
L 1172 4494 
z
" transform="scale(0.015625)"/>
       <path id="DejaVuSans-73" d="M 2834 3397 
L 2834 2853 
Q 2591 2978 2328 3040 
Q 2066 3103 1784 3103 
Q 1356 3103 1142 2972 
Q 928 2841 928 2578 
Q 928 2378 1081 2264 
Q 1234 2150 1697 2047 
L 1894 2003 
Q 2506 1872 2764 1633 
Q 3022 1394 3022 966 
Q 3022 478 2636 193 
Q 2250 -91 1575 -91 
Q 1294 -91 989 -36 
Q 684 19 347 128 
L 347 722 
Q 666 556 975 473 
Q 1284 391 1588 391 
Q 1994 391 2212 530 
Q 2431 669 2431 922 
Q 2431 1156 2273 1281 
Q 2116 1406 1581 1522 
L 1381 1569 
Q 847 1681 609 1914 
Q 372 2147 372 2553 
Q 372 3047 722 3315 
Q 1072 3584 1716 3584 
Q 2034 3584 2315 3537 
Q 2597 3491 2834 3397 
z
" transform="scale(0.015625)"/>
       <path id="DejaVuSans-5f" d="M 3263 -1063 
L 3263 -1509 
L -63 -1509 
L -63 -1063 
L 3263 -1063 
z
" transform="scale(0.015625)"/>
       <path id="DejaVuSans-6e" d="M 3513 2113 
L 3513 0 
L 2938 0 
L 2938 2094 
Q 2938 2591 2744 2837 
Q 2550 3084 2163 3084 
Q 1697 3084 1428 2787 
Q 1159 2491 1159 1978 
L 1159 0 
L 581 0 
L 581 3500 
L 1159 3500 
L 1159 2956 
Q 1366 3272 1645 3428 
Q 1925 3584 2291 3584 
Q 2894 3584 3203 3211 
Q 3513 2838 3513 2113 
z
" transform="scale(0.015625)"/>
       <path id="DejaVuSans-72" d="M 2631 2963 
Q 2534 3019 2420 3045 
Q 2306 3072 2169 3072 
Q 1681 3072 1420 2755 
Q 1159 2438 1159 1844 
L 1159 0 
L 581 0 
L 581 3500 
L 1159 3500 
L 1159 2956 
Q 1341 3275 1631 3429 
Q 1922 3584 2338 3584 
Q 2397 3584 2469 3576 
Q 2541 3569 2628 3553 
L 2631 2963 
z
" transform="scale(0.015625)"/>
       <path id="DejaVuSans-79" d="M 2059 -325 
Q 1816 -950 1584 -1140 
Q 1353 -1331 966 -1331 
L 506 -1331 
L 506 -850 
L 844 -850 
Q 1081 -850 1212 -737 
Q 1344 -625 1503 -206 
L 1606 56 
L 191 3500 
L 800 3500 
L 1894 763 
L 2988 3500 
L 3597 3500 
L 2059 -325 
z
" transform="scale(0.015625)"/>
      </defs>
      <use xlink:href="#DejaVuSans-44"/>
      <use xlink:href="#DejaVuSans-69" x="77.001953"/>
      <use xlink:href="#DejaVuSans-61" x="104.785156"/>
      <use xlink:href="#DejaVuSans-62" x="166.064453"/>
      <use xlink:href="#DejaVuSans-65" x="229.541016"/>
      <use xlink:href="#DejaVuSans-74" x="291.064453"/>
      <use xlink:href="#DejaVuSans-65" x="330.273438"/>
      <use xlink:href="#DejaVuSans-73" x="391.796875"/>
      <use xlink:href="#DejaVuSans-5f" x="443.896484"/>
      <use xlink:href="#DejaVuSans-62" x="493.896484"/>
      <use xlink:href="#DejaVuSans-69" x="557.373047"/>
      <use xlink:href="#DejaVuSans-6e" x="585.15625"/>
      <use xlink:href="#DejaVuSans-61" x="648.535156"/>
      <use xlink:href="#DejaVuSans-72" x="709.814453"/>
      <use xlink:href="#DejaVuSans-79" x="750.927734"/>
     </g>
    </g>
   </g>
   <g id="matplotlib.axis_2">
    <g id="ytick_1">
     <g id="line2d_3">
      <defs>
       <path id="me598d889ca" d="M 0 0 
L -3.5 0 
" style="stroke: #000000; stroke-width: 0.8"/>
      </defs>
      <g>
       <use xlink:href="#me598d889ca" x="54" y="223.037929" style="stroke: #000000; stroke-width: 0.8"/>
      </g>
     </g>
     <g id="text_4">
      <!-- 0.0 -->
      <g transform="translate(31.096875 226.837147)scale(0.1 -0.1)">
       <use xlink:href="#DejaVuSans-30"/>
       <use xlink:href="#DejaVuSans-2e" x="63.623047"/>
       <use xlink:href="#DejaVuSans-30" x="95.410156"/>
      </g>
     </g>
    </g>
    <g id="ytick_2">
     <g id="line2d_4">
      <g>
       <use xlink:href="#me598d889ca" x="54" y="191.134757" style="stroke: #000000; stroke-width: 0.8"/>
      </g>
     </g>
     <g id="text_5">
      <!-- 0.2 -->
      <g transform="translate(31.096875 194.933976)scale(0.1 -0.1)">
       <defs>
        <path id="DejaVuSans-32" d="M 1228 531 
L 3431 531 
L 3431 0 
L 469 0 
L 469 531 
Q 828 903 1448 1529 
Q 2069 2156 2228 2338 
Q 2531 2678 2651 2914 
Q 2772 3150 2772 3378 
Q 2772 3750 2511 3984 
Q 2250 4219 1831 4219 
Q 1534 4219 1204 4116 
Q 875 4013 500 3803 
L 500 4441 
Q 881 4594 1212 4672 
Q 1544 4750 1819 4750 
Q 2544 4750 2975 4387 
Q 3406 4025 3406 3419 
Q 3406 3131 3298 2873 
Q 3191 2616 2906 2266 
Q 2828 2175 2409 1742 
Q 1991 1309 1228 531 
z
" transform="scale(0.015625)"/>
       </defs>
       <use xlink:href="#DejaVuSans-30"/>
       <use xlink:href="#DejaVuSans-2e" x="63.623047"/>
       <use xlink:href="#DejaVuSans-32" x="95.410156"/>
      </g>
     </g>
    </g>
    <g id="ytick_3">
     <g id="line2d_5">
      <g>
       <use xlink:href="#me598d889ca" x="54" y="159.231586" style="stroke: #000000; stroke-width: 0.8"/>
      </g>
     </g>
     <g id="text_6">
      <!-- 0.4 -->
      <g transform="translate(31.096875 163.030804)scale(0.1 -0.1)">
       <defs>
        <path id="DejaVuSans-34" d="M 2419 4116 
L 825 1625 
L 2419 1625 
L 2419 4116 
z
M 2253 4666 
L 3047 4666 
L 3047 1625 
L 3713 1625 
L 3713 1100 
L 3047 1100 
L 3047 0 
L 2419 0 
L 2419 1100 
L 313 1100 
L 313 1709 
L 2253 4666 
z
" transform="scale(0.015625)"/>
       </defs>
       <use xlink:href="#DejaVuSans-30"/>
       <use xlink:href="#DejaVuSans-2e" x="63.623047"/>
       <use xlink:href="#DejaVuSans-34" x="95.410156"/>
      </g>
     </g>
    </g>
    <g id="ytick_4">
     <g id="line2d_6">
      <g>
       <use xlink:href="#me598d889ca" x="54" y="127.328414" style="stroke: #000000; stroke-width: 0.8"/>
      </g>
     </g>
     <g id="text_7">
      <!-- 0.6 -->
      <g transform="translate(31.096875 131.127633)scale(0.1 -0.1)">
       <defs>
        <path id="DejaVuSans-36" d="M 2113 2584 
Q 1688 2584 1439 2293 
Q 1191 2003 1191 1497 
Q 1191 994 1439 701 
Q 1688 409 2113 409 
Q 2538 409 2786 701 
Q 3034 994 3034 1497 
Q 3034 2003 2786 2293 
Q 2538 2584 2113 2584 
z
M 3366 4563 
L 3366 3988 
Q 3128 4100 2886 4159 
Q 2644 4219 2406 4219 
Q 1781 4219 1451 3797 
Q 1122 3375 1075 2522 
Q 1259 2794 1537 2939 
Q 1816 3084 2150 3084 
Q 2853 3084 3261 2657 
Q 3669 2231 3669 1497 
Q 3669 778 3244 343 
Q 2819 -91 2113 -91 
Q 1303 -91 875 529 
Q 447 1150 447 2328 
Q 447 3434 972 4092 
Q 1497 4750 2381 4750 
Q 2619 4750 2861 4703 
Q 3103 4656 3366 4563 
z
" transform="scale(0.015625)"/>
       </defs>
       <use xlink:href="#DejaVuSans-30"/>
       <use xlink:href="#DejaVuSans-2e" x="63.623047"/>
       <use xlink:href="#DejaVuSans-36" x="95.410156"/>
      </g>
     </g>
    </g>
    <g id="ytick_5">
     <g id="line2d_7">
      <g>
       <use xlink:href="#me598d889ca" x="54" y="95.425243" style="stroke: #000000; stroke-width: 0.8"/>
      </g>
     </g>
     <g id="text_8">
      <!-- 0.8 -->
      <g transform="translate(31.096875 99.224462)scale(0.1 -0.1)">
       <defs>
        <path id="DejaVuSans-38" d="M 2034 2216 
Q 1584 2216 1326 1975 
Q 1069 1734 1069 1313 
Q 1069 891 1326 650 
Q 1584 409 2034 409 
Q 2484 409 2743 651 
Q 3003 894 3003 1313 
Q 3003 1734 2745 1975 
Q 2488 2216 2034 2216 
z
M 1403 2484 
Q 997 2584 770 2862 
Q 544 3141 544 3541 
Q 544 4100 942 4425 
Q 1341 4750 2034 4750 
Q 2731 4750 3128 4425 
Q 3525 4100 3525 3541 
Q 3525 3141 3298 2862 
Q 3072 2584 2669 2484 
Q 3125 2378 3379 2068 
Q 3634 1759 3634 1313 
Q 3634 634 3220 271 
Q 2806 -91 2034 -91 
Q 1263 -91 848 271 
Q 434 634 434 1313 
Q 434 1759 690 2068 
Q 947 2378 1403 2484 
z
M 1172 3481 
Q 1172 3119 1398 2916 
Q 1625 2713 2034 2713 
Q 2441 2713 2670 2916 
Q 2900 3119 2900 3481 
Q 2900 3844 2670 4047 
Q 2441 4250 2034 4250 
Q 1625 4250 1398 4047 
Q 1172 3844 1172 3481 
z
" transform="scale(0.015625)"/>
       </defs>
       <use xlink:href="#DejaVuSans-30"/>
       <use xlink:href="#DejaVuSans-2e" x="63.623047"/>
       <use xlink:href="#DejaVuSans-38" x="95.410156"/>
      </g>
     </g>
    </g>
    <g id="ytick_6">
     <g id="line2d_8">
      <g>
       <use xlink:href="#me598d889ca" x="54" y="63.522071" style="stroke: #000000; stroke-width: 0.8"/>
      </g>
     </g>
     <g id="text_9">
      <!-- 1.0 -->
      <g transform="translate(31.096875 67.32129)scale(0.1 -0.1)">
       <use xlink:href="#DejaVuSans-31"/>
       <use xlink:href="#DejaVuSans-2e" x="63.623047"/>
       <use xlink:href="#DejaVuSans-30" x="95.410156"/>
      </g>
     </g>
    </g>
    <g id="text_10">
     <!-- HighChol -->
     <g transform="translate(25.017187 165.880781)rotate(-90)scale(0.1 -0.1)">
      <defs>
       <path id="DejaVuSans-48" d="M 628 4666 
L 1259 4666 
L 1259 2753 
L 3553 2753 
L 3553 4666 
L 4184 4666 
L 4184 0 
L 3553 0 
L 3553 2222 
L 1259 2222 
L 1259 0 
L 628 0 
L 628 4666 
z
" transform="scale(0.015625)"/>
       <path id="DejaVuSans-67" d="M 2906 1791 
Q 2906 2416 2648 2759 
Q 2391 3103 1925 3103 
Q 1463 3103 1205 2759 
Q 947 2416 947 1791 
Q 947 1169 1205 825 
Q 1463 481 1925 481 
Q 2391 481 2648 825 
Q 2906 1169 2906 1791 
z
M 3481 434 
Q 3481 -459 3084 -895 
Q 2688 -1331 1869 -1331 
Q 1566 -1331 1297 -1286 
Q 1028 -1241 775 -1147 
L 775 -588 
Q 1028 -725 1275 -790 
Q 1522 -856 1778 -856 
Q 2344 -856 2625 -561 
Q 2906 -266 2906 331 
L 2906 616 
Q 2728 306 2450 153 
Q 2172 0 1784 0 
Q 1141 0 747 490 
Q 353 981 353 1791 
Q 353 2603 747 3093 
Q 1141 3584 1784 3584 
Q 2172 3584 2450 3431 
Q 2728 3278 2906 2969 
L 2906 3500 
L 3481 3500 
L 3481 434 
z
" transform="scale(0.015625)"/>
       <path id="DejaVuSans-68" d="M 3513 2113 
L 3513 0 
L 2938 0 
L 2938 2094 
Q 2938 2591 2744 2837 
Q 2550 3084 2163 3084 
Q 1697 3084 1428 2787 
Q 1159 2491 1159 1978 
L 1159 0 
L 581 0 
L 581 4863 
L 1159 4863 
L 1159 2956 
Q 1366 3272 1645 3428 
Q 1925 3584 2291 3584 
Q 2894 3584 3203 3211 
Q 3513 2838 3513 2113 
z
" transform="scale(0.015625)"/>
       <path id="DejaVuSans-43" d="M 4122 4306 
L 4122 3641 
Q 3803 3938 3442 4084 
Q 3081 4231 2675 4231 
Q 1875 4231 1450 3742 
Q 1025 3253 1025 2328 
Q 1025 1406 1450 917 
Q 1875 428 2675 428 
Q 3081 428 3442 575 
Q 3803 722 4122 1019 
L 4122 359 
Q 3791 134 3420 21 
Q 3050 -91 2638 -91 
Q 1578 -91 968 557 
Q 359 1206 359 2328 
Q 359 3453 968 4101 
Q 1578 4750 2638 4750 
Q 3056 4750 3426 4639 
Q 3797 4528 4122 4306 
z
" transform="scale(0.015625)"/>
       <path id="DejaVuSans-6f" d="M 1959 3097 
Q 1497 3097 1228 2736 
Q 959 2375 959 1747 
Q 959 1119 1226 758 
Q 1494 397 1959 397 
Q 2419 397 2687 759 
Q 2956 1122 2956 1747 
Q 2956 2369 2687 2733 
Q 2419 3097 1959 3097 
z
M 1959 3584 
Q 2709 3584 3137 3096 
Q 3566 2609 3566 1747 
Q 3566 888 3137 398 
Q 2709 -91 1959 -91 
Q 1206 -91 779 398 
Q 353 888 353 1747 
Q 353 2609 779 3096 
Q 1206 3584 1959 3584 
z
" transform="scale(0.015625)"/>
       <path id="DejaVuSans-6c" d="M 603 4863 
L 1178 4863 
L 1178 0 
L 603 0 
L 603 4863 
z
" transform="scale(0.015625)"/>
      </defs>
      <use xlink:href="#DejaVuSans-48"/>
      <use xlink:href="#DejaVuSans-69" x="75.195312"/>
      <use xlink:href="#DejaVuSans-67" x="102.978516"/>
      <use xlink:href="#DejaVuSans-68" x="166.455078"/>
      <use xlink:href="#DejaVuSans-43" x="229.833984"/>
      <use xlink:href="#DejaVuSans-68" x="299.658203"/>
      <use xlink:href="#DejaVuSans-6f" x="363.037109"/>
      <use xlink:href="#DejaVuSans-6c" x="424.21875"/>
     </g>
    </g>
   </g>
   <g id="line2d_9">
    <path d="M 137.7 223.037929 
L 137.7 63.522071 
" clip-path="url(#p7f9c07d6fe)" style="fill: none; stroke: #7a7a7a; stroke-width: 1.5; stroke-linecap: square"/>
   </g>
   <g id="line2d_10">
    <path d="M 137.7 223.037929 
L 137.7 63.522071 
" clip-path="url(#p7f9c07d6fe)" style="fill: none; stroke: #7a7a7a; stroke-width: 4.5; stroke-linecap: square"/>
   </g>
   <g id="line2d_11">
    <path d="M 305.1 223.037929 
L 305.1 63.522071 
" clip-path="url(#p7f9c07d6fe)" style="fill: none; stroke: #7a7a7a; stroke-width: 1.5; stroke-linecap: square"/>
   </g>
   <g id="line2d_12">
    <path d="M 305.1 223.037929 
L 305.1 63.522071 
" clip-path="url(#p7f9c07d6fe)" style="fill: none; stroke: #7a7a7a; stroke-width: 4.5; stroke-linecap: square"/>
   </g>
   <g id="patch_3">
    <path d="M 54 252 
L 54 34.56 
" style="fill: none; stroke: #000000; stroke-width: 0.8; stroke-linejoin: miter; stroke-linecap: square"/>
   </g>
   <g id="patch_4">
    <path d="M 388.8 252 
L 388.8 34.56 
" style="fill: none; stroke: #000000; stroke-width: 0.8; stroke-linejoin: miter; stroke-linecap: square"/>
   </g>
   <g id="patch_5">
    <path d="M 54 252 
L 388.8 252 
" style="fill: none; stroke: #000000; stroke-width: 0.8; stroke-linejoin: miter; stroke-linecap: square"/>
   </g>
   <g id="patch_6">
    <path d="M 54 34.56 
L 388.8 34.56 
" style="fill: none; stroke: #000000; stroke-width: 0.8; stroke-linejoin: miter; stroke-linecap: square"/>
   </g>
   <g id="PathCollection_1">
    <defs>
     <path id="m5df1e12eee" d="M 0 1.5 
C 0.397805 1.5 0.77937 1.341951 1.06066 1.06066 
C 1.341951 0.77937 1.5 0.397805 1.5 0 
C 1.5 -0.397805 1.341951 -0.77937 1.06066 -1.06066 
C 0.77937 -1.341951 0.397805 -1.5 0 -1.5 
C -0.397805 -1.5 -0.77937 -1.341951 -1.06066 -1.06066 
C -1.341951 -0.77937 -1.5 -0.397805 -1.5 0 
C -1.5 0.397805 -1.341951 0.77937 -1.06066 1.06066 
C -0.77937 1.341951 -0.397805 1.5 0 1.5 
z
" style="stroke: #7a7a7a"/>
    </defs>
    <g clip-path="url(#p7f9c07d6fe)">
     <use xlink:href="#m5df1e12eee" x="137.7" y="223.037929" style="fill: #ffffff; stroke: #7a7a7a"/>
    </g>
   </g>
   <g id="PathCollection_2">
    <g clip-path="url(#p7f9c07d6fe)">
     <use xlink:href="#m5df1e12eee" x="305.1" y="63.522071" style="fill: #ffffff; stroke: #7a7a7a"/>
    </g>
   </g>
  </g>
 </g>
 <defs>
  <clipPath id="p7f9c07d6fe">
   <rect x="54" y="34.56" width="334.8" height="217.44"/>
  </clipPath>
 </defs>
</svg>
