<?xml version="1.0" encoding="utf-8" standalone="no"?>
<!DOCTYPE svg PUBLIC "-//W3C//DTD SVG 1.1//EN"
  "http://www.w3.org/Graphics/SVG/1.1/DTD/svg11.dtd">
<svg xmlns:xlink="http://www.w3.org/1999/xlink" width="432pt" height="288pt" viewBox="0 0 432 288" xmlns="http://www.w3.org/2000/svg" version="1.1">
 <metadata>
  <rdf:RDF xmlns:dc="http://purl.org/dc/elements/1.1/" xmlns:cc="http://creativecommons.org/ns#" xmlns:rdf="http://www.w3.org/1999/02/22-rdf-syntax-ns#">
   <cc:Work>
    <dc:type rdf:resource="http://purl.org/dc/dcmitype/StillImage"/>
    <dc:date>2023-05-03T02:46:49.903192</dc:date>
    <dc:format>image/svg+xml</dc:format>
    <dc:creator>
     <cc:Agent>
      <dc:title>Matplotlib v3.5.3, https://matplotlib.org/</dc:title>
     </cc:Agent>
    </dc:creator>
   </cc:Work>
  </rdf:RDF>
 </metadata>
 <defs>
  <style type="text/css">*{stroke-linejoin: round; stroke-linecap: butt}</style>
 </defs>
 <g id="figure_1">
  <g id="patch_1">
   <path d="M 0 288 
L 432 288 
L 432 0 
L 0 0 
L 0 288 
z
" style="fill: none"/>
  </g>
  <g id="axes_1">
   <g id="patch_2">
    <path d="M 54 252 
L 388.8 252 
L 388.8 34.56 
L 54 34.56 
z
" style="fill: #ffffff"/>
   </g>
   <g id="PolyCollection_1">
    <defs>
     <path id="mb333d71813" d="M 144.436033 -45.883636 
L 130.963967 -45.883636 
L 127.67278 -47.880331 
L 123.417097 -49.877025 
L 118.232416 -51.873719 
L 112.309735 -53.870413 
L 106.012935 -55.867107 
L 99.859539 -57.863802 
L 94.459527 -59.860496 
L 90.419281 -61.85719 
L 88.230523 -63.853884 
L 88.17207 -65.850579 
L 90.251482 -67.847273 
L 94.203458 -69.843967 
L 99.545441 -71.840661 
L 105.674365 -73.837355 
L 111.977766 -75.83405 
L 117.93125 -77.830744 
L 123.161842 -79.827438 
L 127.469446 -81.824132 
L 130.811121 -83.820826 
L 133.261282 -85.817521 
L 134.963307 -87.814215 
L 136.085439 -89.810909 
L 136.78853 -91.807603 
L 137.207632 -93.804298 
L 137.445495 -95.800992 
L 137.574118 -97.797686 
L 137.640421 -99.79438 
L 137.673018 -101.791074 
L 137.688307 -103.787769 
L 137.695151 -105.784463 
L 137.698076 -107.781157 
L 137.69927 -109.777851 
L 137.699735 -111.774545 
L 137.699908 -113.77124 
L 137.699969 -115.767934 
L 137.69999 -117.764628 
L 137.699997 -119.761322 
L 137.699999 -121.758017 
L 137.7 -123.754711 
L 137.7 -125.751405 
L 137.7 -127.748099 
L 137.7 -129.744793 
L 137.7 -131.741488 
L 137.7 -133.738182 
L 137.7 -135.734876 
L 137.7 -137.73157 
L 137.7 -139.728264 
L 137.7 -141.724959 
L 137.7 -143.721653 
L 137.7 -145.718347 
L 137.7 -147.715041 
L 137.7 -149.711736 
L 137.7 -151.70843 
L 137.7 -153.705124 
L 137.7 -155.701818 
L 137.7 -157.698512 
L 137.7 -159.695207 
L 137.7 -161.691901 
L 137.7 -163.688595 
L 137.7 -165.685289 
L 137.699999 -167.681983 
L 137.699998 -169.678678 
L 137.699994 -171.675372 
L 137.699982 -173.672066 
L 137.699945 -175.66876 
L 137.699841 -177.665455 
L 137.699563 -179.662149 
L 137.698849 -181.658843 
L 137.6971 -183.655537 
L 137.693007 -185.652231 
L 137.683863 -187.648926 
L 137.664368 -189.64562 
L 137.624714 -191.642314 
L 137.547789 -193.639008 
L 137.405532 -195.635702 
L 137.154882 -197.632397 
L 136.734388 -199.629091 
L 136.06328 -201.625785 
L 135.045359 -203.622479 
L 133.580003 -205.619174 
L 131.581465 -207.615868 
L 129.005238 -209.612562 
L 125.877004 -211.609256 
L 122.316434 -213.60595 
L 118.546591 -215.602645 
L 114.881097 -217.599339 
L 111.686244 -219.596033 
L 109.322706 -221.592727 
L 108.079082 -223.589421 
L 108.114041 -225.586116 
L 109.42306 -227.58281 
L 111.83939 -229.579504 
L 115.068947 -231.576198 
L 118.749078 -233.572893 
L 122.514973 -235.569587 
L 126.057121 -237.566281 
L 129.157897 -239.562975 
L 131.703072 -241.559669 
L 133.671415 -243.556364 
L 141.728585 -243.556364 
L 141.728585 -243.556364 
L 143.696928 -241.559669 
L 146.242103 -239.562975 
L 149.342879 -237.566281 
L 152.885027 -235.569587 
L 156.650922 -233.572893 
L 160.331053 -231.576198 
L 163.56061 -229.579504 
L 165.97694 -227.58281 
L 167.285959 -225.586116 
L 167.320918 -223.589421 
L 166.077294 -221.592727 
L 163.713756 -219.596033 
L 160.518903 -217.599339 
L 156.853409 -215.602645 
L 153.083566 -213.60595 
L 149.522996 -211.609256 
L 146.394762 -209.612562 
L 143.818535 -207.615868 
L 141.819997 -205.619174 
L 140.354641 -203.622479 
L 139.33672 -201.625785 
L 138.665612 -199.629091 
L 138.245118 -197.632397 
L 137.994468 -195.635702 
L 137.852211 -193.639008 
L 137.775286 -191.642314 
L 137.735632 -189.64562 
L 137.716137 -187.648926 
L 137.706993 -185.652231 
L 137.7029 -183.655537 
L 137.701151 -181.658843 
L 137.700437 -179.662149 
L 137.700159 -177.665455 
L 137.700055 -175.66876 
L 137.700018 -173.672066 
L 137.700006 -171.675372 
L 137.700002 -169.678678 
L 137.700001 -167.681983 
L 137.7 -165.685289 
L 137.7 -163.688595 
L 137.7 -161.691901 
L 137.7 -159.695207 
L 137.7 -157.698512 
L 137.7 -155.701818 
L 137.7 -153.705124 
L 137.7 -151.70843 
L 137.7 -149.711736 
L 137.7 -147.715041 
L 137.7 -145.718347 
L 137.7 -143.721653 
L 137.7 -141.724959 
L 137.7 -139.728264 
L 137.7 -137.73157 
L 137.7 -135.734876 
L 137.7 -133.738182 
L 137.7 -131.741488 
L 137.7 -129.744793 
L 137.7 -127.748099 
L 137.7 -125.751405 
L 137.7 -123.754711 
L 137.700001 -121.758017 
L 137.700003 -119.761322 
L 137.70001 -117.764628 
L 137.700031 -115.767934 
L 137.700092 -113.77124 
L 137.700265 -111.774545 
L 137.70073 -109.777851 
L 137.701924 -107.781157 
L 137.704849 -105.784463 
L 137.711693 -103.787769 
L 137.726982 -101.791074 
L 137.759579 -99.79438 
L 137.825882 -97.797686 
L 137.954505 -95.800992 
L 138.192368 -93.804298 
L 138.61147 -91.807603 
L 139.314561 -89.810909 
L 140.436693 -87.814215 
L 142.138718 -85.817521 
L 144.588879 -83.820826 
L 147.930554 -81.824132 
L 152.238158 -79.827438 
L 157.46875 -77.830744 
L 163.422234 -75.83405 
L 169.725635 -73.837355 
L 175.854559 -71.840661 
L 181.196542 -69.843967 
L 185.148518 -67.847273 
L 187.22793 -65.850579 
L 187.169477 -63.853884 
L 184.980719 -61.85719 
L 180.940473 -59.860496 
L 175.540461 -57.863802 
L 169.387065 -55.867107 
L 163.090265 -53.870413 
L 157.167584 -51.873719 
L 151.982903 -49.877025 
L 147.72722 -47.880331 
L 144.436033 -45.883636 
z
" style="stroke: #7a7a7a; stroke-width: 1.5"/>
    </defs>
    <g clip-path="url(#p7ab30b1162)">
     <use xlink:href="#mb333d71813" x="0" y="288" style="fill: #f1bcb8; stroke: #7a7a7a; stroke-width: 1.5"/>
    </g>
   </g>
   <g id="PolyCollection_2">
    <defs>
     <path id="m3af805d3ac" d="M 308.086141 -47.946069 
L 302.113859 -47.946069 
L 300.488717 -49.901098 
L 298.347744 -51.856127 
L 295.724557 -53.811156 
L 292.756157 -55.766185 
L 289.689216 -57.721214 
L 286.856222 -59.676243 
L 284.620443 -61.631272 
L 283.300724 -63.5863 
L 283.097131 -65.541329 
L 284.041266 -67.496358 
L 285.988228 -69.451387 
L 288.653051 -71.406416 
L 291.678981 -73.361445 
L 294.715123 -75.316474 
L 297.480387 -77.271503 
L 299.798726 -79.226532 
L 301.602616 -81.181561 
L 302.912127 -83.13659 
L 303.802174 -85.091618 
L 304.369994 -87.046647 
L 304.710639 -89.001676 
L 304.903078 -90.956705 
L 305.005561 -92.911734 
L 305.057054 -94.866763 
L 305.081481 -96.821792 
L 305.092428 -98.776821 
L 305.097064 -100.73185 
L 305.098921 -102.686879 
L 305.099624 -104.641907 
L 305.099876 -106.596936 
L 305.099961 -108.551965 
L 305.099988 -110.506994 
L 305.099997 -112.462023 
L 305.099999 -114.417052 
L 305.1 -116.372081 
L 305.1 -118.32711 
L 305.1 -120.282139 
L 305.1 -122.237168 
L 305.1 -124.192197 
L 305.1 -126.147225 
L 305.1 -128.102254 
L 305.1 -130.057283 
L 305.1 -132.012312 
L 305.1 -133.967341 
L 305.1 -135.92237 
L 305.1 -137.877399 
L 305.1 -139.832428 
L 305.1 -141.787457 
L 305.1 -143.742486 
L 305.1 -145.697514 
L 305.1 -147.652543 
L 305.1 -149.607572 
L 305.1 -151.562601 
L 305.1 -153.51763 
L 305.1 -155.472659 
L 305.1 -157.427688 
L 305.1 -159.382717 
L 305.1 -161.337746 
L 305.1 -163.292775 
L 305.1 -165.247803 
L 305.1 -167.202832 
L 305.1 -169.157861 
L 305.1 -171.11289 
L 305.099999 -173.067919 
L 305.099997 -175.022948 
L 305.09999 -176.977977 
L 305.099965 -178.933006 
L 305.099881 -180.888035 
L 305.099621 -182.843064 
L 305.098855 -184.798093 
L 305.096715 -186.753121 
L 305.091065 -188.70815 
L 305.076956 -190.663179 
L 305.043643 -192.618208 
L 304.969304 -194.573237 
L 304.812599 -196.528266 
L 304.500719 -198.483295 
L 303.915081 -200.438324 
L 302.878415 -202.393353 
L 301.150404 -204.348382 
L 298.44178 -206.30341 
L 294.456624 -208.258439 
L 288.966954 -210.213468 
L 281.911692 -212.168497 
L 273.496332 -214.123526 
L 264.256624 -216.078555 
L 255.047993 -218.033584 
L 246.938301 -219.988613 
L 241.013227 -221.943642 
L 238.14 -223.898671 
L 238.759581 -225.8537 
L 242.775801 -227.808728 
L 249.579813 -229.763757 
L 258.201294 -231.718786 
L 267.534729 -233.673815 
L 276.568282 -235.628844 
L 284.551268 -237.583873 
L 291.066763 -239.538902 
L 296.012458 -241.493931 
L 314.187542 -241.493931 
L 314.187542 -241.493931 
L 319.133237 -239.538902 
L 325.648732 -237.583873 
L 333.631718 -235.628844 
L 342.665271 -233.673815 
L 351.998706 -231.718786 
L 360.620187 -229.763757 
L 367.424199 -227.808728 
L 371.440419 -225.8537 
L 372.06 -223.898671 
L 369.186773 -221.943642 
L 363.261699 -219.988613 
L 355.152007 -218.033584 
L 345.943376 -216.078555 
L 336.703668 -214.123526 
L 328.288308 -212.168497 
L 321.233046 -210.213468 
L 315.743376 -208.258439 
L 311.75822 -206.30341 
L 309.049596 -204.348382 
L 307.321585 -202.393353 
L 306.284919 -200.438324 
L 305.699281 -198.483295 
L 305.387401 -196.528266 
L 305.230696 -194.573237 
L 305.156357 -192.618208 
L 305.123044 -190.663179 
L 305.108935 -188.70815 
L 305.103285 -186.753121 
L 305.101145 -184.798093 
L 305.100379 -182.843064 
L 305.100119 -180.888035 
L 305.100035 -178.933006 
L 305.10001 -176.977977 
L 305.100003 -175.022948 
L 305.100001 -173.067919 
L 305.1 -171.11289 
L 305.1 -169.157861 
L 305.1 -167.202832 
L 305.1 -165.247803 
L 305.1 -163.292775 
L 305.1 -161.337746 
L 305.1 -159.382717 
L 305.1 -157.427688 
L 305.1 -155.472659 
L 305.1 -153.51763 
L 305.1 -151.562601 
L 305.1 -149.607572 
L 305.1 -147.652543 
L 305.1 -145.697514 
L 305.1 -143.742486 
L 305.1 -141.787457 
L 305.1 -139.832428 
L 305.1 -137.877399 
L 305.1 -135.92237 
L 305.1 -133.967341 
L 305.1 -132.012312 
L 305.1 -130.057283 
L 305.1 -128.102254 
L 305.1 -126.147225 
L 305.1 -124.192197 
L 305.1 -122.237168 
L 305.1 -120.282139 
L 305.1 -118.32711 
L 305.1 -116.372081 
L 305.100001 -114.417052 
L 305.100003 -112.462023 
L 305.100012 -110.506994 
L 305.100039 -108.551965 
L 305.100124 -106.596936 
L 305.100376 -104.641907 
L 305.101079 -102.686879 
L 305.102936 -100.73185 
L 305.107572 -98.776821 
L 305.118519 -96.821792 
L 305.142946 -94.866763 
L 305.194439 -92.911734 
L 305.296922 -90.956705 
L 305.489361 -89.001676 
L 305.830006 -87.046647 
L 306.397826 -85.091618 
L 307.287873 -83.13659 
L 308.597384 -81.181561 
L 310.401274 -79.226532 
L 312.719613 -77.271503 
L 315.484877 -75.316474 
L 318.521019 -73.361445 
L 321.546949 -71.406416 
L 324.211772 -69.451387 
L 326.158734 -67.496358 
L 327.102869 -65.541329 
L 326.899276 -63.5863 
L 325.579557 -61.631272 
L 323.343778 -59.676243 
L 320.510784 -57.721214 
L 317.443843 -55.766185 
L 314.475443 -53.811156 
L 311.852256 -51.856127 
L 309.711283 -49.901098 
L 308.086141 -47.946069 
z
" style="stroke: #7a7a7a; stroke-width: 1.5"/>
    </defs>
    <g clip-path="url(#p7ab30b1162)">
     <use xlink:href="#m3af805d3ac" x="0" y="288" style="fill: #b9ccdd; stroke: #7a7a7a; stroke-width: 1.5"/>
    </g>
   </g>
   <g id="matplotlib.axis_1">
    <g id="xtick_1">
     <g id="line2d_1">
      <defs>
       <path id="m9ba407300d" d="M 0 0 
L 0 3.5 
" style="stroke: #000000; stroke-width: 0.8"/>
      </defs>
      <g>
       <use xlink:href="#m9ba407300d" x="137.7" y="252" style="stroke: #000000; stroke-width: 0.8"/>
      </g>
     </g>
     <g id="text_1">
      <!-- 0.0 -->
      <g transform="translate(129.748437 266.598437)scale(0.1 -0.1)">
       <defs>
        <path id="DejaVuSans-30" d="M 2034 4250 
Q 1547 4250 1301 3770 
Q 1056 3291 1056 2328 
Q 1056 1369 1301 889 
Q 1547 409 2034 409 
Q 2525 409 2770 889 
Q 3016 1369 3016 2328 
Q 3016 3291 2770 3770 
Q 2525 4250 2034 4250 
z
M 2034 4750 
Q 2819 4750 3233 4129 
Q 3647 3509 3647 2328 
Q 3647 1150 3233 529 
Q 2819 -91 2034 -91 
Q 1250 -91 836 529 
Q 422 1150 422 2328 
Q 422 3509 836 4129 
Q 1250 4750 2034 4750 
z
" transform="scale(0.015625)"/>
        <path id="DejaVuSans-2e" d="M 684 794 
L 1344 794 
L 1344 0 
L 684 0 
L 684 794 
z
" transform="scale(0.015625)"/>
       </defs>
       <use xlink:href="#DejaVuSans-30"/>
       <use xlink:href="#DejaVuSans-2e" x="63.623047"/>
       <use xlink:href="#DejaVuSans-30" x="95.410156"/>
      </g>
     </g>
    </g>
    <g id="xtick_2">
     <g id="line2d_2">
      <g>
       <use xlink:href="#m9ba407300d" x="305.1" y="252" style="stroke: #000000; stroke-width: 0.8"/>
      </g>
     </g>
     <g id="text_2">
      <!-- 1.0 -->
      <g transform="translate(297.148438 266.598437)scale(0.1 -0.1)">
       <defs>
        <path id="DejaVuSans-31" d="M 794 531 
L 1825 531 
L 1825 4091 
L 703 3866 
L 703 4441 
L 1819 4666 
L 2450 4666 
L 2450 531 
L 3481 531 
L 3481 0 
L 794 0 
L 794 531 
z
" transform="scale(0.015625)"/>
       </defs>
       <use xlink:href="#DejaVuSans-31"/>
       <use xlink:href="#DejaVuSans-2e" x="63.623047"/>
       <use xlink:href="#DejaVuSans-30" x="95.410156"/>
      </g>
     </g>
    </g>
    <g id="text_3">
     <!-- Diabetes_binary -->
     <g transform="translate(180.89375 280.276563)scale(0.1 -0.1)">
      <defs>
       <path id="DejaVuSans-44" d="M 1259 4147 
L 1259 519 
L 2022 519 
Q 2988 519 3436 956 
Q 3884 1394 3884 2338 
Q 3884 3275 3436 3711 
Q 2988 4147 2022 4147 
L 1259 4147 
z
M 628 4666 
L 1925 4666 
Q 3281 4666 3915 4102 
Q 4550 3538 4550 2338 
Q 4550 1131 3912 565 
Q 3275 0 1925 0 
L 628 0 
L 628 4666 
z
" transform="scale(0.015625)"/>
       <path id="DejaVuSans-69" d="M 603 3500 
L 1178 3500 
L 1178 0 
L 603 0 
L 603 3500 
z
M 603 4863 
L 1178 4863 
L 1178 4134 
L 603 4134 
L 603 4863 
z
" transform="scale(0.015625)"/>
       <path id="DejaVuSans-61" d="M 2194 1759 
Q 1497 1759 1228 1600 
Q 959 1441 959 1056 
Q 959 750 1161 570 
Q 1363 391 1709 391 
Q 2188 391 2477 730 
Q 2766 1069 2766 1631 
L 2766 1759 
L 2194 1759 
z
M 3341 1997 
L 3341 0 
L 2766 0 
L 2766 531 
Q 2569 213 2275 61 
Q 1981 -91 1556 -91 
Q 1019 -91 701 211 
Q 384 513 384 1019 
Q 384 1609 779 1909 
Q 1175 2209 1959 2209 
L 2766 2209 
L 2766 2266 
Q 2766 2663 2505 2880 
Q 2244 3097 1772 3097 
Q 1472 3097 1187 3025 
Q 903 2953 641 2809 
L 641 3341 
Q 956 3463 1253 3523 
Q 1550 3584 1831 3584 
Q 2591 3584 2966 3190 
Q 3341 2797 3341 1997 
z
" transform="scale(0.015625)"/>
       <path id="DejaVuSans-62" d="M 3116 1747 
Q 3116 2381 2855 2742 
Q 2594 3103 2138 3103 
Q 1681 3103 1420 2742 
Q 1159 2381 1159 1747 
Q 1159 1113 1420 752 
Q 1681 391 2138 391 
Q 2594 391 2855 752 
Q 3116 1113 3116 1747 
z
M 1159 2969 
Q 1341 3281 1617 3432 
Q 1894 3584 2278 3584 
Q 2916 3584 3314 3078 
Q 3713 2572 3713 1747 
Q 3713 922 3314 415 
Q 2916 -91 2278 -91 
Q 1894 -91 1617 61 
Q 1341 213 1159 525 
L 1159 0 
L 581 0 
L 581 4863 
L 1159 4863 
L 1159 2969 
z
" transform="scale(0.015625)"/>
       <path id="DejaVuSans-65" d="M 3597 1894 
L 3597 1613 
L 953 1613 
Q 991 1019 1311 708 
Q 1631 397 2203 397 
Q 2534 397 2845 478 
Q 3156 559 3463 722 
L 3463 178 
Q 3153 47 2828 -22 
Q 2503 -91 2169 -91 
Q 1331 -91 842 396 
Q 353 884 353 1716 
Q 353 2575 817 3079 
Q 1281 3584 2069 3584 
Q 2775 3584 3186 3129 
Q 3597 2675 3597 1894 
z
M 3022 2063 
Q 3016 2534 2758 2815 
Q 2500 3097 2075 3097 
Q 1594 3097 1305 2825 
Q 1016 2553 972 2059 
L 3022 2063 
z
" transform="scale(0.015625)"/>
       <path id="DejaVuSans-74" d="M 1172 4494 
L 1172 3500 
L 2356 3500 
L 2356 3053 
L 1172 3053 
L 1172 1153 
Q 1172 725 1289 603 
Q 1406 481 1766 481 
L 2356 481 
L 2356 0 
L 1766 0 
Q 1100 0 847 248 
Q 594 497 594 1153 
L 594 3053 
L 172 3053 
L 172 3500 
L 594 3500 
L 594 4494 
L 1172 4494 
z
" transform="scale(0.015625)"/>
       <path id="DejaVuSans-73" d="M 2834 3397 
L 2834 2853 
Q 2591 2978 2328 3040 
Q 2066 3103 1784 3103 
Q 1356 3103 1142 2972 
Q 928 2841 928 2578 
Q 928 2378 1081 2264 
Q 1234 2150 1697 2047 
L 1894 2003 
Q 2506 1872 2764 1633 
Q 3022 1394 3022 966 
Q 3022 478 2636 193 
Q 2250 -91 1575 -91 
Q 1294 -91 989 -36 
Q 684 19 347 128 
L 347 722 
Q 666 556 975 473 
Q 1284 391 1588 391 
Q 1994 391 2212 530 
Q 2431 669 2431 922 
Q 2431 1156 2273 1281 
Q 2116 1406 1581 1522 
L 1381 1569 
Q 847 1681 609 1914 
Q 372 2147 372 2553 
Q 372 3047 722 3315 
Q 1072 3584 1716 3584 
Q 2034 3584 2315 3537 
Q 2597 3491 2834 3397 
z
" transform="scale(0.015625)"/>
       <path id="DejaVuSans-5f" d="M 3263 -1063 
L 3263 -1509 
L -63 -1509 
L -63 -1063 
L 3263 -1063 
z
" transform="scale(0.015625)"/>
       <path id="DejaVuSans-6e" d="M 3513 2113 
L 3513 0 
L 2938 0 
L 2938 2094 
Q 2938 2591 2744 2837 
Q 2550 3084 2163 3084 
Q 1697 3084 1428 2787 
Q 1159 2491 1159 1978 
L 1159 0 
L 581 0 
L 581 3500 
L 1159 3500 
L 1159 2956 
Q 1366 3272 1645 3428 
Q 1925 3584 2291 3584 
Q 2894 3584 3203 3211 
Q 3513 2838 3513 2113 
z
" transform="scale(0.015625)"/>
       <path id="DejaVuSans-72" d="M 2631 2963 
Q 2534 3019 2420 3045 
Q 2306 3072 2169 3072 
Q 1681 3072 1420 2755 
Q 1159 2438 1159 1844 
L 1159 0 
L 581 0 
L 581 3500 
L 1159 3500 
L 1159 2956 
Q 1341 3275 1631 3429 
Q 1922 3584 2338 3584 
Q 2397 3584 2469 3576 
Q 2541 3569 2628 3553 
L 2631 2963 
z
" transform="scale(0.015625)"/>
       <path id="DejaVuSans-79" d="M 2059 -325 
Q 1816 -950 1584 -1140 
Q 1353 -1331 966 -1331 
L 506 -1331 
L 506 -850 
L 844 -850 
Q 1081 -850 1212 -737 
Q 1344 -625 1503 -206 
L 1606 56 
L 191 3500 
L 800 3500 
L 1894 763 
L 2988 3500 
L 3597 3500 
L 2059 -325 
z
" transform="scale(0.015625)"/>
      </defs>
      <use xlink:href="#DejaVuSans-44"/>
      <use xlink:href="#DejaVuSans-69" x="77.001953"/>
      <use xlink:href="#DejaVuSans-61" x="104.785156"/>
      <use xlink:href="#DejaVuSans-62" x="166.064453"/>
      <use xlink:href="#DejaVuSans-65" x="229.541016"/>
      <use xlink:href="#DejaVuSans-74" x="291.064453"/>
      <use xlink:href="#DejaVuSans-65" x="330.273438"/>
      <use xlink:href="#DejaVuSans-73" x="391.796875"/>
      <use xlink:href="#DejaVuSans-5f" x="443.896484"/>
      <use xlink:href="#DejaVuSans-62" x="493.896484"/>
      <use xlink:href="#DejaVuSans-69" x="557.373047"/>
      <use xlink:href="#DejaVuSans-6e" x="585.15625"/>
      <use xlink:href="#DejaVuSans-61" x="648.535156"/>
      <use xlink:href="#DejaVuSans-72" x="709.814453"/>
      <use xlink:href="#DejaVuSans-79" x="750.927734"/>
     </g>
    </g>
   </g>
   <g id="matplotlib.axis_2">
    <g id="ytick_1">
     <g id="line2d_3">
      <defs>
       <path id="md056555ee6" d="M 0 0 
L -3.5 0 
" style="stroke: #000000; stroke-width: 0.8"/>
      </defs>
      <g>
       <use xlink:href="#md056555ee6" x="54" y="223.094268" style="stroke: #000000; stroke-width: 0.8"/>
      </g>
     </g>
     <g id="text_4">
      <!-- 0.0 -->
      <g transform="translate(31.096875 226.893487)scale(0.1 -0.1)">
       <use xlink:href="#DejaVuSans-30"/>
       <use xlink:href="#DejaVuSans-2e" x="63.623047"/>
       <use xlink:href="#DejaVuSans-30" x="95.410156"/>
      </g>
     </g>
    </g>
    <g id="ytick_2">
     <g id="line2d_4">
      <g>
       <use xlink:href="#md056555ee6" x="54" y="191.168561" style="stroke: #000000; stroke-width: 0.8"/>
      </g>
     </g>
     <g id="text_5">
      <!-- 0.2 -->
      <g transform="translate(31.096875 194.96778)scale(0.1 -0.1)">
       <defs>
        <path id="DejaVuSans-32" d="M 1228 531 
L 3431 531 
L 3431 0 
L 469 0 
L 469 531 
Q 828 903 1448 1529 
Q 2069 2156 2228 2338 
Q 2531 2678 2651 2914 
Q 2772 3150 2772 3378 
Q 2772 3750 2511 3984 
Q 2250 4219 1831 4219 
Q 1534 4219 1204 4116 
Q 875 4013 500 3803 
L 500 4441 
Q 881 4594 1212 4672 
Q 1544 4750 1819 4750 
Q 2544 4750 2975 4387 
Q 3406 4025 3406 3419 
Q 3406 3131 3298 2873 
Q 3191 2616 2906 2266 
Q 2828 2175 2409 1742 
Q 1991 1309 1228 531 
z
" transform="scale(0.015625)"/>
       </defs>
       <use xlink:href="#DejaVuSans-30"/>
       <use xlink:href="#DejaVuSans-2e" x="63.623047"/>
       <use xlink:href="#DejaVuSans-32" x="95.410156"/>
      </g>
     </g>
    </g>
    <g id="ytick_3">
     <g id="line2d_5">
      <g>
       <use xlink:href="#md056555ee6" x="54" y="159.242854" style="stroke: #000000; stroke-width: 0.8"/>
      </g>
     </g>
     <g id="text_6">
      <!-- 0.4 -->
      <g transform="translate(31.096875 163.042072)scale(0.1 -0.1)">
       <defs>
        <path id="DejaVuSans-34" d="M 2419 4116 
L 825 1625 
L 2419 1625 
L 2419 4116 
z
M 2253 4666 
L 3047 4666 
L 3047 1625 
L 3713 1625 
L 3713 1100 
L 3047 1100 
L 3047 0 
L 2419 0 
L 2419 1100 
L 313 1100 
L 313 1709 
L 2253 4666 
z
" transform="scale(0.015625)"/>
       </defs>
       <use xlink:href="#DejaVuSans-30"/>
       <use xlink:href="#DejaVuSans-2e" x="63.623047"/>
       <use xlink:href="#DejaVuSans-34" x="95.410156"/>
      </g>
     </g>
    </g>
    <g id="ytick_4">
     <g id="line2d_6">
      <g>
       <use xlink:href="#md056555ee6" x="54" y="127.317146" style="stroke: #000000; stroke-width: 0.8"/>
      </g>
     </g>
     <g id="text_7">
      <!-- 0.6 -->
      <g transform="translate(31.096875 131.116365)scale(0.1 -0.1)">
       <defs>
        <path id="DejaVuSans-36" d="M 2113 2584 
Q 1688 2584 1439 2293 
Q 1191 2003 1191 1497 
Q 1191 994 1439 701 
Q 1688 409 2113 409 
Q 2538 409 2786 701 
Q 3034 994 3034 1497 
Q 3034 2003 2786 2293 
Q 2538 2584 2113 2584 
z
M 3366 4563 
L 3366 3988 
Q 3128 4100 2886 4159 
Q 2644 4219 2406 4219 
Q 1781 4219 1451 3797 
Q 1122 3375 1075 2522 
Q 1259 2794 1537 2939 
Q 1816 3084 2150 3084 
Q 2853 3084 3261 2657 
Q 3669 2231 3669 1497 
Q 3669 778 3244 343 
Q 2819 -91 2113 -91 
Q 1303 -91 875 529 
Q 447 1150 447 2328 
Q 447 3434 972 4092 
Q 1497 4750 2381 4750 
Q 2619 4750 2861 4703 
Q 3103 4656 3366 4563 
z
" transform="scale(0.015625)"/>
       </defs>
       <use xlink:href="#DejaVuSans-30"/>
       <use xlink:href="#DejaVuSans-2e" x="63.623047"/>
       <use xlink:href="#DejaVuSans-36" x="95.410156"/>
      </g>
     </g>
    </g>
    <g id="ytick_5">
     <g id="line2d_7">
      <g>
       <use xlink:href="#md056555ee6" x="54" y="95.391439" style="stroke: #000000; stroke-width: 0.8"/>
      </g>
     </g>
     <g id="text_8">
      <!-- 0.8 -->
      <g transform="translate(31.096875 99.190658)scale(0.1 -0.1)">
       <defs>
        <path id="DejaVuSans-38" d="M 2034 2216 
Q 1584 2216 1326 1975 
Q 1069 1734 1069 1313 
Q 1069 891 1326 650 
Q 1584 409 2034 409 
Q 2484 409 2743 651 
Q 3003 894 3003 1313 
Q 3003 1734 2745 1975 
Q 2488 2216 2034 2216 
z
M 1403 2484 
Q 997 2584 770 2862 
Q 544 3141 544 3541 
Q 544 4100 942 4425 
Q 1341 4750 2034 4750 
Q 2731 4750 3128 4425 
Q 3525 4100 3525 3541 
Q 3525 3141 3298 2862 
Q 3072 2584 2669 2484 
Q 3125 2378 3379 2068 
Q 3634 1759 3634 1313 
Q 3634 634 3220 271 
Q 2806 -91 2034 -91 
Q 1263 -91 848 271 
Q 434 634 434 1313 
Q 434 1759 690 2068 
Q 947 2378 1403 2484 
z
M 1172 3481 
Q 1172 3119 1398 2916 
Q 1625 2713 2034 2713 
Q 2441 2713 2670 2916 
Q 2900 3119 2900 3481 
Q 2900 3844 2670 4047 
Q 2441 4250 2034 4250 
Q 1625 4250 1398 4047 
Q 1172 3844 1172 3481 
z
" transform="scale(0.015625)"/>
       </defs>
       <use xlink:href="#DejaVuSans-30"/>
       <use xlink:href="#DejaVuSans-2e" x="63.623047"/>
       <use xlink:href="#DejaVuSans-38" x="95.410156"/>
      </g>
     </g>
    </g>
    <g id="ytick_6">
     <g id="line2d_8">
      <g>
       <use xlink:href="#md056555ee6" x="54" y="63.465732" style="stroke: #000000; stroke-width: 0.8"/>
      </g>
     </g>
     <g id="text_9">
      <!-- 1.0 -->
      <g transform="translate(31.096875 67.264951)scale(0.1 -0.1)">
       <use xlink:href="#DejaVuSans-31"/>
       <use xlink:href="#DejaVuSans-2e" x="63.623047"/>
       <use xlink:href="#DejaVuSans-30" x="95.410156"/>
      </g>
     </g>
    </g>
    <g id="text_10">
     <!-- HighBP -->
     <g transform="translate(25.017187 161.2175)rotate(-90)scale(0.1 -0.1)">
      <defs>
       <path id="DejaVuSans-48" d="M 628 4666 
L 1259 4666 
L 1259 2753 
L 3553 2753 
L 3553 4666 
L 4184 4666 
L 4184 0 
L 3553 0 
L 3553 2222 
L 1259 2222 
L 1259 0 
L 628 0 
L 628 4666 
z
" transform="scale(0.015625)"/>
       <path id="DejaVuSans-67" d="M 2906 1791 
Q 2906 2416 2648 2759 
Q 2391 3103 1925 3103 
Q 1463 3103 1205 2759 
Q 947 2416 947 1791 
Q 947 1169 1205 825 
Q 1463 481 1925 481 
Q 2391 481 2648 825 
Q 2906 1169 2906 1791 
z
M 3481 434 
Q 3481 -459 3084 -895 
Q 2688 -1331 1869 -1331 
Q 1566 -1331 1297 -1286 
Q 1028 -1241 775 -1147 
L 775 -588 
Q 1028 -725 1275 -790 
Q 1522 -856 1778 -856 
Q 2344 -856 2625 -561 
Q 2906 -266 2906 331 
L 2906 616 
Q 2728 306 2450 153 
Q 2172 0 1784 0 
Q 1141 0 747 490 
Q 353 981 353 1791 
Q 353 2603 747 3093 
Q 1141 3584 1784 3584 
Q 2172 3584 2450 3431 
Q 2728 3278 2906 2969 
L 2906 3500 
L 3481 3500 
L 3481 434 
z
" transform="scale(0.015625)"/>
       <path id="DejaVuSans-68" d="M 3513 2113 
L 3513 0 
L 2938 0 
L 2938 2094 
Q 2938 2591 2744 2837 
Q 2550 3084 2163 3084 
Q 1697 3084 1428 2787 
Q 1159 2491 1159 1978 
L 1159 0 
L 581 0 
L 581 4863 
L 1159 4863 
L 1159 2956 
Q 1366 3272 1645 3428 
Q 1925 3584 2291 3584 
Q 2894 3584 3203 3211 
Q 3513 2838 3513 2113 
z
" transform="scale(0.015625)"/>
       <path id="DejaVuSans-42" d="M 1259 2228 
L 1259 519 
L 2272 519 
Q 2781 519 3026 730 
Q 3272 941 3272 1375 
Q 3272 1813 3026 2020 
Q 2781 2228 2272 2228 
L 1259 2228 
z
M 1259 4147 
L 1259 2741 
L 2194 2741 
Q 2656 2741 2882 2914 
Q 3109 3088 3109 3444 
Q 3109 3797 2882 3972 
Q 2656 4147 2194 4147 
L 1259 4147 
z
M 628 4666 
L 2241 4666 
Q 2963 4666 3353 4366 
Q 3744 4066 3744 3513 
Q 3744 3084 3544 2831 
Q 3344 2578 2956 2516 
Q 3422 2416 3680 2098 
Q 3938 1781 3938 1306 
Q 3938 681 3513 340 
Q 3088 0 2303 0 
L 628 0 
L 628 4666 
z
" transform="scale(0.015625)"/>
       <path id="DejaVuSans-50" d="M 1259 4147 
L 1259 2394 
L 2053 2394 
Q 2494 2394 2734 2622 
Q 2975 2850 2975 3272 
Q 2975 3691 2734 3919 
Q 2494 4147 2053 4147 
L 1259 4147 
z
M 628 4666 
L 2053 4666 
Q 2838 4666 3239 4311 
Q 3641 3956 3641 3272 
Q 3641 2581 3239 2228 
Q 2838 1875 2053 1875 
L 1259 1875 
L 1259 0 
L 628 0 
L 628 4666 
z
" transform="scale(0.015625)"/>
      </defs>
      <use xlink:href="#DejaVuSans-48"/>
      <use xlink:href="#DejaVuSans-69" x="75.195312"/>
      <use xlink:href="#DejaVuSans-67" x="102.978516"/>
      <use xlink:href="#DejaVuSans-68" x="166.455078"/>
      <use xlink:href="#DejaVuSans-42" x="229.833984"/>
      <use xlink:href="#DejaVuSans-50" x="298.4375"/>
     </g>
    </g>
   </g>
   <g id="line2d_9">
    <path d="M 137.7 223.094268 
L 137.7 63.465732 
" clip-path="url(#p7ab30b1162)" style="fill: none; stroke: #7a7a7a; stroke-width: 1.5; stroke-linecap: square"/>
   </g>
   <g id="line2d_10">
    <path d="M 137.7 223.094268 
L 137.7 63.465732 
" clip-path="url(#p7ab30b1162)" style="fill: none; stroke: #7a7a7a; stroke-width: 4.5; stroke-linecap: square"/>
   </g>
   <g id="line2d_11">
    <path d="M 305.1 63.465732 
L 305.1 63.465732 
" clip-path="url(#p7ab30b1162)" style="fill: none; stroke: #7a7a7a; stroke-width: 1.5; stroke-linecap: square"/>
   </g>
   <g id="line2d_12">
    <path d="M 305.1 63.465732 
L 305.1 63.465732 
" clip-path="url(#p7ab30b1162)" style="fill: none; stroke: #7a7a7a; stroke-width: 4.5; stroke-linecap: square"/>
   </g>
   <g id="patch_3">
    <path d="M 54 252 
L 54 34.56 
" style="fill: none; stroke: #000000; stroke-width: 0.8; stroke-linejoin: miter; stroke-linecap: square"/>
   </g>
   <g id="patch_4">
    <path d="M 388.8 252 
L 388.8 34.56 
" style="fill: none; stroke: #000000; stroke-width: 0.8; stroke-linejoin: miter; stroke-linecap: square"/>
   </g>
   <g id="patch_5">
    <path d="M 54 252 
L 388.8 252 
" style="fill: none; stroke: #000000; stroke-width: 0.8; stroke-linejoin: miter; stroke-linecap: square"/>
   </g>
   <g id="patch_6">
    <path d="M 54 34.56 
L 388.8 34.56 
" style="fill: none; stroke: #000000; stroke-width: 0.8; stroke-linejoin: miter; stroke-linecap: square"/>
   </g>
   <g id="PathCollection_1">
    <defs>
     <path id="mb19b5a82f7" d="M 0 1.5 
C 0.397805 1.5 0.77937 1.341951 1.06066 1.06066 
C 1.341951 0.77937 1.5 0.397805 1.5 0 
C 1.5 -0.397805 1.341951 -0.77937 1.06066 -1.06066 
C 0.77937 -1.341951 0.397805 -1.5 0 -1.5 
C -0.397805 -1.5 -0.77937 -1.341951 -1.06066 -1.06066 
C -1.341951 -0.77937 -1.5 -0.397805 -1.5 0 
C -1.5 0.397805 -1.341951 0.77937 -1.06066 1.06066 
C -0.77937 1.341951 -0.397805 1.5 0 1.5 
z
" style="stroke: #7a7a7a"/>
    </defs>
    <g clip-path="url(#p7ab30b1162)">
     <use xlink:href="#mb19b5a82f7" x="137.7" y="223.094268" style="fill: #ffffff; stroke: #7a7a7a"/>
    </g>
   </g>
   <g id="PathCollection_2">
    <g clip-path="url(#p7ab30b1162)">
     <use xlink:href="#mb19b5a82f7" x="305.1" y="63.465732" style="fill: #ffffff; stroke: #7a7a7a"/>
    </g>
   </g>
  </g>
 </g>
 <defs>
  <clipPath id="p7ab30b1162">
   <rect x="54" y="34.56" width="334.8" height="217.44"/>
  </clipPath>
 </defs>
</svg>
