<?xml version="1.0" encoding="utf-8" standalone="no"?>
<!DOCTYPE svg PUBLIC "-//W3C//DTD SVG 1.1//EN"
  "http://www.w3.org/Graphics/SVG/1.1/DTD/svg11.dtd">
<svg xmlns:xlink="http://www.w3.org/1999/xlink" width="432pt" height="288pt" viewBox="0 0 432 288" xmlns="http://www.w3.org/2000/svg" version="1.1">
 <metadata>
  <rdf:RDF xmlns:dc="http://purl.org/dc/elements/1.1/" xmlns:cc="http://creativecommons.org/ns#" xmlns:rdf="http://www.w3.org/1999/02/22-rdf-syntax-ns#">
   <cc:Work>
    <dc:type rdf:resource="http://purl.org/dc/dcmitype/StillImage"/>
    <dc:date>2023-05-03T02:46:53.818748</dc:date>
    <dc:format>image/svg+xml</dc:format>
    <dc:creator>
     <cc:Agent>
      <dc:title>Matplotlib v3.5.3, https://matplotlib.org/</dc:title>
     </cc:Agent>
    </dc:creator>
   </cc:Work>
  </rdf:RDF>
 </metadata>
 <defs>
  <style type="text/css">*{stroke-linejoin: round; stroke-linecap: butt}</style>
 </defs>
 <g id="figure_1">
  <g id="patch_1">
   <path d="M 0 288 
L 432 288 
L 432 0 
L 0 0 
L 0 288 
z
" style="fill: none"/>
  </g>
  <g id="axes_1">
   <g id="patch_2">
    <path d="M 54 252 
L 388.8 252 
L 388.8 34.56 
L 54 34.56 
z
" style="fill: #ffffff"/>
   </g>
   <g id="PolyCollection_1">
    <defs>
     <path id="m569b2c9cbc" d="M 143.358777 -45.883636 
L 132.041223 -45.883636 
L 126.42728 -47.880331 
L 118.275867 -49.877025 
L 108.749151 -51.873719 
L 100.37604 -53.870413 
L 96.078197 -55.867107 
L 97.552287 -57.863802 
L 104.202879 -59.860496 
L 113.52531 -61.85719 
L 122.608893 -63.853884 
L 129.551305 -65.850579 
L 133.894062 -67.847273 
L 136.162404 -69.843967 
L 137.162684 -71.840661 
L 137.537586 -73.837355 
L 137.657536 -75.83405 
L 137.690396 -77.830744 
L 137.698121 -79.827438 
L 137.699682 -81.824132 
L 137.699953 -83.820826 
L 137.699994 -85.817521 
L 137.699999 -87.814215 
L 137.7 -89.810909 
L 137.7 -91.807603 
L 137.7 -93.804298 
L 137.7 -95.800992 
L 137.7 -97.797686 
L 137.7 -99.79438 
L 137.7 -101.791074 
L 137.7 -103.787769 
L 137.7 -105.784463 
L 137.7 -107.781157 
L 137.7 -109.777851 
L 137.7 -111.774545 
L 137.7 -113.77124 
L 137.7 -115.767934 
L 137.7 -117.764628 
L 137.7 -119.761322 
L 137.7 -121.758017 
L 137.7 -123.754711 
L 137.7 -125.751405 
L 137.7 -127.748099 
L 137.7 -129.744793 
L 137.7 -131.741488 
L 137.7 -133.738182 
L 137.7 -135.734876 
L 137.7 -137.73157 
L 137.7 -139.728264 
L 137.7 -141.724959 
L 137.7 -143.721653 
L 137.7 -145.718347 
L 137.7 -147.715041 
L 137.7 -149.711736 
L 137.7 -151.70843 
L 137.7 -153.705124 
L 137.7 -155.701818 
L 137.7 -157.698512 
L 137.7 -159.695207 
L 137.7 -161.691901 
L 137.7 -163.688595 
L 137.7 -165.685289 
L 137.7 -167.681983 
L 137.7 -169.678678 
L 137.7 -171.675372 
L 137.7 -173.672066 
L 137.7 -175.66876 
L 137.7 -177.665455 
L 137.7 -179.662149 
L 137.7 -181.658843 
L 137.7 -183.655537 
L 137.7 -185.652231 
L 137.7 -187.648926 
L 137.7 -189.64562 
L 137.7 -191.642314 
L 137.7 -193.639008 
L 137.7 -195.635702 
L 137.7 -197.632397 
L 137.7 -199.629091 
L 137.7 -201.625785 
L 137.7 -203.622479 
L 137.699997 -205.619174 
L 137.699979 -207.615868 
L 137.699876 -209.612562 
L 137.699366 -211.609256 
L 137.697198 -213.60595 
L 137.689283 -215.602645 
L 137.664544 -217.599339 
L 137.598539 -219.596033 
L 137.448857 -221.592727 
L 137.162291 -223.589421 
L 136.704182 -225.586116 
L 136.104782 -227.58281 
L 135.489622 -229.579504 
L 135.050769 -231.576198 
L 134.953498 -233.572893 
L 135.2371 -235.569587 
L 135.789618 -237.566281 
L 136.418258 -239.562975 
L 136.956146 -241.559669 
L 137.326594 -243.556364 
L 138.073406 -243.556364 
L 138.073406 -243.556364 
L 138.443854 -241.559669 
L 138.981742 -239.562975 
L 139.610382 -237.566281 
L 140.1629 -235.569587 
L 140.446502 -233.572893 
L 140.349231 -231.576198 
L 139.910378 -229.579504 
L 139.295218 -227.58281 
L 138.695818 -225.586116 
L 138.237709 -223.589421 
L 137.951143 -221.592727 
L 137.801461 -219.596033 
L 137.735456 -217.599339 
L 137.710717 -215.602645 
L 137.702802 -213.60595 
L 137.700634 -211.609256 
L 137.700124 -209.612562 
L 137.700021 -207.615868 
L 137.700003 -205.619174 
L 137.7 -203.622479 
L 137.7 -201.625785 
L 137.7 -199.629091 
L 137.7 -197.632397 
L 137.7 -195.635702 
L 137.7 -193.639008 
L 137.7 -191.642314 
L 137.7 -189.64562 
L 137.7 -187.648926 
L 137.7 -185.652231 
L 137.7 -183.655537 
L 137.7 -181.658843 
L 137.7 -179.662149 
L 137.7 -177.665455 
L 137.7 -175.66876 
L 137.7 -173.672066 
L 137.7 -171.675372 
L 137.7 -169.678678 
L 137.7 -167.681983 
L 137.7 -165.685289 
L 137.7 -163.688595 
L 137.7 -161.691901 
L 137.7 -159.695207 
L 137.7 -157.698512 
L 137.7 -155.701818 
L 137.7 -153.705124 
L 137.7 -151.70843 
L 137.7 -149.711736 
L 137.7 -147.715041 
L 137.7 -145.718347 
L 137.7 -143.721653 
L 137.7 -141.724959 
L 137.7 -139.728264 
L 137.7 -137.73157 
L 137.7 -135.734876 
L 137.7 -133.738182 
L 137.7 -131.741488 
L 137.7 -129.744793 
L 137.7 -127.748099 
L 137.7 -125.751405 
L 137.7 -123.754711 
L 137.7 -121.758017 
L 137.7 -119.761322 
L 137.7 -117.764628 
L 137.7 -115.767934 
L 137.7 -113.77124 
L 137.7 -111.774545 
L 137.7 -109.777851 
L 137.7 -107.781157 
L 137.7 -105.784463 
L 137.7 -103.787769 
L 137.7 -101.791074 
L 137.7 -99.79438 
L 137.7 -97.797686 
L 137.7 -95.800992 
L 137.7 -93.804298 
L 137.7 -91.807603 
L 137.7 -89.810909 
L 137.700001 -87.814215 
L 137.700006 -85.817521 
L 137.700047 -83.820826 
L 137.700318 -81.824132 
L 137.701879 -79.827438 
L 137.709604 -77.830744 
L 137.742464 -75.83405 
L 137.862414 -73.837355 
L 138.237316 -71.840661 
L 139.237596 -69.843967 
L 141.505938 -67.847273 
L 145.848695 -65.850579 
L 152.791107 -63.853884 
L 161.87469 -61.85719 
L 171.197121 -59.860496 
L 177.847713 -57.863802 
L 179.321803 -55.867107 
L 175.02396 -53.870413 
L 166.650849 -51.873719 
L 157.124133 -49.877025 
L 148.97272 -47.880331 
L 143.358777 -45.883636 
z
" style="stroke: #7a7a7a; stroke-width: 1.5"/>
    </defs>
    <g clip-path="url(#pcbae448e25)">
     <use xlink:href="#m569b2c9cbc" x="0" y="288" style="fill: #f1bcb8; stroke: #7a7a7a; stroke-width: 1.5"/>
    </g>
   </g>
   <g id="PolyCollection_2">
    <defs>
     <path id="m219933b15b" d="M 314.462419 -49.772355 
L 295.737581 -49.772355 
L 279.802855 -51.69049 
L 256.360548 -53.608624 
L 238.14 -55.526758 
L 239.504217 -57.444892 
L 259.279263 -59.363027 
L 282.276939 -61.281161 
L 296.99391 -63.199295 
L 303.047068 -65.117429 
L 304.729265 -67.035564 
L 305.05226 -68.953698 
L 305.095617 -70.871832 
L 305.099713 -72.789966 
L 305.099987 -74.7081 
L 305.1 -76.626235 
L 305.1 -78.544369 
L 305.1 -80.462503 
L 305.1 -82.380637 
L 305.1 -84.298772 
L 305.1 -86.216906 
L 305.1 -88.13504 
L 305.1 -90.053174 
L 305.1 -91.971309 
L 305.1 -93.889443 
L 305.1 -95.807577 
L 305.1 -97.725711 
L 305.1 -99.643845 
L 305.1 -101.56198 
L 305.1 -103.480114 
L 305.1 -105.398248 
L 305.1 -107.316382 
L 305.1 -109.234517 
L 305.1 -111.152651 
L 305.1 -113.070785 
L 305.1 -114.988919 
L 305.1 -116.907054 
L 305.1 -118.825188 
L 305.1 -120.743322 
L 305.1 -122.661456 
L 305.1 -124.579591 
L 305.1 -126.497725 
L 305.1 -128.415859 
L 305.1 -130.333993 
L 305.1 -132.252127 
L 305.1 -134.170262 
L 305.1 -136.088396 
L 305.1 -138.00653 
L 305.1 -139.924664 
L 305.1 -141.842799 
L 305.1 -143.760933 
L 305.1 -145.679067 
L 305.1 -147.597201 
L 305.1 -149.515336 
L 305.1 -151.43347 
L 305.1 -153.351604 
L 305.1 -155.269738 
L 305.1 -157.187873 
L 305.1 -159.106007 
L 305.1 -161.024141 
L 305.1 -162.942275 
L 305.1 -164.860409 
L 305.1 -166.778544 
L 305.1 -168.696678 
L 305.1 -170.614812 
L 305.1 -172.532946 
L 305.1 -174.451081 
L 305.1 -176.369215 
L 305.1 -178.287349 
L 305.1 -180.205483 
L 305.1 -182.123618 
L 305.1 -184.041752 
L 305.1 -185.959886 
L 305.1 -187.87802 
L 305.1 -189.796155 
L 305.1 -191.714289 
L 305.1 -193.632423 
L 305.1 -195.550557 
L 305.1 -197.468691 
L 305.1 -199.386826 
L 305.1 -201.30496 
L 305.1 -203.223094 
L 305.1 -205.141228 
L 305.1 -207.059363 
L 305.1 -208.977497 
L 305.1 -210.895631 
L 305.1 -212.813765 
L 305.1 -214.7319 
L 305.099993 -216.650034 
L 305.099894 -218.568168 
L 305.098849 -220.486302 
L 305.091063 -222.404436 
L 305.050512 -224.322571 
L 304.904593 -226.240705 
L 304.549824 -228.158839 
L 303.995438 -230.076973 
L 303.518738 -231.995108 
L 303.485852 -233.913242 
L 303.925079 -235.831376 
L 304.490183 -237.74951 
L 304.874308 -239.667645 
L 305.325692 -239.667645 
L 305.325692 -239.667645 
L 305.709817 -237.74951 
L 306.274921 -235.831376 
L 306.714148 -233.913242 
L 306.681262 -231.995108 
L 306.204562 -230.076973 
L 305.650176 -228.158839 
L 305.295407 -226.240705 
L 305.149488 -224.322571 
L 305.108937 -222.404436 
L 305.101151 -220.486302 
L 305.100106 -218.568168 
L 305.100007 -216.650034 
L 305.1 -214.7319 
L 305.1 -212.813765 
L 305.1 -210.895631 
L 305.1 -208.977497 
L 305.1 -207.059363 
L 305.1 -205.141228 
L 305.1 -203.223094 
L 305.1 -201.30496 
L 305.1 -199.386826 
L 305.1 -197.468691 
L 305.1 -195.550557 
L 305.1 -193.632423 
L 305.1 -191.714289 
L 305.1 -189.796155 
L 305.1 -187.87802 
L 305.1 -185.959886 
L 305.1 -184.041752 
L 305.1 -182.123618 
L 305.1 -180.205483 
L 305.1 -178.287349 
L 305.1 -176.369215 
L 305.1 -174.451081 
L 305.1 -172.532946 
L 305.1 -170.614812 
L 305.1 -168.696678 
L 305.1 -166.778544 
L 305.1 -164.860409 
L 305.1 -162.942275 
L 305.1 -161.024141 
L 305.1 -159.106007 
L 305.1 -157.187873 
L 305.1 -155.269738 
L 305.1 -153.351604 
L 305.1 -151.43347 
L 305.1 -149.515336 
L 305.1 -147.597201 
L 305.1 -145.679067 
L 305.1 -143.760933 
L 305.1 -141.842799 
L 305.1 -139.924664 
L 305.1 -138.00653 
L 305.1 -136.088396 
L 305.1 -134.170262 
L 305.1 -132.252127 
L 305.1 -130.333993 
L 305.1 -128.415859 
L 305.1 -126.497725 
L 305.1 -124.579591 
L 305.1 -122.661456 
L 305.1 -120.743322 
L 305.1 -118.825188 
L 305.1 -116.907054 
L 305.1 -114.988919 
L 305.1 -113.070785 
L 305.1 -111.152651 
L 305.1 -109.234517 
L 305.1 -107.316382 
L 305.1 -105.398248 
L 305.1 -103.480114 
L 305.1 -101.56198 
L 305.1 -99.643845 
L 305.1 -97.725711 
L 305.1 -95.807577 
L 305.1 -93.889443 
L 305.1 -91.971309 
L 305.1 -90.053174 
L 305.1 -88.13504 
L 305.1 -86.216906 
L 305.1 -84.298772 
L 305.1 -82.380637 
L 305.1 -80.462503 
L 305.1 -78.544369 
L 305.1 -76.626235 
L 305.100013 -74.7081 
L 305.100287 -72.789966 
L 305.104383 -70.871832 
L 305.14774 -68.953698 
L 305.470735 -67.035564 
L 307.152932 -65.117429 
L 313.20609 -63.199295 
L 327.923061 -61.281161 
L 350.920737 -59.363027 
L 370.695783 -57.444892 
L 372.06 -55.526758 
L 353.839452 -53.608624 
L 330.397145 -51.69049 
L 314.462419 -49.772355 
z
" style="stroke: #7a7a7a; stroke-width: 1.5"/>
    </defs>
    <g clip-path="url(#pcbae448e25)">
     <use xlink:href="#m219933b15b" x="0" y="288" style="fill: #b9ccdd; stroke: #7a7a7a; stroke-width: 1.5"/>
    </g>
   </g>
   <g id="matplotlib.axis_1">
    <g id="xtick_1">
     <g id="line2d_1">
      <defs>
       <path id="m617c65ade4" d="M 0 0 
L 0 3.5 
" style="stroke: #000000; stroke-width: 0.8"/>
      </defs>
      <g>
       <use xlink:href="#m617c65ade4" x="137.7" y="252" style="stroke: #000000; stroke-width: 0.8"/>
      </g>
     </g>
     <g id="text_1">
      <!-- 0.0 -->
      <g transform="translate(129.748437 266.598437)scale(0.1 -0.1)">
       <defs>
        <path id="DejaVuSans-30" d="M 2034 4250 
Q 1547 4250 1301 3770 
Q 1056 3291 1056 2328 
Q 1056 1369 1301 889 
Q 1547 409 2034 409 
Q 2525 409 2770 889 
Q 3016 1369 3016 2328 
Q 3016 3291 2770 3770 
Q 2525 4250 2034 4250 
z
M 2034 4750 
Q 2819 4750 3233 4129 
Q 3647 3509 3647 2328 
Q 3647 1150 3233 529 
Q 2819 -91 2034 -91 
Q 1250 -91 836 529 
Q 422 1150 422 2328 
Q 422 3509 836 4129 
Q 1250 4750 2034 4750 
z
" transform="scale(0.015625)"/>
        <path id="DejaVuSans-2e" d="M 684 794 
L 1344 794 
L 1344 0 
L 684 0 
L 684 794 
z
" transform="scale(0.015625)"/>
       </defs>
       <use xlink:href="#DejaVuSans-30"/>
       <use xlink:href="#DejaVuSans-2e" x="63.623047"/>
       <use xlink:href="#DejaVuSans-30" x="95.410156"/>
      </g>
     </g>
    </g>
    <g id="xtick_2">
     <g id="line2d_2">
      <g>
       <use xlink:href="#m617c65ade4" x="305.1" y="252" style="stroke: #000000; stroke-width: 0.8"/>
      </g>
     </g>
     <g id="text_2">
      <!-- 1.0 -->
      <g transform="translate(297.148438 266.598437)scale(0.1 -0.1)">
       <defs>
        <path id="DejaVuSans-31" d="M 794 531 
L 1825 531 
L 1825 4091 
L 703 3866 
L 703 4441 
L 1819 4666 
L 2450 4666 
L 2450 531 
L 3481 531 
L 3481 0 
L 794 0 
L 794 531 
z
" transform="scale(0.015625)"/>
       </defs>
       <use xlink:href="#DejaVuSans-31"/>
       <use xlink:href="#DejaVuSans-2e" x="63.623047"/>
       <use xlink:href="#DejaVuSans-30" x="95.410156"/>
      </g>
     </g>
    </g>
    <g id="text_3">
     <!-- Diabetes_binary -->
     <g transform="translate(180.89375 280.276563)scale(0.1 -0.1)">
      <defs>
       <path id="DejaVuSans-44" d="M 1259 4147 
L 1259 519 
L 2022 519 
Q 2988 519 3436 956 
Q 3884 1394 3884 2338 
Q 3884 3275 3436 3711 
Q 2988 4147 2022 4147 
L 1259 4147 
z
M 628 4666 
L 1925 4666 
Q 3281 4666 3915 4102 
Q 4550 3538 4550 2338 
Q 4550 1131 3912 565 
Q 3275 0 1925 0 
L 628 0 
L 628 4666 
z
" transform="scale(0.015625)"/>
       <path id="DejaVuSans-69" d="M 603 3500 
L 1178 3500 
L 1178 0 
L 603 0 
L 603 3500 
z
M 603 4863 
L 1178 4863 
L 1178 4134 
L 603 4134 
L 603 4863 
z
" transform="scale(0.015625)"/>
       <path id="DejaVuSans-61" d="M 2194 1759 
Q 1497 1759 1228 1600 
Q 959 1441 959 1056 
Q 959 750 1161 570 
Q 1363 391 1709 391 
Q 2188 391 2477 730 
Q 2766 1069 2766 1631 
L 2766 1759 
L 2194 1759 
z
M 3341 1997 
L 3341 0 
L 2766 0 
L 2766 531 
Q 2569 213 2275 61 
Q 1981 -91 1556 -91 
Q 1019 -91 701 211 
Q 384 513 384 1019 
Q 384 1609 779 1909 
Q 1175 2209 1959 2209 
L 2766 2209 
L 2766 2266 
Q 2766 2663 2505 2880 
Q 2244 3097 1772 3097 
Q 1472 3097 1187 3025 
Q 903 2953 641 2809 
L 641 3341 
Q 956 3463 1253 3523 
Q 1550 3584 1831 3584 
Q 2591 3584 2966 3190 
Q 3341 2797 3341 1997 
z
" transform="scale(0.015625)"/>
       <path id="DejaVuSans-62" d="M 3116 1747 
Q 3116 2381 2855 2742 
Q 2594 3103 2138 3103 
Q 1681 3103 1420 2742 
Q 1159 2381 1159 1747 
Q 1159 1113 1420 752 
Q 1681 391 2138 391 
Q 2594 391 2855 752 
Q 3116 1113 3116 1747 
z
M 1159 2969 
Q 1341 3281 1617 3432 
Q 1894 3584 2278 3584 
Q 2916 3584 3314 3078 
Q 3713 2572 3713 1747 
Q 3713 922 3314 415 
Q 2916 -91 2278 -91 
Q 1894 -91 1617 61 
Q 1341 213 1159 525 
L 1159 0 
L 581 0 
L 581 4863 
L 1159 4863 
L 1159 2969 
z
" transform="scale(0.015625)"/>
       <path id="DejaVuSans-65" d="M 3597 1894 
L 3597 1613 
L 953 1613 
Q 991 1019 1311 708 
Q 1631 397 2203 397 
Q 2534 397 2845 478 
Q 3156 559 3463 722 
L 3463 178 
Q 3153 47 2828 -22 
Q 2503 -91 2169 -91 
Q 1331 -91 842 396 
Q 353 884 353 1716 
Q 353 2575 817 3079 
Q 1281 3584 2069 3584 
Q 2775 3584 3186 3129 
Q 3597 2675 3597 1894 
z
M 3022 2063 
Q 3016 2534 2758 2815 
Q 2500 3097 2075 3097 
Q 1594 3097 1305 2825 
Q 1016 2553 972 2059 
L 3022 2063 
z
" transform="scale(0.015625)"/>
       <path id="DejaVuSans-74" d="M 1172 4494 
L 1172 3500 
L 2356 3500 
L 2356 3053 
L 1172 3053 
L 1172 1153 
Q 1172 725 1289 603 
Q 1406 481 1766 481 
L 2356 481 
L 2356 0 
L 1766 0 
Q 1100 0 847 248 
Q 594 497 594 1153 
L 594 3053 
L 172 3053 
L 172 3500 
L 594 3500 
L 594 4494 
L 1172 4494 
z
" transform="scale(0.015625)"/>
       <path id="DejaVuSans-73" d="M 2834 3397 
L 2834 2853 
Q 2591 2978 2328 3040 
Q 2066 3103 1784 3103 
Q 1356 3103 1142 2972 
Q 928 2841 928 2578 
Q 928 2378 1081 2264 
Q 1234 2150 1697 2047 
L 1894 2003 
Q 2506 1872 2764 1633 
Q 3022 1394 3022 966 
Q 3022 478 2636 193 
Q 2250 -91 1575 -91 
Q 1294 -91 989 -36 
Q 684 19 347 128 
L 347 722 
Q 666 556 975 473 
Q 1284 391 1588 391 
Q 1994 391 2212 530 
Q 2431 669 2431 922 
Q 2431 1156 2273 1281 
Q 2116 1406 1581 1522 
L 1381 1569 
Q 847 1681 609 1914 
Q 372 2147 372 2553 
Q 372 3047 722 3315 
Q 1072 3584 1716 3584 
Q 2034 3584 2315 3537 
Q 2597 3491 2834 3397 
z
" transform="scale(0.015625)"/>
       <path id="DejaVuSans-5f" d="M 3263 -1063 
L 3263 -1509 
L -63 -1509 
L -63 -1063 
L 3263 -1063 
z
" transform="scale(0.015625)"/>
       <path id="DejaVuSans-6e" d="M 3513 2113 
L 3513 0 
L 2938 0 
L 2938 2094 
Q 2938 2591 2744 2837 
Q 2550 3084 2163 3084 
Q 1697 3084 1428 2787 
Q 1159 2491 1159 1978 
L 1159 0 
L 581 0 
L 581 3500 
L 1159 3500 
L 1159 2956 
Q 1366 3272 1645 3428 
Q 1925 3584 2291 3584 
Q 2894 3584 3203 3211 
Q 3513 2838 3513 2113 
z
" transform="scale(0.015625)"/>
       <path id="DejaVuSans-72" d="M 2631 2963 
Q 2534 3019 2420 3045 
Q 2306 3072 2169 3072 
Q 1681 3072 1420 2755 
Q 1159 2438 1159 1844 
L 1159 0 
L 581 0 
L 581 3500 
L 1159 3500 
L 1159 2956 
Q 1341 3275 1631 3429 
Q 1922 3584 2338 3584 
Q 2397 3584 2469 3576 
Q 2541 3569 2628 3553 
L 2631 2963 
z
" transform="scale(0.015625)"/>
       <path id="DejaVuSans-79" d="M 2059 -325 
Q 1816 -950 1584 -1140 
Q 1353 -1331 966 -1331 
L 506 -1331 
L 506 -850 
L 844 -850 
Q 1081 -850 1212 -737 
Q 1344 -625 1503 -206 
L 1606 56 
L 191 3500 
L 800 3500 
L 1894 763 
L 2988 3500 
L 3597 3500 
L 2059 -325 
z
" transform="scale(0.015625)"/>
      </defs>
      <use xlink:href="#DejaVuSans-44"/>
      <use xlink:href="#DejaVuSans-69" x="77.001953"/>
      <use xlink:href="#DejaVuSans-61" x="104.785156"/>
      <use xlink:href="#DejaVuSans-62" x="166.064453"/>
      <use xlink:href="#DejaVuSans-65" x="229.541016"/>
      <use xlink:href="#DejaVuSans-74" x="291.064453"/>
      <use xlink:href="#DejaVuSans-65" x="330.273438"/>
      <use xlink:href="#DejaVuSans-73" x="391.796875"/>
      <use xlink:href="#DejaVuSans-5f" x="443.896484"/>
      <use xlink:href="#DejaVuSans-62" x="493.896484"/>
      <use xlink:href="#DejaVuSans-69" x="557.373047"/>
      <use xlink:href="#DejaVuSans-6e" x="585.15625"/>
      <use xlink:href="#DejaVuSans-61" x="648.535156"/>
      <use xlink:href="#DejaVuSans-72" x="709.814453"/>
      <use xlink:href="#DejaVuSans-79" x="750.927734"/>
     </g>
    </g>
   </g>
   <g id="matplotlib.axis_2">
    <g id="ytick_1">
     <g id="line2d_3">
      <defs>
       <path id="m359368d96a" d="M 0 0 
L -3.5 0 
" style="stroke: #000000; stroke-width: 0.8"/>
      </defs>
      <g>
       <use xlink:href="#m359368d96a" x="54" y="231.630922" style="stroke: #000000; stroke-width: 0.8"/>
      </g>
     </g>
     <g id="text_4">
      <!-- 0.0 -->
      <g transform="translate(31.096875 235.430141)scale(0.1 -0.1)">
       <use xlink:href="#DejaVuSans-30"/>
       <use xlink:href="#DejaVuSans-2e" x="63.623047"/>
       <use xlink:href="#DejaVuSans-30" x="95.410156"/>
      </g>
     </g>
    </g>
    <g id="ytick_2">
     <g id="line2d_4">
      <g>
       <use xlink:href="#m359368d96a" x="54" y="196.290553" style="stroke: #000000; stroke-width: 0.8"/>
      </g>
     </g>
     <g id="text_5">
      <!-- 0.2 -->
      <g transform="translate(31.096875 200.089772)scale(0.1 -0.1)">
       <defs>
        <path id="DejaVuSans-32" d="M 1228 531 
L 3431 531 
L 3431 0 
L 469 0 
L 469 531 
Q 828 903 1448 1529 
Q 2069 2156 2228 2338 
Q 2531 2678 2651 2914 
Q 2772 3150 2772 3378 
Q 2772 3750 2511 3984 
Q 2250 4219 1831 4219 
Q 1534 4219 1204 4116 
Q 875 4013 500 3803 
L 500 4441 
Q 881 4594 1212 4672 
Q 1544 4750 1819 4750 
Q 2544 4750 2975 4387 
Q 3406 4025 3406 3419 
Q 3406 3131 3298 2873 
Q 3191 2616 2906 2266 
Q 2828 2175 2409 1742 
Q 1991 1309 1228 531 
z
" transform="scale(0.015625)"/>
       </defs>
       <use xlink:href="#DejaVuSans-30"/>
       <use xlink:href="#DejaVuSans-2e" x="63.623047"/>
       <use xlink:href="#DejaVuSans-32" x="95.410156"/>
      </g>
     </g>
    </g>
    <g id="ytick_3">
     <g id="line2d_5">
      <g>
       <use xlink:href="#m359368d96a" x="54" y="160.950184" style="stroke: #000000; stroke-width: 0.8"/>
      </g>
     </g>
     <g id="text_6">
      <!-- 0.4 -->
      <g transform="translate(31.096875 164.749403)scale(0.1 -0.1)">
       <defs>
        <path id="DejaVuSans-34" d="M 2419 4116 
L 825 1625 
L 2419 1625 
L 2419 4116 
z
M 2253 4666 
L 3047 4666 
L 3047 1625 
L 3713 1625 
L 3713 1100 
L 3047 1100 
L 3047 0 
L 2419 0 
L 2419 1100 
L 313 1100 
L 313 1709 
L 2253 4666 
z
" transform="scale(0.015625)"/>
       </defs>
       <use xlink:href="#DejaVuSans-30"/>
       <use xlink:href="#DejaVuSans-2e" x="63.623047"/>
       <use xlink:href="#DejaVuSans-34" x="95.410156"/>
      </g>
     </g>
    </g>
    <g id="ytick_4">
     <g id="line2d_6">
      <g>
       <use xlink:href="#m359368d96a" x="54" y="125.609816" style="stroke: #000000; stroke-width: 0.8"/>
      </g>
     </g>
     <g id="text_7">
      <!-- 0.6 -->
      <g transform="translate(31.096875 129.409034)scale(0.1 -0.1)">
       <defs>
        <path id="DejaVuSans-36" d="M 2113 2584 
Q 1688 2584 1439 2293 
Q 1191 2003 1191 1497 
Q 1191 994 1439 701 
Q 1688 409 2113 409 
Q 2538 409 2786 701 
Q 3034 994 3034 1497 
Q 3034 2003 2786 2293 
Q 2538 2584 2113 2584 
z
M 3366 4563 
L 3366 3988 
Q 3128 4100 2886 4159 
Q 2644 4219 2406 4219 
Q 1781 4219 1451 3797 
Q 1122 3375 1075 2522 
Q 1259 2794 1537 2939 
Q 1816 3084 2150 3084 
Q 2853 3084 3261 2657 
Q 3669 2231 3669 1497 
Q 3669 778 3244 343 
Q 2819 -91 2113 -91 
Q 1303 -91 875 529 
Q 447 1150 447 2328 
Q 447 3434 972 4092 
Q 1497 4750 2381 4750 
Q 2619 4750 2861 4703 
Q 3103 4656 3366 4563 
z
" transform="scale(0.015625)"/>
       </defs>
       <use xlink:href="#DejaVuSans-30"/>
       <use xlink:href="#DejaVuSans-2e" x="63.623047"/>
       <use xlink:href="#DejaVuSans-36" x="95.410156"/>
      </g>
     </g>
    </g>
    <g id="ytick_5">
     <g id="line2d_7">
      <g>
       <use xlink:href="#m359368d96a" x="54" y="90.269447" style="stroke: #000000; stroke-width: 0.8"/>
      </g>
     </g>
     <g id="text_8">
      <!-- 0.8 -->
      <g transform="translate(31.096875 94.068665)scale(0.1 -0.1)">
       <defs>
        <path id="DejaVuSans-38" d="M 2034 2216 
Q 1584 2216 1326 1975 
Q 1069 1734 1069 1313 
Q 1069 891 1326 650 
Q 1584 409 2034 409 
Q 2484 409 2743 651 
Q 3003 894 3003 1313 
Q 3003 1734 2745 1975 
Q 2488 2216 2034 2216 
z
M 1403 2484 
Q 997 2584 770 2862 
Q 544 3141 544 3541 
Q 544 4100 942 4425 
Q 1341 4750 2034 4750 
Q 2731 4750 3128 4425 
Q 3525 4100 3525 3541 
Q 3525 3141 3298 2862 
Q 3072 2584 2669 2484 
Q 3125 2378 3379 2068 
Q 3634 1759 3634 1313 
Q 3634 634 3220 271 
Q 2806 -91 2034 -91 
Q 1263 -91 848 271 
Q 434 634 434 1313 
Q 434 1759 690 2068 
Q 947 2378 1403 2484 
z
M 1172 3481 
Q 1172 3119 1398 2916 
Q 1625 2713 2034 2713 
Q 2441 2713 2670 2916 
Q 2900 3119 2900 3481 
Q 2900 3844 2670 4047 
Q 2441 4250 2034 4250 
Q 1625 4250 1398 4047 
Q 1172 3844 1172 3481 
z
" transform="scale(0.015625)"/>
       </defs>
       <use xlink:href="#DejaVuSans-30"/>
       <use xlink:href="#DejaVuSans-2e" x="63.623047"/>
       <use xlink:href="#DejaVuSans-38" x="95.410156"/>
      </g>
     </g>
    </g>
    <g id="ytick_6">
     <g id="line2d_8">
      <g>
       <use xlink:href="#m359368d96a" x="54" y="54.929078" style="stroke: #000000; stroke-width: 0.8"/>
      </g>
     </g>
     <g id="text_9">
      <!-- 1.0 -->
      <g transform="translate(31.096875 58.728296)scale(0.1 -0.1)">
       <use xlink:href="#DejaVuSans-31"/>
       <use xlink:href="#DejaVuSans-2e" x="63.623047"/>
       <use xlink:href="#DejaVuSans-30" x="95.410156"/>
      </g>
     </g>
    </g>
    <g id="text_10">
     <!-- HvyAlcoholConsump -->
     <g transform="translate(25.017187 194.731562)rotate(-90)scale(0.1 -0.1)">
      <defs>
       <path id="DejaVuSans-48" d="M 628 4666 
L 1259 4666 
L 1259 2753 
L 3553 2753 
L 3553 4666 
L 4184 4666 
L 4184 0 
L 3553 0 
L 3553 2222 
L 1259 2222 
L 1259 0 
L 628 0 
L 628 4666 
z
" transform="scale(0.015625)"/>
       <path id="DejaVuSans-76" d="M 191 3500 
L 800 3500 
L 1894 563 
L 2988 3500 
L 3597 3500 
L 2284 0 
L 1503 0 
L 191 3500 
z
" transform="scale(0.015625)"/>
       <path id="DejaVuSans-41" d="M 2188 4044 
L 1331 1722 
L 3047 1722 
L 2188 4044 
z
M 1831 4666 
L 2547 4666 
L 4325 0 
L 3669 0 
L 3244 1197 
L 1141 1197 
L 716 0 
L 50 0 
L 1831 4666 
z
" transform="scale(0.015625)"/>
       <path id="DejaVuSans-6c" d="M 603 4863 
L 1178 4863 
L 1178 0 
L 603 0 
L 603 4863 
z
" transform="scale(0.015625)"/>
       <path id="DejaVuSans-63" d="M 3122 3366 
L 3122 2828 
Q 2878 2963 2633 3030 
Q 2388 3097 2138 3097 
Q 1578 3097 1268 2742 
Q 959 2388 959 1747 
Q 959 1106 1268 751 
Q 1578 397 2138 397 
Q 2388 397 2633 464 
Q 2878 531 3122 666 
L 3122 134 
Q 2881 22 2623 -34 
Q 2366 -91 2075 -91 
Q 1284 -91 818 406 
Q 353 903 353 1747 
Q 353 2603 823 3093 
Q 1294 3584 2113 3584 
Q 2378 3584 2631 3529 
Q 2884 3475 3122 3366 
z
" transform="scale(0.015625)"/>
       <path id="DejaVuSans-6f" d="M 1959 3097 
Q 1497 3097 1228 2736 
Q 959 2375 959 1747 
Q 959 1119 1226 758 
Q 1494 397 1959 397 
Q 2419 397 2687 759 
Q 2956 1122 2956 1747 
Q 2956 2369 2687 2733 
Q 2419 3097 1959 3097 
z
M 1959 3584 
Q 2709 3584 3137 3096 
Q 3566 2609 3566 1747 
Q 3566 888 3137 398 
Q 2709 -91 1959 -91 
Q 1206 -91 779 398 
Q 353 888 353 1747 
Q 353 2609 779 3096 
Q 1206 3584 1959 3584 
z
" transform="scale(0.015625)"/>
       <path id="DejaVuSans-68" d="M 3513 2113 
L 3513 0 
L 2938 0 
L 2938 2094 
Q 2938 2591 2744 2837 
Q 2550 3084 2163 3084 
Q 1697 3084 1428 2787 
Q 1159 2491 1159 1978 
L 1159 0 
L 581 0 
L 581 4863 
L 1159 4863 
L 1159 2956 
Q 1366 3272 1645 3428 
Q 1925 3584 2291 3584 
Q 2894 3584 3203 3211 
Q 3513 2838 3513 2113 
z
" transform="scale(0.015625)"/>
       <path id="DejaVuSans-43" d="M 4122 4306 
L 4122 3641 
Q 3803 3938 3442 4084 
Q 3081 4231 2675 4231 
Q 1875 4231 1450 3742 
Q 1025 3253 1025 2328 
Q 1025 1406 1450 917 
Q 1875 428 2675 428 
Q 3081 428 3442 575 
Q 3803 722 4122 1019 
L 4122 359 
Q 3791 134 3420 21 
Q 3050 -91 2638 -91 
Q 1578 -91 968 557 
Q 359 1206 359 2328 
Q 359 3453 968 4101 
Q 1578 4750 2638 4750 
Q 3056 4750 3426 4639 
Q 3797 4528 4122 4306 
z
" transform="scale(0.015625)"/>
       <path id="DejaVuSans-75" d="M 544 1381 
L 544 3500 
L 1119 3500 
L 1119 1403 
Q 1119 906 1312 657 
Q 1506 409 1894 409 
Q 2359 409 2629 706 
Q 2900 1003 2900 1516 
L 2900 3500 
L 3475 3500 
L 3475 0 
L 2900 0 
L 2900 538 
Q 2691 219 2414 64 
Q 2138 -91 1772 -91 
Q 1169 -91 856 284 
Q 544 659 544 1381 
z
M 1991 3584 
L 1991 3584 
z
" transform="scale(0.015625)"/>
       <path id="DejaVuSans-6d" d="M 3328 2828 
Q 3544 3216 3844 3400 
Q 4144 3584 4550 3584 
Q 5097 3584 5394 3201 
Q 5691 2819 5691 2113 
L 5691 0 
L 5113 0 
L 5113 2094 
Q 5113 2597 4934 2840 
Q 4756 3084 4391 3084 
Q 3944 3084 3684 2787 
Q 3425 2491 3425 1978 
L 3425 0 
L 2847 0 
L 2847 2094 
Q 2847 2600 2669 2842 
Q 2491 3084 2119 3084 
Q 1678 3084 1418 2786 
Q 1159 2488 1159 1978 
L 1159 0 
L 581 0 
L 581 3500 
L 1159 3500 
L 1159 2956 
Q 1356 3278 1631 3431 
Q 1906 3584 2284 3584 
Q 2666 3584 2933 3390 
Q 3200 3197 3328 2828 
z
" transform="scale(0.015625)"/>
       <path id="DejaVuSans-70" d="M 1159 525 
L 1159 -1331 
L 581 -1331 
L 581 3500 
L 1159 3500 
L 1159 2969 
Q 1341 3281 1617 3432 
Q 1894 3584 2278 3584 
Q 2916 3584 3314 3078 
Q 3713 2572 3713 1747 
Q 3713 922 3314 415 
Q 2916 -91 2278 -91 
Q 1894 -91 1617 61 
Q 1341 213 1159 525 
z
M 3116 1747 
Q 3116 2381 2855 2742 
Q 2594 3103 2138 3103 
Q 1681 3103 1420 2742 
Q 1159 2381 1159 1747 
Q 1159 1113 1420 752 
Q 1681 391 2138 391 
Q 2594 391 2855 752 
Q 3116 1113 3116 1747 
z
" transform="scale(0.015625)"/>
      </defs>
      <use xlink:href="#DejaVuSans-48"/>
      <use xlink:href="#DejaVuSans-76" x="75.195312"/>
      <use xlink:href="#DejaVuSans-79" x="134.375"/>
      <use xlink:href="#DejaVuSans-41" x="193.554688"/>
      <use xlink:href="#DejaVuSans-6c" x="261.962891"/>
      <use xlink:href="#DejaVuSans-63" x="289.746094"/>
      <use xlink:href="#DejaVuSans-6f" x="344.726562"/>
      <use xlink:href="#DejaVuSans-68" x="405.908203"/>
      <use xlink:href="#DejaVuSans-6f" x="469.287109"/>
      <use xlink:href="#DejaVuSans-6c" x="530.46875"/>
      <use xlink:href="#DejaVuSans-43" x="558.251953"/>
      <use xlink:href="#DejaVuSans-6f" x="628.076172"/>
      <use xlink:href="#DejaVuSans-6e" x="689.257812"/>
      <use xlink:href="#DejaVuSans-73" x="752.636719"/>
      <use xlink:href="#DejaVuSans-75" x="804.736328"/>
      <use xlink:href="#DejaVuSans-6d" x="868.115234"/>
      <use xlink:href="#DejaVuSans-70" x="965.527344"/>
     </g>
    </g>
   </g>
   <g id="line2d_9">
    <path d="M 137.7 231.630922 
L 137.7 231.630922 
" clip-path="url(#pcbae448e25)" style="fill: none; stroke: #7a7a7a; stroke-width: 1.5; stroke-linecap: square"/>
   </g>
   <g id="line2d_10">
    <path d="M 137.7 231.630922 
L 137.7 231.630922 
" clip-path="url(#pcbae448e25)" style="fill: none; stroke: #7a7a7a; stroke-width: 4.5; stroke-linecap: square"/>
   </g>
   <g id="line2d_11">
    <path d="M 305.1 231.630922 
L 305.1 231.630922 
" clip-path="url(#pcbae448e25)" style="fill: none; stroke: #7a7a7a; stroke-width: 1.5; stroke-linecap: square"/>
   </g>
   <g id="line2d_12">
    <path d="M 305.1 231.630922 
L 305.1 231.630922 
" clip-path="url(#pcbae448e25)" style="fill: none; stroke: #7a7a7a; stroke-width: 4.5; stroke-linecap: square"/>
   </g>
   <g id="patch_3">
    <path d="M 54 252 
L 54 34.56 
" style="fill: none; stroke: #000000; stroke-width: 0.8; stroke-linejoin: miter; stroke-linecap: square"/>
   </g>
   <g id="patch_4">
    <path d="M 388.8 252 
L 388.8 34.56 
" style="fill: none; stroke: #000000; stroke-width: 0.8; stroke-linejoin: miter; stroke-linecap: square"/>
   </g>
   <g id="patch_5">
    <path d="M 54 252 
L 388.8 252 
" style="fill: none; stroke: #000000; stroke-width: 0.8; stroke-linejoin: miter; stroke-linecap: square"/>
   </g>
   <g id="patch_6">
    <path d="M 54 34.56 
L 388.8 34.56 
" style="fill: none; stroke: #000000; stroke-width: 0.8; stroke-linejoin: miter; stroke-linecap: square"/>
   </g>
   <g id="PathCollection_1">
    <defs>
     <path id="m0030661505" d="M 0 1.5 
C 0.397805 1.5 0.77937 1.341951 1.06066 1.06066 
C 1.341951 0.77937 1.5 0.397805 1.5 0 
C 1.5 -0.397805 1.341951 -0.77937 1.06066 -1.06066 
C 0.77937 -1.341951 0.397805 -1.5 0 -1.5 
C -0.397805 -1.5 -0.77937 -1.341951 -1.06066 -1.06066 
C -1.341951 -0.77937 -1.5 -0.397805 -1.5 0 
C -1.5 0.397805 -1.341951 0.77937 -1.06066 1.06066 
C -0.77937 1.341951 -0.397805 1.5 0 1.5 
z
" style="stroke: #7a7a7a"/>
    </defs>
    <g clip-path="url(#pcbae448e25)">
     <use xlink:href="#m0030661505" x="137.7" y="231.630922" style="fill: #ffffff; stroke: #7a7a7a"/>
    </g>
   </g>
   <g id="PathCollection_2">
    <g clip-path="url(#pcbae448e25)">
     <use xlink:href="#m0030661505" x="305.1" y="231.630922" style="fill: #ffffff; stroke: #7a7a7a"/>
    </g>
   </g>
  </g>
 </g>
 <defs>
  <clipPath id="pcbae448e25">
   <rect x="54" y="34.56" width="334.8" height="217.44"/>
  </clipPath>
 </defs>
</svg>
