<?xml version="1.0" encoding="utf-8" standalone="no"?>
<!DOCTYPE svg PUBLIC "-//W3C//DTD SVG 1.1//EN"
  "http://www.w3.org/Graphics/SVG/1.1/DTD/svg11.dtd">
<svg xmlns:xlink="http://www.w3.org/1999/xlink" width="432pt" height="288pt" viewBox="0 0 432 288" xmlns="http://www.w3.org/2000/svg" version="1.1">
 <metadata>
  <rdf:RDF xmlns:dc="http://purl.org/dc/elements/1.1/" xmlns:cc="http://creativecommons.org/ns#" xmlns:rdf="http://www.w3.org/1999/02/22-rdf-syntax-ns#">
   <cc:Work>
    <dc:type rdf:resource="http://purl.org/dc/dcmitype/StillImage"/>
    <dc:date>2023-05-03T02:46:57.556929</dc:date>
    <dc:format>image/svg+xml</dc:format>
    <dc:creator>
     <cc:Agent>
      <dc:title>Matplotlib v3.5.3, https://matplotlib.org/</dc:title>
     </cc:Agent>
    </dc:creator>
   </cc:Work>
  </rdf:RDF>
 </metadata>
 <defs>
  <style type="text/css">*{stroke-linejoin: round; stroke-linecap: butt}</style>
 </defs>
 <g id="figure_1">
  <g id="patch_1">
   <path d="M 0 288 
L 432 288 
L 432 0 
L 0 0 
L 0 288 
z
" style="fill: none"/>
  </g>
  <g id="axes_1">
   <g id="patch_2">
    <path d="M 54 252 
L 388.8 252 
L 388.8 34.56 
L 54 34.56 
z
" style="fill: #ffffff"/>
   </g>
   <g id="PolyCollection_1">
    <defs>
     <path id="md32254cb42" d="M 138.528237 -47.086261 
L 136.871763 -47.086261 
L 136.194907 -49.05866 
L 135.239182 -51.031059 
L 134.08004 -53.003458 
L 132.90885 -54.975856 
L 131.994413 -56.948255 
L 131.585885 -58.920654 
L 131.801831 -60.893053 
L 132.570123 -62.865451 
L 133.655132 -64.83785 
L 134.751122 -66.810249 
L 135.582105 -68.782648 
L 135.959462 -70.755046 
L 135.793812 -72.727445 
L 135.092566 -74.699844 
L 133.96941 -76.672243 
L 132.655851 -78.644641 
L 131.476768 -80.61704 
L 130.764575 -82.589439 
L 130.7358 -84.561838 
L 131.39674 -86.534237 
L 132.537623 -88.506635 
L 133.817466 -90.479034 
L 134.883248 -92.451433 
L 135.457578 -94.423832 
L 135.371984 -96.39623 
L 134.573612 -98.368629 
L 133.143302 -100.341028 
L 131.325477 -102.313427 
L 129.524082 -104.285825 
L 128.215472 -106.258224 
L 127.784466 -108.230623 
L 128.361791 -110.203022 
L 129.761399 -112.17542 
L 131.556865 -114.147819 
L 133.243703 -116.120218 
L 134.389014 -118.092617 
L 134.706073 -120.065015 
L 134.067827 -122.037414 
L 132.515672 -124.009813 
L 130.292001 -125.982212 
L 127.858439 -127.954611 
L 125.827442 -129.927009 
L 124.779353 -131.899408 
L 125.033427 -133.871807 
L 126.503548 -135.844206 
L 128.730114 -137.816604 
L 131.063294 -139.789003 
L 132.879263 -141.761402 
L 133.718839 -143.733801 
L 133.329228 -145.706199 
L 131.672101 -147.678598 
L 128.959068 -149.650997 
L 125.696659 -151.623396 
L 122.64998 -153.595794 
L 120.652167 -155.568193 
L 120.300694 -157.540592 
L 121.697776 -159.512991 
L 124.395549 -161.485389 
L 127.577429 -163.457788 
L 130.352185 -165.430187 
L 131.990761 -167.402586 
L 132.028025 -169.374985 
L 130.283606 -171.347383 
L 126.901079 -173.319782 
L 122.425071 -175.292181 
L 117.814669 -177.26458 
L 114.260851 -179.236978 
L 112.795516 -181.209377 
L 113.865343 -183.181776 
L 117.123833 -185.154175 
L 121.573596 -187.126573 
L 125.958337 -189.098972 
L 129.160253 -191.071371 
L 130.418985 -193.04377 
L 129.375742 -195.016168 
L 126.077311 -196.988567 
L 121.035329 -198.960966 
L 115.279228 -200.933365 
L 110.233325 -202.905763 
L 107.321398 -204.878162 
L 107.421918 -206.850561 
L 110.470681 -208.82296 
L 115.454366 -210.795359 
L 120.780089 -212.767757 
L 124.766856 -214.740156 
L 125.997539 -216.712555 
L 123.48361 -218.684954 
L 116.806381 -220.657352 
L 106.385032 -222.629751 
L 93.77355 -224.60215 
L 81.640803 -226.574549 
L 73.134828 -228.546947 
L 70.74 -230.519346 
L 75.206268 -232.491745 
L 85.220397 -234.464144 
L 98.048598 -236.436542 
L 110.745249 -238.408941 
L 121.213842 -240.38134 
L 128.627842 -242.353739 
L 146.772158 -242.353739 
L 146.772158 -242.353739 
L 154.186158 -240.38134 
L 164.654751 -238.408941 
L 177.351402 -236.436542 
L 190.179603 -234.464144 
L 200.193732 -232.491745 
L 204.66 -230.519346 
L 202.265172 -228.546947 
L 193.759197 -226.574549 
L 181.62645 -224.60215 
L 169.014968 -222.629751 
L 158.593619 -220.657352 
L 151.91639 -218.684954 
L 149.402461 -216.712555 
L 150.633144 -214.740156 
L 154.619911 -212.767757 
L 159.945634 -210.795359 
L 164.929319 -208.82296 
L 167.978082 -206.850561 
L 168.078602 -204.878162 
L 165.166675 -202.905763 
L 160.120772 -200.933365 
L 154.364671 -198.960966 
L 149.322689 -196.988567 
L 146.024258 -195.016168 
L 144.981015 -193.04377 
L 146.239747 -191.071371 
L 149.441663 -189.098972 
L 153.826404 -187.126573 
L 158.276167 -185.154175 
L 161.534657 -183.181776 
L 162.604484 -181.209377 
L 161.139149 -179.236978 
L 157.585331 -177.26458 
L 152.974929 -175.292181 
L 148.498921 -173.319782 
L 145.116394 -171.347383 
L 143.371975 -169.374985 
L 143.409239 -167.402586 
L 145.047815 -165.430187 
L 147.822571 -163.457788 
L 151.004451 -161.485389 
L 153.702224 -159.512991 
L 155.099306 -157.540592 
L 154.747833 -155.568193 
L 152.75002 -153.595794 
L 149.703341 -151.623396 
L 146.440932 -149.650997 
L 143.727899 -147.678598 
L 142.070772 -145.706199 
L 141.681161 -143.733801 
L 142.520737 -141.761402 
L 144.336706 -139.789003 
L 146.669886 -137.816604 
L 148.896452 -135.844206 
L 150.366573 -133.871807 
L 150.620647 -131.899408 
L 149.572558 -129.927009 
L 147.541561 -127.954611 
L 145.107999 -125.982212 
L 142.884328 -124.009813 
L 141.332173 -122.037414 
L 140.693927 -120.065015 
L 141.010986 -118.092617 
L 142.156297 -116.120218 
L 143.843135 -114.147819 
L 145.638601 -112.17542 
L 147.038209 -110.203022 
L 147.615534 -108.230623 
L 147.184528 -106.258224 
L 145.875918 -104.285825 
L 144.074523 -102.313427 
L 142.256698 -100.341028 
L 140.826388 -98.368629 
L 140.028016 -96.39623 
L 139.942422 -94.423832 
L 140.516752 -92.451433 
L 141.582534 -90.479034 
L 142.862377 -88.506635 
L 144.00326 -86.534237 
L 144.6642 -84.561838 
L 144.635425 -82.589439 
L 143.923232 -80.61704 
L 142.744149 -78.644641 
L 141.43059 -76.672243 
L 140.307434 -74.699844 
L 139.606188 -72.727445 
L 139.440538 -70.755046 
L 139.817895 -68.782648 
L 140.648878 -66.810249 
L 141.744868 -64.83785 
L 142.829877 -62.865451 
L 143.598169 -60.893053 
L 143.814115 -58.920654 
L 143.405587 -56.948255 
L 142.49115 -54.975856 
L 141.31996 -53.003458 
L 140.160818 -51.031059 
L 139.205093 -49.05866 
L 138.528237 -47.086261 
z
" style="stroke: #7a7a7a; stroke-width: 1.5"/>
    </defs>
    <g clip-path="url(#p8e7a3e9e33)">
     <use xlink:href="#md32254cb42" x="0" y="288" style="fill: #f1bcb8; stroke: #7a7a7a; stroke-width: 1.5"/>
    </g>
   </g>
   <g id="PolyCollection_2">
    <defs>
     <path id="m638b72d0bc" d="M 306.562319 -45.883636 
L 303.637681 -45.883636 
L 302.555294 -47.880331 
L 301.051416 -49.877025 
L 299.210991 -51.873719 
L 297.268127 -53.870413 
L 295.576307 -55.867107 
L 294.508496 -57.863802 
L 294.320226 -59.860496 
L 295.039562 -61.85719 
L 296.440336 -63.853884 
L 298.110143 -65.850579 
L 299.574446 -67.847273 
L 300.419616 -69.843967 
L 300.379002 -71.840661 
L 299.381092 -73.837355 
L 297.572959 -75.83405 
L 295.316477 -77.830744 
L 293.133253 -79.827438 
L 291.580178 -81.824132 
L 291.078212 -83.820826 
L 291.762087 -85.817521 
L 293.425187 -87.814215 
L 295.588173 -89.810909 
L 297.653657 -91.807603 
L 299.07296 -93.804298 
L 299.467688 -95.800992 
L 298.694716 -97.797686 
L 296.872784 -99.79438 
L 294.379273 -101.791074 
L 291.797323 -103.787769 
L 289.787864 -105.784463 
L 288.898637 -107.781157 
L 289.377307 -109.777851 
L 291.07751 -111.774545 
L 293.506983 -113.77124 
L 295.990922 -115.767934 
L 297.869369 -117.764628 
L 298.652914 -119.761322 
L 298.110784 -121.758017 
L 296.308346 -123.754711 
L 293.610787 -125.751405 
L 290.638168 -127.748099 
L 288.14043 -129.744793 
L 286.792363 -131.741488 
L 286.971198 -133.738182 
L 288.617761 -135.734876 
L 291.253261 -137.73157 
L 294.141645 -139.728264 
L 296.514149 -141.724959 
L 297.762001 -143.721653 
L 297.552613 -145.718347 
L 295.880812 -147.715041 
L 293.079614 -149.711736 
L 289.78415 -151.70843 
L 286.814638 -153.705124 
L 284.965372 -155.701818 
L 284.752522 -157.698512 
L 286.228249 -159.695207 
L 288.955528 -161.691901 
L 292.155974 -163.688595 
L 294.952837 -165.685289 
L 296.601174 -167.681983 
L 296.640537 -169.678678 
L 294.971688 -171.675372 
L 291.885115 -173.672066 
L 288.040712 -175.66876 
L 284.360061 -177.665455 
L 281.803854 -179.662149 
L 281.07754 -181.658843 
L 282.383153 -183.655537 
L 285.341363 -185.652231 
L 289.125163 -187.648926 
L 292.733189 -189.64562 
L 295.272569 -191.642314 
L 296.15405 -193.639008 
L 295.182779 -195.635702 
L 292.579878 -197.632397 
L 288.956364 -199.629091 
L 285.215956 -201.625785 
L 282.353048 -203.622479 
L 281.166626 -205.619174 
L 281.990048 -207.615868 
L 284.564203 -209.612562 
L 288.119416 -211.609256 
L 291.620743 -213.60595 
L 294.058016 -215.602645 
L 294.67731 -217.599339 
L 293.124474 -219.596033 
L 289.525838 -221.592727 
L 284.517192 -223.589421 
L 279.178183 -225.586116 
L 274.812682 -227.58281 
L 272.584294 -229.579504 
L 273.131453 -231.576198 
L 276.348211 -233.572893 
L 281.45406 -235.569587 
L 287.31951 -237.566281 
L 292.876146 -239.562975 
L 297.416771 -241.559669 
L 300.684818 -243.556364 
L 309.515182 -243.556364 
L 309.515182 -243.556364 
L 312.783229 -241.559669 
L 317.323854 -239.562975 
L 322.88049 -237.566281 
L 328.74594 -235.569587 
L 333.851789 -233.572893 
L 337.068547 -231.576198 
L 337.615706 -229.579504 
L 335.387318 -227.58281 
L 331.021817 -225.586116 
L 325.682808 -223.589421 
L 320.674162 -221.592727 
L 317.075526 -219.596033 
L 315.52269 -217.599339 
L 316.141984 -215.602645 
L 318.579257 -213.60595 
L 322.080584 -211.609256 
L 325.635797 -209.612562 
L 328.209952 -207.615868 
L 329.033374 -205.619174 
L 327.846952 -203.622479 
L 324.984044 -201.625785 
L 321.243636 -199.629091 
L 317.620122 -197.632397 
L 315.017221 -195.635702 
L 314.04595 -193.639008 
L 314.927431 -191.642314 
L 317.466811 -189.64562 
L 321.074837 -187.648926 
L 324.858637 -185.652231 
L 327.816847 -183.655537 
L 329.12246 -181.658843 
L 328.396146 -179.662149 
L 325.839939 -177.665455 
L 322.159288 -175.66876 
L 318.314885 -173.672066 
L 315.228312 -171.675372 
L 313.559463 -169.678678 
L 313.598826 -167.681983 
L 315.247163 -165.685289 
L 318.044026 -163.688595 
L 321.244472 -161.691901 
L 323.971751 -159.695207 
L 325.447478 -157.698512 
L 325.234628 -155.701818 
L 323.385362 -153.705124 
L 320.41585 -151.70843 
L 317.120386 -149.711736 
L 314.319188 -147.715041 
L 312.647387 -145.718347 
L 312.437999 -143.721653 
L 313.685851 -141.724959 
L 316.058355 -139.728264 
L 318.946739 -137.73157 
L 321.582239 -135.734876 
L 323.228802 -133.738182 
L 323.407637 -131.741488 
L 322.05957 -129.744793 
L 319.561832 -127.748099 
L 316.589213 -125.751405 
L 313.891654 -123.754711 
L 312.089216 -121.758017 
L 311.547086 -119.761322 
L 312.330631 -117.764628 
L 314.209078 -115.767934 
L 316.693017 -113.77124 
L 319.12249 -111.774545 
L 320.822693 -109.777851 
L 321.301363 -107.781157 
L 320.412136 -105.784463 
L 318.402677 -103.787769 
L 315.820727 -101.791074 
L 313.327216 -99.79438 
L 311.505284 -97.797686 
L 310.732312 -95.800992 
L 311.12704 -93.804298 
L 312.546343 -91.807603 
L 314.611827 -89.810909 
L 316.774813 -87.814215 
L 318.437913 -85.817521 
L 319.121788 -83.820826 
L 318.619822 -81.824132 
L 317.066747 -79.827438 
L 314.883523 -77.830744 
L 312.627041 -75.83405 
L 310.818908 -73.837355 
L 309.820998 -71.840661 
L 309.780384 -69.843967 
L 310.625554 -67.847273 
L 312.089857 -65.850579 
L 313.759664 -63.853884 
L 315.160438 -61.85719 
L 315.879774 -59.860496 
L 315.691504 -57.863802 
L 314.623693 -55.867107 
L 312.931873 -53.870413 
L 310.989009 -51.873719 
L 309.148584 -49.877025 
L 307.644706 -47.880331 
L 306.562319 -45.883636 
z
" style="stroke: #7a7a7a; stroke-width: 1.5"/>
    </defs>
    <g clip-path="url(#p8e7a3e9e33)">
     <use xlink:href="#m638b72d0bc" x="0" y="288" style="fill: #b9ccdd; stroke: #7a7a7a; stroke-width: 1.5"/>
    </g>
   </g>
   <g id="matplotlib.axis_1">
    <g id="xtick_1">
     <g id="line2d_1">
      <defs>
       <path id="m712768f3c4" d="M 0 0 
L 0 3.5 
" style="stroke: #000000; stroke-width: 0.8"/>
      </defs>
      <g>
       <use xlink:href="#m712768f3c4" x="137.7" y="252" style="stroke: #000000; stroke-width: 0.8"/>
      </g>
     </g>
     <g id="text_1">
      <!-- 0.0 -->
      <g transform="translate(129.748437 266.598437)scale(0.1 -0.1)">
       <defs>
        <path id="DejaVuSans-30" d="M 2034 4250 
Q 1547 4250 1301 3770 
Q 1056 3291 1056 2328 
Q 1056 1369 1301 889 
Q 1547 409 2034 409 
Q 2525 409 2770 889 
Q 3016 1369 3016 2328 
Q 3016 3291 2770 3770 
Q 2525 4250 2034 4250 
z
M 2034 4750 
Q 2819 4750 3233 4129 
Q 3647 3509 3647 2328 
Q 3647 1150 3233 529 
Q 2819 -91 2034 -91 
Q 1250 -91 836 529 
Q 422 1150 422 2328 
Q 422 3509 836 4129 
Q 1250 4750 2034 4750 
z
" transform="scale(0.015625)"/>
        <path id="DejaVuSans-2e" d="M 684 794 
L 1344 794 
L 1344 0 
L 684 0 
L 684 794 
z
" transform="scale(0.015625)"/>
       </defs>
       <use xlink:href="#DejaVuSans-30"/>
       <use xlink:href="#DejaVuSans-2e" x="63.623047"/>
       <use xlink:href="#DejaVuSans-30" x="95.410156"/>
      </g>
     </g>
    </g>
    <g id="xtick_2">
     <g id="line2d_2">
      <g>
       <use xlink:href="#m712768f3c4" x="305.1" y="252" style="stroke: #000000; stroke-width: 0.8"/>
      </g>
     </g>
     <g id="text_2">
      <!-- 1.0 -->
      <g transform="translate(297.148438 266.598437)scale(0.1 -0.1)">
       <defs>
        <path id="DejaVuSans-31" d="M 794 531 
L 1825 531 
L 1825 4091 
L 703 3866 
L 703 4441 
L 1819 4666 
L 2450 4666 
L 2450 531 
L 3481 531 
L 3481 0 
L 794 0 
L 794 531 
z
" transform="scale(0.015625)"/>
       </defs>
       <use xlink:href="#DejaVuSans-31"/>
       <use xlink:href="#DejaVuSans-2e" x="63.623047"/>
       <use xlink:href="#DejaVuSans-30" x="95.410156"/>
      </g>
     </g>
    </g>
    <g id="text_3">
     <!-- Diabetes_binary -->
     <g transform="translate(180.89375 280.276563)scale(0.1 -0.1)">
      <defs>
       <path id="DejaVuSans-44" d="M 1259 4147 
L 1259 519 
L 2022 519 
Q 2988 519 3436 956 
Q 3884 1394 3884 2338 
Q 3884 3275 3436 3711 
Q 2988 4147 2022 4147 
L 1259 4147 
z
M 628 4666 
L 1925 4666 
Q 3281 4666 3915 4102 
Q 4550 3538 4550 2338 
Q 4550 1131 3912 565 
Q 3275 0 1925 0 
L 628 0 
L 628 4666 
z
" transform="scale(0.015625)"/>
       <path id="DejaVuSans-69" d="M 603 3500 
L 1178 3500 
L 1178 0 
L 603 0 
L 603 3500 
z
M 603 4863 
L 1178 4863 
L 1178 4134 
L 603 4134 
L 603 4863 
z
" transform="scale(0.015625)"/>
       <path id="DejaVuSans-61" d="M 2194 1759 
Q 1497 1759 1228 1600 
Q 959 1441 959 1056 
Q 959 750 1161 570 
Q 1363 391 1709 391 
Q 2188 391 2477 730 
Q 2766 1069 2766 1631 
L 2766 1759 
L 2194 1759 
z
M 3341 1997 
L 3341 0 
L 2766 0 
L 2766 531 
Q 2569 213 2275 61 
Q 1981 -91 1556 -91 
Q 1019 -91 701 211 
Q 384 513 384 1019 
Q 384 1609 779 1909 
Q 1175 2209 1959 2209 
L 2766 2209 
L 2766 2266 
Q 2766 2663 2505 2880 
Q 2244 3097 1772 3097 
Q 1472 3097 1187 3025 
Q 903 2953 641 2809 
L 641 3341 
Q 956 3463 1253 3523 
Q 1550 3584 1831 3584 
Q 2591 3584 2966 3190 
Q 3341 2797 3341 1997 
z
" transform="scale(0.015625)"/>
       <path id="DejaVuSans-62" d="M 3116 1747 
Q 3116 2381 2855 2742 
Q 2594 3103 2138 3103 
Q 1681 3103 1420 2742 
Q 1159 2381 1159 1747 
Q 1159 1113 1420 752 
Q 1681 391 2138 391 
Q 2594 391 2855 752 
Q 3116 1113 3116 1747 
z
M 1159 2969 
Q 1341 3281 1617 3432 
Q 1894 3584 2278 3584 
Q 2916 3584 3314 3078 
Q 3713 2572 3713 1747 
Q 3713 922 3314 415 
Q 2916 -91 2278 -91 
Q 1894 -91 1617 61 
Q 1341 213 1159 525 
L 1159 0 
L 581 0 
L 581 4863 
L 1159 4863 
L 1159 2969 
z
" transform="scale(0.015625)"/>
       <path id="DejaVuSans-65" d="M 3597 1894 
L 3597 1613 
L 953 1613 
Q 991 1019 1311 708 
Q 1631 397 2203 397 
Q 2534 397 2845 478 
Q 3156 559 3463 722 
L 3463 178 
Q 3153 47 2828 -22 
Q 2503 -91 2169 -91 
Q 1331 -91 842 396 
Q 353 884 353 1716 
Q 353 2575 817 3079 
Q 1281 3584 2069 3584 
Q 2775 3584 3186 3129 
Q 3597 2675 3597 1894 
z
M 3022 2063 
Q 3016 2534 2758 2815 
Q 2500 3097 2075 3097 
Q 1594 3097 1305 2825 
Q 1016 2553 972 2059 
L 3022 2063 
z
" transform="scale(0.015625)"/>
       <path id="DejaVuSans-74" d="M 1172 4494 
L 1172 3500 
L 2356 3500 
L 2356 3053 
L 1172 3053 
L 1172 1153 
Q 1172 725 1289 603 
Q 1406 481 1766 481 
L 2356 481 
L 2356 0 
L 1766 0 
Q 1100 0 847 248 
Q 594 497 594 1153 
L 594 3053 
L 172 3053 
L 172 3500 
L 594 3500 
L 594 4494 
L 1172 4494 
z
" transform="scale(0.015625)"/>
       <path id="DejaVuSans-73" d="M 2834 3397 
L 2834 2853 
Q 2591 2978 2328 3040 
Q 2066 3103 1784 3103 
Q 1356 3103 1142 2972 
Q 928 2841 928 2578 
Q 928 2378 1081 2264 
Q 1234 2150 1697 2047 
L 1894 2003 
Q 2506 1872 2764 1633 
Q 3022 1394 3022 966 
Q 3022 478 2636 193 
Q 2250 -91 1575 -91 
Q 1294 -91 989 -36 
Q 684 19 347 128 
L 347 722 
Q 666 556 975 473 
Q 1284 391 1588 391 
Q 1994 391 2212 530 
Q 2431 669 2431 922 
Q 2431 1156 2273 1281 
Q 2116 1406 1581 1522 
L 1381 1569 
Q 847 1681 609 1914 
Q 372 2147 372 2553 
Q 372 3047 722 3315 
Q 1072 3584 1716 3584 
Q 2034 3584 2315 3537 
Q 2597 3491 2834 3397 
z
" transform="scale(0.015625)"/>
       <path id="DejaVuSans-5f" d="M 3263 -1063 
L 3263 -1509 
L -63 -1509 
L -63 -1063 
L 3263 -1063 
z
" transform="scale(0.015625)"/>
       <path id="DejaVuSans-6e" d="M 3513 2113 
L 3513 0 
L 2938 0 
L 2938 2094 
Q 2938 2591 2744 2837 
Q 2550 3084 2163 3084 
Q 1697 3084 1428 2787 
Q 1159 2491 1159 1978 
L 1159 0 
L 581 0 
L 581 3500 
L 1159 3500 
L 1159 2956 
Q 1366 3272 1645 3428 
Q 1925 3584 2291 3584 
Q 2894 3584 3203 3211 
Q 3513 2838 3513 2113 
z
" transform="scale(0.015625)"/>
       <path id="DejaVuSans-72" d="M 2631 2963 
Q 2534 3019 2420 3045 
Q 2306 3072 2169 3072 
Q 1681 3072 1420 2755 
Q 1159 2438 1159 1844 
L 1159 0 
L 581 0 
L 581 3500 
L 1159 3500 
L 1159 2956 
Q 1341 3275 1631 3429 
Q 1922 3584 2338 3584 
Q 2397 3584 2469 3576 
Q 2541 3569 2628 3553 
L 2631 2963 
z
" transform="scale(0.015625)"/>
       <path id="DejaVuSans-79" d="M 2059 -325 
Q 1816 -950 1584 -1140 
Q 1353 -1331 966 -1331 
L 506 -1331 
L 506 -850 
L 844 -850 
Q 1081 -850 1212 -737 
Q 1344 -625 1503 -206 
L 1606 56 
L 191 3500 
L 800 3500 
L 1894 763 
L 2988 3500 
L 3597 3500 
L 2059 -325 
z
" transform="scale(0.015625)"/>
      </defs>
      <use xlink:href="#DejaVuSans-44"/>
      <use xlink:href="#DejaVuSans-69" x="77.001953"/>
      <use xlink:href="#DejaVuSans-61" x="104.785156"/>
      <use xlink:href="#DejaVuSans-62" x="166.064453"/>
      <use xlink:href="#DejaVuSans-65" x="229.541016"/>
      <use xlink:href="#DejaVuSans-74" x="291.064453"/>
      <use xlink:href="#DejaVuSans-65" x="330.273438"/>
      <use xlink:href="#DejaVuSans-73" x="391.796875"/>
      <use xlink:href="#DejaVuSans-5f" x="443.896484"/>
      <use xlink:href="#DejaVuSans-62" x="493.896484"/>
      <use xlink:href="#DejaVuSans-69" x="557.373047"/>
      <use xlink:href="#DejaVuSans-6e" x="585.15625"/>
      <use xlink:href="#DejaVuSans-61" x="648.535156"/>
      <use xlink:href="#DejaVuSans-72" x="709.814453"/>
      <use xlink:href="#DejaVuSans-79" x="750.927734"/>
     </g>
    </g>
   </g>
   <g id="matplotlib.axis_2">
    <g id="ytick_1">
     <g id="line2d_3">
      <defs>
       <path id="m2aeaa649b2" d="M 0 0 
L -3.5 0 
" style="stroke: #000000; stroke-width: 0.8"/>
      </defs>
      <g>
       <use xlink:href="#m2aeaa649b2" x="54" y="228.778651" style="stroke: #000000; stroke-width: 0.8"/>
      </g>
     </g>
     <g id="text_4">
      <!-- 1 -->
      <g transform="translate(40.6375 232.57787)scale(0.1 -0.1)">
       <use xlink:href="#DejaVuSans-31"/>
      </g>
     </g>
    </g>
    <g id="ytick_2">
     <g id="line2d_4">
      <g>
       <use xlink:href="#m2aeaa649b2" x="54" y="204.350465" style="stroke: #000000; stroke-width: 0.8"/>
      </g>
     </g>
     <g id="text_5">
      <!-- 2 -->
      <g transform="translate(40.6375 208.149684)scale(0.1 -0.1)">
       <defs>
        <path id="DejaVuSans-32" d="M 1228 531 
L 3431 531 
L 3431 0 
L 469 0 
L 469 531 
Q 828 903 1448 1529 
Q 2069 2156 2228 2338 
Q 2531 2678 2651 2914 
Q 2772 3150 2772 3378 
Q 2772 3750 2511 3984 
Q 2250 4219 1831 4219 
Q 1534 4219 1204 4116 
Q 875 4013 500 3803 
L 500 4441 
Q 881 4594 1212 4672 
Q 1544 4750 1819 4750 
Q 2544 4750 2975 4387 
Q 3406 4025 3406 3419 
Q 3406 3131 3298 2873 
Q 3191 2616 2906 2266 
Q 2828 2175 2409 1742 
Q 1991 1309 1228 531 
z
" transform="scale(0.015625)"/>
       </defs>
       <use xlink:href="#DejaVuSans-32"/>
      </g>
     </g>
    </g>
    <g id="ytick_3">
     <g id="line2d_5">
      <g>
       <use xlink:href="#m2aeaa649b2" x="54" y="179.922279" style="stroke: #000000; stroke-width: 0.8"/>
      </g>
     </g>
     <g id="text_6">
      <!-- 3 -->
      <g transform="translate(40.6375 183.721498)scale(0.1 -0.1)">
       <defs>
        <path id="DejaVuSans-33" d="M 2597 2516 
Q 3050 2419 3304 2112 
Q 3559 1806 3559 1356 
Q 3559 666 3084 287 
Q 2609 -91 1734 -91 
Q 1441 -91 1130 -33 
Q 819 25 488 141 
L 488 750 
Q 750 597 1062 519 
Q 1375 441 1716 441 
Q 2309 441 2620 675 
Q 2931 909 2931 1356 
Q 2931 1769 2642 2001 
Q 2353 2234 1838 2234 
L 1294 2234 
L 1294 2753 
L 1863 2753 
Q 2328 2753 2575 2939 
Q 2822 3125 2822 3475 
Q 2822 3834 2567 4026 
Q 2313 4219 1838 4219 
Q 1578 4219 1281 4162 
Q 984 4106 628 3988 
L 628 4550 
Q 988 4650 1302 4700 
Q 1616 4750 1894 4750 
Q 2613 4750 3031 4423 
Q 3450 4097 3450 3541 
Q 3450 3153 3228 2886 
Q 3006 2619 2597 2516 
z
" transform="scale(0.015625)"/>
       </defs>
       <use xlink:href="#DejaVuSans-33"/>
      </g>
     </g>
    </g>
    <g id="ytick_4">
     <g id="line2d_6">
      <g>
       <use xlink:href="#m2aeaa649b2" x="54" y="155.494093" style="stroke: #000000; stroke-width: 0.8"/>
      </g>
     </g>
     <g id="text_7">
      <!-- 4 -->
      <g transform="translate(40.6375 159.293312)scale(0.1 -0.1)">
       <defs>
        <path id="DejaVuSans-34" d="M 2419 4116 
L 825 1625 
L 2419 1625 
L 2419 4116 
z
M 2253 4666 
L 3047 4666 
L 3047 1625 
L 3713 1625 
L 3713 1100 
L 3047 1100 
L 3047 0 
L 2419 0 
L 2419 1100 
L 313 1100 
L 313 1709 
L 2253 4666 
z
" transform="scale(0.015625)"/>
       </defs>
       <use xlink:href="#DejaVuSans-34"/>
      </g>
     </g>
    </g>
    <g id="ytick_5">
     <g id="line2d_7">
      <g>
       <use xlink:href="#m2aeaa649b2" x="54" y="131.065907" style="stroke: #000000; stroke-width: 0.8"/>
      </g>
     </g>
     <g id="text_8">
      <!-- 5 -->
      <g transform="translate(40.6375 134.865126)scale(0.1 -0.1)">
       <defs>
        <path id="DejaVuSans-35" d="M 691 4666 
L 3169 4666 
L 3169 4134 
L 1269 4134 
L 1269 2991 
Q 1406 3038 1543 3061 
Q 1681 3084 1819 3084 
Q 2600 3084 3056 2656 
Q 3513 2228 3513 1497 
Q 3513 744 3044 326 
Q 2575 -91 1722 -91 
Q 1428 -91 1123 -41 
Q 819 9 494 109 
L 494 744 
Q 775 591 1075 516 
Q 1375 441 1709 441 
Q 2250 441 2565 725 
Q 2881 1009 2881 1497 
Q 2881 1984 2565 2268 
Q 2250 2553 1709 2553 
Q 1456 2553 1204 2497 
Q 953 2441 691 2322 
L 691 4666 
z
" transform="scale(0.015625)"/>
       </defs>
       <use xlink:href="#DejaVuSans-35"/>
      </g>
     </g>
    </g>
    <g id="ytick_6">
     <g id="line2d_8">
      <g>
       <use xlink:href="#m2aeaa649b2" x="54" y="106.637721" style="stroke: #000000; stroke-width: 0.8"/>
      </g>
     </g>
     <g id="text_9">
      <!-- 6 -->
      <g transform="translate(40.6375 110.43694)scale(0.1 -0.1)">
       <defs>
        <path id="DejaVuSans-36" d="M 2113 2584 
Q 1688 2584 1439 2293 
Q 1191 2003 1191 1497 
Q 1191 994 1439 701 
Q 1688 409 2113 409 
Q 2538 409 2786 701 
Q 3034 994 3034 1497 
Q 3034 2003 2786 2293 
Q 2538 2584 2113 2584 
z
M 3366 4563 
L 3366 3988 
Q 3128 4100 2886 4159 
Q 2644 4219 2406 4219 
Q 1781 4219 1451 3797 
Q 1122 3375 1075 2522 
Q 1259 2794 1537 2939 
Q 1816 3084 2150 3084 
Q 2853 3084 3261 2657 
Q 3669 2231 3669 1497 
Q 3669 778 3244 343 
Q 2819 -91 2113 -91 
Q 1303 -91 875 529 
Q 447 1150 447 2328 
Q 447 3434 972 4092 
Q 1497 4750 2381 4750 
Q 2619 4750 2861 4703 
Q 3103 4656 3366 4563 
z
" transform="scale(0.015625)"/>
       </defs>
       <use xlink:href="#DejaVuSans-36"/>
      </g>
     </g>
    </g>
    <g id="ytick_7">
     <g id="line2d_9">
      <g>
       <use xlink:href="#m2aeaa649b2" x="54" y="82.209535" style="stroke: #000000; stroke-width: 0.8"/>
      </g>
     </g>
     <g id="text_10">
      <!-- 7 -->
      <g transform="translate(40.6375 86.008754)scale(0.1 -0.1)">
       <defs>
        <path id="DejaVuSans-37" d="M 525 4666 
L 3525 4666 
L 3525 4397 
L 1831 0 
L 1172 0 
L 2766 4134 
L 525 4134 
L 525 4666 
z
" transform="scale(0.015625)"/>
       </defs>
       <use xlink:href="#DejaVuSans-37"/>
      </g>
     </g>
    </g>
    <g id="ytick_8">
     <g id="line2d_10">
      <g>
       <use xlink:href="#m2aeaa649b2" x="54" y="57.781349" style="stroke: #000000; stroke-width: 0.8"/>
      </g>
     </g>
     <g id="text_11">
      <!-- 8 -->
      <g transform="translate(40.6375 61.580568)scale(0.1 -0.1)">
       <defs>
        <path id="DejaVuSans-38" d="M 2034 2216 
Q 1584 2216 1326 1975 
Q 1069 1734 1069 1313 
Q 1069 891 1326 650 
Q 1584 409 2034 409 
Q 2484 409 2743 651 
Q 3003 894 3003 1313 
Q 3003 1734 2745 1975 
Q 2488 2216 2034 2216 
z
M 1403 2484 
Q 997 2584 770 2862 
Q 544 3141 544 3541 
Q 544 4100 942 4425 
Q 1341 4750 2034 4750 
Q 2731 4750 3128 4425 
Q 3525 4100 3525 3541 
Q 3525 3141 3298 2862 
Q 3072 2584 2669 2484 
Q 3125 2378 3379 2068 
Q 3634 1759 3634 1313 
Q 3634 634 3220 271 
Q 2806 -91 2034 -91 
Q 1263 -91 848 271 
Q 434 634 434 1313 
Q 434 1759 690 2068 
Q 947 2378 1403 2484 
z
M 1172 3481 
Q 1172 3119 1398 2916 
Q 1625 2713 2034 2713 
Q 2441 2713 2670 2916 
Q 2900 3119 2900 3481 
Q 2900 3844 2670 4047 
Q 2441 4250 2034 4250 
Q 1625 4250 1398 4047 
Q 1172 3844 1172 3481 
z
" transform="scale(0.015625)"/>
       </defs>
       <use xlink:href="#DejaVuSans-38"/>
      </g>
     </g>
    </g>
    <g id="text_12">
     <!-- Income -->
     <g transform="translate(34.557812 161.679219)rotate(-90)scale(0.1 -0.1)">
      <defs>
       <path id="DejaVuSans-49" d="M 628 4666 
L 1259 4666 
L 1259 0 
L 628 0 
L 628 4666 
z
" transform="scale(0.015625)"/>
       <path id="DejaVuSans-63" d="M 3122 3366 
L 3122 2828 
Q 2878 2963 2633 3030 
Q 2388 3097 2138 3097 
Q 1578 3097 1268 2742 
Q 959 2388 959 1747 
Q 959 1106 1268 751 
Q 1578 397 2138 397 
Q 2388 397 2633 464 
Q 2878 531 3122 666 
L 3122 134 
Q 2881 22 2623 -34 
Q 2366 -91 2075 -91 
Q 1284 -91 818 406 
Q 353 903 353 1747 
Q 353 2603 823 3093 
Q 1294 3584 2113 3584 
Q 2378 3584 2631 3529 
Q 2884 3475 3122 3366 
z
" transform="scale(0.015625)"/>
       <path id="DejaVuSans-6f" d="M 1959 3097 
Q 1497 3097 1228 2736 
Q 959 2375 959 1747 
Q 959 1119 1226 758 
Q 1494 397 1959 397 
Q 2419 397 2687 759 
Q 2956 1122 2956 1747 
Q 2956 2369 2687 2733 
Q 2419 3097 1959 3097 
z
M 1959 3584 
Q 2709 3584 3137 3096 
Q 3566 2609 3566 1747 
Q 3566 888 3137 398 
Q 2709 -91 1959 -91 
Q 1206 -91 779 398 
Q 353 888 353 1747 
Q 353 2609 779 3096 
Q 1206 3584 1959 3584 
z
" transform="scale(0.015625)"/>
       <path id="DejaVuSans-6d" d="M 3328 2828 
Q 3544 3216 3844 3400 
Q 4144 3584 4550 3584 
Q 5097 3584 5394 3201 
Q 5691 2819 5691 2113 
L 5691 0 
L 5113 0 
L 5113 2094 
Q 5113 2597 4934 2840 
Q 4756 3084 4391 3084 
Q 3944 3084 3684 2787 
Q 3425 2491 3425 1978 
L 3425 0 
L 2847 0 
L 2847 2094 
Q 2847 2600 2669 2842 
Q 2491 3084 2119 3084 
Q 1678 3084 1418 2786 
Q 1159 2488 1159 1978 
L 1159 0 
L 581 0 
L 581 3500 
L 1159 3500 
L 1159 2956 
Q 1356 3278 1631 3431 
Q 1906 3584 2284 3584 
Q 2666 3584 2933 3390 
Q 3200 3197 3328 2828 
z
" transform="scale(0.015625)"/>
      </defs>
      <use xlink:href="#DejaVuSans-49"/>
      <use xlink:href="#DejaVuSans-6e" x="29.492188"/>
      <use xlink:href="#DejaVuSans-63" x="92.871094"/>
      <use xlink:href="#DejaVuSans-6f" x="147.851562"/>
      <use xlink:href="#DejaVuSans-6d" x="209.033203"/>
      <use xlink:href="#DejaVuSans-65" x="306.445312"/>
     </g>
    </g>
   </g>
   <g id="line2d_11">
    <path d="M 137.7 228.778651 
L 137.7 57.781349 
" clip-path="url(#p8e7a3e9e33)" style="fill: none; stroke: #7a7a7a; stroke-width: 1.5; stroke-linecap: square"/>
   </g>
   <g id="line2d_12">
    <path d="M 137.7 131.065907 
L 137.7 57.781349 
" clip-path="url(#p8e7a3e9e33)" style="fill: none; stroke: #7a7a7a; stroke-width: 4.5; stroke-linecap: square"/>
   </g>
   <g id="line2d_13">
    <path d="M 305.1 228.778651 
L 305.1 57.781349 
" clip-path="url(#p8e7a3e9e33)" style="fill: none; stroke: #7a7a7a; stroke-width: 1.5; stroke-linecap: square"/>
   </g>
   <g id="line2d_14">
    <path d="M 305.1 179.922279 
L 305.1 82.209535 
" clip-path="url(#p8e7a3e9e33)" style="fill: none; stroke: #7a7a7a; stroke-width: 4.5; stroke-linecap: square"/>
   </g>
   <g id="patch_3">
    <path d="M 54 252 
L 54 34.56 
" style="fill: none; stroke: #000000; stroke-width: 0.8; stroke-linejoin: miter; stroke-linecap: square"/>
   </g>
   <g id="patch_4">
    <path d="M 388.8 252 
L 388.8 34.56 
" style="fill: none; stroke: #000000; stroke-width: 0.8; stroke-linejoin: miter; stroke-linecap: square"/>
   </g>
   <g id="patch_5">
    <path d="M 54 252 
L 388.8 252 
" style="fill: none; stroke: #000000; stroke-width: 0.8; stroke-linejoin: miter; stroke-linecap: square"/>
   </g>
   <g id="patch_6">
    <path d="M 54 34.56 
L 388.8 34.56 
" style="fill: none; stroke: #000000; stroke-width: 0.8; stroke-linejoin: miter; stroke-linecap: square"/>
   </g>
   <g id="PathCollection_1">
    <defs>
     <path id="m87bb6a45b1" d="M 0 1.5 
C 0.397805 1.5 0.77937 1.341951 1.06066 1.06066 
C 1.341951 0.77937 1.5 0.397805 1.5 0 
C 1.5 -0.397805 1.341951 -0.77937 1.06066 -1.06066 
C 0.77937 -1.341951 0.397805 -1.5 0 -1.5 
C -0.397805 -1.5 -0.77937 -1.341951 -1.06066 -1.06066 
C -1.341951 -0.77937 -1.5 -0.397805 -1.5 0 
C -1.5 0.397805 -1.341951 0.77937 -1.06066 1.06066 
C -0.77937 1.341951 -0.397805 1.5 0 1.5 
z
" style="stroke: #7a7a7a"/>
    </defs>
    <g clip-path="url(#p8e7a3e9e33)">
     <use xlink:href="#m87bb6a45b1" x="137.7" y="82.209535" style="fill: #ffffff; stroke: #7a7a7a"/>
    </g>
   </g>
   <g id="PathCollection_2">
    <g clip-path="url(#p8e7a3e9e33)">
     <use xlink:href="#m87bb6a45b1" x="305.1" y="106.637721" style="fill: #ffffff; stroke: #7a7a7a"/>
    </g>
   </g>
  </g>
 </g>
 <defs>
  <clipPath id="p8e7a3e9e33">
   <rect x="54" y="34.56" width="334.8" height="217.44"/>
  </clipPath>
 </defs>
</svg>
