<?xml version="1.0" encoding="utf-8" standalone="no"?>
<!DOCTYPE svg PUBLIC "-//W3C//DTD SVG 1.1//EN"
  "http://www.w3.org/Graphics/SVG/1.1/DTD/svg11.dtd">
<svg xmlns:xlink="http://www.w3.org/1999/xlink" width="432pt" height="288pt" viewBox="0 0 432 288" xmlns="http://www.w3.org/2000/svg" version="1.1">
 <metadata>
  <rdf:RDF xmlns:dc="http://purl.org/dc/elements/1.1/" xmlns:cc="http://creativecommons.org/ns#" xmlns:rdf="http://www.w3.org/1999/02/22-rdf-syntax-ns#">
   <cc:Work>
    <dc:type rdf:resource="http://purl.org/dc/dcmitype/StillImage"/>
    <dc:date>2023-05-03T02:46:55.373623</dc:date>
    <dc:format>image/svg+xml</dc:format>
    <dc:creator>
     <cc:Agent>
      <dc:title>Matplotlib v3.5.3, https://matplotlib.org/</dc:title>
     </cc:Agent>
    </dc:creator>
   </cc:Work>
  </rdf:RDF>
 </metadata>
 <defs>
  <style type="text/css">*{stroke-linejoin: round; stroke-linecap: butt}</style>
 </defs>
 <g id="figure_1">
  <g id="patch_1">
   <path d="M 0 288 
L 432 288 
L 432 0 
L 0 0 
L 0 288 
z
" style="fill: none"/>
  </g>
  <g id="axes_1">
   <g id="patch_2">
    <path d="M 54 252 
L 388.8 252 
L 388.8 34.56 
L 54 34.56 
z
" style="fill: #ffffff"/>
   </g>
   <g id="PolyCollection_1">
    <defs>
     <path id="mfc45612802" d="M 146.570849 -48.344251 
L 128.829151 -48.344251 
L 119.97213 -50.291236 
L 107.050507 -52.238221 
L 91.831139 -54.185206 
L 78.218552 -56.132191 
L 70.74 -58.079175 
L 72.034414 -60.02616 
L 81.215662 -61.973145 
L 94.495185 -63.92013 
L 107.518356 -65.867115 
L 117.518052 -67.814099 
L 123.920895 -69.761084 
L 127.574527 -71.708069 
L 129.641119 -73.655054 
L 130.938605 -75.602039 
L 131.832375 -77.549024 
L 132.411009 -79.496008 
L 132.698096 -81.442993 
L 132.785384 -83.389978 
L 132.852451 -85.336963 
L 133.085348 -87.283948 
L 133.563536 -89.230933 
L 134.212646 -91.177917 
L 134.867909 -93.124902 
L 135.394208 -95.071887 
L 135.762331 -97.018872 
L 136.030947 -98.965857 
L 136.269678 -100.912841 
L 136.49473 -102.859826 
L 136.657655 -104.806811 
L 136.680045 -106.753796 
L 136.507251 -108.700781 
L 136.157429 -110.647766 
L 135.741775 -112.59475 
L 135.431425 -114.541735 
L 135.373538 -116.48872 
L 135.606988 -118.435705 
L 136.043159 -120.38269 
L 136.52773 -122.329675 
L 136.930763 -124.276659 
L 137.196674 -126.223644 
L 137.332183 -128.170629 
L 137.362677 -130.117614 
L 137.298583 -132.064599 
L 137.130204 -134.011583 
L 136.845489 -135.958568 
L 136.457209 -137.905553 
L 136.025602 -139.852538 
L 135.659418 -141.799523 
L 135.481187 -143.746508 
L 135.565913 -145.693492 
L 135.893603 -147.640477 
L 136.356359 -149.587462 
L 136.817995 -151.534447 
L 137.180222 -153.481432 
L 137.410772 -155.428417 
L 137.527566 -157.375401 
L 137.564189 -159.322386 
L 137.542408 -161.269371 
L 137.462356 -163.216356 
L 137.310871 -165.163341 
L 137.083947 -167.110325 
L 136.811444 -169.05731 
L 136.563616 -171.004295 
L 136.425216 -172.95128 
L 136.449041 -174.898265 
L 136.623834 -176.84525 
L 136.883082 -178.792234 
L 137.145983 -180.739219 
L 137.356901 -182.686204 
L 137.49841 -184.633189 
L 137.57969 -186.580174 
L 137.617504 -188.527159 
L 137.623365 -190.474143 
L 137.600413 -192.421128 
L 137.547847 -194.368113 
L 137.469334 -196.315098 
L 137.38016 -198.262083 
L 137.306679 -200.209067 
L 137.275414 -202.156052 
L 137.298042 -204.103037 
L 137.363946 -206.050022 
L 137.446521 -207.997007 
L 137.517664 -209.943992 
L 137.558936 -211.890976 
L 137.562213 -213.837961 
L 137.519929 -215.784946 
L 137.409406 -217.731931 
L 137.180048 -219.678916 
L 136.759557 -221.625901 
L 136.09592 -223.572885 
L 135.228268 -225.51987 
L 134.336437 -227.466855 
L 133.702284 -229.41384 
L 133.571861 -231.360825 
L 134.005684 -233.307809 
L 134.838361 -235.254794 
L 135.782556 -237.201779 
L 136.589006 -239.148764 
L 137.143454 -241.095749 
L 138.256546 -241.095749 
L 138.256546 -241.095749 
L 138.810994 -239.148764 
L 139.617444 -237.201779 
L 140.561639 -235.254794 
L 141.394316 -233.307809 
L 141.828139 -231.360825 
L 141.697716 -229.41384 
L 141.063563 -227.466855 
L 140.171732 -225.51987 
L 139.30408 -223.572885 
L 138.640443 -221.625901 
L 138.219952 -219.678916 
L 137.990594 -217.731931 
L 137.880071 -215.784946 
L 137.837787 -213.837961 
L 137.841064 -211.890976 
L 137.882336 -209.943992 
L 137.953479 -207.997007 
L 138.036054 -206.050022 
L 138.101958 -204.103037 
L 138.124586 -202.156052 
L 138.093321 -200.209067 
L 138.01984 -198.262083 
L 137.930666 -196.315098 
L 137.852153 -194.368113 
L 137.799587 -192.421128 
L 137.776635 -190.474143 
L 137.782496 -188.527159 
L 137.82031 -186.580174 
L 137.90159 -184.633189 
L 138.043099 -182.686204 
L 138.254017 -180.739219 
L 138.516918 -178.792234 
L 138.776166 -176.84525 
L 138.950959 -174.898265 
L 138.974784 -172.95128 
L 138.836384 -171.004295 
L 138.588556 -169.05731 
L 138.316053 -167.110325 
L 138.089129 -165.163341 
L 137.937644 -163.216356 
L 137.857592 -161.269371 
L 137.835811 -159.322386 
L 137.872434 -157.375401 
L 137.989228 -155.428417 
L 138.219778 -153.481432 
L 138.582005 -151.534447 
L 139.043641 -149.587462 
L 139.506397 -147.640477 
L 139.834087 -145.693492 
L 139.918813 -143.746508 
L 139.740582 -141.799523 
L 139.374398 -139.852538 
L 138.942791 -137.905553 
L 138.554511 -135.958568 
L 138.269796 -134.011583 
L 138.101417 -132.064599 
L 138.037323 -130.117614 
L 138.067817 -128.170629 
L 138.203326 -126.223644 
L 138.469237 -124.276659 
L 138.87227 -122.329675 
L 139.356841 -120.38269 
L 139.793012 -118.435705 
L 140.026462 -116.48872 
L 139.968575 -114.541735 
L 139.658225 -112.59475 
L 139.242571 -110.647766 
L 138.892749 -108.700781 
L 138.719955 -106.753796 
L 138.742345 -104.806811 
L 138.90527 -102.859826 
L 139.130322 -100.912841 
L 139.369053 -98.965857 
L 139.637669 -97.018872 
L 140.005792 -95.071887 
L 140.532091 -93.124902 
L 141.187354 -91.177917 
L 141.836464 -89.230933 
L 142.314652 -87.283948 
L 142.547549 -85.336963 
L 142.614616 -83.389978 
L 142.701904 -81.442993 
L 142.988991 -79.496008 
L 143.567625 -77.549024 
L 144.461395 -75.602039 
L 145.758881 -73.655054 
L 147.825473 -71.708069 
L 151.479105 -69.761084 
L 157.881948 -67.814099 
L 167.881644 -65.867115 
L 180.904815 -63.92013 
L 194.184338 -61.973145 
L 203.365586 -60.02616 
L 204.66 -58.079175 
L 197.181448 -56.132191 
L 183.568861 -54.185206 
L 168.349493 -52.238221 
L 155.42787 -50.291236 
L 146.570849 -48.344251 
z
" style="stroke: #7a7a7a; stroke-width: 1.5"/>
    </defs>
    <g clip-path="url(#p2a14c0e923)">
     <use xlink:href="#mfc45612802" x="0" y="288" style="fill: #f1bcb8; stroke: #7a7a7a; stroke-width: 1.5"/>
    </g>
   </g>
   <g id="PolyCollection_2">
    <defs>
     <path id="m0f7a3e9cc6" d="M 311.882731 -45.883636 
L 298.317269 -45.883636 
L 292.953303 -47.880331 
L 285.396031 -49.877025 
L 276.13871 -51.873719 
L 266.512107 -53.870413 
L 258.458015 -55.867107 
L 253.892775 -57.863802 
L 253.929879 -59.860496 
L 258.393492 -61.85719 
L 265.919089 -63.853884 
L 274.575263 -65.850579 
L 282.629612 -67.847273 
L 289.052757 -69.843967 
L 293.589941 -71.840661 
L 296.51093 -73.837355 
L 298.276858 -75.83405 
L 299.307619 -77.830744 
L 299.900118 -79.827438 
L 300.247973 -81.824132 
L 300.487776 -83.820826 
L 300.724088 -85.817521 
L 301.026073 -87.814215 
L 301.415269 -89.810909 
L 301.866598 -91.807603 
L 302.329006 -93.804298 
L 302.75376 -95.800992 
L 303.112221 -97.797686 
L 303.39423 -99.79438 
L 303.593593 -101.791074 
L 303.695949 -103.787769 
L 303.681058 -105.784463 
L 303.540063 -107.781157 
L 303.296647 -109.777851 
L 303.016111 -111.774545 
L 302.791581 -113.77124 
L 302.710216 -115.767934 
L 302.816372 -117.764628 
L 303.092849 -119.761322 
L 303.470726 -121.758017 
L 303.860164 -123.754711 
L 304.182698 -125.751405 
L 304.388427 -127.748099 
L 304.455042 -129.744793 
L 304.37805 -131.741488 
L 304.164481 -133.738182 
L 303.835941 -135.734876 
L 303.437158 -137.73157 
L 303.039845 -139.728264 
L 302.732555 -141.724959 
L 302.595531 -143.721653 
L 302.670782 -145.718347 
L 302.94384 -147.715041 
L 303.34881 -149.711736 
L 303.794581 -151.70843 
L 304.197389 -153.705124 
L 304.502764 -155.701818 
L 304.688979 -157.698512 
L 304.756476 -159.695207 
L 304.714698 -161.691901 
L 304.576139 -163.688595 
L 304.360094 -165.685289 
L 304.100573 -167.681983 
L 303.84901 -169.678678 
L 303.665134 -171.675372 
L 303.597743 -173.672066 
L 303.665433 -175.66876 
L 303.84908 -177.665455 
L 304.100852 -179.662149 
L 304.364128 -181.658843 
L 304.592764 -183.655537 
L 304.760701 -185.652231 
L 304.860527 -187.648926 
L 304.896137 -189.64562 
L 304.876127 -191.642314 
L 304.811665 -193.639008 
L 304.718155 -195.635702 
L 304.616971 -197.632397 
L 304.533434 -199.629091 
L 304.490104 -201.625785 
L 304.498338 -203.622479 
L 304.553059 -205.619174 
L 304.633826 -207.615868 
L 304.710808 -209.612562 
L 304.750564 -211.609256 
L 304.716892 -213.60595 
L 304.566655 -215.602645 
L 304.246961 -217.599339 
L 303.703849 -219.596033 
L 302.909101 -221.592727 
L 301.899187 -223.589421 
L 300.804205 -225.586116 
L 299.838261 -227.58281 
L 299.238339 -229.579504 
L 299.172248 -231.576198 
L 299.664186 -233.572893 
L 300.582815 -235.569587 
L 301.699562 -237.566281 
L 302.781725 -239.562975 
L 303.668816 -241.559669 
L 304.300006 -243.556364 
L 305.899994 -243.556364 
L 305.899994 -243.556364 
L 306.531184 -241.559669 
L 307.418275 -239.562975 
L 308.500438 -237.566281 
L 309.617185 -235.569587 
L 310.535814 -233.572893 
L 311.027752 -231.576198 
L 310.961661 -229.579504 
L 310.361739 -227.58281 
L 309.395795 -225.586116 
L 308.300813 -223.589421 
L 307.290899 -221.592727 
L 306.496151 -219.596033 
L 305.953039 -217.599339 
L 305.633345 -215.602645 
L 305.483108 -213.60595 
L 305.449436 -211.609256 
L 305.489192 -209.612562 
L 305.566174 -207.615868 
L 305.646941 -205.619174 
L 305.701662 -203.622479 
L 305.709896 -201.625785 
L 305.666566 -199.629091 
L 305.583029 -197.632397 
L 305.481845 -195.635702 
L 305.388335 -193.639008 
L 305.323873 -191.642314 
L 305.303863 -189.64562 
L 305.339473 -187.648926 
L 305.439299 -185.652231 
L 305.607236 -183.655537 
L 305.835872 -181.658843 
L 306.099148 -179.662149 
L 306.35092 -177.665455 
L 306.534567 -175.66876 
L 306.602257 -173.672066 
L 306.534866 -171.675372 
L 306.35099 -169.678678 
L 306.099427 -167.681983 
L 305.839906 -165.685289 
L 305.623861 -163.688595 
L 305.485302 -161.691901 
L 305.443524 -159.695207 
L 305.511021 -157.698512 
L 305.697236 -155.701818 
L 306.002611 -153.705124 
L 306.405419 -151.70843 
L 306.85119 -149.711736 
L 307.25616 -147.715041 
L 307.529218 -145.718347 
L 307.604469 -143.721653 
L 307.467445 -141.724959 
L 307.160155 -139.728264 
L 306.762842 -137.73157 
L 306.364059 -135.734876 
L 306.035519 -133.738182 
L 305.82195 -131.741488 
L 305.744958 -129.744793 
L 305.811573 -127.748099 
L 306.017302 -125.751405 
L 306.339836 -123.754711 
L 306.729274 -121.758017 
L 307.107151 -119.761322 
L 307.383628 -117.764628 
L 307.489784 -115.767934 
L 307.408419 -113.77124 
L 307.183889 -111.774545 
L 306.903353 -109.777851 
L 306.659937 -107.781157 
L 306.518942 -105.784463 
L 306.504051 -103.787769 
L 306.606407 -101.791074 
L 306.80577 -99.79438 
L 307.087779 -97.797686 
L 307.44624 -95.800992 
L 307.870994 -93.804298 
L 308.333402 -91.807603 
L 308.784731 -89.810909 
L 309.173927 -87.814215 
L 309.475912 -85.817521 
L 309.712224 -83.820826 
L 309.952027 -81.824132 
L 310.299882 -79.827438 
L 310.892381 -77.830744 
L 311.923142 -75.83405 
L 313.68907 -73.837355 
L 316.610059 -71.840661 
L 321.147243 -69.843967 
L 327.570388 -67.847273 
L 335.624737 -65.850579 
L 344.280911 -63.853884 
L 351.806508 -61.85719 
L 356.270121 -59.860496 
L 356.307225 -57.863802 
L 351.741985 -55.867107 
L 343.687893 -53.870413 
L 334.06129 -51.873719 
L 324.803969 -49.877025 
L 317.246697 -47.880331 
L 311.882731 -45.883636 
z
" style="stroke: #7a7a7a; stroke-width: 1.5"/>
    </defs>
    <g clip-path="url(#p2a14c0e923)">
     <use xlink:href="#m0f7a3e9cc6" x="0" y="288" style="fill: #b9ccdd; stroke: #7a7a7a; stroke-width: 1.5"/>
    </g>
   </g>
   <g id="matplotlib.axis_1">
    <g id="xtick_1">
     <g id="line2d_1">
      <defs>
       <path id="mb35e28ea67" d="M 0 0 
L 0 3.5 
" style="stroke: #000000; stroke-width: 0.8"/>
      </defs>
      <g>
       <use xlink:href="#mb35e28ea67" x="137.7" y="252" style="stroke: #000000; stroke-width: 0.8"/>
      </g>
     </g>
     <g id="text_1">
      <!-- 0.0 -->
      <g transform="translate(129.748437 266.598437)scale(0.1 -0.1)">
       <defs>
        <path id="DejaVuSans-30" d="M 2034 4250 
Q 1547 4250 1301 3770 
Q 1056 3291 1056 2328 
Q 1056 1369 1301 889 
Q 1547 409 2034 409 
Q 2525 409 2770 889 
Q 3016 1369 3016 2328 
Q 3016 3291 2770 3770 
Q 2525 4250 2034 4250 
z
M 2034 4750 
Q 2819 4750 3233 4129 
Q 3647 3509 3647 2328 
Q 3647 1150 3233 529 
Q 2819 -91 2034 -91 
Q 1250 -91 836 529 
Q 422 1150 422 2328 
Q 422 3509 836 4129 
Q 1250 4750 2034 4750 
z
" transform="scale(0.015625)"/>
        <path id="DejaVuSans-2e" d="M 684 794 
L 1344 794 
L 1344 0 
L 684 0 
L 684 794 
z
" transform="scale(0.015625)"/>
       </defs>
       <use xlink:href="#DejaVuSans-30"/>
       <use xlink:href="#DejaVuSans-2e" x="63.623047"/>
       <use xlink:href="#DejaVuSans-30" x="95.410156"/>
      </g>
     </g>
    </g>
    <g id="xtick_2">
     <g id="line2d_2">
      <g>
       <use xlink:href="#mb35e28ea67" x="305.1" y="252" style="stroke: #000000; stroke-width: 0.8"/>
      </g>
     </g>
     <g id="text_2">
      <!-- 1.0 -->
      <g transform="translate(297.148438 266.598437)scale(0.1 -0.1)">
       <defs>
        <path id="DejaVuSans-31" d="M 794 531 
L 1825 531 
L 1825 4091 
L 703 3866 
L 703 4441 
L 1819 4666 
L 2450 4666 
L 2450 531 
L 3481 531 
L 3481 0 
L 794 0 
L 794 531 
z
" transform="scale(0.015625)"/>
       </defs>
       <use xlink:href="#DejaVuSans-31"/>
       <use xlink:href="#DejaVuSans-2e" x="63.623047"/>
       <use xlink:href="#DejaVuSans-30" x="95.410156"/>
      </g>
     </g>
    </g>
    <g id="text_3">
     <!-- Diabetes_binary -->
     <g transform="translate(180.89375 280.276563)scale(0.1 -0.1)">
      <defs>
       <path id="DejaVuSans-44" d="M 1259 4147 
L 1259 519 
L 2022 519 
Q 2988 519 3436 956 
Q 3884 1394 3884 2338 
Q 3884 3275 3436 3711 
Q 2988 4147 2022 4147 
L 1259 4147 
z
M 628 4666 
L 1925 4666 
Q 3281 4666 3915 4102 
Q 4550 3538 4550 2338 
Q 4550 1131 3912 565 
Q 3275 0 1925 0 
L 628 0 
L 628 4666 
z
" transform="scale(0.015625)"/>
       <path id="DejaVuSans-69" d="M 603 3500 
L 1178 3500 
L 1178 0 
L 603 0 
L 603 3500 
z
M 603 4863 
L 1178 4863 
L 1178 4134 
L 603 4134 
L 603 4863 
z
" transform="scale(0.015625)"/>
       <path id="DejaVuSans-61" d="M 2194 1759 
Q 1497 1759 1228 1600 
Q 959 1441 959 1056 
Q 959 750 1161 570 
Q 1363 391 1709 391 
Q 2188 391 2477 730 
Q 2766 1069 2766 1631 
L 2766 1759 
L 2194 1759 
z
M 3341 1997 
L 3341 0 
L 2766 0 
L 2766 531 
Q 2569 213 2275 61 
Q 1981 -91 1556 -91 
Q 1019 -91 701 211 
Q 384 513 384 1019 
Q 384 1609 779 1909 
Q 1175 2209 1959 2209 
L 2766 2209 
L 2766 2266 
Q 2766 2663 2505 2880 
Q 2244 3097 1772 3097 
Q 1472 3097 1187 3025 
Q 903 2953 641 2809 
L 641 3341 
Q 956 3463 1253 3523 
Q 1550 3584 1831 3584 
Q 2591 3584 2966 3190 
Q 3341 2797 3341 1997 
z
" transform="scale(0.015625)"/>
       <path id="DejaVuSans-62" d="M 3116 1747 
Q 3116 2381 2855 2742 
Q 2594 3103 2138 3103 
Q 1681 3103 1420 2742 
Q 1159 2381 1159 1747 
Q 1159 1113 1420 752 
Q 1681 391 2138 391 
Q 2594 391 2855 752 
Q 3116 1113 3116 1747 
z
M 1159 2969 
Q 1341 3281 1617 3432 
Q 1894 3584 2278 3584 
Q 2916 3584 3314 3078 
Q 3713 2572 3713 1747 
Q 3713 922 3314 415 
Q 2916 -91 2278 -91 
Q 1894 -91 1617 61 
Q 1341 213 1159 525 
L 1159 0 
L 581 0 
L 581 4863 
L 1159 4863 
L 1159 2969 
z
" transform="scale(0.015625)"/>
       <path id="DejaVuSans-65" d="M 3597 1894 
L 3597 1613 
L 953 1613 
Q 991 1019 1311 708 
Q 1631 397 2203 397 
Q 2534 397 2845 478 
Q 3156 559 3463 722 
L 3463 178 
Q 3153 47 2828 -22 
Q 2503 -91 2169 -91 
Q 1331 -91 842 396 
Q 353 884 353 1716 
Q 353 2575 817 3079 
Q 1281 3584 2069 3584 
Q 2775 3584 3186 3129 
Q 3597 2675 3597 1894 
z
M 3022 2063 
Q 3016 2534 2758 2815 
Q 2500 3097 2075 3097 
Q 1594 3097 1305 2825 
Q 1016 2553 972 2059 
L 3022 2063 
z
" transform="scale(0.015625)"/>
       <path id="DejaVuSans-74" d="M 1172 4494 
L 1172 3500 
L 2356 3500 
L 2356 3053 
L 1172 3053 
L 1172 1153 
Q 1172 725 1289 603 
Q 1406 481 1766 481 
L 2356 481 
L 2356 0 
L 1766 0 
Q 1100 0 847 248 
Q 594 497 594 1153 
L 594 3053 
L 172 3053 
L 172 3500 
L 594 3500 
L 594 4494 
L 1172 4494 
z
" transform="scale(0.015625)"/>
       <path id="DejaVuSans-73" d="M 2834 3397 
L 2834 2853 
Q 2591 2978 2328 3040 
Q 2066 3103 1784 3103 
Q 1356 3103 1142 2972 
Q 928 2841 928 2578 
Q 928 2378 1081 2264 
Q 1234 2150 1697 2047 
L 1894 2003 
Q 2506 1872 2764 1633 
Q 3022 1394 3022 966 
Q 3022 478 2636 193 
Q 2250 -91 1575 -91 
Q 1294 -91 989 -36 
Q 684 19 347 128 
L 347 722 
Q 666 556 975 473 
Q 1284 391 1588 391 
Q 1994 391 2212 530 
Q 2431 669 2431 922 
Q 2431 1156 2273 1281 
Q 2116 1406 1581 1522 
L 1381 1569 
Q 847 1681 609 1914 
Q 372 2147 372 2553 
Q 372 3047 722 3315 
Q 1072 3584 1716 3584 
Q 2034 3584 2315 3537 
Q 2597 3491 2834 3397 
z
" transform="scale(0.015625)"/>
       <path id="DejaVuSans-5f" d="M 3263 -1063 
L 3263 -1509 
L -63 -1509 
L -63 -1063 
L 3263 -1063 
z
" transform="scale(0.015625)"/>
       <path id="DejaVuSans-6e" d="M 3513 2113 
L 3513 0 
L 2938 0 
L 2938 2094 
Q 2938 2591 2744 2837 
Q 2550 3084 2163 3084 
Q 1697 3084 1428 2787 
Q 1159 2491 1159 1978 
L 1159 0 
L 581 0 
L 581 3500 
L 1159 3500 
L 1159 2956 
Q 1366 3272 1645 3428 
Q 1925 3584 2291 3584 
Q 2894 3584 3203 3211 
Q 3513 2838 3513 2113 
z
" transform="scale(0.015625)"/>
       <path id="DejaVuSans-72" d="M 2631 2963 
Q 2534 3019 2420 3045 
Q 2306 3072 2169 3072 
Q 1681 3072 1420 2755 
Q 1159 2438 1159 1844 
L 1159 0 
L 581 0 
L 581 3500 
L 1159 3500 
L 1159 2956 
Q 1341 3275 1631 3429 
Q 1922 3584 2338 3584 
Q 2397 3584 2469 3576 
Q 2541 3569 2628 3553 
L 2631 2963 
z
" transform="scale(0.015625)"/>
       <path id="DejaVuSans-79" d="M 2059 -325 
Q 1816 -950 1584 -1140 
Q 1353 -1331 966 -1331 
L 506 -1331 
L 506 -850 
L 844 -850 
Q 1081 -850 1212 -737 
Q 1344 -625 1503 -206 
L 1606 56 
L 191 3500 
L 800 3500 
L 1894 763 
L 2988 3500 
L 3597 3500 
L 2059 -325 
z
" transform="scale(0.015625)"/>
      </defs>
      <use xlink:href="#DejaVuSans-44"/>
      <use xlink:href="#DejaVuSans-69" x="77.001953"/>
      <use xlink:href="#DejaVuSans-61" x="104.785156"/>
      <use xlink:href="#DejaVuSans-62" x="166.064453"/>
      <use xlink:href="#DejaVuSans-65" x="229.541016"/>
      <use xlink:href="#DejaVuSans-74" x="291.064453"/>
      <use xlink:href="#DejaVuSans-65" x="330.273438"/>
      <use xlink:href="#DejaVuSans-73" x="391.796875"/>
      <use xlink:href="#DejaVuSans-5f" x="443.896484"/>
      <use xlink:href="#DejaVuSans-62" x="493.896484"/>
      <use xlink:href="#DejaVuSans-69" x="557.373047"/>
      <use xlink:href="#DejaVuSans-6e" x="585.15625"/>
      <use xlink:href="#DejaVuSans-61" x="648.535156"/>
      <use xlink:href="#DejaVuSans-72" x="709.814453"/>
      <use xlink:href="#DejaVuSans-79" x="750.927734"/>
     </g>
    </g>
   </g>
   <g id="matplotlib.axis_2">
    <g id="ytick_1">
     <g id="line2d_3">
      <defs>
       <path id="m35baa27e7f" d="M 0 0 
L -3.5 0 
" style="stroke: #000000; stroke-width: 0.8"/>
      </defs>
      <g>
       <use xlink:href="#m35baa27e7f" x="54" y="229.457955" style="stroke: #000000; stroke-width: 0.8"/>
      </g>
     </g>
     <g id="text_4">
      <!-- 0 -->
      <g transform="translate(40.6375 233.257173)scale(0.1 -0.1)">
       <use xlink:href="#DejaVuSans-30"/>
      </g>
     </g>
    </g>
    <g id="ytick_2">
     <g id="line2d_4">
      <g>
       <use xlink:href="#m35baa27e7f" x="54" y="200.73197" style="stroke: #000000; stroke-width: 0.8"/>
      </g>
     </g>
     <g id="text_5">
      <!-- 5 -->
      <g transform="translate(40.6375 204.531188)scale(0.1 -0.1)">
       <defs>
        <path id="DejaVuSans-35" d="M 691 4666 
L 3169 4666 
L 3169 4134 
L 1269 4134 
L 1269 2991 
Q 1406 3038 1543 3061 
Q 1681 3084 1819 3084 
Q 2600 3084 3056 2656 
Q 3513 2228 3513 1497 
Q 3513 744 3044 326 
Q 2575 -91 1722 -91 
Q 1428 -91 1123 -41 
Q 819 9 494 109 
L 494 744 
Q 775 591 1075 516 
Q 1375 441 1709 441 
Q 2250 441 2565 725 
Q 2881 1009 2881 1497 
Q 2881 1984 2565 2268 
Q 2250 2553 1709 2553 
Q 1456 2553 1204 2497 
Q 953 2441 691 2322 
L 691 4666 
z
" transform="scale(0.015625)"/>
       </defs>
       <use xlink:href="#DejaVuSans-35"/>
      </g>
     </g>
    </g>
    <g id="ytick_3">
     <g id="line2d_5">
      <g>
       <use xlink:href="#m35baa27e7f" x="54" y="172.005985" style="stroke: #000000; stroke-width: 0.8"/>
      </g>
     </g>
     <g id="text_6">
      <!-- 10 -->
      <g transform="translate(34.275 175.805204)scale(0.1 -0.1)">
       <use xlink:href="#DejaVuSans-31"/>
       <use xlink:href="#DejaVuSans-30" x="63.623047"/>
      </g>
     </g>
    </g>
    <g id="ytick_4">
     <g id="line2d_6">
      <g>
       <use xlink:href="#m35baa27e7f" x="54" y="143.28" style="stroke: #000000; stroke-width: 0.8"/>
      </g>
     </g>
     <g id="text_7">
      <!-- 15 -->
      <g transform="translate(34.275 147.079219)scale(0.1 -0.1)">
       <use xlink:href="#DejaVuSans-31"/>
       <use xlink:href="#DejaVuSans-35" x="63.623047"/>
      </g>
     </g>
    </g>
    <g id="ytick_5">
     <g id="line2d_7">
      <g>
       <use xlink:href="#m35baa27e7f" x="54" y="114.554015" style="stroke: #000000; stroke-width: 0.8"/>
      </g>
     </g>
     <g id="text_8">
      <!-- 20 -->
      <g transform="translate(34.275 118.353234)scale(0.1 -0.1)">
       <defs>
        <path id="DejaVuSans-32" d="M 1228 531 
L 3431 531 
L 3431 0 
L 469 0 
L 469 531 
Q 828 903 1448 1529 
Q 2069 2156 2228 2338 
Q 2531 2678 2651 2914 
Q 2772 3150 2772 3378 
Q 2772 3750 2511 3984 
Q 2250 4219 1831 4219 
Q 1534 4219 1204 4116 
Q 875 4013 500 3803 
L 500 4441 
Q 881 4594 1212 4672 
Q 1544 4750 1819 4750 
Q 2544 4750 2975 4387 
Q 3406 4025 3406 3419 
Q 3406 3131 3298 2873 
Q 3191 2616 2906 2266 
Q 2828 2175 2409 1742 
Q 1991 1309 1228 531 
z
" transform="scale(0.015625)"/>
       </defs>
       <use xlink:href="#DejaVuSans-32"/>
       <use xlink:href="#DejaVuSans-30" x="63.623047"/>
      </g>
     </g>
    </g>
    <g id="ytick_6">
     <g id="line2d_8">
      <g>
       <use xlink:href="#m35baa27e7f" x="54" y="85.82803" style="stroke: #000000; stroke-width: 0.8"/>
      </g>
     </g>
     <g id="text_9">
      <!-- 25 -->
      <g transform="translate(34.275 89.627249)scale(0.1 -0.1)">
       <use xlink:href="#DejaVuSans-32"/>
       <use xlink:href="#DejaVuSans-35" x="63.623047"/>
      </g>
     </g>
    </g>
    <g id="ytick_7">
     <g id="line2d_9">
      <g>
       <use xlink:href="#m35baa27e7f" x="54" y="57.102045" style="stroke: #000000; stroke-width: 0.8"/>
      </g>
     </g>
     <g id="text_10">
      <!-- 30 -->
      <g transform="translate(34.275 60.901264)scale(0.1 -0.1)">
       <defs>
        <path id="DejaVuSans-33" d="M 2597 2516 
Q 3050 2419 3304 2112 
Q 3559 1806 3559 1356 
Q 3559 666 3084 287 
Q 2609 -91 1734 -91 
Q 1441 -91 1130 -33 
Q 819 25 488 141 
L 488 750 
Q 750 597 1062 519 
Q 1375 441 1716 441 
Q 2309 441 2620 675 
Q 2931 909 2931 1356 
Q 2931 1769 2642 2001 
Q 2353 2234 1838 2234 
L 1294 2234 
L 1294 2753 
L 1863 2753 
Q 2328 2753 2575 2939 
Q 2822 3125 2822 3475 
Q 2822 3834 2567 4026 
Q 2313 4219 1838 4219 
Q 1578 4219 1281 4162 
Q 984 4106 628 3988 
L 628 4550 
Q 988 4650 1302 4700 
Q 1616 4750 1894 4750 
Q 2613 4750 3031 4423 
Q 3450 4097 3450 3541 
Q 3450 3153 3228 2886 
Q 3006 2619 2597 2516 
z
" transform="scale(0.015625)"/>
       </defs>
       <use xlink:href="#DejaVuSans-33"/>
       <use xlink:href="#DejaVuSans-30" x="63.623047"/>
      </g>
     </g>
    </g>
    <g id="text_11">
     <!-- MentHlth -->
     <g transform="translate(28.195312 166.077656)rotate(-90)scale(0.1 -0.1)">
      <defs>
       <path id="DejaVuSans-4d" d="M 628 4666 
L 1569 4666 
L 2759 1491 
L 3956 4666 
L 4897 4666 
L 4897 0 
L 4281 0 
L 4281 4097 
L 3078 897 
L 2444 897 
L 1241 4097 
L 1241 0 
L 628 0 
L 628 4666 
z
" transform="scale(0.015625)"/>
       <path id="DejaVuSans-48" d="M 628 4666 
L 1259 4666 
L 1259 2753 
L 3553 2753 
L 3553 4666 
L 4184 4666 
L 4184 0 
L 3553 0 
L 3553 2222 
L 1259 2222 
L 1259 0 
L 628 0 
L 628 4666 
z
" transform="scale(0.015625)"/>
       <path id="DejaVuSans-6c" d="M 603 4863 
L 1178 4863 
L 1178 0 
L 603 0 
L 603 4863 
z
" transform="scale(0.015625)"/>
       <path id="DejaVuSans-68" d="M 3513 2113 
L 3513 0 
L 2938 0 
L 2938 2094 
Q 2938 2591 2744 2837 
Q 2550 3084 2163 3084 
Q 1697 3084 1428 2787 
Q 1159 2491 1159 1978 
L 1159 0 
L 581 0 
L 581 4863 
L 1159 4863 
L 1159 2956 
Q 1366 3272 1645 3428 
Q 1925 3584 2291 3584 
Q 2894 3584 3203 3211 
Q 3513 2838 3513 2113 
z
" transform="scale(0.015625)"/>
      </defs>
      <use xlink:href="#DejaVuSans-4d"/>
      <use xlink:href="#DejaVuSans-65" x="86.279297"/>
      <use xlink:href="#DejaVuSans-6e" x="147.802734"/>
      <use xlink:href="#DejaVuSans-74" x="211.181641"/>
      <use xlink:href="#DejaVuSans-48" x="250.390625"/>
      <use xlink:href="#DejaVuSans-6c" x="325.585938"/>
      <use xlink:href="#DejaVuSans-74" x="353.369141"/>
      <use xlink:href="#DejaVuSans-68" x="392.578125"/>
     </g>
    </g>
   </g>
   <g id="line2d_10">
    <path d="M 137.7 229.457955 
L 137.7 200.73197 
" clip-path="url(#p2a14c0e923)" style="fill: none; stroke: #7a7a7a; stroke-width: 1.5; stroke-linecap: square"/>
   </g>
   <g id="line2d_11">
    <path d="M 137.7 229.457955 
L 137.7 217.967561 
" clip-path="url(#p2a14c0e923)" style="fill: none; stroke: #7a7a7a; stroke-width: 4.5; stroke-linecap: square"/>
   </g>
   <g id="line2d_12">
    <path d="M 305.1 229.457955 
L 305.1 189.241576 
" clip-path="url(#p2a14c0e923)" style="fill: none; stroke: #7a7a7a; stroke-width: 1.5; stroke-linecap: square"/>
   </g>
   <g id="line2d_13">
    <path d="M 305.1 229.457955 
L 305.1 212.222364 
" clip-path="url(#p2a14c0e923)" style="fill: none; stroke: #7a7a7a; stroke-width: 4.5; stroke-linecap: square"/>
   </g>
   <g id="patch_3">
    <path d="M 54 252 
L 54 34.56 
" style="fill: none; stroke: #000000; stroke-width: 0.8; stroke-linejoin: miter; stroke-linecap: square"/>
   </g>
   <g id="patch_4">
    <path d="M 388.8 252 
L 388.8 34.56 
" style="fill: none; stroke: #000000; stroke-width: 0.8; stroke-linejoin: miter; stroke-linecap: square"/>
   </g>
   <g id="patch_5">
    <path d="M 54 252 
L 388.8 252 
" style="fill: none; stroke: #000000; stroke-width: 0.8; stroke-linejoin: miter; stroke-linecap: square"/>
   </g>
   <g id="patch_6">
    <path d="M 54 34.56 
L 388.8 34.56 
" style="fill: none; stroke: #000000; stroke-width: 0.8; stroke-linejoin: miter; stroke-linecap: square"/>
   </g>
   <g id="PathCollection_1">
    <defs>
     <path id="m023b2cea3f" d="M 0 1.5 
C 0.397805 1.5 0.77937 1.341951 1.06066 1.06066 
C 1.341951 0.77937 1.5 0.397805 1.5 0 
C 1.5 -0.397805 1.341951 -0.77937 1.06066 -1.06066 
C 0.77937 -1.341951 0.397805 -1.5 0 -1.5 
C -0.397805 -1.5 -0.77937 -1.341951 -1.06066 -1.06066 
C -1.341951 -0.77937 -1.5 -0.397805 -1.5 0 
C -1.5 0.397805 -1.341951 0.77937 -1.06066 1.06066 
C -0.77937 1.341951 -0.397805 1.5 0 1.5 
z
" style="stroke: #7a7a7a"/>
    </defs>
    <g clip-path="url(#p2a14c0e923)">
     <use xlink:href="#m023b2cea3f" x="137.7" y="229.457955" style="fill: #ffffff; stroke: #7a7a7a"/>
    </g>
   </g>
   <g id="PathCollection_2">
    <g clip-path="url(#p2a14c0e923)">
     <use xlink:href="#m023b2cea3f" x="305.1" y="229.457955" style="fill: #ffffff; stroke: #7a7a7a"/>
    </g>
   </g>
  </g>
 </g>
 <defs>
  <clipPath id="p2a14c0e923">
   <rect x="54" y="34.56" width="334.8" height="217.44"/>
  </clipPath>
 </defs>
</svg>
