<?xml version="1.0" encoding="utf-8" standalone="no"?>
<!DOCTYPE svg PUBLIC "-//W3C//DTD SVG 1.1//EN"
  "http://www.w3.org/Graphics/SVG/1.1/DTD/svg11.dtd">
<svg xmlns:xlink="http://www.w3.org/1999/xlink" width="432pt" height="288pt" viewBox="0 0 432 288" xmlns="http://www.w3.org/2000/svg" version="1.1">
 <metadata>
  <rdf:RDF xmlns:dc="http://purl.org/dc/elements/1.1/" xmlns:cc="http://creativecommons.org/ns#" xmlns:rdf="http://www.w3.org/1999/02/22-rdf-syntax-ns#">
   <cc:Work>
    <dc:type rdf:resource="http://purl.org/dc/dcmitype/StillImage"/>
    <dc:date>2023-05-03T02:46:52.785876</dc:date>
    <dc:format>image/svg+xml</dc:format>
    <dc:creator>
     <cc:Agent>
      <dc:title>Matplotlib v3.5.3, https://matplotlib.org/</dc:title>
     </cc:Agent>
    </dc:creator>
   </cc:Work>
  </rdf:RDF>
 </metadata>
 <defs>
  <style type="text/css">*{stroke-linejoin: round; stroke-linecap: butt}</style>
 </defs>
 <g id="figure_1">
  <g id="patch_1">
   <path d="M 0 288 
L 432 288 
L 432 0 
L 0 0 
L 0 288 
z
" style="fill: none"/>
  </g>
  <g id="axes_1">
   <g id="patch_2">
    <path d="M 54 252 
L 388.8 252 
L 388.8 34.56 
L 54 34.56 
z
" style="fill: #ffffff"/>
   </g>
   <g id="PolyCollection_1">
    <defs>
     <path id="mdfdd701fdf" d="M 140.337025 -48.456782 
L 135.062975 -48.456782 
L 133.58093 -50.401493 
L 131.617485 -52.346205 
L 129.208856 -54.290916 
L 126.49406 -56.235628 
L 123.719285 -58.180339 
L 121.210422 -60.125051 
L 119.313939 -62.069762 
L 118.319413 -64.014474 
L 118.387248 -65.959185 
L 119.506324 -67.903897 
L 121.496988 -69.848608 
L 124.058249 -71.79332 
L 126.842158 -73.738031 
L 129.530115 -75.682743 
L 131.888511 -77.627454 
L 133.79197 -79.572166 
L 135.215566 -81.516877 
L 136.206876 -83.461589 
L 136.851672 -85.4063 
L 137.244351 -87.351011 
L 137.468636 -89.295723 
L 137.588939 -91.240434 
L 137.649601 -93.185146 
L 137.678378 -95.129857 
L 137.691231 -97.074569 
L 137.696638 -99.01928 
L 137.698781 -100.963992 
L 137.699582 -102.908703 
L 137.699865 -104.853415 
L 137.699959 -106.798126 
L 137.699988 -108.742838 
L 137.699997 -110.687549 
L 137.699999 -112.632261 
L 137.7 -114.576972 
L 137.7 -116.521684 
L 137.7 -118.466395 
L 137.7 -120.411107 
L 137.7 -122.355818 
L 137.7 -124.30053 
L 137.7 -126.245241 
L 137.7 -128.189952 
L 137.7 -130.134664 
L 137.7 -132.079375 
L 137.7 -134.024087 
L 137.7 -135.968798 
L 137.7 -137.91351 
L 137.7 -139.858221 
L 137.7 -141.802933 
L 137.7 -143.747644 
L 137.7 -145.692356 
L 137.7 -147.637067 
L 137.7 -149.581779 
L 137.7 -151.52649 
L 137.7 -153.471202 
L 137.7 -155.415913 
L 137.7 -157.360625 
L 137.7 -159.305336 
L 137.7 -161.250048 
L 137.7 -163.194759 
L 137.7 -165.13947 
L 137.7 -167.084182 
L 137.7 -169.028893 
L 137.7 -170.973605 
L 137.7 -172.918316 
L 137.699999 -174.863028 
L 137.699997 -176.807739 
L 137.699989 -178.752451 
L 137.699959 -180.697162 
L 137.699857 -182.641874 
L 137.699533 -184.586585 
L 137.698557 -186.531297 
L 137.69579 -188.476008 
L 137.688384 -190.42072 
L 137.669703 -192.365431 
L 137.625297 -194.310143 
L 137.52587 -196.254854 
L 137.316285 -198.199566 
L 136.900636 -200.144277 
L 136.125732 -202.088989 
L 134.769025 -204.0337 
L 132.54125 -205.978411 
L 129.116272 -207.923123 
L 124.197742 -209.867834 
L 117.621285 -211.812546 
L 109.473017 -213.757257 
L 100.186116 -215.701969 
L 90.567699 -217.64668 
L 81.718531 -219.591392 
L 74.840782 -221.536103 
L 70.974369 -223.480815 
L 70.74 -225.425526 
L 74.176088 -227.370238 
L 80.728447 -229.314949 
L 89.396576 -231.259661 
L 98.983436 -233.204372 
L 108.363065 -235.149084 
L 116.684888 -237.093795 
L 123.468597 -239.038507 
L 128.589069 -240.983218 
L 146.810931 -240.983218 
L 146.810931 -240.983218 
L 151.931403 -239.038507 
L 158.715112 -237.093795 
L 167.036935 -235.149084 
L 176.416564 -233.204372 
L 186.003424 -231.259661 
L 194.671553 -229.314949 
L 201.223912 -227.370238 
L 204.66 -225.425526 
L 204.425631 -223.480815 
L 200.559218 -221.536103 
L 193.681469 -219.591392 
L 184.832301 -217.64668 
L 175.213884 -215.701969 
L 165.926983 -213.757257 
L 157.778715 -211.812546 
L 151.202258 -209.867834 
L 146.283728 -207.923123 
L 142.85875 -205.978411 
L 140.630975 -204.0337 
L 139.274268 -202.088989 
L 138.499364 -200.144277 
L 138.083715 -198.199566 
L 137.87413 -196.254854 
L 137.774703 -194.310143 
L 137.730297 -192.365431 
L 137.711616 -190.42072 
L 137.70421 -188.476008 
L 137.701443 -186.531297 
L 137.700467 -184.586585 
L 137.700143 -182.641874 
L 137.700041 -180.697162 
L 137.700011 -178.752451 
L 137.700003 -176.807739 
L 137.700001 -174.863028 
L 137.7 -172.918316 
L 137.7 -170.973605 
L 137.7 -169.028893 
L 137.7 -167.084182 
L 137.7 -165.13947 
L 137.7 -163.194759 
L 137.7 -161.250048 
L 137.7 -159.305336 
L 137.7 -157.360625 
L 137.7 -155.415913 
L 137.7 -153.471202 
L 137.7 -151.52649 
L 137.7 -149.581779 
L 137.7 -147.637067 
L 137.7 -145.692356 
L 137.7 -143.747644 
L 137.7 -141.802933 
L 137.7 -139.858221 
L 137.7 -137.91351 
L 137.7 -135.968798 
L 137.7 -134.024087 
L 137.7 -132.079375 
L 137.7 -130.134664 
L 137.7 -128.189952 
L 137.7 -126.245241 
L 137.7 -124.30053 
L 137.7 -122.355818 
L 137.7 -120.411107 
L 137.7 -118.466395 
L 137.7 -116.521684 
L 137.7 -114.576972 
L 137.700001 -112.632261 
L 137.700003 -110.687549 
L 137.700012 -108.742838 
L 137.700041 -106.798126 
L 137.700135 -104.853415 
L 137.700418 -102.908703 
L 137.701219 -100.963992 
L 137.703362 -99.01928 
L 137.708769 -97.074569 
L 137.721622 -95.129857 
L 137.750399 -93.185146 
L 137.811061 -91.240434 
L 137.931364 -89.295723 
L 138.155649 -87.351011 
L 138.548328 -85.4063 
L 139.193124 -83.461589 
L 140.184434 -81.516877 
L 141.60803 -79.572166 
L 143.511489 -77.627454 
L 145.869885 -75.682743 
L 148.557842 -73.738031 
L 151.341751 -71.79332 
L 153.903012 -69.848608 
L 155.893676 -67.903897 
L 157.012752 -65.959185 
L 157.080587 -64.014474 
L 156.086061 -62.069762 
L 154.189578 -60.125051 
L 151.680715 -58.180339 
L 148.90594 -56.235628 
L 146.191144 -54.290916 
L 143.782515 -52.346205 
L 141.81907 -50.401493 
L 140.337025 -48.456782 
z
" style="stroke: #7a7a7a; stroke-width: 1.5"/>
    </defs>
    <g clip-path="url(#pfd0436203e)">
     <use xlink:href="#mdfdd701fdf" x="0" y="288" style="fill: #f1bcb8; stroke: #7a7a7a; stroke-width: 1.5"/>
    </g>
   </g>
   <g id="PolyCollection_2">
    <defs>
     <path id="mc705a72e6b" d="M 308.852041 -45.883636 
L 301.347959 -45.883636 
L 299.510279 -47.880331 
L 297.133072 -49.877025 
L 294.236493 -51.873719 
L 290.928119 -53.870413 
L 287.412629 -55.867107 
L 283.980802 -57.863802 
L 280.974859 -59.860496 
L 278.734219 -61.85719 
L 277.532985 -63.853884 
L 277.524895 -65.850579 
L 278.710999 -67.847273 
L 280.939438 -69.843967 
L 283.937379 -71.840661 
L 287.365857 -73.837355 
L 290.882302 -75.83405 
L 294.194974 -77.830744 
L 297.097929 -79.827438 
L 299.482327 -81.824132 
L 301.326982 -83.820826 
L 302.675626 -85.817521 
L 303.609649 -87.814215 
L 304.223492 -89.810909 
L 304.606824 -91.807603 
L 304.834524 -93.804298 
L 304.963281 -95.800992 
L 305.032639 -97.797686 
L 305.068248 -99.79438 
L 305.085681 -101.791074 
L 305.093822 -103.787769 
L 305.09745 -105.784463 
L 305.098993 -107.781157 
L 305.09962 -109.777851 
L 305.099863 -111.774545 
L 305.099952 -113.77124 
L 305.099984 -115.767934 
L 305.099995 -117.764628 
L 305.099998 -119.761322 
L 305.1 -121.758017 
L 305.1 -123.754711 
L 305.1 -125.751405 
L 305.1 -127.748099 
L 305.1 -129.744793 
L 305.1 -131.741488 
L 305.1 -133.738182 
L 305.1 -135.734876 
L 305.1 -137.73157 
L 305.1 -139.728264 
L 305.1 -141.724959 
L 305.1 -143.721653 
L 305.1 -145.718347 
L 305.1 -147.715041 
L 305.1 -149.711736 
L 305.1 -151.70843 
L 305.1 -153.705124 
L 305.1 -155.701818 
L 305.1 -157.698512 
L 305.1 -159.695207 
L 305.1 -161.691901 
L 305.1 -163.688595 
L 305.1 -165.685289 
L 305.099999 -167.681983 
L 305.099997 -169.678678 
L 305.099992 -171.675372 
L 305.099973 -173.672066 
L 305.099919 -175.66876 
L 305.099765 -177.665455 
L 305.099351 -179.662149 
L 305.098282 -181.658843 
L 305.095648 -183.655537 
L 305.089457 -185.652231 
L 305.075563 -187.648926 
L 305.045811 -189.64562 
L 304.985039 -191.642314 
L 304.86667 -193.639008 
L 304.646928 -195.635702 
L 304.258327 -197.632397 
L 303.604117 -199.629091 
L 302.556508 -201.625785 
L 300.962469 -203.622479 
L 298.66082 -205.619174 
L 295.512659 -207.615868 
L 291.443352 -209.612562 
L 286.489057 -211.609256 
L 280.835521 -213.60595 
L 274.834218 -215.602645 
L 268.983043 -217.599339 
L 263.86664 -219.596033 
L 260.0635 -221.592727 
L 258.039247 -223.589421 
L 258.053054 -225.586116 
L 260.103127 -227.58281 
L 263.927091 -229.579504 
L 269.057152 -231.576198 
L 274.91404 -233.572893 
L 280.913713 -235.569587 
L 286.559914 -237.566281 
L 291.503329 -239.562975 
L 295.560364 -241.559669 
L 298.696619 -243.556364 
L 311.503381 -243.556364 
L 311.503381 -243.556364 
L 314.639636 -241.559669 
L 318.696671 -239.562975 
L 323.640086 -237.566281 
L 329.286287 -235.569587 
L 335.28596 -233.572893 
L 341.142848 -231.576198 
L 346.272909 -229.579504 
L 350.096873 -227.58281 
L 352.146946 -225.586116 
L 352.160753 -223.589421 
L 350.1365 -221.592727 
L 346.33336 -219.596033 
L 341.216957 -217.599339 
L 335.365782 -215.602645 
L 329.364479 -213.60595 
L 323.710943 -211.609256 
L 318.756648 -209.612562 
L 314.687341 -207.615868 
L 311.53918 -205.619174 
L 309.237531 -203.622479 
L 307.643492 -201.625785 
L 306.595883 -199.629091 
L 305.941673 -197.632397 
L 305.553072 -195.635702 
L 305.33333 -193.639008 
L 305.214961 -191.642314 
L 305.154189 -189.64562 
L 305.124437 -187.648926 
L 305.110543 -185.652231 
L 305.104352 -183.655537 
L 305.101718 -181.658843 
L 305.100649 -179.662149 
L 305.100235 -177.665455 
L 305.100081 -175.66876 
L 305.100027 -173.672066 
L 305.100008 -171.675372 
L 305.100003 -169.678678 
L 305.100001 -167.681983 
L 305.1 -165.685289 
L 305.1 -163.688595 
L 305.1 -161.691901 
L 305.1 -159.695207 
L 305.1 -157.698512 
L 305.1 -155.701818 
L 305.1 -153.705124 
L 305.1 -151.70843 
L 305.1 -149.711736 
L 305.1 -147.715041 
L 305.1 -145.718347 
L 305.1 -143.721653 
L 305.1 -141.724959 
L 305.1 -139.728264 
L 305.1 -137.73157 
L 305.1 -135.734876 
L 305.1 -133.738182 
L 305.1 -131.741488 
L 305.1 -129.744793 
L 305.1 -127.748099 
L 305.1 -125.751405 
L 305.1 -123.754711 
L 305.1 -121.758017 
L 305.100002 -119.761322 
L 305.100005 -117.764628 
L 305.100016 -115.767934 
L 305.100048 -113.77124 
L 305.100137 -111.774545 
L 305.10038 -109.777851 
L 305.101007 -107.781157 
L 305.10255 -105.784463 
L 305.106178 -103.787769 
L 305.114319 -101.791074 
L 305.131752 -99.79438 
L 305.167361 -97.797686 
L 305.236719 -95.800992 
L 305.365476 -93.804298 
L 305.593176 -91.807603 
L 305.976508 -89.810909 
L 306.590351 -87.814215 
L 307.524374 -85.817521 
L 308.873018 -83.820826 
L 310.717673 -81.824132 
L 313.102071 -79.827438 
L 316.005026 -77.830744 
L 319.317698 -75.83405 
L 322.834143 -73.837355 
L 326.262621 -71.840661 
L 329.260562 -69.843967 
L 331.489001 -67.847273 
L 332.675105 -65.850579 
L 332.667015 -63.853884 
L 331.465781 -61.85719 
L 329.225141 -59.860496 
L 326.219198 -57.863802 
L 322.787371 -55.867107 
L 319.271881 -53.870413 
L 315.963507 -51.873719 
L 313.066928 -49.877025 
L 310.689721 -47.880331 
L 308.852041 -45.883636 
z
" style="stroke: #7a7a7a; stroke-width: 1.5"/>
    </defs>
    <g clip-path="url(#pfd0436203e)">
     <use xlink:href="#mc705a72e6b" x="0" y="288" style="fill: #b9ccdd; stroke: #7a7a7a; stroke-width: 1.5"/>
    </g>
   </g>
   <g id="matplotlib.axis_1">
    <g id="xtick_1">
     <g id="line2d_1">
      <defs>
       <path id="m71e781bef7" d="M 0 0 
L 0 3.5 
" style="stroke: #000000; stroke-width: 0.8"/>
      </defs>
      <g>
       <use xlink:href="#m71e781bef7" x="137.7" y="252" style="stroke: #000000; stroke-width: 0.8"/>
      </g>
     </g>
     <g id="text_1">
      <!-- 0.0 -->
      <g transform="translate(129.748437 266.598437)scale(0.1 -0.1)">
       <defs>
        <path id="DejaVuSans-30" d="M 2034 4250 
Q 1547 4250 1301 3770 
Q 1056 3291 1056 2328 
Q 1056 1369 1301 889 
Q 1547 409 2034 409 
Q 2525 409 2770 889 
Q 3016 1369 3016 2328 
Q 3016 3291 2770 3770 
Q 2525 4250 2034 4250 
z
M 2034 4750 
Q 2819 4750 3233 4129 
Q 3647 3509 3647 2328 
Q 3647 1150 3233 529 
Q 2819 -91 2034 -91 
Q 1250 -91 836 529 
Q 422 1150 422 2328 
Q 422 3509 836 4129 
Q 1250 4750 2034 4750 
z
" transform="scale(0.015625)"/>
        <path id="DejaVuSans-2e" d="M 684 794 
L 1344 794 
L 1344 0 
L 684 0 
L 684 794 
z
" transform="scale(0.015625)"/>
       </defs>
       <use xlink:href="#DejaVuSans-30"/>
       <use xlink:href="#DejaVuSans-2e" x="63.623047"/>
       <use xlink:href="#DejaVuSans-30" x="95.410156"/>
      </g>
     </g>
    </g>
    <g id="xtick_2">
     <g id="line2d_2">
      <g>
       <use xlink:href="#m71e781bef7" x="305.1" y="252" style="stroke: #000000; stroke-width: 0.8"/>
      </g>
     </g>
     <g id="text_2">
      <!-- 1.0 -->
      <g transform="translate(297.148438 266.598437)scale(0.1 -0.1)">
       <defs>
        <path id="DejaVuSans-31" d="M 794 531 
L 1825 531 
L 1825 4091 
L 703 3866 
L 703 4441 
L 1819 4666 
L 2450 4666 
L 2450 531 
L 3481 531 
L 3481 0 
L 794 0 
L 794 531 
z
" transform="scale(0.015625)"/>
       </defs>
       <use xlink:href="#DejaVuSans-31"/>
       <use xlink:href="#DejaVuSans-2e" x="63.623047"/>
       <use xlink:href="#DejaVuSans-30" x="95.410156"/>
      </g>
     </g>
    </g>
    <g id="text_3">
     <!-- Diabetes_binary -->
     <g transform="translate(180.89375 280.276563)scale(0.1 -0.1)">
      <defs>
       <path id="DejaVuSans-44" d="M 1259 4147 
L 1259 519 
L 2022 519 
Q 2988 519 3436 956 
Q 3884 1394 3884 2338 
Q 3884 3275 3436 3711 
Q 2988 4147 2022 4147 
L 1259 4147 
z
M 628 4666 
L 1925 4666 
Q 3281 4666 3915 4102 
Q 4550 3538 4550 2338 
Q 4550 1131 3912 565 
Q 3275 0 1925 0 
L 628 0 
L 628 4666 
z
" transform="scale(0.015625)"/>
       <path id="DejaVuSans-69" d="M 603 3500 
L 1178 3500 
L 1178 0 
L 603 0 
L 603 3500 
z
M 603 4863 
L 1178 4863 
L 1178 4134 
L 603 4134 
L 603 4863 
z
" transform="scale(0.015625)"/>
       <path id="DejaVuSans-61" d="M 2194 1759 
Q 1497 1759 1228 1600 
Q 959 1441 959 1056 
Q 959 750 1161 570 
Q 1363 391 1709 391 
Q 2188 391 2477 730 
Q 2766 1069 2766 1631 
L 2766 1759 
L 2194 1759 
z
M 3341 1997 
L 3341 0 
L 2766 0 
L 2766 531 
Q 2569 213 2275 61 
Q 1981 -91 1556 -91 
Q 1019 -91 701 211 
Q 384 513 384 1019 
Q 384 1609 779 1909 
Q 1175 2209 1959 2209 
L 2766 2209 
L 2766 2266 
Q 2766 2663 2505 2880 
Q 2244 3097 1772 3097 
Q 1472 3097 1187 3025 
Q 903 2953 641 2809 
L 641 3341 
Q 956 3463 1253 3523 
Q 1550 3584 1831 3584 
Q 2591 3584 2966 3190 
Q 3341 2797 3341 1997 
z
" transform="scale(0.015625)"/>
       <path id="DejaVuSans-62" d="M 3116 1747 
Q 3116 2381 2855 2742 
Q 2594 3103 2138 3103 
Q 1681 3103 1420 2742 
Q 1159 2381 1159 1747 
Q 1159 1113 1420 752 
Q 1681 391 2138 391 
Q 2594 391 2855 752 
Q 3116 1113 3116 1747 
z
M 1159 2969 
Q 1341 3281 1617 3432 
Q 1894 3584 2278 3584 
Q 2916 3584 3314 3078 
Q 3713 2572 3713 1747 
Q 3713 922 3314 415 
Q 2916 -91 2278 -91 
Q 1894 -91 1617 61 
Q 1341 213 1159 525 
L 1159 0 
L 581 0 
L 581 4863 
L 1159 4863 
L 1159 2969 
z
" transform="scale(0.015625)"/>
       <path id="DejaVuSans-65" d="M 3597 1894 
L 3597 1613 
L 953 1613 
Q 991 1019 1311 708 
Q 1631 397 2203 397 
Q 2534 397 2845 478 
Q 3156 559 3463 722 
L 3463 178 
Q 3153 47 2828 -22 
Q 2503 -91 2169 -91 
Q 1331 -91 842 396 
Q 353 884 353 1716 
Q 353 2575 817 3079 
Q 1281 3584 2069 3584 
Q 2775 3584 3186 3129 
Q 3597 2675 3597 1894 
z
M 3022 2063 
Q 3016 2534 2758 2815 
Q 2500 3097 2075 3097 
Q 1594 3097 1305 2825 
Q 1016 2553 972 2059 
L 3022 2063 
z
" transform="scale(0.015625)"/>
       <path id="DejaVuSans-74" d="M 1172 4494 
L 1172 3500 
L 2356 3500 
L 2356 3053 
L 1172 3053 
L 1172 1153 
Q 1172 725 1289 603 
Q 1406 481 1766 481 
L 2356 481 
L 2356 0 
L 1766 0 
Q 1100 0 847 248 
Q 594 497 594 1153 
L 594 3053 
L 172 3053 
L 172 3500 
L 594 3500 
L 594 4494 
L 1172 4494 
z
" transform="scale(0.015625)"/>
       <path id="DejaVuSans-73" d="M 2834 3397 
L 2834 2853 
Q 2591 2978 2328 3040 
Q 2066 3103 1784 3103 
Q 1356 3103 1142 2972 
Q 928 2841 928 2578 
Q 928 2378 1081 2264 
Q 1234 2150 1697 2047 
L 1894 2003 
Q 2506 1872 2764 1633 
Q 3022 1394 3022 966 
Q 3022 478 2636 193 
Q 2250 -91 1575 -91 
Q 1294 -91 989 -36 
Q 684 19 347 128 
L 347 722 
Q 666 556 975 473 
Q 1284 391 1588 391 
Q 1994 391 2212 530 
Q 2431 669 2431 922 
Q 2431 1156 2273 1281 
Q 2116 1406 1581 1522 
L 1381 1569 
Q 847 1681 609 1914 
Q 372 2147 372 2553 
Q 372 3047 722 3315 
Q 1072 3584 1716 3584 
Q 2034 3584 2315 3537 
Q 2597 3491 2834 3397 
z
" transform="scale(0.015625)"/>
       <path id="DejaVuSans-5f" d="M 3263 -1063 
L 3263 -1509 
L -63 -1509 
L -63 -1063 
L 3263 -1063 
z
" transform="scale(0.015625)"/>
       <path id="DejaVuSans-6e" d="M 3513 2113 
L 3513 0 
L 2938 0 
L 2938 2094 
Q 2938 2591 2744 2837 
Q 2550 3084 2163 3084 
Q 1697 3084 1428 2787 
Q 1159 2491 1159 1978 
L 1159 0 
L 581 0 
L 581 3500 
L 1159 3500 
L 1159 2956 
Q 1366 3272 1645 3428 
Q 1925 3584 2291 3584 
Q 2894 3584 3203 3211 
Q 3513 2838 3513 2113 
z
" transform="scale(0.015625)"/>
       <path id="DejaVuSans-72" d="M 2631 2963 
Q 2534 3019 2420 3045 
Q 2306 3072 2169 3072 
Q 1681 3072 1420 2755 
Q 1159 2438 1159 1844 
L 1159 0 
L 581 0 
L 581 3500 
L 1159 3500 
L 1159 2956 
Q 1341 3275 1631 3429 
Q 1922 3584 2338 3584 
Q 2397 3584 2469 3576 
Q 2541 3569 2628 3553 
L 2631 2963 
z
" transform="scale(0.015625)"/>
       <path id="DejaVuSans-79" d="M 2059 -325 
Q 1816 -950 1584 -1140 
Q 1353 -1331 966 -1331 
L 506 -1331 
L 506 -850 
L 844 -850 
Q 1081 -850 1212 -737 
Q 1344 -625 1503 -206 
L 1606 56 
L 191 3500 
L 800 3500 
L 1894 763 
L 2988 3500 
L 3597 3500 
L 2059 -325 
z
" transform="scale(0.015625)"/>
      </defs>
      <use xlink:href="#DejaVuSans-44"/>
      <use xlink:href="#DejaVuSans-69" x="77.001953"/>
      <use xlink:href="#DejaVuSans-61" x="104.785156"/>
      <use xlink:href="#DejaVuSans-62" x="166.064453"/>
      <use xlink:href="#DejaVuSans-65" x="229.541016"/>
      <use xlink:href="#DejaVuSans-74" x="291.064453"/>
      <use xlink:href="#DejaVuSans-65" x="330.273438"/>
      <use xlink:href="#DejaVuSans-73" x="391.796875"/>
      <use xlink:href="#DejaVuSans-5f" x="443.896484"/>
      <use xlink:href="#DejaVuSans-62" x="493.896484"/>
      <use xlink:href="#DejaVuSans-69" x="557.373047"/>
      <use xlink:href="#DejaVuSans-6e" x="585.15625"/>
      <use xlink:href="#DejaVuSans-61" x="648.535156"/>
      <use xlink:href="#DejaVuSans-72" x="709.814453"/>
      <use xlink:href="#DejaVuSans-79" x="750.927734"/>
     </g>
    </g>
   </g>
   <g id="matplotlib.axis_2">
    <g id="ytick_1">
     <g id="line2d_3">
      <defs>
       <path id="m4a92175c28" d="M 0 0 
L -3.5 0 
" style="stroke: #000000; stroke-width: 0.8"/>
      </defs>
      <g>
       <use xlink:href="#m4a92175c28" x="54" y="223.134531" style="stroke: #000000; stroke-width: 0.8"/>
      </g>
     </g>
     <g id="text_4">
      <!-- 0.0 -->
      <g transform="translate(31.096875 226.93375)scale(0.1 -0.1)">
       <use xlink:href="#DejaVuSans-30"/>
       <use xlink:href="#DejaVuSans-2e" x="63.623047"/>
       <use xlink:href="#DejaVuSans-30" x="95.410156"/>
      </g>
     </g>
    </g>
    <g id="ytick_2">
     <g id="line2d_4">
      <g>
       <use xlink:href="#m4a92175c28" x="54" y="191.192719" style="stroke: #000000; stroke-width: 0.8"/>
      </g>
     </g>
     <g id="text_5">
      <!-- 0.2 -->
      <g transform="translate(31.096875 194.991937)scale(0.1 -0.1)">
       <defs>
        <path id="DejaVuSans-32" d="M 1228 531 
L 3431 531 
L 3431 0 
L 469 0 
L 469 531 
Q 828 903 1448 1529 
Q 2069 2156 2228 2338 
Q 2531 2678 2651 2914 
Q 2772 3150 2772 3378 
Q 2772 3750 2511 3984 
Q 2250 4219 1831 4219 
Q 1534 4219 1204 4116 
Q 875 4013 500 3803 
L 500 4441 
Q 881 4594 1212 4672 
Q 1544 4750 1819 4750 
Q 2544 4750 2975 4387 
Q 3406 4025 3406 3419 
Q 3406 3131 3298 2873 
Q 3191 2616 2906 2266 
Q 2828 2175 2409 1742 
Q 1991 1309 1228 531 
z
" transform="scale(0.015625)"/>
       </defs>
       <use xlink:href="#DejaVuSans-30"/>
       <use xlink:href="#DejaVuSans-2e" x="63.623047"/>
       <use xlink:href="#DejaVuSans-32" x="95.410156"/>
      </g>
     </g>
    </g>
    <g id="ytick_3">
     <g id="line2d_5">
      <g>
       <use xlink:href="#m4a92175c28" x="54" y="159.250906" style="stroke: #000000; stroke-width: 0.8"/>
      </g>
     </g>
     <g id="text_6">
      <!-- 0.4 -->
      <g transform="translate(31.096875 163.050125)scale(0.1 -0.1)">
       <defs>
        <path id="DejaVuSans-34" d="M 2419 4116 
L 825 1625 
L 2419 1625 
L 2419 4116 
z
M 2253 4666 
L 3047 4666 
L 3047 1625 
L 3713 1625 
L 3713 1100 
L 3047 1100 
L 3047 0 
L 2419 0 
L 2419 1100 
L 313 1100 
L 313 1709 
L 2253 4666 
z
" transform="scale(0.015625)"/>
       </defs>
       <use xlink:href="#DejaVuSans-30"/>
       <use xlink:href="#DejaVuSans-2e" x="63.623047"/>
       <use xlink:href="#DejaVuSans-34" x="95.410156"/>
      </g>
     </g>
    </g>
    <g id="ytick_4">
     <g id="line2d_6">
      <g>
       <use xlink:href="#m4a92175c28" x="54" y="127.309094" style="stroke: #000000; stroke-width: 0.8"/>
      </g>
     </g>
     <g id="text_7">
      <!-- 0.6 -->
      <g transform="translate(31.096875 131.108313)scale(0.1 -0.1)">
       <defs>
        <path id="DejaVuSans-36" d="M 2113 2584 
Q 1688 2584 1439 2293 
Q 1191 2003 1191 1497 
Q 1191 994 1439 701 
Q 1688 409 2113 409 
Q 2538 409 2786 701 
Q 3034 994 3034 1497 
Q 3034 2003 2786 2293 
Q 2538 2584 2113 2584 
z
M 3366 4563 
L 3366 3988 
Q 3128 4100 2886 4159 
Q 2644 4219 2406 4219 
Q 1781 4219 1451 3797 
Q 1122 3375 1075 2522 
Q 1259 2794 1537 2939 
Q 1816 3084 2150 3084 
Q 2853 3084 3261 2657 
Q 3669 2231 3669 1497 
Q 3669 778 3244 343 
Q 2819 -91 2113 -91 
Q 1303 -91 875 529 
Q 447 1150 447 2328 
Q 447 3434 972 4092 
Q 1497 4750 2381 4750 
Q 2619 4750 2861 4703 
Q 3103 4656 3366 4563 
z
" transform="scale(0.015625)"/>
       </defs>
       <use xlink:href="#DejaVuSans-30"/>
       <use xlink:href="#DejaVuSans-2e" x="63.623047"/>
       <use xlink:href="#DejaVuSans-36" x="95.410156"/>
      </g>
     </g>
    </g>
    <g id="ytick_5">
     <g id="line2d_7">
      <g>
       <use xlink:href="#m4a92175c28" x="54" y="95.367281" style="stroke: #000000; stroke-width: 0.8"/>
      </g>
     </g>
     <g id="text_8">
      <!-- 0.8 -->
      <g transform="translate(31.096875 99.1665)scale(0.1 -0.1)">
       <defs>
        <path id="DejaVuSans-38" d="M 2034 2216 
Q 1584 2216 1326 1975 
Q 1069 1734 1069 1313 
Q 1069 891 1326 650 
Q 1584 409 2034 409 
Q 2484 409 2743 651 
Q 3003 894 3003 1313 
Q 3003 1734 2745 1975 
Q 2488 2216 2034 2216 
z
M 1403 2484 
Q 997 2584 770 2862 
Q 544 3141 544 3541 
Q 544 4100 942 4425 
Q 1341 4750 2034 4750 
Q 2731 4750 3128 4425 
Q 3525 4100 3525 3541 
Q 3525 3141 3298 2862 
Q 3072 2584 2669 2484 
Q 3125 2378 3379 2068 
Q 3634 1759 3634 1313 
Q 3634 634 3220 271 
Q 2806 -91 2034 -91 
Q 1263 -91 848 271 
Q 434 634 434 1313 
Q 434 1759 690 2068 
Q 947 2378 1403 2484 
z
M 1172 3481 
Q 1172 3119 1398 2916 
Q 1625 2713 2034 2713 
Q 2441 2713 2670 2916 
Q 2900 3119 2900 3481 
Q 2900 3844 2670 4047 
Q 2441 4250 2034 4250 
Q 1625 4250 1398 4047 
Q 1172 3844 1172 3481 
z
" transform="scale(0.015625)"/>
       </defs>
       <use xlink:href="#DejaVuSans-30"/>
       <use xlink:href="#DejaVuSans-2e" x="63.623047"/>
       <use xlink:href="#DejaVuSans-38" x="95.410156"/>
      </g>
     </g>
    </g>
    <g id="ytick_6">
     <g id="line2d_8">
      <g>
       <use xlink:href="#m4a92175c28" x="54" y="63.425469" style="stroke: #000000; stroke-width: 0.8"/>
      </g>
     </g>
     <g id="text_9">
      <!-- 1.0 -->
      <g transform="translate(31.096875 67.224688)scale(0.1 -0.1)">
       <use xlink:href="#DejaVuSans-31"/>
       <use xlink:href="#DejaVuSans-2e" x="63.623047"/>
       <use xlink:href="#DejaVuSans-30" x="95.410156"/>
      </g>
     </g>
    </g>
    <g id="text_10">
     <!-- PhysActivity -->
     <g transform="translate(25.017187 173.726875)rotate(-90)scale(0.1 -0.1)">
      <defs>
       <path id="DejaVuSans-50" d="M 1259 4147 
L 1259 2394 
L 2053 2394 
Q 2494 2394 2734 2622 
Q 2975 2850 2975 3272 
Q 2975 3691 2734 3919 
Q 2494 4147 2053 4147 
L 1259 4147 
z
M 628 4666 
L 2053 4666 
Q 2838 4666 3239 4311 
Q 3641 3956 3641 3272 
Q 3641 2581 3239 2228 
Q 2838 1875 2053 1875 
L 1259 1875 
L 1259 0 
L 628 0 
L 628 4666 
z
" transform="scale(0.015625)"/>
       <path id="DejaVuSans-68" d="M 3513 2113 
L 3513 0 
L 2938 0 
L 2938 2094 
Q 2938 2591 2744 2837 
Q 2550 3084 2163 3084 
Q 1697 3084 1428 2787 
Q 1159 2491 1159 1978 
L 1159 0 
L 581 0 
L 581 4863 
L 1159 4863 
L 1159 2956 
Q 1366 3272 1645 3428 
Q 1925 3584 2291 3584 
Q 2894 3584 3203 3211 
Q 3513 2838 3513 2113 
z
" transform="scale(0.015625)"/>
       <path id="DejaVuSans-41" d="M 2188 4044 
L 1331 1722 
L 3047 1722 
L 2188 4044 
z
M 1831 4666 
L 2547 4666 
L 4325 0 
L 3669 0 
L 3244 1197 
L 1141 1197 
L 716 0 
L 50 0 
L 1831 4666 
z
" transform="scale(0.015625)"/>
       <path id="DejaVuSans-63" d="M 3122 3366 
L 3122 2828 
Q 2878 2963 2633 3030 
Q 2388 3097 2138 3097 
Q 1578 3097 1268 2742 
Q 959 2388 959 1747 
Q 959 1106 1268 751 
Q 1578 397 2138 397 
Q 2388 397 2633 464 
Q 2878 531 3122 666 
L 3122 134 
Q 2881 22 2623 -34 
Q 2366 -91 2075 -91 
Q 1284 -91 818 406 
Q 353 903 353 1747 
Q 353 2603 823 3093 
Q 1294 3584 2113 3584 
Q 2378 3584 2631 3529 
Q 2884 3475 3122 3366 
z
" transform="scale(0.015625)"/>
       <path id="DejaVuSans-76" d="M 191 3500 
L 800 3500 
L 1894 563 
L 2988 3500 
L 3597 3500 
L 2284 0 
L 1503 0 
L 191 3500 
z
" transform="scale(0.015625)"/>
      </defs>
      <use xlink:href="#DejaVuSans-50"/>
      <use xlink:href="#DejaVuSans-68" x="60.302734"/>
      <use xlink:href="#DejaVuSans-79" x="123.681641"/>
      <use xlink:href="#DejaVuSans-73" x="182.861328"/>
      <use xlink:href="#DejaVuSans-41" x="234.960938"/>
      <use xlink:href="#DejaVuSans-63" x="301.619141"/>
      <use xlink:href="#DejaVuSans-74" x="356.599609"/>
      <use xlink:href="#DejaVuSans-69" x="395.808594"/>
      <use xlink:href="#DejaVuSans-76" x="423.591797"/>
      <use xlink:href="#DejaVuSans-69" x="482.771484"/>
      <use xlink:href="#DejaVuSans-74" x="510.554688"/>
      <use xlink:href="#DejaVuSans-79" x="549.763672"/>
     </g>
    </g>
   </g>
   <g id="line2d_9">
    <path d="M 137.7 63.425469 
L 137.7 63.425469 
" clip-path="url(#pfd0436203e)" style="fill: none; stroke: #7a7a7a; stroke-width: 1.5; stroke-linecap: square"/>
   </g>
   <g id="line2d_10">
    <path d="M 137.7 63.425469 
L 137.7 63.425469 
" clip-path="url(#pfd0436203e)" style="fill: none; stroke: #7a7a7a; stroke-width: 4.5; stroke-linecap: square"/>
   </g>
   <g id="line2d_11">
    <path d="M 305.1 223.134531 
L 305.1 63.425469 
" clip-path="url(#pfd0436203e)" style="fill: none; stroke: #7a7a7a; stroke-width: 1.5; stroke-linecap: square"/>
   </g>
   <g id="line2d_12">
    <path d="M 305.1 223.134531 
L 305.1 63.425469 
" clip-path="url(#pfd0436203e)" style="fill: none; stroke: #7a7a7a; stroke-width: 4.5; stroke-linecap: square"/>
   </g>
   <g id="patch_3">
    <path d="M 54 252 
L 54 34.56 
" style="fill: none; stroke: #000000; stroke-width: 0.8; stroke-linejoin: miter; stroke-linecap: square"/>
   </g>
   <g id="patch_4">
    <path d="M 388.8 252 
L 388.8 34.56 
" style="fill: none; stroke: #000000; stroke-width: 0.8; stroke-linejoin: miter; stroke-linecap: square"/>
   </g>
   <g id="patch_5">
    <path d="M 54 252 
L 388.8 252 
" style="fill: none; stroke: #000000; stroke-width: 0.8; stroke-linejoin: miter; stroke-linecap: square"/>
   </g>
   <g id="patch_6">
    <path d="M 54 34.56 
L 388.8 34.56 
" style="fill: none; stroke: #000000; stroke-width: 0.8; stroke-linejoin: miter; stroke-linecap: square"/>
   </g>
   <g id="PathCollection_1">
    <defs>
     <path id="ma2b7e4ce5d" d="M 0 1.5 
C 0.397805 1.5 0.77937 1.341951 1.06066 1.06066 
C 1.341951 0.77937 1.5 0.397805 1.5 0 
C 1.5 -0.397805 1.341951 -0.77937 1.06066 -1.06066 
C 0.77937 -1.341951 0.397805 -1.5 0 -1.5 
C -0.397805 -1.5 -0.77937 -1.341951 -1.06066 -1.06066 
C -1.341951 -0.77937 -1.5 -0.397805 -1.5 0 
C -1.5 0.397805 -1.341951 0.77937 -1.06066 1.06066 
C -0.77937 1.341951 -0.397805 1.5 0 1.5 
z
" style="stroke: #7a7a7a"/>
    </defs>
    <g clip-path="url(#pfd0436203e)">
     <use xlink:href="#ma2b7e4ce5d" x="137.7" y="63.425469" style="fill: #ffffff; stroke: #7a7a7a"/>
    </g>
   </g>
   <g id="PathCollection_2">
    <g clip-path="url(#pfd0436203e)">
     <use xlink:href="#ma2b7e4ce5d" x="305.1" y="63.425469" style="fill: #ffffff; stroke: #7a7a7a"/>
    </g>
   </g>
  </g>
 </g>
 <defs>
  <clipPath id="pfd0436203e">
   <rect x="54" y="34.56" width="334.8" height="217.44"/>
  </clipPath>
 </defs>
</svg>
