<?xml version="1.0" encoding="utf-8" standalone="no"?>
<!DOCTYPE svg PUBLIC "-//W3C//DTD SVG 1.1//EN"
  "http://www.w3.org/Graphics/SVG/1.1/DTD/svg11.dtd">
<svg xmlns:xlink="http://www.w3.org/1999/xlink" width="432pt" height="288pt" viewBox="0 0 432 288" xmlns="http://www.w3.org/2000/svg" version="1.1">
 <metadata>
  <rdf:RDF xmlns:dc="http://purl.org/dc/elements/1.1/" xmlns:cc="http://creativecommons.org/ns#" xmlns:rdf="http://www.w3.org/1999/02/22-rdf-syntax-ns#">
   <cc:Work>
    <dc:type rdf:resource="http://purl.org/dc/dcmitype/StillImage"/>
    <dc:date>2023-05-03T02:46:55.741423</dc:date>
    <dc:format>image/svg+xml</dc:format>
    <dc:creator>
     <cc:Agent>
      <dc:title>Matplotlib v3.5.3, https://matplotlib.org/</dc:title>
     </cc:Agent>
    </dc:creator>
   </cc:Work>
  </rdf:RDF>
 </metadata>
 <defs>
  <style type="text/css">*{stroke-linejoin: round; stroke-linecap: butt}</style>
 </defs>
 <g id="figure_1">
  <g id="patch_1">
   <path d="M 0 288 
L 432 288 
L 432 0 
L 0 0 
L 0 288 
z
" style="fill: none"/>
  </g>
  <g id="axes_1">
   <g id="patch_2">
    <path d="M 54 252 
L 388.8 252 
L 388.8 34.56 
L 54 34.56 
z
" style="fill: #ffffff"/>
   </g>
   <g id="PolyCollection_1">
    <defs>
     <path id="mb3294ea0a0" d="M 146.313594 -50.267466 
L 129.086406 -50.267466 
L 121.495018 -52.175598 
L 110.589269 -54.08373 
L 97.342342 -55.991862 
L 84.191279 -57.899994 
L 74.410639 -59.808126 
L 70.74 -61.716258 
L 74.035405 -63.62439 
L 82.860473 -65.532522 
L 94.304113 -67.440654 
L 105.426679 -69.348786 
L 114.384392 -71.256918 
L 120.69519 -73.16505 
L 124.798503 -75.073182 
L 127.423283 -76.981314 
L 129.167201 -78.889446 
L 130.380656 -80.797578 
L 131.238949 -82.70571 
L 131.852596 -84.613842 
L 132.32879 -86.521974 
L 132.768988 -88.430106 
L 133.233873 -90.338238 
L 133.721126 -92.24637 
L 134.183196 -94.154502 
L 134.574617 -96.062634 
L 134.891159 -97.970766 
L 135.170021 -99.878898 
L 135.453885 -101.78703 
L 135.75039 -103.695162 
L 136.018622 -105.603294 
L 136.191145 -107.511426 
L 136.216251 -109.419558 
L 136.095513 -111.32769 
L 135.895455 -113.235822 
L 135.724255 -115.143954 
L 135.682609 -117.052086 
L 135.81539 -118.960218 
L 136.09344 -120.86835 
L 136.435352 -122.776482 
L 136.751041 -124.684614 
L 136.976516 -126.592746 
L 137.082277 -128.500878 
L 137.061482 -130.40901 
L 136.916761 -132.317142 
L 136.658715 -134.225274 
L 136.314761 -136.133406 
L 135.937566 -138.041538 
L 135.602802 -139.94967 
L 135.392567 -141.857802 
L 135.368791 -143.765934 
L 135.547918 -145.674066 
L 135.891023 -147.582198 
L 136.317625 -149.49033 
L 136.73747 -151.398462 
L 137.082591 -153.306594 
L 137.322696 -155.214726 
L 137.459552 -157.122858 
L 137.509292 -159.03099 
L 137.48592 -160.939122 
L 137.395114 -162.847254 
L 137.240009 -164.755386 
L 137.033828 -166.663518 
L 136.809671 -168.57165 
L 136.618086 -170.479782 
L 136.510364 -172.387914 
L 136.516371 -174.296046 
L 136.631248 -176.204178 
L 136.819496 -178.11231 
L 137.032591 -180.020442 
L 137.228139 -181.928574 
L 137.380527 -183.836706 
L 137.48093 -185.744838 
L 137.530975 -187.65297 
L 137.536029 -189.561102 
L 137.502169 -191.469234 
L 137.437699 -193.377366 
L 137.356725 -195.285498 
L 137.28024 -197.19363 
L 137.231363 -199.101762 
L 137.225905 -201.009894 
L 137.264127 -202.918026 
L 137.329713 -204.826158 
L 137.39678 -206.73429 
L 137.439354 -208.642422 
L 137.435471 -210.550554 
L 137.361481 -212.458686 
L 137.179105 -214.366818 
L 136.825998 -216.27495 
L 136.226185 -218.183082 
L 135.332343 -220.091214 
L 134.19012 -221.999346 
L 132.983628 -223.907478 
L 132.010144 -225.81561 
L 131.568266 -227.723742 
L 131.812778 -229.631874 
L 132.670999 -231.540006 
L 133.880756 -233.448138 
L 135.12235 -235.35627 
L 136.154302 -237.264402 
L 136.876574 -239.172534 
L 138.523426 -239.172534 
L 138.523426 -239.172534 
L 139.245698 -237.264402 
L 140.27765 -235.35627 
L 141.519244 -233.448138 
L 142.729001 -231.540006 
L 143.587222 -229.631874 
L 143.831734 -227.723742 
L 143.389856 -225.81561 
L 142.416372 -223.907478 
L 141.20988 -221.999346 
L 140.067657 -220.091214 
L 139.173815 -218.183082 
L 138.574002 -216.27495 
L 138.220895 -214.366818 
L 138.038519 -212.458686 
L 137.964529 -210.550554 
L 137.960646 -208.642422 
L 138.00322 -206.73429 
L 138.070287 -204.826158 
L 138.135873 -202.918026 
L 138.174095 -201.009894 
L 138.168637 -199.101762 
L 138.11976 -197.19363 
L 138.043275 -195.285498 
L 137.962301 -193.377366 
L 137.897831 -191.469234 
L 137.863971 -189.561102 
L 137.869025 -187.65297 
L 137.91907 -185.744838 
L 138.019473 -183.836706 
L 138.171861 -181.928574 
L 138.367409 -180.020442 
L 138.580504 -178.11231 
L 138.768752 -176.204178 
L 138.883629 -174.296046 
L 138.889636 -172.387914 
L 138.781914 -170.479782 
L 138.590329 -168.57165 
L 138.366172 -166.663518 
L 138.159991 -164.755386 
L 138.004886 -162.847254 
L 137.91408 -160.939122 
L 137.890708 -159.03099 
L 137.940448 -157.122858 
L 138.077304 -155.214726 
L 138.317409 -153.306594 
L 138.66253 -151.398462 
L 139.082375 -149.49033 
L 139.508977 -147.582198 
L 139.852082 -145.674066 
L 140.031209 -143.765934 
L 140.007433 -141.857802 
L 139.797198 -139.94967 
L 139.462434 -138.041538 
L 139.085239 -136.133406 
L 138.741285 -134.225274 
L 138.483239 -132.317142 
L 138.338518 -130.40901 
L 138.317723 -128.500878 
L 138.423484 -126.592746 
L 138.648959 -124.684614 
L 138.964648 -122.776482 
L 139.30656 -120.86835 
L 139.58461 -118.960218 
L 139.717391 -117.052086 
L 139.675745 -115.143954 
L 139.504545 -113.235822 
L 139.304487 -111.32769 
L 139.183749 -109.419558 
L 139.208855 -107.511426 
L 139.381378 -105.603294 
L 139.64961 -103.695162 
L 139.946115 -101.78703 
L 140.229979 -99.878898 
L 140.508841 -97.970766 
L 140.825383 -96.062634 
L 141.216804 -94.154502 
L 141.678874 -92.24637 
L 142.166127 -90.338238 
L 142.631012 -88.430106 
L 143.07121 -86.521974 
L 143.547404 -84.613842 
L 144.161051 -82.70571 
L 145.019344 -80.797578 
L 146.232799 -78.889446 
L 147.976717 -76.981314 
L 150.601497 -75.073182 
L 154.70481 -73.16505 
L 161.015608 -71.256918 
L 169.973321 -69.348786 
L 181.095887 -67.440654 
L 192.539527 -65.532522 
L 201.364595 -63.62439 
L 204.66 -61.716258 
L 200.989361 -59.808126 
L 191.208721 -57.899994 
L 178.057658 -55.991862 
L 164.810731 -54.08373 
L 153.904982 -52.175598 
L 146.313594 -50.267466 
z
" style="stroke: #7a7a7a; stroke-width: 1.5"/>
    </defs>
    <g clip-path="url(#p1a459ce51d)">
     <use xlink:href="#mb3294ea0a0" x="0" y="288" style="fill: #f1bcb8; stroke: #7a7a7a; stroke-width: 1.5"/>
    </g>
   </g>
   <g id="PolyCollection_2">
    <defs>
     <path id="mc5360bcf33" d="M 309.600491 -45.883636 
L 300.599509 -45.883636 
L 297.777249 -47.880331 
L 293.941755 -49.877025 
L 289.171428 -51.873719 
L 283.787784 -53.870413 
L 278.354646 -55.867107 
L 273.589342 -57.863802 
L 270.197394 -59.860496 
L 268.682222 -61.85719 
L 269.202333 -63.853884 
L 271.534417 -65.850579 
L 275.155909 -67.847273 
L 279.408911 -69.843967 
L 283.677001 -71.840661 
L 287.511805 -73.837355 
L 290.679293 -75.83405 
L 293.134609 -77.830744 
L 294.958184 -79.827438 
L 296.287914 -81.824132 
L 297.268783 -83.820826 
L 298.025051 -85.817521 
L 298.649834 -87.814215 
L 299.204614 -89.810909 
L 299.723457 -91.807603 
L 300.219342 -93.804298 
L 300.691006 -95.800992 
L 301.128745 -97.797686 
L 301.518141 -99.79438 
L 301.84217 -101.791074 
L 302.083619 -103.787769 
L 302.229738 -105.784463 
L 302.279165 -107.781157 
L 302.248397 -109.777851 
L 302.173613 -111.774545 
L 302.104772 -113.77124 
L 302.092487 -115.767934 
L 302.172101 -117.764628 
L 302.351366 -119.761322 
L 302.606786 -121.758017 
L 302.889826 -123.754711 
L 303.140165 -125.751405 
L 303.301022 -127.748099 
L 303.332188 -129.744793 
L 303.218452 -131.741488 
L 302.973067 -133.738182 
L 302.636545 -135.734876 
L 302.270765 -137.73157 
L 301.948302 -139.728264 
L 301.737908 -141.724959 
L 301.689031 -143.721653 
L 301.819769 -145.718347 
L 302.112437 -147.715041 
L 302.518496 -149.711736 
L 302.971089 -151.70843 
L 303.400632 -153.705124 
L 303.748444 -155.701818 
L 303.975214 -157.698512 
L 304.064002 -159.695207 
L 304.019506 -161.691901 
L 303.865611 -163.688595 
L 303.64194 -165.685289 
L 303.398725 -167.681983 
L 303.189099 -169.678678 
L 303.059192 -171.675372 
L 303.038299 -173.672066 
L 303.13246 -175.66876 
L 303.324011 -177.665455 
L 303.577376 -179.662149 
L 303.848917 -181.658843 
L 304.097324 -183.655537 
L 304.291509 -185.652231 
L 304.414622 -187.648926 
L 304.46448 -189.64562 
L 304.451539 -191.642314 
L 304.395401 -193.639008 
L 304.32027 -195.635702 
L 304.249509 -197.632397 
L 304.199652 -199.629091 
L 304.174722 -201.625785 
L 304.161865 -203.622479 
L 304.129074 -205.619174 
L 304.025339 -207.615868 
L 303.783708 -209.612562 
L 303.328566 -211.609256 
L 302.589224 -213.60595 
L 301.521089 -215.602645 
L 300.132039 -217.599339 
L 298.506028 -219.596033 
L 296.811446 -221.592727 
L 295.282881 -223.589421 
L 294.173646 -225.586116 
L 293.690342 -227.58281 
L 293.932269 -229.579504 
L 294.860205 -231.576198 
L 296.308166 -233.572893 
L 298.033361 -235.569587 
L 299.783685 -237.566281 
L 301.357032 -239.562975 
L 302.634026 -241.559669 
L 303.579807 -243.556364 
L 306.620193 -243.556364 
L 306.620193 -243.556364 
L 307.565974 -241.559669 
L 308.842968 -239.562975 
L 310.416315 -237.566281 
L 312.166639 -235.569587 
L 313.891834 -233.572893 
L 315.339795 -231.576198 
L 316.267731 -229.579504 
L 316.509658 -227.58281 
L 316.026354 -225.586116 
L 314.917119 -223.589421 
L 313.388554 -221.592727 
L 311.693972 -219.596033 
L 310.067961 -217.599339 
L 308.678911 -215.602645 
L 307.610776 -213.60595 
L 306.871434 -211.609256 
L 306.416292 -209.612562 
L 306.174661 -207.615868 
L 306.070926 -205.619174 
L 306.038135 -203.622479 
L 306.025278 -201.625785 
L 306.000348 -199.629091 
L 305.950491 -197.632397 
L 305.87973 -195.635702 
L 305.804599 -193.639008 
L 305.748461 -191.642314 
L 305.73552 -189.64562 
L 305.785378 -187.648926 
L 305.908491 -185.652231 
L 306.102676 -183.655537 
L 306.351083 -181.658843 
L 306.622624 -179.662149 
L 306.875989 -177.665455 
L 307.06754 -175.66876 
L 307.161701 -173.672066 
L 307.140808 -171.675372 
L 307.010901 -169.678678 
L 306.801275 -167.681983 
L 306.55806 -165.685289 
L 306.334389 -163.688595 
L 306.180494 -161.691901 
L 306.135998 -159.695207 
L 306.224786 -157.698512 
L 306.451556 -155.701818 
L 306.799368 -153.705124 
L 307.228911 -151.70843 
L 307.681504 -149.711736 
L 308.087563 -147.715041 
L 308.380231 -145.718347 
L 308.510969 -143.721653 
L 308.462092 -141.724959 
L 308.251698 -139.728264 
L 307.929235 -137.73157 
L 307.563455 -135.734876 
L 307.226933 -133.738182 
L 306.981548 -131.741488 
L 306.867812 -129.744793 
L 306.898978 -127.748099 
L 307.059835 -125.751405 
L 307.310174 -123.754711 
L 307.593214 -121.758017 
L 307.848634 -119.761322 
L 308.027899 -117.764628 
L 308.107513 -115.767934 
L 308.095228 -113.77124 
L 308.026387 -111.774545 
L 307.951603 -109.777851 
L 307.920835 -107.781157 
L 307.970262 -105.784463 
L 308.116381 -103.787769 
L 308.35783 -101.791074 
L 308.681859 -99.79438 
L 309.071255 -97.797686 
L 309.508994 -95.800992 
L 309.980658 -93.804298 
L 310.476543 -91.807603 
L 310.995386 -89.810909 
L 311.550166 -87.814215 
L 312.174949 -85.817521 
L 312.931217 -83.820826 
L 313.912086 -81.824132 
L 315.241816 -79.827438 
L 317.065391 -77.830744 
L 319.520707 -75.83405 
L 322.688195 -73.837355 
L 326.522999 -71.840661 
L 330.791089 -69.843967 
L 335.044091 -67.847273 
L 338.665583 -65.850579 
L 340.997667 -63.853884 
L 341.517778 -61.85719 
L 340.002606 -59.860496 
L 336.610658 -57.863802 
L 331.845354 -55.867107 
L 326.412216 -53.870413 
L 321.028572 -51.873719 
L 316.258245 -49.877025 
L 312.422751 -47.880331 
L 309.600491 -45.883636 
z
" style="stroke: #7a7a7a; stroke-width: 1.5"/>
    </defs>
    <g clip-path="url(#p1a459ce51d)">
     <use xlink:href="#mc5360bcf33" x="0" y="288" style="fill: #b9ccdd; stroke: #7a7a7a; stroke-width: 1.5"/>
    </g>
   </g>
   <g id="matplotlib.axis_1">
    <g id="xtick_1">
     <g id="line2d_1">
      <defs>
       <path id="m0827180f88" d="M 0 0 
L 0 3.5 
" style="stroke: #000000; stroke-width: 0.8"/>
      </defs>
      <g>
       <use xlink:href="#m0827180f88" x="137.7" y="252" style="stroke: #000000; stroke-width: 0.8"/>
      </g>
     </g>
     <g id="text_1">
      <!-- 0.0 -->
      <g transform="translate(129.748437 266.598437)scale(0.1 -0.1)">
       <defs>
        <path id="DejaVuSans-30" d="M 2034 4250 
Q 1547 4250 1301 3770 
Q 1056 3291 1056 2328 
Q 1056 1369 1301 889 
Q 1547 409 2034 409 
Q 2525 409 2770 889 
Q 3016 1369 3016 2328 
Q 3016 3291 2770 3770 
Q 2525 4250 2034 4250 
z
M 2034 4750 
Q 2819 4750 3233 4129 
Q 3647 3509 3647 2328 
Q 3647 1150 3233 529 
Q 2819 -91 2034 -91 
Q 1250 -91 836 529 
Q 422 1150 422 2328 
Q 422 3509 836 4129 
Q 1250 4750 2034 4750 
z
" transform="scale(0.015625)"/>
        <path id="DejaVuSans-2e" d="M 684 794 
L 1344 794 
L 1344 0 
L 684 0 
L 684 794 
z
" transform="scale(0.015625)"/>
       </defs>
       <use xlink:href="#DejaVuSans-30"/>
       <use xlink:href="#DejaVuSans-2e" x="63.623047"/>
       <use xlink:href="#DejaVuSans-30" x="95.410156"/>
      </g>
     </g>
    </g>
    <g id="xtick_2">
     <g id="line2d_2">
      <g>
       <use xlink:href="#m0827180f88" x="305.1" y="252" style="stroke: #000000; stroke-width: 0.8"/>
      </g>
     </g>
     <g id="text_2">
      <!-- 1.0 -->
      <g transform="translate(297.148438 266.598437)scale(0.1 -0.1)">
       <defs>
        <path id="DejaVuSans-31" d="M 794 531 
L 1825 531 
L 1825 4091 
L 703 3866 
L 703 4441 
L 1819 4666 
L 2450 4666 
L 2450 531 
L 3481 531 
L 3481 0 
L 794 0 
L 794 531 
z
" transform="scale(0.015625)"/>
       </defs>
       <use xlink:href="#DejaVuSans-31"/>
       <use xlink:href="#DejaVuSans-2e" x="63.623047"/>
       <use xlink:href="#DejaVuSans-30" x="95.410156"/>
      </g>
     </g>
    </g>
    <g id="text_3">
     <!-- Diabetes_binary -->
     <g transform="translate(180.89375 280.276563)scale(0.1 -0.1)">
      <defs>
       <path id="DejaVuSans-44" d="M 1259 4147 
L 1259 519 
L 2022 519 
Q 2988 519 3436 956 
Q 3884 1394 3884 2338 
Q 3884 3275 3436 3711 
Q 2988 4147 2022 4147 
L 1259 4147 
z
M 628 4666 
L 1925 4666 
Q 3281 4666 3915 4102 
Q 4550 3538 4550 2338 
Q 4550 1131 3912 565 
Q 3275 0 1925 0 
L 628 0 
L 628 4666 
z
" transform="scale(0.015625)"/>
       <path id="DejaVuSans-69" d="M 603 3500 
L 1178 3500 
L 1178 0 
L 603 0 
L 603 3500 
z
M 603 4863 
L 1178 4863 
L 1178 4134 
L 603 4134 
L 603 4863 
z
" transform="scale(0.015625)"/>
       <path id="DejaVuSans-61" d="M 2194 1759 
Q 1497 1759 1228 1600 
Q 959 1441 959 1056 
Q 959 750 1161 570 
Q 1363 391 1709 391 
Q 2188 391 2477 730 
Q 2766 1069 2766 1631 
L 2766 1759 
L 2194 1759 
z
M 3341 1997 
L 3341 0 
L 2766 0 
L 2766 531 
Q 2569 213 2275 61 
Q 1981 -91 1556 -91 
Q 1019 -91 701 211 
Q 384 513 384 1019 
Q 384 1609 779 1909 
Q 1175 2209 1959 2209 
L 2766 2209 
L 2766 2266 
Q 2766 2663 2505 2880 
Q 2244 3097 1772 3097 
Q 1472 3097 1187 3025 
Q 903 2953 641 2809 
L 641 3341 
Q 956 3463 1253 3523 
Q 1550 3584 1831 3584 
Q 2591 3584 2966 3190 
Q 3341 2797 3341 1997 
z
" transform="scale(0.015625)"/>
       <path id="DejaVuSans-62" d="M 3116 1747 
Q 3116 2381 2855 2742 
Q 2594 3103 2138 3103 
Q 1681 3103 1420 2742 
Q 1159 2381 1159 1747 
Q 1159 1113 1420 752 
Q 1681 391 2138 391 
Q 2594 391 2855 752 
Q 3116 1113 3116 1747 
z
M 1159 2969 
Q 1341 3281 1617 3432 
Q 1894 3584 2278 3584 
Q 2916 3584 3314 3078 
Q 3713 2572 3713 1747 
Q 3713 922 3314 415 
Q 2916 -91 2278 -91 
Q 1894 -91 1617 61 
Q 1341 213 1159 525 
L 1159 0 
L 581 0 
L 581 4863 
L 1159 4863 
L 1159 2969 
z
" transform="scale(0.015625)"/>
       <path id="DejaVuSans-65" d="M 3597 1894 
L 3597 1613 
L 953 1613 
Q 991 1019 1311 708 
Q 1631 397 2203 397 
Q 2534 397 2845 478 
Q 3156 559 3463 722 
L 3463 178 
Q 3153 47 2828 -22 
Q 2503 -91 2169 -91 
Q 1331 -91 842 396 
Q 353 884 353 1716 
Q 353 2575 817 3079 
Q 1281 3584 2069 3584 
Q 2775 3584 3186 3129 
Q 3597 2675 3597 1894 
z
M 3022 2063 
Q 3016 2534 2758 2815 
Q 2500 3097 2075 3097 
Q 1594 3097 1305 2825 
Q 1016 2553 972 2059 
L 3022 2063 
z
" transform="scale(0.015625)"/>
       <path id="DejaVuSans-74" d="M 1172 4494 
L 1172 3500 
L 2356 3500 
L 2356 3053 
L 1172 3053 
L 1172 1153 
Q 1172 725 1289 603 
Q 1406 481 1766 481 
L 2356 481 
L 2356 0 
L 1766 0 
Q 1100 0 847 248 
Q 594 497 594 1153 
L 594 3053 
L 172 3053 
L 172 3500 
L 594 3500 
L 594 4494 
L 1172 4494 
z
" transform="scale(0.015625)"/>
       <path id="DejaVuSans-73" d="M 2834 3397 
L 2834 2853 
Q 2591 2978 2328 3040 
Q 2066 3103 1784 3103 
Q 1356 3103 1142 2972 
Q 928 2841 928 2578 
Q 928 2378 1081 2264 
Q 1234 2150 1697 2047 
L 1894 2003 
Q 2506 1872 2764 1633 
Q 3022 1394 3022 966 
Q 3022 478 2636 193 
Q 2250 -91 1575 -91 
Q 1294 -91 989 -36 
Q 684 19 347 128 
L 347 722 
Q 666 556 975 473 
Q 1284 391 1588 391 
Q 1994 391 2212 530 
Q 2431 669 2431 922 
Q 2431 1156 2273 1281 
Q 2116 1406 1581 1522 
L 1381 1569 
Q 847 1681 609 1914 
Q 372 2147 372 2553 
Q 372 3047 722 3315 
Q 1072 3584 1716 3584 
Q 2034 3584 2315 3537 
Q 2597 3491 2834 3397 
z
" transform="scale(0.015625)"/>
       <path id="DejaVuSans-5f" d="M 3263 -1063 
L 3263 -1509 
L -63 -1509 
L -63 -1063 
L 3263 -1063 
z
" transform="scale(0.015625)"/>
       <path id="DejaVuSans-6e" d="M 3513 2113 
L 3513 0 
L 2938 0 
L 2938 2094 
Q 2938 2591 2744 2837 
Q 2550 3084 2163 3084 
Q 1697 3084 1428 2787 
Q 1159 2491 1159 1978 
L 1159 0 
L 581 0 
L 581 3500 
L 1159 3500 
L 1159 2956 
Q 1366 3272 1645 3428 
Q 1925 3584 2291 3584 
Q 2894 3584 3203 3211 
Q 3513 2838 3513 2113 
z
" transform="scale(0.015625)"/>
       <path id="DejaVuSans-72" d="M 2631 2963 
Q 2534 3019 2420 3045 
Q 2306 3072 2169 3072 
Q 1681 3072 1420 2755 
Q 1159 2438 1159 1844 
L 1159 0 
L 581 0 
L 581 3500 
L 1159 3500 
L 1159 2956 
Q 1341 3275 1631 3429 
Q 1922 3584 2338 3584 
Q 2397 3584 2469 3576 
Q 2541 3569 2628 3553 
L 2631 2963 
z
" transform="scale(0.015625)"/>
       <path id="DejaVuSans-79" d="M 2059 -325 
Q 1816 -950 1584 -1140 
Q 1353 -1331 966 -1331 
L 506 -1331 
L 506 -850 
L 844 -850 
Q 1081 -850 1212 -737 
Q 1344 -625 1503 -206 
L 1606 56 
L 191 3500 
L 800 3500 
L 1894 763 
L 2988 3500 
L 3597 3500 
L 2059 -325 
z
" transform="scale(0.015625)"/>
      </defs>
      <use xlink:href="#DejaVuSans-44"/>
      <use xlink:href="#DejaVuSans-69" x="77.001953"/>
      <use xlink:href="#DejaVuSans-61" x="104.785156"/>
      <use xlink:href="#DejaVuSans-62" x="166.064453"/>
      <use xlink:href="#DejaVuSans-65" x="229.541016"/>
      <use xlink:href="#DejaVuSans-74" x="291.064453"/>
      <use xlink:href="#DejaVuSans-65" x="330.273438"/>
      <use xlink:href="#DejaVuSans-73" x="391.796875"/>
      <use xlink:href="#DejaVuSans-5f" x="443.896484"/>
      <use xlink:href="#DejaVuSans-62" x="493.896484"/>
      <use xlink:href="#DejaVuSans-69" x="557.373047"/>
      <use xlink:href="#DejaVuSans-6e" x="585.15625"/>
      <use xlink:href="#DejaVuSans-61" x="648.535156"/>
      <use xlink:href="#DejaVuSans-72" x="709.814453"/>
      <use xlink:href="#DejaVuSans-79" x="750.927734"/>
     </g>
    </g>
   </g>
   <g id="matplotlib.axis_2">
    <g id="ytick_1">
     <g id="line2d_3">
      <defs>
       <path id="mf98d81ca9b" d="M 0 0 
L -3.5 0 
" style="stroke: #000000; stroke-width: 0.8"/>
      </defs>
      <g>
       <use xlink:href="#mf98d81ca9b" x="54" y="226.649159" style="stroke: #000000; stroke-width: 0.8"/>
      </g>
     </g>
     <g id="text_4">
      <!-- 0 -->
      <g transform="translate(40.6375 230.448378)scale(0.1 -0.1)">
       <use xlink:href="#DejaVuSans-30"/>
      </g>
     </g>
    </g>
    <g id="ytick_2">
     <g id="line2d_4">
      <g>
       <use xlink:href="#mf98d81ca9b" x="54" y="198.859439" style="stroke: #000000; stroke-width: 0.8"/>
      </g>
     </g>
     <g id="text_5">
      <!-- 5 -->
      <g transform="translate(40.6375 202.658658)scale(0.1 -0.1)">
       <defs>
        <path id="DejaVuSans-35" d="M 691 4666 
L 3169 4666 
L 3169 4134 
L 1269 4134 
L 1269 2991 
Q 1406 3038 1543 3061 
Q 1681 3084 1819 3084 
Q 2600 3084 3056 2656 
Q 3513 2228 3513 1497 
Q 3513 744 3044 326 
Q 2575 -91 1722 -91 
Q 1428 -91 1123 -41 
Q 819 9 494 109 
L 494 744 
Q 775 591 1075 516 
Q 1375 441 1709 441 
Q 2250 441 2565 725 
Q 2881 1009 2881 1497 
Q 2881 1984 2565 2268 
Q 2250 2553 1709 2553 
Q 1456 2553 1204 2497 
Q 953 2441 691 2322 
L 691 4666 
z
" transform="scale(0.015625)"/>
       </defs>
       <use xlink:href="#DejaVuSans-35"/>
      </g>
     </g>
    </g>
    <g id="ytick_3">
     <g id="line2d_5">
      <g>
       <use xlink:href="#mf98d81ca9b" x="54" y="171.06972" style="stroke: #000000; stroke-width: 0.8"/>
      </g>
     </g>
     <g id="text_6">
      <!-- 10 -->
      <g transform="translate(34.275 174.868938)scale(0.1 -0.1)">
       <use xlink:href="#DejaVuSans-31"/>
       <use xlink:href="#DejaVuSans-30" x="63.623047"/>
      </g>
     </g>
    </g>
    <g id="ytick_4">
     <g id="line2d_6">
      <g>
       <use xlink:href="#mf98d81ca9b" x="54" y="143.28" style="stroke: #000000; stroke-width: 0.8"/>
      </g>
     </g>
     <g id="text_7">
      <!-- 15 -->
      <g transform="translate(34.275 147.079219)scale(0.1 -0.1)">
       <use xlink:href="#DejaVuSans-31"/>
       <use xlink:href="#DejaVuSans-35" x="63.623047"/>
      </g>
     </g>
    </g>
    <g id="ytick_5">
     <g id="line2d_7">
      <g>
       <use xlink:href="#mf98d81ca9b" x="54" y="115.49028" style="stroke: #000000; stroke-width: 0.8"/>
      </g>
     </g>
     <g id="text_8">
      <!-- 20 -->
      <g transform="translate(34.275 119.289499)scale(0.1 -0.1)">
       <defs>
        <path id="DejaVuSans-32" d="M 1228 531 
L 3431 531 
L 3431 0 
L 469 0 
L 469 531 
Q 828 903 1448 1529 
Q 2069 2156 2228 2338 
Q 2531 2678 2651 2914 
Q 2772 3150 2772 3378 
Q 2772 3750 2511 3984 
Q 2250 4219 1831 4219 
Q 1534 4219 1204 4116 
Q 875 4013 500 3803 
L 500 4441 
Q 881 4594 1212 4672 
Q 1544 4750 1819 4750 
Q 2544 4750 2975 4387 
Q 3406 4025 3406 3419 
Q 3406 3131 3298 2873 
Q 3191 2616 2906 2266 
Q 2828 2175 2409 1742 
Q 1991 1309 1228 531 
z
" transform="scale(0.015625)"/>
       </defs>
       <use xlink:href="#DejaVuSans-32"/>
       <use xlink:href="#DejaVuSans-30" x="63.623047"/>
      </g>
     </g>
    </g>
    <g id="ytick_6">
     <g id="line2d_8">
      <g>
       <use xlink:href="#mf98d81ca9b" x="54" y="87.700561" style="stroke: #000000; stroke-width: 0.8"/>
      </g>
     </g>
     <g id="text_9">
      <!-- 25 -->
      <g transform="translate(34.275 91.499779)scale(0.1 -0.1)">
       <use xlink:href="#DejaVuSans-32"/>
       <use xlink:href="#DejaVuSans-35" x="63.623047"/>
      </g>
     </g>
    </g>
    <g id="ytick_7">
     <g id="line2d_9">
      <g>
       <use xlink:href="#mf98d81ca9b" x="54" y="59.910841" style="stroke: #000000; stroke-width: 0.8"/>
      </g>
     </g>
     <g id="text_10">
      <!-- 30 -->
      <g transform="translate(34.275 63.71006)scale(0.1 -0.1)">
       <defs>
        <path id="DejaVuSans-33" d="M 2597 2516 
Q 3050 2419 3304 2112 
Q 3559 1806 3559 1356 
Q 3559 666 3084 287 
Q 2609 -91 1734 -91 
Q 1441 -91 1130 -33 
Q 819 25 488 141 
L 488 750 
Q 750 597 1062 519 
Q 1375 441 1716 441 
Q 2309 441 2620 675 
Q 2931 909 2931 1356 
Q 2931 1769 2642 2001 
Q 2353 2234 1838 2234 
L 1294 2234 
L 1294 2753 
L 1863 2753 
Q 2328 2753 2575 2939 
Q 2822 3125 2822 3475 
Q 2822 3834 2567 4026 
Q 2313 4219 1838 4219 
Q 1578 4219 1281 4162 
Q 984 4106 628 3988 
L 628 4550 
Q 988 4650 1302 4700 
Q 1616 4750 1894 4750 
Q 2613 4750 3031 4423 
Q 3450 4097 3450 3541 
Q 3450 3153 3228 2886 
Q 3006 2619 2597 2516 
z
" transform="scale(0.015625)"/>
       </defs>
       <use xlink:href="#DejaVuSans-33"/>
       <use xlink:href="#DejaVuSans-30" x="63.623047"/>
      </g>
     </g>
    </g>
    <g id="text_11">
     <!-- PhysHlth -->
     <g transform="translate(28.195312 165.305781)rotate(-90)scale(0.1 -0.1)">
      <defs>
       <path id="DejaVuSans-50" d="M 1259 4147 
L 1259 2394 
L 2053 2394 
Q 2494 2394 2734 2622 
Q 2975 2850 2975 3272 
Q 2975 3691 2734 3919 
Q 2494 4147 2053 4147 
L 1259 4147 
z
M 628 4666 
L 2053 4666 
Q 2838 4666 3239 4311 
Q 3641 3956 3641 3272 
Q 3641 2581 3239 2228 
Q 2838 1875 2053 1875 
L 1259 1875 
L 1259 0 
L 628 0 
L 628 4666 
z
" transform="scale(0.015625)"/>
       <path id="DejaVuSans-68" d="M 3513 2113 
L 3513 0 
L 2938 0 
L 2938 2094 
Q 2938 2591 2744 2837 
Q 2550 3084 2163 3084 
Q 1697 3084 1428 2787 
Q 1159 2491 1159 1978 
L 1159 0 
L 581 0 
L 581 4863 
L 1159 4863 
L 1159 2956 
Q 1366 3272 1645 3428 
Q 1925 3584 2291 3584 
Q 2894 3584 3203 3211 
Q 3513 2838 3513 2113 
z
" transform="scale(0.015625)"/>
       <path id="DejaVuSans-48" d="M 628 4666 
L 1259 4666 
L 1259 2753 
L 3553 2753 
L 3553 4666 
L 4184 4666 
L 4184 0 
L 3553 0 
L 3553 2222 
L 1259 2222 
L 1259 0 
L 628 0 
L 628 4666 
z
" transform="scale(0.015625)"/>
       <path id="DejaVuSans-6c" d="M 603 4863 
L 1178 4863 
L 1178 0 
L 603 0 
L 603 4863 
z
" transform="scale(0.015625)"/>
      </defs>
      <use xlink:href="#DejaVuSans-50"/>
      <use xlink:href="#DejaVuSans-68" x="60.302734"/>
      <use xlink:href="#DejaVuSans-79" x="123.681641"/>
      <use xlink:href="#DejaVuSans-73" x="182.861328"/>
      <use xlink:href="#DejaVuSans-48" x="234.960938"/>
      <use xlink:href="#DejaVuSans-6c" x="310.15625"/>
      <use xlink:href="#DejaVuSans-74" x="337.939453"/>
      <use xlink:href="#DejaVuSans-68" x="377.148438"/>
     </g>
    </g>
   </g>
   <g id="line2d_10">
    <path d="M 137.7 226.649159 
L 137.7 198.859439 
" clip-path="url(#p1a459ce51d)" style="fill: none; stroke: #7a7a7a; stroke-width: 1.5; stroke-linecap: square"/>
   </g>
   <g id="line2d_11">
    <path d="M 137.7 226.649159 
L 137.7 215.533271 
" clip-path="url(#p1a459ce51d)" style="fill: none; stroke: #7a7a7a; stroke-width: 4.5; stroke-linecap: square"/>
   </g>
   <g id="line2d_12">
    <path d="M 305.1 226.649159 
L 305.1 59.910841 
" clip-path="url(#p1a459ce51d)" style="fill: none; stroke: #7a7a7a; stroke-width: 1.5; stroke-linecap: square"/>
   </g>
   <g id="line2d_13">
    <path d="M 305.1 226.649159 
L 305.1 143.28 
" clip-path="url(#p1a459ce51d)" style="fill: none; stroke: #7a7a7a; stroke-width: 4.5; stroke-linecap: square"/>
   </g>
   <g id="patch_3">
    <path d="M 54 252 
L 54 34.56 
" style="fill: none; stroke: #000000; stroke-width: 0.8; stroke-linejoin: miter; stroke-linecap: square"/>
   </g>
   <g id="patch_4">
    <path d="M 388.8 252 
L 388.8 34.56 
" style="fill: none; stroke: #000000; stroke-width: 0.8; stroke-linejoin: miter; stroke-linecap: square"/>
   </g>
   <g id="patch_5">
    <path d="M 54 252 
L 388.8 252 
" style="fill: none; stroke: #000000; stroke-width: 0.8; stroke-linejoin: miter; stroke-linecap: square"/>
   </g>
   <g id="patch_6">
    <path d="M 54 34.56 
L 388.8 34.56 
" style="fill: none; stroke: #000000; stroke-width: 0.8; stroke-linejoin: miter; stroke-linecap: square"/>
   </g>
   <g id="PathCollection_1">
    <defs>
     <path id="mcebc0873c9" d="M 0 1.5 
C 0.397805 1.5 0.77937 1.341951 1.06066 1.06066 
C 1.341951 0.77937 1.5 0.397805 1.5 0 
C 1.5 -0.397805 1.341951 -0.77937 1.06066 -1.06066 
C 0.77937 -1.341951 0.397805 -1.5 0 -1.5 
C -0.397805 -1.5 -0.77937 -1.341951 -1.06066 -1.06066 
C -1.341951 -0.77937 -1.5 -0.397805 -1.5 0 
C -1.5 0.397805 -1.341951 0.77937 -1.06066 1.06066 
C -0.77937 1.341951 -0.397805 1.5 0 1.5 
z
" style="stroke: #7a7a7a"/>
    </defs>
    <g clip-path="url(#p1a459ce51d)">
     <use xlink:href="#mcebc0873c9" x="137.7" y="226.649159" style="fill: #ffffff; stroke: #7a7a7a"/>
    </g>
   </g>
   <g id="PathCollection_2">
    <g clip-path="url(#p1a459ce51d)">
     <use xlink:href="#mcebc0873c9" x="305.1" y="221.091215" style="fill: #ffffff; stroke: #7a7a7a"/>
    </g>
   </g>
  </g>
 </g>
 <defs>
  <clipPath id="p1a459ce51d">
   <rect x="54" y="34.56" width="334.8" height="217.44"/>
  </clipPath>
 </defs>
</svg>
