<?xml version="1.0" encoding="utf-8" standalone="no"?>
<!DOCTYPE svg PUBLIC "-//W3C//DTD SVG 1.1//EN"
  "http://www.w3.org/Graphics/SVG/1.1/DTD/svg11.dtd">
<svg xmlns:xlink="http://www.w3.org/1999/xlink" width="432pt" height="288pt" viewBox="0 0 432 288" xmlns="http://www.w3.org/2000/svg" version="1.1">
 <metadata>
  <rdf:RDF xmlns:dc="http://purl.org/dc/elements/1.1/" xmlns:cc="http://creativecommons.org/ns#" xmlns:rdf="http://www.w3.org/1999/02/22-rdf-syntax-ns#">
   <cc:Work>
    <dc:type rdf:resource="http://purl.org/dc/dcmitype/StillImage"/>
    <dc:date>2023-05-03T02:46:56.439204</dc:date>
    <dc:format>image/svg+xml</dc:format>
    <dc:creator>
     <cc:Agent>
      <dc:title>Matplotlib v3.5.3, https://matplotlib.org/</dc:title>
     </cc:Agent>
    </dc:creator>
   </cc:Work>
  </rdf:RDF>
 </metadata>
 <defs>
  <style type="text/css">*{stroke-linejoin: round; stroke-linecap: butt}</style>
 </defs>
 <g id="figure_1">
  <g id="patch_1">
   <path d="M 0 288 
L 432 288 
L 432 0 
L 0 0 
L 0 288 
z
" style="fill: none"/>
  </g>
  <g id="axes_1">
   <g id="patch_2">
    <path d="M 54 252 
L 388.8 252 
L 388.8 34.56 
L 54 34.56 
z
" style="fill: #ffffff"/>
   </g>
   <g id="PolyCollection_1">
    <defs>
     <path id="m2043190297" d="M 146.777806 -46.033005 
L 128.622194 -46.033005 
L 124.284309 -48.026682 
L 118.696466 -50.020359 
L 111.898504 -52.014035 
L 104.122794 -54.007712 
L 95.81742 -56.001389 
L 87.626094 -57.995065 
L 80.317602 -59.988742 
L 74.671772 -61.982419 
L 71.343927 -63.976095 
L 70.74 -65.969772 
L 72.935146 -67.963449 
L 77.658364 -69.957125 
L 84.347494 -71.950802 
L 92.259164 -73.944479 
L 100.604008 -75.938155 
L 108.673355 -77.931832 
L 115.930129 -79.925508 
L 122.05037 -81.919185 
L 126.916954 -83.912862 
L 130.578556 -85.906538 
L 133.192001 -87.900215 
L 134.964802 -89.893892 
L 136.10932 -91.887568 
L 136.813322 -93.881245 
L 137.226262 -95.874922 
L 137.457395 -97.868598 
L 137.580917 -99.862275 
L 137.643974 -101.855952 
L 137.674735 -103.849628 
L 137.68908 -105.843305 
L 137.695476 -107.836982 
L 137.698203 -109.830658 
L 137.699316 -111.824335 
L 137.699751 -113.818012 
L 137.699913 -115.811688 
L 137.699971 -117.805365 
L 137.699991 -119.799042 
L 137.699997 -121.792718 
L 137.699999 -123.786395 
L 137.7 -125.780072 
L 137.7 -127.773748 
L 137.7 -129.767425 
L 137.7 -131.761102 
L 137.7 -133.754778 
L 137.7 -135.748455 
L 137.7 -137.742132 
L 137.7 -139.735808 
L 137.7 -141.729485 
L 137.7 -143.723162 
L 137.7 -145.716838 
L 137.7 -147.710515 
L 137.7 -149.704192 
L 137.7 -151.697868 
L 137.7 -153.691545 
L 137.7 -155.685222 
L 137.7 -157.678898 
L 137.7 -159.672575 
L 137.7 -161.666252 
L 137.7 -163.659928 
L 137.699999 -165.653605 
L 137.699998 -167.647282 
L 137.699993 -169.640958 
L 137.699978 -171.634635 
L 137.699933 -173.628312 
L 137.699808 -175.621988 
L 137.699474 -177.615665 
L 137.698618 -179.609342 
L 137.696519 -181.603018 
L 137.691597 -183.596695 
L 137.680558 -185.590372 
L 137.656887 -187.584048 
L 137.608364 -189.577725 
L 137.513312 -191.571402 
L 137.335453 -193.565078 
L 137.01769 -195.558755 
L 136.475953 -197.552432 
L 135.595233 -199.546108 
L 134.231041 -201.539785 
L 132.219964 -203.533462 
L 129.402318 -205.527138 
L 125.657424 -207.520815 
L 120.947825 -209.514492 
L 115.363652 -211.508168 
L 109.154193 -213.501845 
L 102.732736 -215.495521 
L 96.644612 -217.489198 
L 91.497247 -219.482875 
L 87.862675 -221.476551 
L 86.173484 -223.470228 
L 86.638213 -225.463905 
L 89.19903 -227.457581 
L 93.543563 -229.451258 
L 99.167534 -231.444935 
L 105.470857 -233.438611 
L 111.86194 -235.432288 
L 117.845442 -237.425965 
L 123.076554 -239.419641 
L 127.376466 -241.413318 
L 130.71452 -243.406995 
L 144.68548 -243.406995 
L 144.68548 -243.406995 
L 148.023534 -241.413318 
L 152.323446 -239.419641 
L 157.554558 -237.425965 
L 163.53806 -235.432288 
L 169.929143 -233.438611 
L 176.232466 -231.444935 
L 181.856437 -229.451258 
L 186.20097 -227.457581 
L 188.761787 -225.463905 
L 189.226516 -223.470228 
L 187.537325 -221.476551 
L 183.902753 -219.482875 
L 178.755388 -217.489198 
L 172.667264 -215.495521 
L 166.245807 -213.501845 
L 160.036348 -211.508168 
L 154.452175 -209.514492 
L 149.742576 -207.520815 
L 145.997682 -205.527138 
L 143.180036 -203.533462 
L 141.168959 -201.539785 
L 139.804767 -199.546108 
L 138.924047 -197.552432 
L 138.38231 -195.558755 
L 138.064547 -193.565078 
L 137.886688 -191.571402 
L 137.791636 -189.577725 
L 137.743113 -187.584048 
L 137.719442 -185.590372 
L 137.708403 -183.596695 
L 137.703481 -181.603018 
L 137.701382 -179.609342 
L 137.700526 -177.615665 
L 137.700192 -175.621988 
L 137.700067 -173.628312 
L 137.700022 -171.634635 
L 137.700007 -169.640958 
L 137.700002 -167.647282 
L 137.700001 -165.653605 
L 137.7 -163.659928 
L 137.7 -161.666252 
L 137.7 -159.672575 
L 137.7 -157.678898 
L 137.7 -155.685222 
L 137.7 -153.691545 
L 137.7 -151.697868 
L 137.7 -149.704192 
L 137.7 -147.710515 
L 137.7 -145.716838 
L 137.7 -143.723162 
L 137.7 -141.729485 
L 137.7 -139.735808 
L 137.7 -137.742132 
L 137.7 -135.748455 
L 137.7 -133.754778 
L 137.7 -131.761102 
L 137.7 -129.767425 
L 137.7 -127.773748 
L 137.7 -125.780072 
L 137.700001 -123.786395 
L 137.700003 -121.792718 
L 137.700009 -119.799042 
L 137.700029 -117.805365 
L 137.700087 -115.811688 
L 137.700249 -113.818012 
L 137.700684 -111.824335 
L 137.701797 -109.830658 
L 137.704524 -107.836982 
L 137.71092 -105.843305 
L 137.725265 -103.849628 
L 137.756026 -101.855952 
L 137.819083 -99.862275 
L 137.942605 -97.868598 
L 138.173738 -95.874922 
L 138.586678 -93.881245 
L 139.29068 -91.887568 
L 140.435198 -89.893892 
L 142.207999 -87.900215 
L 144.821444 -85.906538 
L 148.483046 -83.912862 
L 153.34963 -81.919185 
L 159.469871 -79.925508 
L 166.726645 -77.931832 
L 174.795992 -75.938155 
L 183.140836 -73.944479 
L 191.052506 -71.950802 
L 197.741636 -69.957125 
L 202.464854 -67.963449 
L 204.66 -65.969772 
L 204.056073 -63.976095 
L 200.728228 -61.982419 
L 195.082398 -59.988742 
L 187.773906 -57.995065 
L 179.58258 -56.001389 
L 171.277206 -54.007712 
L 163.501496 -52.014035 
L 156.703534 -50.020359 
L 151.115691 -48.026682 
L 146.777806 -46.033005 
z
" style="stroke: #7a7a7a; stroke-width: 1.5"/>
    </defs>
    <g clip-path="url(#p5eef1711f5)">
     <use xlink:href="#m2043190297" x="0" y="288" style="fill: #f1bcb8; stroke: #7a7a7a; stroke-width: 1.5"/>
    </g>
   </g>
   <g id="PolyCollection_2">
    <defs>
     <path id="m5c61e101c9" d="M 313.402993 -45.883636 
L 296.797007 -45.883636 
L 292.857234 -47.880331 
L 287.788313 -49.877025 
L 281.624531 -51.873719 
L 274.571592 -53.870413 
L 267.027706 -55.867107 
L 259.56672 -57.863802 
L 252.876756 -59.860496 
L 247.660089 -61.85719 
L 244.513107 -63.853884 
L 243.814377 -65.850579 
L 245.649769 -67.847273 
L 249.795116 -69.843967 
L 255.761216 -71.840661 
L 262.888732 -73.837355 
L 270.467538 -75.83405 
L 277.850826 -77.830744 
L 284.539279 -79.827438 
L 290.222213 -81.824132 
L 294.775873 -83.820826 
L 298.229579 -85.817521 
L 300.715416 -87.814215 
L 302.416582 -89.810909 
L 303.525062 -91.807603 
L 304.213552 -93.804298 
L 304.621526 -95.800992 
L 304.852327 -97.797686 
L 304.977054 -99.79438 
L 305.041472 -101.791074 
L 305.07328 -103.787769 
L 305.088302 -105.784463 
L 305.095089 -107.781157 
L 305.098023 -109.777851 
L 305.099236 -111.774545 
L 305.099717 -113.77124 
L 305.0999 -115.767934 
L 305.099966 -117.764628 
L 305.099989 -119.761322 
L 305.099997 -121.758017 
L 305.099999 -123.754711 
L 305.1 -125.751405 
L 305.1 -127.748099 
L 305.1 -129.744793 
L 305.1 -131.741488 
L 305.1 -133.738182 
L 305.1 -135.734876 
L 305.1 -137.73157 
L 305.1 -139.728264 
L 305.1 -141.724959 
L 305.1 -143.721653 
L 305.1 -145.718347 
L 305.1 -147.715041 
L 305.1 -149.711736 
L 305.1 -151.70843 
L 305.1 -153.705124 
L 305.1 -155.701818 
L 305.1 -157.698512 
L 305.1 -159.695207 
L 305.1 -161.691901 
L 305.1 -163.688595 
L 305.099999 -165.685289 
L 305.099997 -167.681983 
L 305.09999 -169.678678 
L 305.099969 -171.675372 
L 305.099908 -173.672066 
L 305.09974 -175.66876 
L 305.099298 -177.665455 
L 305.098181 -179.662149 
L 305.095482 -181.658843 
L 305.08924 -183.655537 
L 305.075423 -185.652231 
L 305.046164 -187.648926 
L 304.986911 -189.64562 
L 304.872183 -191.642314 
L 304.659885 -193.639008 
L 304.284618 -195.635702 
L 303.651324 -197.632397 
L 302.63171 -199.629091 
L 301.066926 -201.625785 
L 298.780377 -203.622479 
L 295.603553 -205.619174 
L 291.414958 -207.615868 
L 286.187621 -209.612562 
L 280.035377 -211.609256 
L 273.244004 -213.60595 
L 266.272786 -215.602645 
L 259.71668 -217.599339 
L 254.228878 -219.596033 
L 250.415862 -221.592727 
L 248.727612 -223.589421 
L 249.370326 -225.586116 
L 252.265016 -227.58281 
L 257.063466 -229.579504 
L 263.217098 -231.576198 
L 270.079942 -233.572893 
L 277.019038 -235.569587 
L 283.506547 -237.566281 
L 289.176181 -239.562975 
L 293.83873 -241.559669 
L 297.462653 -243.556364 
L 312.737347 -243.556364 
L 312.737347 -243.556364 
L 316.36127 -241.559669 
L 321.023819 -239.562975 
L 326.693453 -237.566281 
L 333.180962 -235.569587 
L 340.120058 -233.572893 
L 346.982902 -231.576198 
L 353.136534 -229.579504 
L 357.934984 -227.58281 
L 360.829674 -225.586116 
L 361.472388 -223.589421 
L 359.784138 -221.592727 
L 355.971122 -219.596033 
L 350.48332 -217.599339 
L 343.927214 -215.602645 
L 336.955996 -213.60595 
L 330.164623 -211.609256 
L 324.012379 -209.612562 
L 318.785042 -207.615868 
L 314.596447 -205.619174 
L 311.419623 -203.622479 
L 309.133074 -201.625785 
L 307.56829 -199.629091 
L 306.548676 -197.632397 
L 305.915382 -195.635702 
L 305.540115 -193.639008 
L 305.327817 -191.642314 
L 305.213089 -189.64562 
L 305.153836 -187.648926 
L 305.124577 -185.652231 
L 305.11076 -183.655537 
L 305.104518 -181.658843 
L 305.101819 -179.662149 
L 305.100702 -177.665455 
L 305.10026 -175.66876 
L 305.100092 -173.672066 
L 305.100031 -171.675372 
L 305.10001 -169.678678 
L 305.100003 -167.681983 
L 305.100001 -165.685289 
L 305.1 -163.688595 
L 305.1 -161.691901 
L 305.1 -159.695207 
L 305.1 -157.698512 
L 305.1 -155.701818 
L 305.1 -153.705124 
L 305.1 -151.70843 
L 305.1 -149.711736 
L 305.1 -147.715041 
L 305.1 -145.718347 
L 305.1 -143.721653 
L 305.1 -141.724959 
L 305.1 -139.728264 
L 305.1 -137.73157 
L 305.1 -135.734876 
L 305.1 -133.738182 
L 305.1 -131.741488 
L 305.1 -129.744793 
L 305.1 -127.748099 
L 305.1 -125.751405 
L 305.100001 -123.754711 
L 305.100003 -121.758017 
L 305.100011 -119.761322 
L 305.100034 -117.764628 
L 305.1001 -115.767934 
L 305.100283 -113.77124 
L 305.100764 -111.774545 
L 305.101977 -109.777851 
L 305.104911 -107.781157 
L 305.111698 -105.784463 
L 305.12672 -103.787769 
L 305.158528 -101.791074 
L 305.222946 -99.79438 
L 305.347673 -97.797686 
L 305.578474 -95.800992 
L 305.986448 -93.804298 
L 306.674938 -91.807603 
L 307.783418 -89.810909 
L 309.484584 -87.814215 
L 311.970421 -85.817521 
L 315.424127 -83.820826 
L 319.977787 -81.824132 
L 325.660721 -79.827438 
L 332.349174 -77.830744 
L 339.732462 -75.83405 
L 347.311268 -73.837355 
L 354.438784 -71.840661 
L 360.404884 -69.843967 
L 364.550231 -67.847273 
L 366.385623 -65.850579 
L 365.686893 -63.853884 
L 362.539911 -61.85719 
L 357.323244 -59.860496 
L 350.63328 -57.863802 
L 343.172294 -55.867107 
L 335.628408 -53.870413 
L 328.575469 -51.873719 
L 322.411687 -49.877025 
L 317.342766 -47.880331 
L 313.402993 -45.883636 
z
" style="stroke: #7a7a7a; stroke-width: 1.5"/>
    </defs>
    <g clip-path="url(#p5eef1711f5)">
     <use xlink:href="#m5c61e101c9" x="0" y="288" style="fill: #b9ccdd; stroke: #7a7a7a; stroke-width: 1.5"/>
    </g>
   </g>
   <g id="matplotlib.axis_1">
    <g id="xtick_1">
     <g id="line2d_1">
      <defs>
       <path id="m70a5280741" d="M 0 0 
L 0 3.5 
" style="stroke: #000000; stroke-width: 0.8"/>
      </defs>
      <g>
       <use xlink:href="#m70a5280741" x="137.7" y="252" style="stroke: #000000; stroke-width: 0.8"/>
      </g>
     </g>
     <g id="text_1">
      <!-- 0.0 -->
      <g transform="translate(129.748437 266.598437)scale(0.1 -0.1)">
       <defs>
        <path id="DejaVuSans-30" d="M 2034 4250 
Q 1547 4250 1301 3770 
Q 1056 3291 1056 2328 
Q 1056 1369 1301 889 
Q 1547 409 2034 409 
Q 2525 409 2770 889 
Q 3016 1369 3016 2328 
Q 3016 3291 2770 3770 
Q 2525 4250 2034 4250 
z
M 2034 4750 
Q 2819 4750 3233 4129 
Q 3647 3509 3647 2328 
Q 3647 1150 3233 529 
Q 2819 -91 2034 -91 
Q 1250 -91 836 529 
Q 422 1150 422 2328 
Q 422 3509 836 4129 
Q 1250 4750 2034 4750 
z
" transform="scale(0.015625)"/>
        <path id="DejaVuSans-2e" d="M 684 794 
L 1344 794 
L 1344 0 
L 684 0 
L 684 794 
z
" transform="scale(0.015625)"/>
       </defs>
       <use xlink:href="#DejaVuSans-30"/>
       <use xlink:href="#DejaVuSans-2e" x="63.623047"/>
       <use xlink:href="#DejaVuSans-30" x="95.410156"/>
      </g>
     </g>
    </g>
    <g id="xtick_2">
     <g id="line2d_2">
      <g>
       <use xlink:href="#m70a5280741" x="305.1" y="252" style="stroke: #000000; stroke-width: 0.8"/>
      </g>
     </g>
     <g id="text_2">
      <!-- 1.0 -->
      <g transform="translate(297.148438 266.598437)scale(0.1 -0.1)">
       <defs>
        <path id="DejaVuSans-31" d="M 794 531 
L 1825 531 
L 1825 4091 
L 703 3866 
L 703 4441 
L 1819 4666 
L 2450 4666 
L 2450 531 
L 3481 531 
L 3481 0 
L 794 0 
L 794 531 
z
" transform="scale(0.015625)"/>
       </defs>
       <use xlink:href="#DejaVuSans-31"/>
       <use xlink:href="#DejaVuSans-2e" x="63.623047"/>
       <use xlink:href="#DejaVuSans-30" x="95.410156"/>
      </g>
     </g>
    </g>
    <g id="text_3">
     <!-- Diabetes_binary -->
     <g transform="translate(180.89375 280.276563)scale(0.1 -0.1)">
      <defs>
       <path id="DejaVuSans-44" d="M 1259 4147 
L 1259 519 
L 2022 519 
Q 2988 519 3436 956 
Q 3884 1394 3884 2338 
Q 3884 3275 3436 3711 
Q 2988 4147 2022 4147 
L 1259 4147 
z
M 628 4666 
L 1925 4666 
Q 3281 4666 3915 4102 
Q 4550 3538 4550 2338 
Q 4550 1131 3912 565 
Q 3275 0 1925 0 
L 628 0 
L 628 4666 
z
" transform="scale(0.015625)"/>
       <path id="DejaVuSans-69" d="M 603 3500 
L 1178 3500 
L 1178 0 
L 603 0 
L 603 3500 
z
M 603 4863 
L 1178 4863 
L 1178 4134 
L 603 4134 
L 603 4863 
z
" transform="scale(0.015625)"/>
       <path id="DejaVuSans-61" d="M 2194 1759 
Q 1497 1759 1228 1600 
Q 959 1441 959 1056 
Q 959 750 1161 570 
Q 1363 391 1709 391 
Q 2188 391 2477 730 
Q 2766 1069 2766 1631 
L 2766 1759 
L 2194 1759 
z
M 3341 1997 
L 3341 0 
L 2766 0 
L 2766 531 
Q 2569 213 2275 61 
Q 1981 -91 1556 -91 
Q 1019 -91 701 211 
Q 384 513 384 1019 
Q 384 1609 779 1909 
Q 1175 2209 1959 2209 
L 2766 2209 
L 2766 2266 
Q 2766 2663 2505 2880 
Q 2244 3097 1772 3097 
Q 1472 3097 1187 3025 
Q 903 2953 641 2809 
L 641 3341 
Q 956 3463 1253 3523 
Q 1550 3584 1831 3584 
Q 2591 3584 2966 3190 
Q 3341 2797 3341 1997 
z
" transform="scale(0.015625)"/>
       <path id="DejaVuSans-62" d="M 3116 1747 
Q 3116 2381 2855 2742 
Q 2594 3103 2138 3103 
Q 1681 3103 1420 2742 
Q 1159 2381 1159 1747 
Q 1159 1113 1420 752 
Q 1681 391 2138 391 
Q 2594 391 2855 752 
Q 3116 1113 3116 1747 
z
M 1159 2969 
Q 1341 3281 1617 3432 
Q 1894 3584 2278 3584 
Q 2916 3584 3314 3078 
Q 3713 2572 3713 1747 
Q 3713 922 3314 415 
Q 2916 -91 2278 -91 
Q 1894 -91 1617 61 
Q 1341 213 1159 525 
L 1159 0 
L 581 0 
L 581 4863 
L 1159 4863 
L 1159 2969 
z
" transform="scale(0.015625)"/>
       <path id="DejaVuSans-65" d="M 3597 1894 
L 3597 1613 
L 953 1613 
Q 991 1019 1311 708 
Q 1631 397 2203 397 
Q 2534 397 2845 478 
Q 3156 559 3463 722 
L 3463 178 
Q 3153 47 2828 -22 
Q 2503 -91 2169 -91 
Q 1331 -91 842 396 
Q 353 884 353 1716 
Q 353 2575 817 3079 
Q 1281 3584 2069 3584 
Q 2775 3584 3186 3129 
Q 3597 2675 3597 1894 
z
M 3022 2063 
Q 3016 2534 2758 2815 
Q 2500 3097 2075 3097 
Q 1594 3097 1305 2825 
Q 1016 2553 972 2059 
L 3022 2063 
z
" transform="scale(0.015625)"/>
       <path id="DejaVuSans-74" d="M 1172 4494 
L 1172 3500 
L 2356 3500 
L 2356 3053 
L 1172 3053 
L 1172 1153 
Q 1172 725 1289 603 
Q 1406 481 1766 481 
L 2356 481 
L 2356 0 
L 1766 0 
Q 1100 0 847 248 
Q 594 497 594 1153 
L 594 3053 
L 172 3053 
L 172 3500 
L 594 3500 
L 594 4494 
L 1172 4494 
z
" transform="scale(0.015625)"/>
       <path id="DejaVuSans-73" d="M 2834 3397 
L 2834 2853 
Q 2591 2978 2328 3040 
Q 2066 3103 1784 3103 
Q 1356 3103 1142 2972 
Q 928 2841 928 2578 
Q 928 2378 1081 2264 
Q 1234 2150 1697 2047 
L 1894 2003 
Q 2506 1872 2764 1633 
Q 3022 1394 3022 966 
Q 3022 478 2636 193 
Q 2250 -91 1575 -91 
Q 1294 -91 989 -36 
Q 684 19 347 128 
L 347 722 
Q 666 556 975 473 
Q 1284 391 1588 391 
Q 1994 391 2212 530 
Q 2431 669 2431 922 
Q 2431 1156 2273 1281 
Q 2116 1406 1581 1522 
L 1381 1569 
Q 847 1681 609 1914 
Q 372 2147 372 2553 
Q 372 3047 722 3315 
Q 1072 3584 1716 3584 
Q 2034 3584 2315 3537 
Q 2597 3491 2834 3397 
z
" transform="scale(0.015625)"/>
       <path id="DejaVuSans-5f" d="M 3263 -1063 
L 3263 -1509 
L -63 -1509 
L -63 -1063 
L 3263 -1063 
z
" transform="scale(0.015625)"/>
       <path id="DejaVuSans-6e" d="M 3513 2113 
L 3513 0 
L 2938 0 
L 2938 2094 
Q 2938 2591 2744 2837 
Q 2550 3084 2163 3084 
Q 1697 3084 1428 2787 
Q 1159 2491 1159 1978 
L 1159 0 
L 581 0 
L 581 3500 
L 1159 3500 
L 1159 2956 
Q 1366 3272 1645 3428 
Q 1925 3584 2291 3584 
Q 2894 3584 3203 3211 
Q 3513 2838 3513 2113 
z
" transform="scale(0.015625)"/>
       <path id="DejaVuSans-72" d="M 2631 2963 
Q 2534 3019 2420 3045 
Q 2306 3072 2169 3072 
Q 1681 3072 1420 2755 
Q 1159 2438 1159 1844 
L 1159 0 
L 581 0 
L 581 3500 
L 1159 3500 
L 1159 2956 
Q 1341 3275 1631 3429 
Q 1922 3584 2338 3584 
Q 2397 3584 2469 3576 
Q 2541 3569 2628 3553 
L 2631 2963 
z
" transform="scale(0.015625)"/>
       <path id="DejaVuSans-79" d="M 2059 -325 
Q 1816 -950 1584 -1140 
Q 1353 -1331 966 -1331 
L 506 -1331 
L 506 -850 
L 844 -850 
Q 1081 -850 1212 -737 
Q 1344 -625 1503 -206 
L 1606 56 
L 191 3500 
L 800 3500 
L 1894 763 
L 2988 3500 
L 3597 3500 
L 2059 -325 
z
" transform="scale(0.015625)"/>
      </defs>
      <use xlink:href="#DejaVuSans-44"/>
      <use xlink:href="#DejaVuSans-69" x="77.001953"/>
      <use xlink:href="#DejaVuSans-61" x="104.785156"/>
      <use xlink:href="#DejaVuSans-62" x="166.064453"/>
      <use xlink:href="#DejaVuSans-65" x="229.541016"/>
      <use xlink:href="#DejaVuSans-74" x="291.064453"/>
      <use xlink:href="#DejaVuSans-65" x="330.273438"/>
      <use xlink:href="#DejaVuSans-73" x="391.796875"/>
      <use xlink:href="#DejaVuSans-5f" x="443.896484"/>
      <use xlink:href="#DejaVuSans-62" x="493.896484"/>
      <use xlink:href="#DejaVuSans-69" x="557.373047"/>
      <use xlink:href="#DejaVuSans-6e" x="585.15625"/>
      <use xlink:href="#DejaVuSans-61" x="648.535156"/>
      <use xlink:href="#DejaVuSans-72" x="709.814453"/>
      <use xlink:href="#DejaVuSans-79" x="750.927734"/>
     </g>
    </g>
   </g>
   <g id="matplotlib.axis_2">
    <g id="ytick_1">
     <g id="line2d_3">
      <defs>
       <path id="md3a3d4b243" d="M 0 0 
L -3.5 0 
" style="stroke: #000000; stroke-width: 0.8"/>
      </defs>
      <g>
       <use xlink:href="#md3a3d4b243" x="54" y="222.600977" style="stroke: #000000; stroke-width: 0.8"/>
      </g>
     </g>
     <g id="text_4">
      <!-- 0.0 -->
      <g transform="translate(31.096875 226.400196)scale(0.1 -0.1)">
       <use xlink:href="#DejaVuSans-30"/>
       <use xlink:href="#DejaVuSans-2e" x="63.623047"/>
       <use xlink:href="#DejaVuSans-30" x="95.410156"/>
      </g>
     </g>
    </g>
    <g id="ytick_2">
     <g id="line2d_4">
      <g>
       <use xlink:href="#md3a3d4b243" x="54" y="190.872586" style="stroke: #000000; stroke-width: 0.8"/>
      </g>
     </g>
     <g id="text_5">
      <!-- 0.2 -->
      <g transform="translate(31.096875 194.671805)scale(0.1 -0.1)">
       <defs>
        <path id="DejaVuSans-32" d="M 1228 531 
L 3431 531 
L 3431 0 
L 469 0 
L 469 531 
Q 828 903 1448 1529 
Q 2069 2156 2228 2338 
Q 2531 2678 2651 2914 
Q 2772 3150 2772 3378 
Q 2772 3750 2511 3984 
Q 2250 4219 1831 4219 
Q 1534 4219 1204 4116 
Q 875 4013 500 3803 
L 500 4441 
Q 881 4594 1212 4672 
Q 1544 4750 1819 4750 
Q 2544 4750 2975 4387 
Q 3406 4025 3406 3419 
Q 3406 3131 3298 2873 
Q 3191 2616 2906 2266 
Q 2828 2175 2409 1742 
Q 1991 1309 1228 531 
z
" transform="scale(0.015625)"/>
       </defs>
       <use xlink:href="#DejaVuSans-30"/>
       <use xlink:href="#DejaVuSans-2e" x="63.623047"/>
       <use xlink:href="#DejaVuSans-32" x="95.410156"/>
      </g>
     </g>
    </g>
    <g id="ytick_3">
     <g id="line2d_5">
      <g>
       <use xlink:href="#md3a3d4b243" x="54" y="159.144195" style="stroke: #000000; stroke-width: 0.8"/>
      </g>
     </g>
     <g id="text_6">
      <!-- 0.4 -->
      <g transform="translate(31.096875 162.943414)scale(0.1 -0.1)">
       <defs>
        <path id="DejaVuSans-34" d="M 2419 4116 
L 825 1625 
L 2419 1625 
L 2419 4116 
z
M 2253 4666 
L 3047 4666 
L 3047 1625 
L 3713 1625 
L 3713 1100 
L 3047 1100 
L 3047 0 
L 2419 0 
L 2419 1100 
L 313 1100 
L 313 1709 
L 2253 4666 
z
" transform="scale(0.015625)"/>
       </defs>
       <use xlink:href="#DejaVuSans-30"/>
       <use xlink:href="#DejaVuSans-2e" x="63.623047"/>
       <use xlink:href="#DejaVuSans-34" x="95.410156"/>
      </g>
     </g>
    </g>
    <g id="ytick_4">
     <g id="line2d_6">
      <g>
       <use xlink:href="#md3a3d4b243" x="54" y="127.415805" style="stroke: #000000; stroke-width: 0.8"/>
      </g>
     </g>
     <g id="text_7">
      <!-- 0.6 -->
      <g transform="translate(31.096875 131.215023)scale(0.1 -0.1)">
       <defs>
        <path id="DejaVuSans-36" d="M 2113 2584 
Q 1688 2584 1439 2293 
Q 1191 2003 1191 1497 
Q 1191 994 1439 701 
Q 1688 409 2113 409 
Q 2538 409 2786 701 
Q 3034 994 3034 1497 
Q 3034 2003 2786 2293 
Q 2538 2584 2113 2584 
z
M 3366 4563 
L 3366 3988 
Q 3128 4100 2886 4159 
Q 2644 4219 2406 4219 
Q 1781 4219 1451 3797 
Q 1122 3375 1075 2522 
Q 1259 2794 1537 2939 
Q 1816 3084 2150 3084 
Q 2853 3084 3261 2657 
Q 3669 2231 3669 1497 
Q 3669 778 3244 343 
Q 2819 -91 2113 -91 
Q 1303 -91 875 529 
Q 447 1150 447 2328 
Q 447 3434 972 4092 
Q 1497 4750 2381 4750 
Q 2619 4750 2861 4703 
Q 3103 4656 3366 4563 
z
" transform="scale(0.015625)"/>
       </defs>
       <use xlink:href="#DejaVuSans-30"/>
       <use xlink:href="#DejaVuSans-2e" x="63.623047"/>
       <use xlink:href="#DejaVuSans-36" x="95.410156"/>
      </g>
     </g>
    </g>
    <g id="ytick_5">
     <g id="line2d_7">
      <g>
       <use xlink:href="#md3a3d4b243" x="54" y="95.687414" style="stroke: #000000; stroke-width: 0.8"/>
      </g>
     </g>
     <g id="text_8">
      <!-- 0.8 -->
      <g transform="translate(31.096875 99.486632)scale(0.1 -0.1)">
       <defs>
        <path id="DejaVuSans-38" d="M 2034 2216 
Q 1584 2216 1326 1975 
Q 1069 1734 1069 1313 
Q 1069 891 1326 650 
Q 1584 409 2034 409 
Q 2484 409 2743 651 
Q 3003 894 3003 1313 
Q 3003 1734 2745 1975 
Q 2488 2216 2034 2216 
z
M 1403 2484 
Q 997 2584 770 2862 
Q 544 3141 544 3541 
Q 544 4100 942 4425 
Q 1341 4750 2034 4750 
Q 2731 4750 3128 4425 
Q 3525 4100 3525 3541 
Q 3525 3141 3298 2862 
Q 3072 2584 2669 2484 
Q 3125 2378 3379 2068 
Q 3634 1759 3634 1313 
Q 3634 634 3220 271 
Q 2806 -91 2034 -91 
Q 1263 -91 848 271 
Q 434 634 434 1313 
Q 434 1759 690 2068 
Q 947 2378 1403 2484 
z
M 1172 3481 
Q 1172 3119 1398 2916 
Q 1625 2713 2034 2713 
Q 2441 2713 2670 2916 
Q 2900 3119 2900 3481 
Q 2900 3844 2670 4047 
Q 2441 4250 2034 4250 
Q 1625 4250 1398 4047 
Q 1172 3844 1172 3481 
z
" transform="scale(0.015625)"/>
       </defs>
       <use xlink:href="#DejaVuSans-30"/>
       <use xlink:href="#DejaVuSans-2e" x="63.623047"/>
       <use xlink:href="#DejaVuSans-38" x="95.410156"/>
      </g>
     </g>
    </g>
    <g id="ytick_6">
     <g id="line2d_8">
      <g>
       <use xlink:href="#md3a3d4b243" x="54" y="63.959023" style="stroke: #000000; stroke-width: 0.8"/>
      </g>
     </g>
     <g id="text_9">
      <!-- 1.0 -->
      <g transform="translate(31.096875 67.758241)scale(0.1 -0.1)">
       <use xlink:href="#DejaVuSans-31"/>
       <use xlink:href="#DejaVuSans-2e" x="63.623047"/>
       <use xlink:href="#DejaVuSans-30" x="95.410156"/>
      </g>
     </g>
    </g>
    <g id="text_10">
     <!-- Sex -->
     <g transform="translate(25.017187 152.402656)rotate(-90)scale(0.1 -0.1)">
      <defs>
       <path id="DejaVuSans-53" d="M 3425 4513 
L 3425 3897 
Q 3066 4069 2747 4153 
Q 2428 4238 2131 4238 
Q 1616 4238 1336 4038 
Q 1056 3838 1056 3469 
Q 1056 3159 1242 3001 
Q 1428 2844 1947 2747 
L 2328 2669 
Q 3034 2534 3370 2195 
Q 3706 1856 3706 1288 
Q 3706 609 3251 259 
Q 2797 -91 1919 -91 
Q 1588 -91 1214 -16 
Q 841 59 441 206 
L 441 856 
Q 825 641 1194 531 
Q 1563 422 1919 422 
Q 2459 422 2753 634 
Q 3047 847 3047 1241 
Q 3047 1584 2836 1778 
Q 2625 1972 2144 2069 
L 1759 2144 
Q 1053 2284 737 2584 
Q 422 2884 422 3419 
Q 422 4038 858 4394 
Q 1294 4750 2059 4750 
Q 2388 4750 2728 4690 
Q 3069 4631 3425 4513 
z
" transform="scale(0.015625)"/>
       <path id="DejaVuSans-78" d="M 3513 3500 
L 2247 1797 
L 3578 0 
L 2900 0 
L 1881 1375 
L 863 0 
L 184 0 
L 1544 1831 
L 300 3500 
L 978 3500 
L 1906 2253 
L 2834 3500 
L 3513 3500 
z
" transform="scale(0.015625)"/>
      </defs>
      <use xlink:href="#DejaVuSans-53"/>
      <use xlink:href="#DejaVuSans-65" x="63.476562"/>
      <use xlink:href="#DejaVuSans-78" x="123.25"/>
     </g>
    </g>
   </g>
   <g id="line2d_9">
    <path d="M 137.7 222.600977 
L 137.7 63.959023 
" clip-path="url(#p5eef1711f5)" style="fill: none; stroke: #7a7a7a; stroke-width: 1.5; stroke-linecap: square"/>
   </g>
   <g id="line2d_10">
    <path d="M 137.7 222.600977 
L 137.7 63.959023 
" clip-path="url(#p5eef1711f5)" style="fill: none; stroke: #7a7a7a; stroke-width: 4.5; stroke-linecap: square"/>
   </g>
   <g id="line2d_11">
    <path d="M 305.1 222.600977 
L 305.1 63.959023 
" clip-path="url(#p5eef1711f5)" style="fill: none; stroke: #7a7a7a; stroke-width: 1.5; stroke-linecap: square"/>
   </g>
   <g id="line2d_12">
    <path d="M 305.1 222.600977 
L 305.1 63.959023 
" clip-path="url(#p5eef1711f5)" style="fill: none; stroke: #7a7a7a; stroke-width: 4.5; stroke-linecap: square"/>
   </g>
   <g id="patch_3">
    <path d="M 54 252 
L 54 34.56 
" style="fill: none; stroke: #000000; stroke-width: 0.8; stroke-linejoin: miter; stroke-linecap: square"/>
   </g>
   <g id="patch_4">
    <path d="M 388.8 252 
L 388.8 34.56 
" style="fill: none; stroke: #000000; stroke-width: 0.8; stroke-linejoin: miter; stroke-linecap: square"/>
   </g>
   <g id="patch_5">
    <path d="M 54 252 
L 388.8 252 
" style="fill: none; stroke: #000000; stroke-width: 0.8; stroke-linejoin: miter; stroke-linecap: square"/>
   </g>
   <g id="patch_6">
    <path d="M 54 34.56 
L 388.8 34.56 
" style="fill: none; stroke: #000000; stroke-width: 0.8; stroke-linejoin: miter; stroke-linecap: square"/>
   </g>
   <g id="PathCollection_1">
    <defs>
     <path id="m76db9b2d78" d="M 0 1.5 
C 0.397805 1.5 0.77937 1.341951 1.06066 1.06066 
C 1.341951 0.77937 1.5 0.397805 1.5 0 
C 1.5 -0.397805 1.341951 -0.77937 1.06066 -1.06066 
C 0.77937 -1.341951 0.397805 -1.5 0 -1.5 
C -0.397805 -1.5 -0.77937 -1.341951 -1.06066 -1.06066 
C -1.341951 -0.77937 -1.5 -0.397805 -1.5 0 
C -1.5 0.397805 -1.341951 0.77937 -1.06066 1.06066 
C -0.77937 1.341951 -0.397805 1.5 0 1.5 
z
" style="stroke: #7a7a7a"/>
    </defs>
    <g clip-path="url(#p5eef1711f5)">
     <use xlink:href="#m76db9b2d78" x="137.7" y="222.600977" style="fill: #ffffff; stroke: #7a7a7a"/>
    </g>
   </g>
   <g id="PathCollection_2">
    <g clip-path="url(#p5eef1711f5)">
     <use xlink:href="#m76db9b2d78" x="305.1" y="222.600977" style="fill: #ffffff; stroke: #7a7a7a"/>
    </g>
   </g>
  </g>
 </g>
 <defs>
  <clipPath id="p5eef1711f5">
   <rect x="54" y="34.56" width="334.8" height="217.44"/>
  </clipPath>
 </defs>
</svg>
