<?xml version="1.0" encoding="utf-8" standalone="no"?>
<!DOCTYPE svg PUBLIC "-//W3C//DTD SVG 1.1//EN"
  "http://www.w3.org/Graphics/SVG/1.1/DTD/svg11.dtd">
<svg xmlns:xlink="http://www.w3.org/1999/xlink" width="432pt" height="288pt" viewBox="0 0 432 288" xmlns="http://www.w3.org/2000/svg" version="1.1">
 <metadata>
  <rdf:RDF xmlns:dc="http://purl.org/dc/elements/1.1/" xmlns:cc="http://creativecommons.org/ns#" xmlns:rdf="http://www.w3.org/1999/02/22-rdf-syntax-ns#">
   <cc:Work>
    <dc:type rdf:resource="http://purl.org/dc/dcmitype/StillImage"/>
    <dc:date>2023-05-03T02:46:51.755757</dc:date>
    <dc:format>image/svg+xml</dc:format>
    <dc:creator>
     <cc:Agent>
      <dc:title>Matplotlib v3.5.3, https://matplotlib.org/</dc:title>
     </cc:Agent>
    </dc:creator>
   </cc:Work>
  </rdf:RDF>
 </metadata>
 <defs>
  <style type="text/css">*{stroke-linejoin: round; stroke-linecap: butt}</style>
 </defs>
 <g id="figure_1">
  <g id="patch_1">
   <path d="M 0 288 
L 432 288 
L 432 0 
L 0 0 
L 0 288 
z
" style="fill: none"/>
  </g>
  <g id="axes_1">
   <g id="patch_2">
    <path d="M 54 252 
L 388.8 252 
L 388.8 34.56 
L 54 34.56 
z
" style="fill: #ffffff"/>
   </g>
   <g id="PolyCollection_1">
    <defs>
     <path id="m03c46bbec2" d="M 146.778422 -46.050391 
L 128.621578 -46.050391 
L 124.280655 -48.043717 
L 118.688296 -50.037042 
L 111.884558 -52.030368 
L 104.102506 -54.023693 
L 95.791415 -56.017018 
L 87.596519 -58.010344 
L 80.288143 -60.003669 
L 74.647242 -61.996995 
L 71.329457 -63.99032 
L 70.74 -65.983646 
L 72.952305 -67.976971 
L 77.692992 -69.970296 
L 84.397395 -71.963622 
L 92.320085 -73.956947 
L 100.670511 -75.950273 
L 108.739867 -77.943598 
L 115.991882 -79.936924 
L 122.104022 -81.930249 
L 126.960803 -83.923574 
L 130.61239 -85.9169 
L 133.216712 -87.910225 
L 134.98192 -89.903551 
L 136.120584 -91.896876 
L 136.820371 -93.890202 
L 137.230461 -95.883527 
L 137.459778 -97.876852 
L 137.582206 -99.870178 
L 137.644639 -101.863503 
L 137.675063 -103.856829 
L 137.689234 -105.850154 
L 137.695545 -107.84348 
L 137.698233 -109.836805 
L 137.699328 -111.83013 
L 137.699755 -113.823456 
L 137.699915 -115.816781 
L 137.699971 -117.810107 
L 137.699991 -119.803432 
L 137.699997 -121.796758 
L 137.699999 -123.790083 
L 137.7 -125.783408 
L 137.7 -127.776734 
L 137.7 -129.770059 
L 137.7 -131.763385 
L 137.7 -133.75671 
L 137.7 -135.750036 
L 137.7 -137.743361 
L 137.7 -139.736686 
L 137.7 -141.730012 
L 137.7 -143.723337 
L 137.7 -145.716663 
L 137.7 -147.709988 
L 137.7 -149.703314 
L 137.7 -151.696639 
L 137.7 -153.689964 
L 137.7 -155.68329 
L 137.7 -157.676615 
L 137.7 -159.669941 
L 137.7 -161.663266 
L 137.7 -163.656592 
L 137.699999 -165.649917 
L 137.699998 -167.643242 
L 137.699993 -169.636568 
L 137.699978 -171.629893 
L 137.699935 -173.623219 
L 137.699814 -175.616544 
L 137.699489 -177.60987 
L 137.698654 -179.603195 
L 137.696607 -181.59652 
L 137.691801 -183.589846 
L 137.681008 -185.583171 
L 137.657839 -187.576497 
L 137.610291 -189.569822 
L 137.517053 -191.563148 
L 137.342411 -193.556473 
L 137.030096 -195.549798 
L 136.497156 -197.543124 
L 135.629979 -199.536449 
L 134.285641 -201.529775 
L 132.302254 -203.5231 
L 129.521297 -205.516426 
L 125.822495 -207.509751 
L 121.167642 -209.503076 
L 115.64469 -211.496402 
L 109.499271 -213.489727 
L 103.139797 -215.483053 
L 97.106075 -217.476378 
L 92.00017 -219.469704 
L 88.389782 -221.463029 
L 86.704946 -223.456354 
L 87.153862 -225.44968 
L 89.680603 -227.443005 
L 93.976572 -229.436331 
L 99.542447 -231.429656 
L 105.783474 -233.422982 
L 112.112992 -235.416307 
L 118.039608 -237.409632 
L 123.221164 -239.402958 
L 127.480164 -241.396283 
L 130.786102 -243.389609 
L 144.613898 -243.389609 
L 144.613898 -243.389609 
L 147.919836 -241.396283 
L 152.178836 -239.402958 
L 157.360392 -237.409632 
L 163.287008 -235.416307 
L 169.616526 -233.422982 
L 175.857553 -231.429656 
L 181.423428 -229.436331 
L 185.719397 -227.443005 
L 188.246138 -225.44968 
L 188.695054 -223.456354 
L 187.010218 -221.463029 
L 183.39983 -219.469704 
L 178.293925 -217.476378 
L 172.260203 -215.483053 
L 165.900729 -213.489727 
L 159.75531 -211.496402 
L 154.232358 -209.503076 
L 149.577505 -207.509751 
L 145.878703 -205.516426 
L 143.097746 -203.5231 
L 141.114359 -201.529775 
L 139.770021 -199.536449 
L 138.902844 -197.543124 
L 138.369904 -195.549798 
L 138.057589 -193.556473 
L 137.882947 -191.563148 
L 137.789709 -189.569822 
L 137.742161 -187.576497 
L 137.718992 -185.583171 
L 137.708199 -183.589846 
L 137.703393 -181.59652 
L 137.701346 -179.603195 
L 137.700511 -177.60987 
L 137.700186 -175.616544 
L 137.700065 -173.623219 
L 137.700022 -171.629893 
L 137.700007 -169.636568 
L 137.700002 -167.643242 
L 137.700001 -165.649917 
L 137.7 -163.656592 
L 137.7 -161.663266 
L 137.7 -159.669941 
L 137.7 -157.676615 
L 137.7 -155.68329 
L 137.7 -153.689964 
L 137.7 -151.696639 
L 137.7 -149.703314 
L 137.7 -147.709988 
L 137.7 -145.716663 
L 137.7 -143.723337 
L 137.7 -141.730012 
L 137.7 -139.736686 
L 137.7 -137.743361 
L 137.7 -135.750036 
L 137.7 -133.75671 
L 137.7 -131.763385 
L 137.7 -129.770059 
L 137.7 -127.776734 
L 137.7 -125.783408 
L 137.700001 -123.790083 
L 137.700003 -121.796758 
L 137.700009 -119.803432 
L 137.700029 -117.810107 
L 137.700085 -115.816781 
L 137.700245 -113.823456 
L 137.700672 -111.83013 
L 137.701767 -109.836805 
L 137.704455 -107.84348 
L 137.710766 -105.850154 
L 137.724937 -103.856829 
L 137.755361 -101.863503 
L 137.817794 -99.870178 
L 137.940222 -97.876852 
L 138.169539 -95.883527 
L 138.579629 -93.890202 
L 139.279416 -91.896876 
L 140.41808 -89.903551 
L 142.183288 -87.910225 
L 144.78761 -85.9169 
L 148.439197 -83.923574 
L 153.295978 -81.930249 
L 159.408118 -79.936924 
L 166.660133 -77.943598 
L 174.729489 -75.950273 
L 183.079915 -73.956947 
L 191.002605 -71.963622 
L 197.707008 -69.970296 
L 202.447695 -67.976971 
L 204.66 -65.983646 
L 204.070543 -63.99032 
L 200.752758 -61.996995 
L 195.111857 -60.003669 
L 187.803481 -58.010344 
L 179.608585 -56.017018 
L 171.297494 -54.023693 
L 163.515442 -52.030368 
L 156.711704 -50.037042 
L 151.119345 -48.043717 
L 146.778422 -46.050391 
z
" style="stroke: #7a7a7a; stroke-width: 1.5"/>
    </defs>
    <g clip-path="url(#pbb8e9aee99)">
     <use xlink:href="#m03c46bbec2" x="0" y="288" style="fill: #f1bcb8; stroke: #7a7a7a; stroke-width: 1.5"/>
    </g>
   </g>
   <g id="PolyCollection_2">
    <defs>
     <path id="m69c96adf67" d="M 312.738957 -45.883636 
L 297.461043 -45.883636 
L 293.837047 -47.880331 
L 289.174556 -49.877025 
L 283.505065 -51.873719 
L 277.017656 -53.870413 
L 270.078407 -55.867107 
L 263.214904 -57.863802 
L 257.059865 -59.860496 
L 252.259123 -61.85719 
L 249.361292 -63.853884 
L 248.714834 -65.850579 
L 250.39917 -67.847273 
L 254.20864 -69.843967 
L 259.693787 -71.840661 
L 266.248518 -73.837355 
L 273.219804 -75.83405 
L 280.01261 -77.830744 
L 286.167366 -79.827438 
L 291.397882 -81.824132 
L 295.589892 -83.820826 
L 298.769992 -85.817521 
L 301.059416 -87.814215 
L 302.626538 -89.810909 
L 303.647931 -91.807603 
L 304.282495 -93.804298 
L 304.658618 -95.800992 
L 304.871461 -97.797686 
L 304.986518 -99.79438 
L 305.04596 -101.791074 
L 305.075321 -103.787769 
L 305.089192 -105.784463 
L 305.095461 -107.781157 
L 305.098172 -109.777851 
L 305.099294 -111.774545 
L 305.099738 -113.77124 
L 305.099907 -115.767934 
L 305.099968 -117.764628 
L 305.09999 -119.761322 
L 305.099997 -121.758017 
L 305.099999 -123.754711 
L 305.1 -125.751405 
L 305.1 -127.748099 
L 305.1 -129.744793 
L 305.1 -131.741488 
L 305.1 -133.738182 
L 305.1 -135.734876 
L 305.1 -137.73157 
L 305.1 -139.728264 
L 305.1 -141.724959 
L 305.1 -143.721653 
L 305.1 -145.718347 
L 305.1 -147.715041 
L 305.1 -149.711736 
L 305.1 -151.70843 
L 305.1 -153.705124 
L 305.1 -155.701818 
L 305.1 -157.698512 
L 305.1 -159.695207 
L 305.1 -161.691901 
L 305.1 -163.688595 
L 305.099999 -165.685289 
L 305.099997 -167.681983 
L 305.099989 -169.678678 
L 305.099966 -171.675372 
L 305.0999 -173.672066 
L 305.099719 -175.66876 
L 305.09924 -177.665455 
L 305.098033 -179.662149 
L 305.095117 -181.658843 
L 305.088374 -183.655537 
L 305.073455 -185.652231 
L 305.041873 -187.648926 
L 304.977935 -189.64562 
L 304.854175 -191.642314 
L 304.625234 -193.639008 
L 304.220662 -195.635702 
L 303.538103 -197.632397 
L 302.439456 -199.629091 
L 300.753803 -201.625785 
L 298.291217 -203.622479 
L 294.870589 -205.619174 
L 290.361513 -207.615868 
L 284.735383 -209.612562 
L 278.115109 -211.609256 
L 270.808523 -213.60595 
L 263.30996 -215.602645 
L 256.259457 -217.599339 
L 250.359438 -219.596033 
L 246.261836 -221.592727 
L 244.450104 -223.589421 
L 245.145457 -225.586116 
L 248.262467 -227.58281 
L 253.426316 -229.579504 
L 260.046896 -231.576198 
L 267.429525 -233.572893 
L 274.893628 -235.569587 
L 281.871717 -237.566281 
L 287.970024 -239.562975 
L 292.985166 -241.559669 
L 296.883265 -243.556364 
L 313.316735 -243.556364 
L 313.316735 -243.556364 
L 317.214834 -241.559669 
L 322.229976 -239.562975 
L 328.328283 -237.566281 
L 335.306372 -235.569587 
L 342.770475 -233.572893 
L 350.153104 -231.576198 
L 356.773684 -229.579504 
L 361.937533 -227.58281 
L 365.054543 -225.586116 
L 365.749896 -223.589421 
L 363.938164 -221.592727 
L 359.840562 -219.596033 
L 353.940543 -217.599339 
L 346.89004 -215.602645 
L 339.391477 -213.60595 
L 332.084891 -211.609256 
L 325.464617 -209.612562 
L 319.838487 -207.615868 
L 315.329411 -205.619174 
L 311.908783 -203.622479 
L 309.446197 -201.625785 
L 307.760544 -199.629091 
L 306.661897 -197.632397 
L 305.979338 -195.635702 
L 305.574766 -193.639008 
L 305.345825 -191.642314 
L 305.222065 -189.64562 
L 305.158127 -187.648926 
L 305.126545 -185.652231 
L 305.111626 -183.655537 
L 305.104883 -181.658843 
L 305.101967 -179.662149 
L 305.10076 -177.665455 
L 305.100281 -175.66876 
L 305.1001 -173.672066 
L 305.100034 -171.675372 
L 305.100011 -169.678678 
L 305.100003 -167.681983 
L 305.100001 -165.685289 
L 305.1 -163.688595 
L 305.1 -161.691901 
L 305.1 -159.695207 
L 305.1 -157.698512 
L 305.1 -155.701818 
L 305.1 -153.705124 
L 305.1 -151.70843 
L 305.1 -149.711736 
L 305.1 -147.715041 
L 305.1 -145.718347 
L 305.1 -143.721653 
L 305.1 -141.724959 
L 305.1 -139.728264 
L 305.1 -137.73157 
L 305.1 -135.734876 
L 305.1 -133.738182 
L 305.1 -131.741488 
L 305.1 -129.744793 
L 305.1 -127.748099 
L 305.1 -125.751405 
L 305.100001 -123.754711 
L 305.100003 -121.758017 
L 305.10001 -119.761322 
L 305.100032 -117.764628 
L 305.100093 -115.767934 
L 305.100262 -113.77124 
L 305.100706 -111.774545 
L 305.101828 -109.777851 
L 305.104539 -107.781157 
L 305.110808 -105.784463 
L 305.124679 -103.787769 
L 305.15404 -101.791074 
L 305.213482 -99.79438 
L 305.328539 -97.797686 
L 305.541382 -95.800992 
L 305.917505 -93.804298 
L 306.552069 -91.807603 
L 307.573462 -89.810909 
L 309.140584 -87.814215 
L 311.430008 -85.817521 
L 314.610108 -83.820826 
L 318.802118 -81.824132 
L 324.032634 -79.827438 
L 330.18739 -77.830744 
L 336.980196 -75.83405 
L 343.951482 -73.837355 
L 350.506213 -71.840661 
L 355.99136 -69.843967 
L 359.80083 -67.847273 
L 361.485166 -65.850579 
L 360.838708 -63.853884 
L 357.940877 -61.85719 
L 353.140135 -59.860496 
L 346.985096 -57.863802 
L 340.121593 -55.867107 
L 333.182344 -53.870413 
L 326.694935 -51.873719 
L 321.025444 -49.877025 
L 316.362953 -47.880331 
L 312.738957 -45.883636 
z
" style="stroke: #7a7a7a; stroke-width: 1.5"/>
    </defs>
    <g clip-path="url(#pbb8e9aee99)">
     <use xlink:href="#m69c96adf67" x="0" y="288" style="fill: #b9ccdd; stroke: #7a7a7a; stroke-width: 1.5"/>
    </g>
   </g>
   <g id="matplotlib.axis_1">
    <g id="xtick_1">
     <g id="line2d_1">
      <defs>
       <path id="m01d6579eb7" d="M 0 0 
L 0 3.5 
" style="stroke: #000000; stroke-width: 0.8"/>
      </defs>
      <g>
       <use xlink:href="#m01d6579eb7" x="137.7" y="252" style="stroke: #000000; stroke-width: 0.8"/>
      </g>
     </g>
     <g id="text_1">
      <!-- 0.0 -->
      <g transform="translate(129.748437 266.598437)scale(0.1 -0.1)">
       <defs>
        <path id="DejaVuSans-30" d="M 2034 4250 
Q 1547 4250 1301 3770 
Q 1056 3291 1056 2328 
Q 1056 1369 1301 889 
Q 1547 409 2034 409 
Q 2525 409 2770 889 
Q 3016 1369 3016 2328 
Q 3016 3291 2770 3770 
Q 2525 4250 2034 4250 
z
M 2034 4750 
Q 2819 4750 3233 4129 
Q 3647 3509 3647 2328 
Q 3647 1150 3233 529 
Q 2819 -91 2034 -91 
Q 1250 -91 836 529 
Q 422 1150 422 2328 
Q 422 3509 836 4129 
Q 1250 4750 2034 4750 
z
" transform="scale(0.015625)"/>
        <path id="DejaVuSans-2e" d="M 684 794 
L 1344 794 
L 1344 0 
L 684 0 
L 684 794 
z
" transform="scale(0.015625)"/>
       </defs>
       <use xlink:href="#DejaVuSans-30"/>
       <use xlink:href="#DejaVuSans-2e" x="63.623047"/>
       <use xlink:href="#DejaVuSans-30" x="95.410156"/>
      </g>
     </g>
    </g>
    <g id="xtick_2">
     <g id="line2d_2">
      <g>
       <use xlink:href="#m01d6579eb7" x="305.1" y="252" style="stroke: #000000; stroke-width: 0.8"/>
      </g>
     </g>
     <g id="text_2">
      <!-- 1.0 -->
      <g transform="translate(297.148438 266.598437)scale(0.1 -0.1)">
       <defs>
        <path id="DejaVuSans-31" d="M 794 531 
L 1825 531 
L 1825 4091 
L 703 3866 
L 703 4441 
L 1819 4666 
L 2450 4666 
L 2450 531 
L 3481 531 
L 3481 0 
L 794 0 
L 794 531 
z
" transform="scale(0.015625)"/>
       </defs>
       <use xlink:href="#DejaVuSans-31"/>
       <use xlink:href="#DejaVuSans-2e" x="63.623047"/>
       <use xlink:href="#DejaVuSans-30" x="95.410156"/>
      </g>
     </g>
    </g>
    <g id="text_3">
     <!-- Diabetes_binary -->
     <g transform="translate(180.89375 280.276563)scale(0.1 -0.1)">
      <defs>
       <path id="DejaVuSans-44" d="M 1259 4147 
L 1259 519 
L 2022 519 
Q 2988 519 3436 956 
Q 3884 1394 3884 2338 
Q 3884 3275 3436 3711 
Q 2988 4147 2022 4147 
L 1259 4147 
z
M 628 4666 
L 1925 4666 
Q 3281 4666 3915 4102 
Q 4550 3538 4550 2338 
Q 4550 1131 3912 565 
Q 3275 0 1925 0 
L 628 0 
L 628 4666 
z
" transform="scale(0.015625)"/>
       <path id="DejaVuSans-69" d="M 603 3500 
L 1178 3500 
L 1178 0 
L 603 0 
L 603 3500 
z
M 603 4863 
L 1178 4863 
L 1178 4134 
L 603 4134 
L 603 4863 
z
" transform="scale(0.015625)"/>
       <path id="DejaVuSans-61" d="M 2194 1759 
Q 1497 1759 1228 1600 
Q 959 1441 959 1056 
Q 959 750 1161 570 
Q 1363 391 1709 391 
Q 2188 391 2477 730 
Q 2766 1069 2766 1631 
L 2766 1759 
L 2194 1759 
z
M 3341 1997 
L 3341 0 
L 2766 0 
L 2766 531 
Q 2569 213 2275 61 
Q 1981 -91 1556 -91 
Q 1019 -91 701 211 
Q 384 513 384 1019 
Q 384 1609 779 1909 
Q 1175 2209 1959 2209 
L 2766 2209 
L 2766 2266 
Q 2766 2663 2505 2880 
Q 2244 3097 1772 3097 
Q 1472 3097 1187 3025 
Q 903 2953 641 2809 
L 641 3341 
Q 956 3463 1253 3523 
Q 1550 3584 1831 3584 
Q 2591 3584 2966 3190 
Q 3341 2797 3341 1997 
z
" transform="scale(0.015625)"/>
       <path id="DejaVuSans-62" d="M 3116 1747 
Q 3116 2381 2855 2742 
Q 2594 3103 2138 3103 
Q 1681 3103 1420 2742 
Q 1159 2381 1159 1747 
Q 1159 1113 1420 752 
Q 1681 391 2138 391 
Q 2594 391 2855 752 
Q 3116 1113 3116 1747 
z
M 1159 2969 
Q 1341 3281 1617 3432 
Q 1894 3584 2278 3584 
Q 2916 3584 3314 3078 
Q 3713 2572 3713 1747 
Q 3713 922 3314 415 
Q 2916 -91 2278 -91 
Q 1894 -91 1617 61 
Q 1341 213 1159 525 
L 1159 0 
L 581 0 
L 581 4863 
L 1159 4863 
L 1159 2969 
z
" transform="scale(0.015625)"/>
       <path id="DejaVuSans-65" d="M 3597 1894 
L 3597 1613 
L 953 1613 
Q 991 1019 1311 708 
Q 1631 397 2203 397 
Q 2534 397 2845 478 
Q 3156 559 3463 722 
L 3463 178 
Q 3153 47 2828 -22 
Q 2503 -91 2169 -91 
Q 1331 -91 842 396 
Q 353 884 353 1716 
Q 353 2575 817 3079 
Q 1281 3584 2069 3584 
Q 2775 3584 3186 3129 
Q 3597 2675 3597 1894 
z
M 3022 2063 
Q 3016 2534 2758 2815 
Q 2500 3097 2075 3097 
Q 1594 3097 1305 2825 
Q 1016 2553 972 2059 
L 3022 2063 
z
" transform="scale(0.015625)"/>
       <path id="DejaVuSans-74" d="M 1172 4494 
L 1172 3500 
L 2356 3500 
L 2356 3053 
L 1172 3053 
L 1172 1153 
Q 1172 725 1289 603 
Q 1406 481 1766 481 
L 2356 481 
L 2356 0 
L 1766 0 
Q 1100 0 847 248 
Q 594 497 594 1153 
L 594 3053 
L 172 3053 
L 172 3500 
L 594 3500 
L 594 4494 
L 1172 4494 
z
" transform="scale(0.015625)"/>
       <path id="DejaVuSans-73" d="M 2834 3397 
L 2834 2853 
Q 2591 2978 2328 3040 
Q 2066 3103 1784 3103 
Q 1356 3103 1142 2972 
Q 928 2841 928 2578 
Q 928 2378 1081 2264 
Q 1234 2150 1697 2047 
L 1894 2003 
Q 2506 1872 2764 1633 
Q 3022 1394 3022 966 
Q 3022 478 2636 193 
Q 2250 -91 1575 -91 
Q 1294 -91 989 -36 
Q 684 19 347 128 
L 347 722 
Q 666 556 975 473 
Q 1284 391 1588 391 
Q 1994 391 2212 530 
Q 2431 669 2431 922 
Q 2431 1156 2273 1281 
Q 2116 1406 1581 1522 
L 1381 1569 
Q 847 1681 609 1914 
Q 372 2147 372 2553 
Q 372 3047 722 3315 
Q 1072 3584 1716 3584 
Q 2034 3584 2315 3537 
Q 2597 3491 2834 3397 
z
" transform="scale(0.015625)"/>
       <path id="DejaVuSans-5f" d="M 3263 -1063 
L 3263 -1509 
L -63 -1509 
L -63 -1063 
L 3263 -1063 
z
" transform="scale(0.015625)"/>
       <path id="DejaVuSans-6e" d="M 3513 2113 
L 3513 0 
L 2938 0 
L 2938 2094 
Q 2938 2591 2744 2837 
Q 2550 3084 2163 3084 
Q 1697 3084 1428 2787 
Q 1159 2491 1159 1978 
L 1159 0 
L 581 0 
L 581 3500 
L 1159 3500 
L 1159 2956 
Q 1366 3272 1645 3428 
Q 1925 3584 2291 3584 
Q 2894 3584 3203 3211 
Q 3513 2838 3513 2113 
z
" transform="scale(0.015625)"/>
       <path id="DejaVuSans-72" d="M 2631 2963 
Q 2534 3019 2420 3045 
Q 2306 3072 2169 3072 
Q 1681 3072 1420 2755 
Q 1159 2438 1159 1844 
L 1159 0 
L 581 0 
L 581 3500 
L 1159 3500 
L 1159 2956 
Q 1341 3275 1631 3429 
Q 1922 3584 2338 3584 
Q 2397 3584 2469 3576 
Q 2541 3569 2628 3553 
L 2631 2963 
z
" transform="scale(0.015625)"/>
       <path id="DejaVuSans-79" d="M 2059 -325 
Q 1816 -950 1584 -1140 
Q 1353 -1331 966 -1331 
L 506 -1331 
L 506 -850 
L 844 -850 
Q 1081 -850 1212 -737 
Q 1344 -625 1503 -206 
L 1606 56 
L 191 3500 
L 800 3500 
L 1894 763 
L 2988 3500 
L 3597 3500 
L 2059 -325 
z
" transform="scale(0.015625)"/>
      </defs>
      <use xlink:href="#DejaVuSans-44"/>
      <use xlink:href="#DejaVuSans-69" x="77.001953"/>
      <use xlink:href="#DejaVuSans-61" x="104.785156"/>
      <use xlink:href="#DejaVuSans-62" x="166.064453"/>
      <use xlink:href="#DejaVuSans-65" x="229.541016"/>
      <use xlink:href="#DejaVuSans-74" x="291.064453"/>
      <use xlink:href="#DejaVuSans-65" x="330.273438"/>
      <use xlink:href="#DejaVuSans-73" x="391.796875"/>
      <use xlink:href="#DejaVuSans-5f" x="443.896484"/>
      <use xlink:href="#DejaVuSans-62" x="493.896484"/>
      <use xlink:href="#DejaVuSans-69" x="557.373047"/>
      <use xlink:href="#DejaVuSans-6e" x="585.15625"/>
      <use xlink:href="#DejaVuSans-61" x="648.535156"/>
      <use xlink:href="#DejaVuSans-72" x="709.814453"/>
      <use xlink:href="#DejaVuSans-79" x="750.927734"/>
     </g>
    </g>
   </g>
   <g id="matplotlib.axis_2">
    <g id="ytick_1">
     <g id="line2d_3">
      <defs>
       <path id="m175522b298" d="M 0 0 
L -3.5 0 
" style="stroke: #000000; stroke-width: 0.8"/>
      </defs>
      <g>
       <use xlink:href="#m175522b298" x="54" y="222.597715" style="stroke: #000000; stroke-width: 0.8"/>
      </g>
     </g>
     <g id="text_4">
      <!-- 0.0 -->
      <g transform="translate(31.096875 226.396934)scale(0.1 -0.1)">
       <use xlink:href="#DejaVuSans-30"/>
       <use xlink:href="#DejaVuSans-2e" x="63.623047"/>
       <use xlink:href="#DejaVuSans-30" x="95.410156"/>
      </g>
     </g>
    </g>
    <g id="ytick_2">
     <g id="line2d_4">
      <g>
       <use xlink:href="#m175522b298" x="54" y="190.870629" style="stroke: #000000; stroke-width: 0.8"/>
      </g>
     </g>
     <g id="text_5">
      <!-- 0.2 -->
      <g transform="translate(31.096875 194.669848)scale(0.1 -0.1)">
       <defs>
        <path id="DejaVuSans-32" d="M 1228 531 
L 3431 531 
L 3431 0 
L 469 0 
L 469 531 
Q 828 903 1448 1529 
Q 2069 2156 2228 2338 
Q 2531 2678 2651 2914 
Q 2772 3150 2772 3378 
Q 2772 3750 2511 3984 
Q 2250 4219 1831 4219 
Q 1534 4219 1204 4116 
Q 875 4013 500 3803 
L 500 4441 
Q 881 4594 1212 4672 
Q 1544 4750 1819 4750 
Q 2544 4750 2975 4387 
Q 3406 4025 3406 3419 
Q 3406 3131 3298 2873 
Q 3191 2616 2906 2266 
Q 2828 2175 2409 1742 
Q 1991 1309 1228 531 
z
" transform="scale(0.015625)"/>
       </defs>
       <use xlink:href="#DejaVuSans-30"/>
       <use xlink:href="#DejaVuSans-2e" x="63.623047"/>
       <use xlink:href="#DejaVuSans-32" x="95.410156"/>
      </g>
     </g>
    </g>
    <g id="ytick_3">
     <g id="line2d_5">
      <g>
       <use xlink:href="#m175522b298" x="54" y="159.143543" style="stroke: #000000; stroke-width: 0.8"/>
      </g>
     </g>
     <g id="text_6">
      <!-- 0.4 -->
      <g transform="translate(31.096875 162.942762)scale(0.1 -0.1)">
       <defs>
        <path id="DejaVuSans-34" d="M 2419 4116 
L 825 1625 
L 2419 1625 
L 2419 4116 
z
M 2253 4666 
L 3047 4666 
L 3047 1625 
L 3713 1625 
L 3713 1100 
L 3047 1100 
L 3047 0 
L 2419 0 
L 2419 1100 
L 313 1100 
L 313 1709 
L 2253 4666 
z
" transform="scale(0.015625)"/>
       </defs>
       <use xlink:href="#DejaVuSans-30"/>
       <use xlink:href="#DejaVuSans-2e" x="63.623047"/>
       <use xlink:href="#DejaVuSans-34" x="95.410156"/>
      </g>
     </g>
    </g>
    <g id="ytick_4">
     <g id="line2d_6">
      <g>
       <use xlink:href="#m175522b298" x="54" y="127.416457" style="stroke: #000000; stroke-width: 0.8"/>
      </g>
     </g>
     <g id="text_7">
      <!-- 0.6 -->
      <g transform="translate(31.096875 131.215676)scale(0.1 -0.1)">
       <defs>
        <path id="DejaVuSans-36" d="M 2113 2584 
Q 1688 2584 1439 2293 
Q 1191 2003 1191 1497 
Q 1191 994 1439 701 
Q 1688 409 2113 409 
Q 2538 409 2786 701 
Q 3034 994 3034 1497 
Q 3034 2003 2786 2293 
Q 2538 2584 2113 2584 
z
M 3366 4563 
L 3366 3988 
Q 3128 4100 2886 4159 
Q 2644 4219 2406 4219 
Q 1781 4219 1451 3797 
Q 1122 3375 1075 2522 
Q 1259 2794 1537 2939 
Q 1816 3084 2150 3084 
Q 2853 3084 3261 2657 
Q 3669 2231 3669 1497 
Q 3669 778 3244 343 
Q 2819 -91 2113 -91 
Q 1303 -91 875 529 
Q 447 1150 447 2328 
Q 447 3434 972 4092 
Q 1497 4750 2381 4750 
Q 2619 4750 2861 4703 
Q 3103 4656 3366 4563 
z
" transform="scale(0.015625)"/>
       </defs>
       <use xlink:href="#DejaVuSans-30"/>
       <use xlink:href="#DejaVuSans-2e" x="63.623047"/>
       <use xlink:href="#DejaVuSans-36" x="95.410156"/>
      </g>
     </g>
    </g>
    <g id="ytick_5">
     <g id="line2d_7">
      <g>
       <use xlink:href="#m175522b298" x="54" y="95.689371" style="stroke: #000000; stroke-width: 0.8"/>
      </g>
     </g>
     <g id="text_8">
      <!-- 0.8 -->
      <g transform="translate(31.096875 99.48859)scale(0.1 -0.1)">
       <defs>
        <path id="DejaVuSans-38" d="M 2034 2216 
Q 1584 2216 1326 1975 
Q 1069 1734 1069 1313 
Q 1069 891 1326 650 
Q 1584 409 2034 409 
Q 2484 409 2743 651 
Q 3003 894 3003 1313 
Q 3003 1734 2745 1975 
Q 2488 2216 2034 2216 
z
M 1403 2484 
Q 997 2584 770 2862 
Q 544 3141 544 3541 
Q 544 4100 942 4425 
Q 1341 4750 2034 4750 
Q 2731 4750 3128 4425 
Q 3525 4100 3525 3541 
Q 3525 3141 3298 2862 
Q 3072 2584 2669 2484 
Q 3125 2378 3379 2068 
Q 3634 1759 3634 1313 
Q 3634 634 3220 271 
Q 2806 -91 2034 -91 
Q 1263 -91 848 271 
Q 434 634 434 1313 
Q 434 1759 690 2068 
Q 947 2378 1403 2484 
z
M 1172 3481 
Q 1172 3119 1398 2916 
Q 1625 2713 2034 2713 
Q 2441 2713 2670 2916 
Q 2900 3119 2900 3481 
Q 2900 3844 2670 4047 
Q 2441 4250 2034 4250 
Q 1625 4250 1398 4047 
Q 1172 3844 1172 3481 
z
" transform="scale(0.015625)"/>
       </defs>
       <use xlink:href="#DejaVuSans-30"/>
       <use xlink:href="#DejaVuSans-2e" x="63.623047"/>
       <use xlink:href="#DejaVuSans-38" x="95.410156"/>
      </g>
     </g>
    </g>
    <g id="ytick_6">
     <g id="line2d_8">
      <g>
       <use xlink:href="#m175522b298" x="54" y="63.962285" style="stroke: #000000; stroke-width: 0.8"/>
      </g>
     </g>
     <g id="text_9">
      <!-- 1.0 -->
      <g transform="translate(31.096875 67.761504)scale(0.1 -0.1)">
       <use xlink:href="#DejaVuSans-31"/>
       <use xlink:href="#DejaVuSans-2e" x="63.623047"/>
       <use xlink:href="#DejaVuSans-30" x="95.410156"/>
      </g>
     </g>
    </g>
    <g id="text_10">
     <!-- Smoker -->
     <g transform="translate(25.017187 162.23)rotate(-90)scale(0.1 -0.1)">
      <defs>
       <path id="DejaVuSans-53" d="M 3425 4513 
L 3425 3897 
Q 3066 4069 2747 4153 
Q 2428 4238 2131 4238 
Q 1616 4238 1336 4038 
Q 1056 3838 1056 3469 
Q 1056 3159 1242 3001 
Q 1428 2844 1947 2747 
L 2328 2669 
Q 3034 2534 3370 2195 
Q 3706 1856 3706 1288 
Q 3706 609 3251 259 
Q 2797 -91 1919 -91 
Q 1588 -91 1214 -16 
Q 841 59 441 206 
L 441 856 
Q 825 641 1194 531 
Q 1563 422 1919 422 
Q 2459 422 2753 634 
Q 3047 847 3047 1241 
Q 3047 1584 2836 1778 
Q 2625 1972 2144 2069 
L 1759 2144 
Q 1053 2284 737 2584 
Q 422 2884 422 3419 
Q 422 4038 858 4394 
Q 1294 4750 2059 4750 
Q 2388 4750 2728 4690 
Q 3069 4631 3425 4513 
z
" transform="scale(0.015625)"/>
       <path id="DejaVuSans-6d" d="M 3328 2828 
Q 3544 3216 3844 3400 
Q 4144 3584 4550 3584 
Q 5097 3584 5394 3201 
Q 5691 2819 5691 2113 
L 5691 0 
L 5113 0 
L 5113 2094 
Q 5113 2597 4934 2840 
Q 4756 3084 4391 3084 
Q 3944 3084 3684 2787 
Q 3425 2491 3425 1978 
L 3425 0 
L 2847 0 
L 2847 2094 
Q 2847 2600 2669 2842 
Q 2491 3084 2119 3084 
Q 1678 3084 1418 2786 
Q 1159 2488 1159 1978 
L 1159 0 
L 581 0 
L 581 3500 
L 1159 3500 
L 1159 2956 
Q 1356 3278 1631 3431 
Q 1906 3584 2284 3584 
Q 2666 3584 2933 3390 
Q 3200 3197 3328 2828 
z
" transform="scale(0.015625)"/>
       <path id="DejaVuSans-6f" d="M 1959 3097 
Q 1497 3097 1228 2736 
Q 959 2375 959 1747 
Q 959 1119 1226 758 
Q 1494 397 1959 397 
Q 2419 397 2687 759 
Q 2956 1122 2956 1747 
Q 2956 2369 2687 2733 
Q 2419 3097 1959 3097 
z
M 1959 3584 
Q 2709 3584 3137 3096 
Q 3566 2609 3566 1747 
Q 3566 888 3137 398 
Q 2709 -91 1959 -91 
Q 1206 -91 779 398 
Q 353 888 353 1747 
Q 353 2609 779 3096 
Q 1206 3584 1959 3584 
z
" transform="scale(0.015625)"/>
       <path id="DejaVuSans-6b" d="M 581 4863 
L 1159 4863 
L 1159 1991 
L 2875 3500 
L 3609 3500 
L 1753 1863 
L 3688 0 
L 2938 0 
L 1159 1709 
L 1159 0 
L 581 0 
L 581 4863 
z
" transform="scale(0.015625)"/>
      </defs>
      <use xlink:href="#DejaVuSans-53"/>
      <use xlink:href="#DejaVuSans-6d" x="63.476562"/>
      <use xlink:href="#DejaVuSans-6f" x="160.888672"/>
      <use xlink:href="#DejaVuSans-6b" x="222.070312"/>
      <use xlink:href="#DejaVuSans-65" x="276.355469"/>
      <use xlink:href="#DejaVuSans-72" x="337.878906"/>
     </g>
    </g>
   </g>
   <g id="line2d_9">
    <path d="M 137.7 222.597715 
L 137.7 63.962285 
" clip-path="url(#pbb8e9aee99)" style="fill: none; stroke: #7a7a7a; stroke-width: 1.5; stroke-linecap: square"/>
   </g>
   <g id="line2d_10">
    <path d="M 137.7 222.597715 
L 137.7 63.962285 
" clip-path="url(#pbb8e9aee99)" style="fill: none; stroke: #7a7a7a; stroke-width: 4.5; stroke-linecap: square"/>
   </g>
   <g id="line2d_11">
    <path d="M 305.1 222.597715 
L 305.1 63.962285 
" clip-path="url(#pbb8e9aee99)" style="fill: none; stroke: #7a7a7a; stroke-width: 1.5; stroke-linecap: square"/>
   </g>
   <g id="line2d_12">
    <path d="M 305.1 222.597715 
L 305.1 63.962285 
" clip-path="url(#pbb8e9aee99)" style="fill: none; stroke: #7a7a7a; stroke-width: 4.5; stroke-linecap: square"/>
   </g>
   <g id="patch_3">
    <path d="M 54 252 
L 54 34.56 
" style="fill: none; stroke: #000000; stroke-width: 0.8; stroke-linejoin: miter; stroke-linecap: square"/>
   </g>
   <g id="patch_4">
    <path d="M 388.8 252 
L 388.8 34.56 
" style="fill: none; stroke: #000000; stroke-width: 0.8; stroke-linejoin: miter; stroke-linecap: square"/>
   </g>
   <g id="patch_5">
    <path d="M 54 252 
L 388.8 252 
" style="fill: none; stroke: #000000; stroke-width: 0.8; stroke-linejoin: miter; stroke-linecap: square"/>
   </g>
   <g id="patch_6">
    <path d="M 54 34.56 
L 388.8 34.56 
" style="fill: none; stroke: #000000; stroke-width: 0.8; stroke-linejoin: miter; stroke-linecap: square"/>
   </g>
   <g id="PathCollection_1">
    <defs>
     <path id="m3e23702ce1" d="M 0 1.5 
C 0.397805 1.5 0.77937 1.341951 1.06066 1.06066 
C 1.341951 0.77937 1.5 0.397805 1.5 0 
C 1.5 -0.397805 1.341951 -0.77937 1.06066 -1.06066 
C 0.77937 -1.341951 0.397805 -1.5 0 -1.5 
C -0.397805 -1.5 -0.77937 -1.341951 -1.06066 -1.06066 
C -1.341951 -0.77937 -1.5 -0.397805 -1.5 0 
C -1.5 0.397805 -1.341951 0.77937 -1.06066 1.06066 
C -0.77937 1.341951 -0.397805 1.5 0 1.5 
z
" style="stroke: #7a7a7a"/>
    </defs>
    <g clip-path="url(#pbb8e9aee99)">
     <use xlink:href="#m3e23702ce1" x="137.7" y="222.597715" style="fill: #ffffff; stroke: #7a7a7a"/>
    </g>
   </g>
   <g id="PathCollection_2">
    <g clip-path="url(#pbb8e9aee99)">
     <use xlink:href="#m3e23702ce1" x="305.1" y="63.962285" style="fill: #ffffff; stroke: #7a7a7a"/>
    </g>
   </g>
  </g>
 </g>
 <defs>
  <clipPath id="pbb8e9aee99">
   <rect x="54" y="34.56" width="334.8" height="217.44"/>
  </clipPath>
 </defs>
</svg>
