<?xml version="1.0" encoding="utf-8" standalone="no"?>
<!DOCTYPE svg PUBLIC "-//W3C//DTD SVG 1.1//EN"
  "http://www.w3.org/Graphics/SVG/1.1/DTD/svg11.dtd">
<svg xmlns:xlink="http://www.w3.org/1999/xlink" width="432pt" height="288pt" viewBox="0 0 432 288" xmlns="http://www.w3.org/2000/svg" version="1.1">
 <metadata>
  <rdf:RDF xmlns:dc="http://purl.org/dc/elements/1.1/" xmlns:cc="http://creativecommons.org/ns#" xmlns:rdf="http://www.w3.org/1999/02/22-rdf-syntax-ns#">
   <cc:Work>
    <dc:type rdf:resource="http://purl.org/dc/dcmitype/StillImage"/>
    <dc:date>2023-05-03T02:46:52.127874</dc:date>
    <dc:format>image/svg+xml</dc:format>
    <dc:creator>
     <cc:Agent>
      <dc:title>Matplotlib v3.5.3, https://matplotlib.org/</dc:title>
     </cc:Agent>
    </dc:creator>
   </cc:Work>
  </rdf:RDF>
 </metadata>
 <defs>
  <style type="text/css">*{stroke-linejoin: round; stroke-linecap: butt}</style>
 </defs>
 <g id="figure_1">
  <g id="patch_1">
   <path d="M 0 288 
L 432 288 
L 432 0 
L 0 0 
L 0 288 
z
" style="fill: none"/>
  </g>
  <g id="axes_1">
   <g id="patch_2">
    <path d="M 54 252 
L 388.8 252 
L 388.8 34.56 
L 54 34.56 
z
" style="fill: #ffffff"/>
   </g>
   <g id="PolyCollection_1">
    <defs>
     <path id="m260630e77e" d="M 146.765973 -50.738934 
L 128.634027 -50.738934 
L 115.711187 -52.637541 
L 96.471481 -54.536149 
L 77.941142 -56.434756 
L 70.74 -58.333364 
L 79.69877 -60.231971 
L 98.861043 -62.130578 
L 117.594887 -64.029186 
L 129.654481 -65.927793 
L 135.211084 -67.826401 
L 137.104783 -69.725008 
L 137.589961 -71.623615 
L 137.684274 -73.522223 
L 137.698263 -75.42083 
L 137.699852 -77.319438 
L 137.69999 -79.218045 
L 137.699999 -81.116652 
L 137.7 -83.01526 
L 137.7 -84.913867 
L 137.7 -86.812475 
L 137.7 -88.711082 
L 137.7 -90.609689 
L 137.7 -92.508297 
L 137.7 -94.406904 
L 137.7 -96.305511 
L 137.7 -98.204119 
L 137.7 -100.102726 
L 137.7 -102.001334 
L 137.7 -103.899941 
L 137.7 -105.798548 
L 137.7 -107.697156 
L 137.7 -109.595763 
L 137.7 -111.494371 
L 137.7 -113.392978 
L 137.7 -115.291585 
L 137.7 -117.190193 
L 137.7 -119.0888 
L 137.7 -120.987408 
L 137.7 -122.886015 
L 137.7 -124.784622 
L 137.7 -126.68323 
L 137.7 -128.581837 
L 137.7 -130.480445 
L 137.7 -132.379052 
L 137.7 -134.277659 
L 137.7 -136.176267 
L 137.7 -138.074874 
L 137.7 -139.973482 
L 137.7 -141.872089 
L 137.7 -143.770696 
L 137.7 -145.669304 
L 137.7 -147.567911 
L 137.7 -149.466518 
L 137.7 -151.365126 
L 137.7 -153.263733 
L 137.7 -155.162341 
L 137.7 -157.060948 
L 137.7 -158.959555 
L 137.7 -160.858163 
L 137.7 -162.75677 
L 137.7 -164.655378 
L 137.7 -166.553985 
L 137.7 -168.452592 
L 137.7 -170.3512 
L 137.7 -172.249807 
L 137.7 -174.148415 
L 137.7 -176.047022 
L 137.7 -177.945629 
L 137.7 -179.844237 
L 137.7 -181.742844 
L 137.7 -183.641452 
L 137.7 -185.540059 
L 137.7 -187.438666 
L 137.7 -189.337274 
L 137.7 -191.235881 
L 137.7 -193.134489 
L 137.7 -195.033096 
L 137.7 -196.931703 
L 137.7 -198.830311 
L 137.7 -200.728918 
L 137.7 -202.627525 
L 137.7 -204.526133 
L 137.7 -206.42474 
L 137.7 -208.323348 
L 137.7 -210.221955 
L 137.699995 -212.120562 
L 137.699943 -214.01917 
L 137.699482 -215.917777 
L 137.696376 -217.816385 
L 137.680397 -219.714992 
L 137.618028 -221.613599 
L 137.435021 -223.512207 
L 137.03784 -225.410814 
L 136.420842 -227.309422 
L 135.789734 -229.208029 
L 135.494678 -231.106636 
L 135.731847 -233.005244 
L 136.342142 -234.903851 
L 136.9758 -236.802459 
L 137.401413 -238.701066 
L 137.998587 -238.701066 
L 137.998587 -238.701066 
L 138.4242 -236.802459 
L 139.057858 -234.903851 
L 139.668153 -233.005244 
L 139.905322 -231.106636 
L 139.610266 -229.208029 
L 138.979158 -227.309422 
L 138.36216 -225.410814 
L 137.964979 -223.512207 
L 137.781972 -221.613599 
L 137.719603 -219.714992 
L 137.703624 -217.816385 
L 137.700518 -215.917777 
L 137.700057 -214.01917 
L 137.700005 -212.120562 
L 137.7 -210.221955 
L 137.7 -208.323348 
L 137.7 -206.42474 
L 137.7 -204.526133 
L 137.7 -202.627525 
L 137.7 -200.728918 
L 137.7 -198.830311 
L 137.7 -196.931703 
L 137.7 -195.033096 
L 137.7 -193.134489 
L 137.7 -191.235881 
L 137.7 -189.337274 
L 137.7 -187.438666 
L 137.7 -185.540059 
L 137.7 -183.641452 
L 137.7 -181.742844 
L 137.7 -179.844237 
L 137.7 -177.945629 
L 137.7 -176.047022 
L 137.7 -174.148415 
L 137.7 -172.249807 
L 137.7 -170.3512 
L 137.7 -168.452592 
L 137.7 -166.553985 
L 137.7 -164.655378 
L 137.7 -162.75677 
L 137.7 -160.858163 
L 137.7 -158.959555 
L 137.7 -157.060948 
L 137.7 -155.162341 
L 137.7 -153.263733 
L 137.7 -151.365126 
L 137.7 -149.466518 
L 137.7 -147.567911 
L 137.7 -145.669304 
L 137.7 -143.770696 
L 137.7 -141.872089 
L 137.7 -139.973482 
L 137.7 -138.074874 
L 137.7 -136.176267 
L 137.7 -134.277659 
L 137.7 -132.379052 
L 137.7 -130.480445 
L 137.7 -128.581837 
L 137.7 -126.68323 
L 137.7 -124.784622 
L 137.7 -122.886015 
L 137.7 -120.987408 
L 137.7 -119.0888 
L 137.7 -117.190193 
L 137.7 -115.291585 
L 137.7 -113.392978 
L 137.7 -111.494371 
L 137.7 -109.595763 
L 137.7 -107.697156 
L 137.7 -105.798548 
L 137.7 -103.899941 
L 137.7 -102.001334 
L 137.7 -100.102726 
L 137.7 -98.204119 
L 137.7 -96.305511 
L 137.7 -94.406904 
L 137.7 -92.508297 
L 137.7 -90.609689 
L 137.7 -88.711082 
L 137.7 -86.812475 
L 137.7 -84.913867 
L 137.7 -83.01526 
L 137.700001 -81.116652 
L 137.70001 -79.218045 
L 137.700148 -77.319438 
L 137.701737 -75.42083 
L 137.715726 -73.522223 
L 137.810039 -71.623615 
L 138.295217 -69.725008 
L 140.188916 -67.826401 
L 145.745519 -65.927793 
L 157.805113 -64.029186 
L 176.538957 -62.130578 
L 195.70123 -60.231971 
L 204.66 -58.333364 
L 197.458858 -56.434756 
L 178.928519 -54.536149 
L 159.688813 -52.637541 
L 146.765973 -50.738934 
z
" style="stroke: #7a7a7a; stroke-width: 1.5"/>
    </defs>
    <g clip-path="url(#pf06976b29e)">
     <use xlink:href="#m260630e77e" x="0" y="288" style="fill: #f1bcb8; stroke: #7a7a7a; stroke-width: 1.5"/>
    </g>
   </g>
   <g id="PolyCollection_2">
    <defs>
     <path id="m6d7d45a571" d="M 310.254723 -45.883636 
L 299.945277 -45.883636 
L 295.755448 -47.880331 
L 289.844475 -49.877025 
L 282.670925 -51.873719 
L 275.4031 -53.870413 
L 269.689961 -55.867107 
L 267.076051 -57.863802 
L 268.329158 -59.860496 
L 273.076745 -61.85719 
L 279.984438 -63.853884 
L 287.360725 -65.850579 
L 293.816486 -67.847273 
L 298.63649 -69.843967 
L 301.765674 -71.840661 
L 303.550958 -73.837355 
L 304.451912 -75.83405 
L 304.855814 -77.830744 
L 305.017144 -79.827438 
L 305.074681 -81.824132 
L 305.093033 -83.820826 
L 305.098273 -85.817521 
L 305.099615 -87.814215 
L 305.099923 -89.810909 
L 305.099986 -91.807603 
L 305.099998 -93.804298 
L 305.1 -95.800992 
L 305.1 -97.797686 
L 305.1 -99.79438 
L 305.1 -101.791074 
L 305.1 -103.787769 
L 305.1 -105.784463 
L 305.1 -107.781157 
L 305.1 -109.777851 
L 305.1 -111.774545 
L 305.1 -113.77124 
L 305.1 -115.767934 
L 305.1 -117.764628 
L 305.1 -119.761322 
L 305.1 -121.758017 
L 305.1 -123.754711 
L 305.1 -125.751405 
L 305.1 -127.748099 
L 305.1 -129.744793 
L 305.1 -131.741488 
L 305.1 -133.738182 
L 305.1 -135.734876 
L 305.1 -137.73157 
L 305.1 -139.728264 
L 305.1 -141.724959 
L 305.1 -143.721653 
L 305.1 -145.718347 
L 305.1 -147.715041 
L 305.1 -149.711736 
L 305.1 -151.70843 
L 305.1 -153.705124 
L 305.1 -155.701818 
L 305.1 -157.698512 
L 305.1 -159.695207 
L 305.1 -161.691901 
L 305.1 -163.688595 
L 305.1 -165.685289 
L 305.1 -167.681983 
L 305.1 -169.678678 
L 305.1 -171.675372 
L 305.1 -173.672066 
L 305.1 -175.66876 
L 305.1 -177.665455 
L 305.1 -179.662149 
L 305.1 -181.658843 
L 305.1 -183.655537 
L 305.1 -185.652231 
L 305.1 -187.648926 
L 305.1 -189.64562 
L 305.1 -191.642314 
L 305.1 -193.639008 
L 305.1 -195.635702 
L 305.099999 -197.632397 
L 305.099992 -199.629091 
L 305.099961 -201.625785 
L 305.099824 -203.622479 
L 305.09929 -205.619174 
L 305.097421 -207.615868 
L 305.091559 -209.612562 
L 305.075123 -211.609256 
L 305.033975 -213.60595 
L 304.942189 -215.602645 
L 304.76031 -217.599339 
L 304.441519 -219.596033 
L 303.950473 -221.592727 
L 303.292782 -223.589421 
L 302.54131 -225.586116 
L 301.837577 -227.58281 
L 301.353909 -229.579504 
L 301.226246 -231.576198 
L 301.492543 -233.572893 
L 302.074579 -235.569587 
L 302.815 -237.566281 
L 303.545818 -239.562975 
L 304.148008 -241.559669 
L 304.574854 -243.556364 
L 305.625146 -243.556364 
L 305.625146 -243.556364 
L 306.051992 -241.559669 
L 306.654182 -239.562975 
L 307.385 -237.566281 
L 308.125421 -235.569587 
L 308.707457 -233.572893 
L 308.973754 -231.576198 
L 308.846091 -229.579504 
L 308.362423 -227.58281 
L 307.65869 -225.586116 
L 306.907218 -223.589421 
L 306.249527 -221.592727 
L 305.758481 -219.596033 
L 305.43969 -217.599339 
L 305.257811 -215.602645 
L 305.166025 -213.60595 
L 305.124877 -211.609256 
L 305.108441 -209.612562 
L 305.102579 -207.615868 
L 305.10071 -205.619174 
L 305.100176 -203.622479 
L 305.100039 -201.625785 
L 305.100008 -199.629091 
L 305.100001 -197.632397 
L 305.1 -195.635702 
L 305.1 -193.639008 
L 305.1 -191.642314 
L 305.1 -189.64562 
L 305.1 -187.648926 
L 305.1 -185.652231 
L 305.1 -183.655537 
L 305.1 -181.658843 
L 305.1 -179.662149 
L 305.1 -177.665455 
L 305.1 -175.66876 
L 305.1 -173.672066 
L 305.1 -171.675372 
L 305.1 -169.678678 
L 305.1 -167.681983 
L 305.1 -165.685289 
L 305.1 -163.688595 
L 305.1 -161.691901 
L 305.1 -159.695207 
L 305.1 -157.698512 
L 305.1 -155.701818 
L 305.1 -153.705124 
L 305.1 -151.70843 
L 305.1 -149.711736 
L 305.1 -147.715041 
L 305.1 -145.718347 
L 305.1 -143.721653 
L 305.1 -141.724959 
L 305.1 -139.728264 
L 305.1 -137.73157 
L 305.1 -135.734876 
L 305.1 -133.738182 
L 305.1 -131.741488 
L 305.1 -129.744793 
L 305.1 -127.748099 
L 305.1 -125.751405 
L 305.1 -123.754711 
L 305.1 -121.758017 
L 305.1 -119.761322 
L 305.1 -117.764628 
L 305.1 -115.767934 
L 305.1 -113.77124 
L 305.1 -111.774545 
L 305.1 -109.777851 
L 305.1 -107.781157 
L 305.1 -105.784463 
L 305.1 -103.787769 
L 305.1 -101.791074 
L 305.1 -99.79438 
L 305.1 -97.797686 
L 305.1 -95.800992 
L 305.100002 -93.804298 
L 305.100014 -91.807603 
L 305.100077 -89.810909 
L 305.100385 -87.814215 
L 305.101727 -85.817521 
L 305.106967 -83.820826 
L 305.125319 -81.824132 
L 305.182856 -79.827438 
L 305.344186 -77.830744 
L 305.748088 -75.83405 
L 306.649042 -73.837355 
L 308.434326 -71.840661 
L 311.56351 -69.843967 
L 316.383514 -67.847273 
L 322.839275 -65.850579 
L 330.215562 -63.853884 
L 337.123255 -61.85719 
L 341.870842 -59.860496 
L 343.123949 -57.863802 
L 340.510039 -55.867107 
L 334.7969 -53.870413 
L 327.529075 -51.873719 
L 320.355525 -49.877025 
L 314.444552 -47.880331 
L 310.254723 -45.883636 
z
" style="stroke: #7a7a7a; stroke-width: 1.5"/>
    </defs>
    <g clip-path="url(#pf06976b29e)">
     <use xlink:href="#m6d7d45a571" x="0" y="288" style="fill: #b9ccdd; stroke: #7a7a7a; stroke-width: 1.5"/>
    </g>
   </g>
   <g id="matplotlib.axis_1">
    <g id="xtick_1">
     <g id="line2d_1">
      <defs>
       <path id="m681c7566b6" d="M 0 0 
L 0 3.5 
" style="stroke: #000000; stroke-width: 0.8"/>
      </defs>
      <g>
       <use xlink:href="#m681c7566b6" x="137.7" y="252" style="stroke: #000000; stroke-width: 0.8"/>
      </g>
     </g>
     <g id="text_1">
      <!-- 0.0 -->
      <g transform="translate(129.748437 266.598437)scale(0.1 -0.1)">
       <defs>
        <path id="DejaVuSans-30" d="M 2034 4250 
Q 1547 4250 1301 3770 
Q 1056 3291 1056 2328 
Q 1056 1369 1301 889 
Q 1547 409 2034 409 
Q 2525 409 2770 889 
Q 3016 1369 3016 2328 
Q 3016 3291 2770 3770 
Q 2525 4250 2034 4250 
z
M 2034 4750 
Q 2819 4750 3233 4129 
Q 3647 3509 3647 2328 
Q 3647 1150 3233 529 
Q 2819 -91 2034 -91 
Q 1250 -91 836 529 
Q 422 1150 422 2328 
Q 422 3509 836 4129 
Q 1250 4750 2034 4750 
z
" transform="scale(0.015625)"/>
        <path id="DejaVuSans-2e" d="M 684 794 
L 1344 794 
L 1344 0 
L 684 0 
L 684 794 
z
" transform="scale(0.015625)"/>
       </defs>
       <use xlink:href="#DejaVuSans-30"/>
       <use xlink:href="#DejaVuSans-2e" x="63.623047"/>
       <use xlink:href="#DejaVuSans-30" x="95.410156"/>
      </g>
     </g>
    </g>
    <g id="xtick_2">
     <g id="line2d_2">
      <g>
       <use xlink:href="#m681c7566b6" x="305.1" y="252" style="stroke: #000000; stroke-width: 0.8"/>
      </g>
     </g>
     <g id="text_2">
      <!-- 1.0 -->
      <g transform="translate(297.148438 266.598437)scale(0.1 -0.1)">
       <defs>
        <path id="DejaVuSans-31" d="M 794 531 
L 1825 531 
L 1825 4091 
L 703 3866 
L 703 4441 
L 1819 4666 
L 2450 4666 
L 2450 531 
L 3481 531 
L 3481 0 
L 794 0 
L 794 531 
z
" transform="scale(0.015625)"/>
       </defs>
       <use xlink:href="#DejaVuSans-31"/>
       <use xlink:href="#DejaVuSans-2e" x="63.623047"/>
       <use xlink:href="#DejaVuSans-30" x="95.410156"/>
      </g>
     </g>
    </g>
    <g id="text_3">
     <!-- Diabetes_binary -->
     <g transform="translate(180.89375 280.276563)scale(0.1 -0.1)">
      <defs>
       <path id="DejaVuSans-44" d="M 1259 4147 
L 1259 519 
L 2022 519 
Q 2988 519 3436 956 
Q 3884 1394 3884 2338 
Q 3884 3275 3436 3711 
Q 2988 4147 2022 4147 
L 1259 4147 
z
M 628 4666 
L 1925 4666 
Q 3281 4666 3915 4102 
Q 4550 3538 4550 2338 
Q 4550 1131 3912 565 
Q 3275 0 1925 0 
L 628 0 
L 628 4666 
z
" transform="scale(0.015625)"/>
       <path id="DejaVuSans-69" d="M 603 3500 
L 1178 3500 
L 1178 0 
L 603 0 
L 603 3500 
z
M 603 4863 
L 1178 4863 
L 1178 4134 
L 603 4134 
L 603 4863 
z
" transform="scale(0.015625)"/>
       <path id="DejaVuSans-61" d="M 2194 1759 
Q 1497 1759 1228 1600 
Q 959 1441 959 1056 
Q 959 750 1161 570 
Q 1363 391 1709 391 
Q 2188 391 2477 730 
Q 2766 1069 2766 1631 
L 2766 1759 
L 2194 1759 
z
M 3341 1997 
L 3341 0 
L 2766 0 
L 2766 531 
Q 2569 213 2275 61 
Q 1981 -91 1556 -91 
Q 1019 -91 701 211 
Q 384 513 384 1019 
Q 384 1609 779 1909 
Q 1175 2209 1959 2209 
L 2766 2209 
L 2766 2266 
Q 2766 2663 2505 2880 
Q 2244 3097 1772 3097 
Q 1472 3097 1187 3025 
Q 903 2953 641 2809 
L 641 3341 
Q 956 3463 1253 3523 
Q 1550 3584 1831 3584 
Q 2591 3584 2966 3190 
Q 3341 2797 3341 1997 
z
" transform="scale(0.015625)"/>
       <path id="DejaVuSans-62" d="M 3116 1747 
Q 3116 2381 2855 2742 
Q 2594 3103 2138 3103 
Q 1681 3103 1420 2742 
Q 1159 2381 1159 1747 
Q 1159 1113 1420 752 
Q 1681 391 2138 391 
Q 2594 391 2855 752 
Q 3116 1113 3116 1747 
z
M 1159 2969 
Q 1341 3281 1617 3432 
Q 1894 3584 2278 3584 
Q 2916 3584 3314 3078 
Q 3713 2572 3713 1747 
Q 3713 922 3314 415 
Q 2916 -91 2278 -91 
Q 1894 -91 1617 61 
Q 1341 213 1159 525 
L 1159 0 
L 581 0 
L 581 4863 
L 1159 4863 
L 1159 2969 
z
" transform="scale(0.015625)"/>
       <path id="DejaVuSans-65" d="M 3597 1894 
L 3597 1613 
L 953 1613 
Q 991 1019 1311 708 
Q 1631 397 2203 397 
Q 2534 397 2845 478 
Q 3156 559 3463 722 
L 3463 178 
Q 3153 47 2828 -22 
Q 2503 -91 2169 -91 
Q 1331 -91 842 396 
Q 353 884 353 1716 
Q 353 2575 817 3079 
Q 1281 3584 2069 3584 
Q 2775 3584 3186 3129 
Q 3597 2675 3597 1894 
z
M 3022 2063 
Q 3016 2534 2758 2815 
Q 2500 3097 2075 3097 
Q 1594 3097 1305 2825 
Q 1016 2553 972 2059 
L 3022 2063 
z
" transform="scale(0.015625)"/>
       <path id="DejaVuSans-74" d="M 1172 4494 
L 1172 3500 
L 2356 3500 
L 2356 3053 
L 1172 3053 
L 1172 1153 
Q 1172 725 1289 603 
Q 1406 481 1766 481 
L 2356 481 
L 2356 0 
L 1766 0 
Q 1100 0 847 248 
Q 594 497 594 1153 
L 594 3053 
L 172 3053 
L 172 3500 
L 594 3500 
L 594 4494 
L 1172 4494 
z
" transform="scale(0.015625)"/>
       <path id="DejaVuSans-73" d="M 2834 3397 
L 2834 2853 
Q 2591 2978 2328 3040 
Q 2066 3103 1784 3103 
Q 1356 3103 1142 2972 
Q 928 2841 928 2578 
Q 928 2378 1081 2264 
Q 1234 2150 1697 2047 
L 1894 2003 
Q 2506 1872 2764 1633 
Q 3022 1394 3022 966 
Q 3022 478 2636 193 
Q 2250 -91 1575 -91 
Q 1294 -91 989 -36 
Q 684 19 347 128 
L 347 722 
Q 666 556 975 473 
Q 1284 391 1588 391 
Q 1994 391 2212 530 
Q 2431 669 2431 922 
Q 2431 1156 2273 1281 
Q 2116 1406 1581 1522 
L 1381 1569 
Q 847 1681 609 1914 
Q 372 2147 372 2553 
Q 372 3047 722 3315 
Q 1072 3584 1716 3584 
Q 2034 3584 2315 3537 
Q 2597 3491 2834 3397 
z
" transform="scale(0.015625)"/>
       <path id="DejaVuSans-5f" d="M 3263 -1063 
L 3263 -1509 
L -63 -1509 
L -63 -1063 
L 3263 -1063 
z
" transform="scale(0.015625)"/>
       <path id="DejaVuSans-6e" d="M 3513 2113 
L 3513 0 
L 2938 0 
L 2938 2094 
Q 2938 2591 2744 2837 
Q 2550 3084 2163 3084 
Q 1697 3084 1428 2787 
Q 1159 2491 1159 1978 
L 1159 0 
L 581 0 
L 581 3500 
L 1159 3500 
L 1159 2956 
Q 1366 3272 1645 3428 
Q 1925 3584 2291 3584 
Q 2894 3584 3203 3211 
Q 3513 2838 3513 2113 
z
" transform="scale(0.015625)"/>
       <path id="DejaVuSans-72" d="M 2631 2963 
Q 2534 3019 2420 3045 
Q 2306 3072 2169 3072 
Q 1681 3072 1420 2755 
Q 1159 2438 1159 1844 
L 1159 0 
L 581 0 
L 581 3500 
L 1159 3500 
L 1159 2956 
Q 1341 3275 1631 3429 
Q 1922 3584 2338 3584 
Q 2397 3584 2469 3576 
Q 2541 3569 2628 3553 
L 2631 2963 
z
" transform="scale(0.015625)"/>
       <path id="DejaVuSans-79" d="M 2059 -325 
Q 1816 -950 1584 -1140 
Q 1353 -1331 966 -1331 
L 506 -1331 
L 506 -850 
L 844 -850 
Q 1081 -850 1212 -737 
Q 1344 -625 1503 -206 
L 1606 56 
L 191 3500 
L 800 3500 
L 1894 763 
L 2988 3500 
L 3597 3500 
L 2059 -325 
z
" transform="scale(0.015625)"/>
      </defs>
      <use xlink:href="#DejaVuSans-44"/>
      <use xlink:href="#DejaVuSans-69" x="77.001953"/>
      <use xlink:href="#DejaVuSans-61" x="104.785156"/>
      <use xlink:href="#DejaVuSans-62" x="166.064453"/>
      <use xlink:href="#DejaVuSans-65" x="229.541016"/>
      <use xlink:href="#DejaVuSans-74" x="291.064453"/>
      <use xlink:href="#DejaVuSans-65" x="330.273438"/>
      <use xlink:href="#DejaVuSans-73" x="391.796875"/>
      <use xlink:href="#DejaVuSans-5f" x="443.896484"/>
      <use xlink:href="#DejaVuSans-62" x="493.896484"/>
      <use xlink:href="#DejaVuSans-69" x="557.373047"/>
      <use xlink:href="#DejaVuSans-6e" x="585.15625"/>
      <use xlink:href="#DejaVuSans-61" x="648.535156"/>
      <use xlink:href="#DejaVuSans-72" x="709.814453"/>
      <use xlink:href="#DejaVuSans-79" x="750.927734"/>
     </g>
    </g>
   </g>
   <g id="matplotlib.axis_2">
    <g id="ytick_1">
     <g id="line2d_3">
      <defs>
       <path id="m089f9e6dcc" d="M 0 0 
L -3.5 0 
" style="stroke: #000000; stroke-width: 0.8"/>
      </defs>
      <g>
       <use xlink:href="#m089f9e6dcc" x="54" y="229.776733" style="stroke: #000000; stroke-width: 0.8"/>
      </g>
     </g>
     <g id="text_4">
      <!-- 0.0 -->
      <g transform="translate(31.096875 233.575951)scale(0.1 -0.1)">
       <use xlink:href="#DejaVuSans-30"/>
       <use xlink:href="#DejaVuSans-2e" x="63.623047"/>
       <use xlink:href="#DejaVuSans-30" x="95.410156"/>
      </g>
     </g>
    </g>
    <g id="ytick_2">
     <g id="line2d_4">
      <g>
       <use xlink:href="#m089f9e6dcc" x="54" y="195.17804" style="stroke: #000000; stroke-width: 0.8"/>
      </g>
     </g>
     <g id="text_5">
      <!-- 0.2 -->
      <g transform="translate(31.096875 198.977258)scale(0.1 -0.1)">
       <defs>
        <path id="DejaVuSans-32" d="M 1228 531 
L 3431 531 
L 3431 0 
L 469 0 
L 469 531 
Q 828 903 1448 1529 
Q 2069 2156 2228 2338 
Q 2531 2678 2651 2914 
Q 2772 3150 2772 3378 
Q 2772 3750 2511 3984 
Q 2250 4219 1831 4219 
Q 1534 4219 1204 4116 
Q 875 4013 500 3803 
L 500 4441 
Q 881 4594 1212 4672 
Q 1544 4750 1819 4750 
Q 2544 4750 2975 4387 
Q 3406 4025 3406 3419 
Q 3406 3131 3298 2873 
Q 3191 2616 2906 2266 
Q 2828 2175 2409 1742 
Q 1991 1309 1228 531 
z
" transform="scale(0.015625)"/>
       </defs>
       <use xlink:href="#DejaVuSans-30"/>
       <use xlink:href="#DejaVuSans-2e" x="63.623047"/>
       <use xlink:href="#DejaVuSans-32" x="95.410156"/>
      </g>
     </g>
    </g>
    <g id="ytick_3">
     <g id="line2d_5">
      <g>
       <use xlink:href="#m089f9e6dcc" x="54" y="160.579347" style="stroke: #000000; stroke-width: 0.8"/>
      </g>
     </g>
     <g id="text_6">
      <!-- 0.4 -->
      <g transform="translate(31.096875 164.378565)scale(0.1 -0.1)">
       <defs>
        <path id="DejaVuSans-34" d="M 2419 4116 
L 825 1625 
L 2419 1625 
L 2419 4116 
z
M 2253 4666 
L 3047 4666 
L 3047 1625 
L 3713 1625 
L 3713 1100 
L 3047 1100 
L 3047 0 
L 2419 0 
L 2419 1100 
L 313 1100 
L 313 1709 
L 2253 4666 
z
" transform="scale(0.015625)"/>
       </defs>
       <use xlink:href="#DejaVuSans-30"/>
       <use xlink:href="#DejaVuSans-2e" x="63.623047"/>
       <use xlink:href="#DejaVuSans-34" x="95.410156"/>
      </g>
     </g>
    </g>
    <g id="ytick_4">
     <g id="line2d_6">
      <g>
       <use xlink:href="#m089f9e6dcc" x="54" y="125.980653" style="stroke: #000000; stroke-width: 0.8"/>
      </g>
     </g>
     <g id="text_7">
      <!-- 0.6 -->
      <g transform="translate(31.096875 129.779872)scale(0.1 -0.1)">
       <defs>
        <path id="DejaVuSans-36" d="M 2113 2584 
Q 1688 2584 1439 2293 
Q 1191 2003 1191 1497 
Q 1191 994 1439 701 
Q 1688 409 2113 409 
Q 2538 409 2786 701 
Q 3034 994 3034 1497 
Q 3034 2003 2786 2293 
Q 2538 2584 2113 2584 
z
M 3366 4563 
L 3366 3988 
Q 3128 4100 2886 4159 
Q 2644 4219 2406 4219 
Q 1781 4219 1451 3797 
Q 1122 3375 1075 2522 
Q 1259 2794 1537 2939 
Q 1816 3084 2150 3084 
Q 2853 3084 3261 2657 
Q 3669 2231 3669 1497 
Q 3669 778 3244 343 
Q 2819 -91 2113 -91 
Q 1303 -91 875 529 
Q 447 1150 447 2328 
Q 447 3434 972 4092 
Q 1497 4750 2381 4750 
Q 2619 4750 2861 4703 
Q 3103 4656 3366 4563 
z
" transform="scale(0.015625)"/>
       </defs>
       <use xlink:href="#DejaVuSans-30"/>
       <use xlink:href="#DejaVuSans-2e" x="63.623047"/>
       <use xlink:href="#DejaVuSans-36" x="95.410156"/>
      </g>
     </g>
    </g>
    <g id="ytick_5">
     <g id="line2d_7">
      <g>
       <use xlink:href="#m089f9e6dcc" x="54" y="91.38196" style="stroke: #000000; stroke-width: 0.8"/>
      </g>
     </g>
     <g id="text_8">
      <!-- 0.8 -->
      <g transform="translate(31.096875 95.181179)scale(0.1 -0.1)">
       <defs>
        <path id="DejaVuSans-38" d="M 2034 2216 
Q 1584 2216 1326 1975 
Q 1069 1734 1069 1313 
Q 1069 891 1326 650 
Q 1584 409 2034 409 
Q 2484 409 2743 651 
Q 3003 894 3003 1313 
Q 3003 1734 2745 1975 
Q 2488 2216 2034 2216 
z
M 1403 2484 
Q 997 2584 770 2862 
Q 544 3141 544 3541 
Q 544 4100 942 4425 
Q 1341 4750 2034 4750 
Q 2731 4750 3128 4425 
Q 3525 4100 3525 3541 
Q 3525 3141 3298 2862 
Q 3072 2584 2669 2484 
Q 3125 2378 3379 2068 
Q 3634 1759 3634 1313 
Q 3634 634 3220 271 
Q 2806 -91 2034 -91 
Q 1263 -91 848 271 
Q 434 634 434 1313 
Q 434 1759 690 2068 
Q 947 2378 1403 2484 
z
M 1172 3481 
Q 1172 3119 1398 2916 
Q 1625 2713 2034 2713 
Q 2441 2713 2670 2916 
Q 2900 3119 2900 3481 
Q 2900 3844 2670 4047 
Q 2441 4250 2034 4250 
Q 1625 4250 1398 4047 
Q 1172 3844 1172 3481 
z
" transform="scale(0.015625)"/>
       </defs>
       <use xlink:href="#DejaVuSans-30"/>
       <use xlink:href="#DejaVuSans-2e" x="63.623047"/>
       <use xlink:href="#DejaVuSans-38" x="95.410156"/>
      </g>
     </g>
    </g>
    <g id="ytick_6">
     <g id="line2d_8">
      <g>
       <use xlink:href="#m089f9e6dcc" x="54" y="56.783267" style="stroke: #000000; stroke-width: 0.8"/>
      </g>
     </g>
     <g id="text_9">
      <!-- 1.0 -->
      <g transform="translate(31.096875 60.582486)scale(0.1 -0.1)">
       <use xlink:href="#DejaVuSans-31"/>
       <use xlink:href="#DejaVuSans-2e" x="63.623047"/>
       <use xlink:href="#DejaVuSans-30" x="95.410156"/>
      </g>
     </g>
    </g>
    <g id="text_10">
     <!-- Stroke -->
     <g transform="translate(25.017187 159.207344)rotate(-90)scale(0.1 -0.1)">
      <defs>
       <path id="DejaVuSans-53" d="M 3425 4513 
L 3425 3897 
Q 3066 4069 2747 4153 
Q 2428 4238 2131 4238 
Q 1616 4238 1336 4038 
Q 1056 3838 1056 3469 
Q 1056 3159 1242 3001 
Q 1428 2844 1947 2747 
L 2328 2669 
Q 3034 2534 3370 2195 
Q 3706 1856 3706 1288 
Q 3706 609 3251 259 
Q 2797 -91 1919 -91 
Q 1588 -91 1214 -16 
Q 841 59 441 206 
L 441 856 
Q 825 641 1194 531 
Q 1563 422 1919 422 
Q 2459 422 2753 634 
Q 3047 847 3047 1241 
Q 3047 1584 2836 1778 
Q 2625 1972 2144 2069 
L 1759 2144 
Q 1053 2284 737 2584 
Q 422 2884 422 3419 
Q 422 4038 858 4394 
Q 1294 4750 2059 4750 
Q 2388 4750 2728 4690 
Q 3069 4631 3425 4513 
z
" transform="scale(0.015625)"/>
       <path id="DejaVuSans-6f" d="M 1959 3097 
Q 1497 3097 1228 2736 
Q 959 2375 959 1747 
Q 959 1119 1226 758 
Q 1494 397 1959 397 
Q 2419 397 2687 759 
Q 2956 1122 2956 1747 
Q 2956 2369 2687 2733 
Q 2419 3097 1959 3097 
z
M 1959 3584 
Q 2709 3584 3137 3096 
Q 3566 2609 3566 1747 
Q 3566 888 3137 398 
Q 2709 -91 1959 -91 
Q 1206 -91 779 398 
Q 353 888 353 1747 
Q 353 2609 779 3096 
Q 1206 3584 1959 3584 
z
" transform="scale(0.015625)"/>
       <path id="DejaVuSans-6b" d="M 581 4863 
L 1159 4863 
L 1159 1991 
L 2875 3500 
L 3609 3500 
L 1753 1863 
L 3688 0 
L 2938 0 
L 1159 1709 
L 1159 0 
L 581 0 
L 581 4863 
z
" transform="scale(0.015625)"/>
      </defs>
      <use xlink:href="#DejaVuSans-53"/>
      <use xlink:href="#DejaVuSans-74" x="63.476562"/>
      <use xlink:href="#DejaVuSans-72" x="102.685547"/>
      <use xlink:href="#DejaVuSans-6f" x="141.548828"/>
      <use xlink:href="#DejaVuSans-6b" x="202.730469"/>
      <use xlink:href="#DejaVuSans-65" x="257.015625"/>
     </g>
    </g>
   </g>
   <g id="line2d_9">
    <path d="M 137.7 229.776733 
L 137.7 229.776733 
" clip-path="url(#pf06976b29e)" style="fill: none; stroke: #7a7a7a; stroke-width: 1.5; stroke-linecap: square"/>
   </g>
   <g id="line2d_10">
    <path d="M 137.7 229.776733 
L 137.7 229.776733 
" clip-path="url(#pf06976b29e)" style="fill: none; stroke: #7a7a7a; stroke-width: 4.5; stroke-linecap: square"/>
   </g>
   <g id="line2d_11">
    <path d="M 305.1 229.776733 
L 305.1 229.776733 
" clip-path="url(#pf06976b29e)" style="fill: none; stroke: #7a7a7a; stroke-width: 1.5; stroke-linecap: square"/>
   </g>
   <g id="line2d_12">
    <path d="M 305.1 229.776733 
L 305.1 229.776733 
" clip-path="url(#pf06976b29e)" style="fill: none; stroke: #7a7a7a; stroke-width: 4.5; stroke-linecap: square"/>
   </g>
   <g id="patch_3">
    <path d="M 54 252 
L 54 34.56 
" style="fill: none; stroke: #000000; stroke-width: 0.8; stroke-linejoin: miter; stroke-linecap: square"/>
   </g>
   <g id="patch_4">
    <path d="M 388.8 252 
L 388.8 34.56 
" style="fill: none; stroke: #000000; stroke-width: 0.8; stroke-linejoin: miter; stroke-linecap: square"/>
   </g>
   <g id="patch_5">
    <path d="M 54 252 
L 388.8 252 
" style="fill: none; stroke: #000000; stroke-width: 0.8; stroke-linejoin: miter; stroke-linecap: square"/>
   </g>
   <g id="patch_6">
    <path d="M 54 34.56 
L 388.8 34.56 
" style="fill: none; stroke: #000000; stroke-width: 0.8; stroke-linejoin: miter; stroke-linecap: square"/>
   </g>
   <g id="PathCollection_1">
    <defs>
     <path id="m13f5398fad" d="M 0 1.5 
C 0.397805 1.5 0.77937 1.341951 1.06066 1.06066 
C 1.341951 0.77937 1.5 0.397805 1.5 0 
C 1.5 -0.397805 1.341951 -0.77937 1.06066 -1.06066 
C 0.77937 -1.341951 0.397805 -1.5 0 -1.5 
C -0.397805 -1.5 -0.77937 -1.341951 -1.06066 -1.06066 
C -1.341951 -0.77937 -1.5 -0.397805 -1.5 0 
C -1.5 0.397805 -1.341951 0.77937 -1.06066 1.06066 
C -0.77937 1.341951 -0.397805 1.5 0 1.5 
z
" style="stroke: #7a7a7a"/>
    </defs>
    <g clip-path="url(#pf06976b29e)">
     <use xlink:href="#m13f5398fad" x="137.7" y="229.776733" style="fill: #ffffff; stroke: #7a7a7a"/>
    </g>
   </g>
   <g id="PathCollection_2">
    <g clip-path="url(#pf06976b29e)">
     <use xlink:href="#m13f5398fad" x="305.1" y="229.776733" style="fill: #ffffff; stroke: #7a7a7a"/>
    </g>
   </g>
  </g>
 </g>
 <defs>
  <clipPath id="pf06976b29e">
   <rect x="54" y="34.56" width="334.8" height="217.44"/>
  </clipPath>
 </defs>
</svg>
