<?xml version="1.0" encoding="utf-8" standalone="no"?>
<!DOCTYPE svg PUBLIC "-//W3C//DTD SVG 1.1//EN"
  "http://www.w3.org/Graphics/SVG/1.1/DTD/svg11.dtd">
<svg xmlns:xlink="http://www.w3.org/1999/xlink" width="432pt" height="288pt" viewBox="0 0 432 288" xmlns="http://www.w3.org/2000/svg" version="1.1">
 <metadata>
  <rdf:RDF xmlns:dc="http://purl.org/dc/elements/1.1/" xmlns:cc="http://creativecommons.org/ns#" xmlns:rdf="http://www.w3.org/1999/02/22-rdf-syntax-ns#">
   <cc:Work>
    <dc:type rdf:resource="http://purl.org/dc/dcmitype/StillImage"/>
    <dc:date>2023-05-03T02:46:53.452068</dc:date>
    <dc:format>image/svg+xml</dc:format>
    <dc:creator>
     <cc:Agent>
      <dc:title>Matplotlib v3.5.3, https://matplotlib.org/</dc:title>
     </cc:Agent>
    </dc:creator>
   </cc:Work>
  </rdf:RDF>
 </metadata>
 <defs>
  <style type="text/css">*{stroke-linejoin: round; stroke-linecap: butt}</style>
 </defs>
 <g id="figure_1">
  <g id="patch_1">
   <path d="M 0 288 
L 432 288 
L 432 0 
L 0 0 
L 0 288 
z
" style="fill: none"/>
  </g>
  <g id="axes_1">
   <g id="patch_2">
    <path d="M 54 252 
L 388.8 252 
L 388.8 34.56 
L 54 34.56 
z
" style="fill: #ffffff"/>
   </g>
   <g id="PolyCollection_1">
    <defs>
     <path id="m66ffd7a0d2" d="M 139.67516 -47.732544 
L 135.72484 -47.732544 
L 134.518912 -49.691887 
L 132.897968 -51.651229 
L 130.905615 -53.610572 
L 128.689455 -55.569914 
L 126.499749 -57.529257 
L 124.650909 -59.488599 
L 123.450207 -61.447942 
L 123.114791 -63.407284 
L 123.707588 -65.366627 
L 125.118041 -67.32597 
L 127.095755 -69.285312 
L 129.323028 -71.244655 
L 131.497452 -73.203997 
L 133.395437 -75.16334 
L 134.899963 -77.122682 
L 135.99284 -79.082025 
L 136.724425 -81.041367 
L 137.177456 -83.00071 
L 137.437662 -84.960052 
L 137.576555 -86.919395 
L 137.645554 -88.878738 
L 137.677492 -90.83808 
L 137.691279 -92.797423 
L 137.696833 -94.756765 
L 137.698922 -96.716108 
L 137.699656 -98.67545 
L 137.699897 -100.634793 
L 137.699971 -102.594135 
L 137.699992 -104.553478 
L 137.699998 -106.51282 
L 137.7 -108.472163 
L 137.7 -110.431506 
L 137.7 -112.390848 
L 137.7 -114.350191 
L 137.7 -116.309533 
L 137.7 -118.268876 
L 137.7 -120.228218 
L 137.7 -122.187561 
L 137.7 -124.146903 
L 137.7 -126.106246 
L 137.7 -128.065588 
L 137.7 -130.024931 
L 137.7 -131.984273 
L 137.7 -133.943616 
L 137.7 -135.902959 
L 137.7 -137.862301 
L 137.7 -139.821644 
L 137.7 -141.780986 
L 137.7 -143.740329 
L 137.7 -145.699671 
L 137.7 -147.659014 
L 137.7 -149.618356 
L 137.7 -151.577699 
L 137.7 -153.537041 
L 137.7 -155.496384 
L 137.7 -157.455727 
L 137.7 -159.415069 
L 137.7 -161.374412 
L 137.7 -163.333754 
L 137.7 -165.293097 
L 137.7 -167.252439 
L 137.7 -169.211782 
L 137.7 -171.171124 
L 137.7 -173.130467 
L 137.7 -175.089809 
L 137.7 -177.049152 
L 137.7 -179.008494 
L 137.699998 -180.967837 
L 137.699991 -182.92718 
L 137.699965 -184.886522 
L 137.699868 -186.845865 
L 137.699528 -188.805207 
L 137.698421 -190.76455 
L 137.69505 -192.723892 
L 137.685459 -194.683235 
L 137.659962 -196.642577 
L 137.596669 -198.60192 
L 137.450042 -200.561262 
L 137.133269 -202.520605 
L 136.495621 -204.479948 
L 135.301027 -206.43929 
L 133.221183 -208.398633 
L 129.86251 -210.357975 
L 124.845165 -212.317318 
L 117.937958 -214.27666 
L 109.224397 -216.236003 
L 99.241722 -218.195345 
L 89.016416 -220.154688 
L 79.936827 -222.11403 
L 73.461507 -224.073373 
L 70.74 -226.032716 
L 72.279879 -227.992058 
L 77.792246 -229.951401 
L 86.280182 -231.910743 
L 96.333019 -233.870086 
L 106.507303 -235.829428 
L 115.654101 -237.788771 
L 123.095775 -239.748113 
L 128.632136 -241.707456 
L 146.767864 -241.707456 
L 146.767864 -241.707456 
L 152.304225 -239.748113 
L 159.745899 -237.788771 
L 168.892697 -235.829428 
L 179.066981 -233.870086 
L 189.119818 -231.910743 
L 197.607754 -229.951401 
L 203.120121 -227.992058 
L 204.66 -226.032716 
L 201.938493 -224.073373 
L 195.463173 -222.11403 
L 186.383584 -220.154688 
L 176.158278 -218.195345 
L 166.175603 -216.236003 
L 157.462042 -214.27666 
L 150.554835 -212.317318 
L 145.53749 -210.357975 
L 142.178817 -208.398633 
L 140.098973 -206.43929 
L 138.904379 -204.479948 
L 138.266731 -202.520605 
L 137.949958 -200.561262 
L 137.803331 -198.60192 
L 137.740038 -196.642577 
L 137.714541 -194.683235 
L 137.70495 -192.723892 
L 137.701579 -190.76455 
L 137.700472 -188.805207 
L 137.700132 -186.845865 
L 137.700035 -184.886522 
L 137.700009 -182.92718 
L 137.700002 -180.967837 
L 137.7 -179.008494 
L 137.7 -177.049152 
L 137.7 -175.089809 
L 137.7 -173.130467 
L 137.7 -171.171124 
L 137.7 -169.211782 
L 137.7 -167.252439 
L 137.7 -165.293097 
L 137.7 -163.333754 
L 137.7 -161.374412 
L 137.7 -159.415069 
L 137.7 -157.455727 
L 137.7 -155.496384 
L 137.7 -153.537041 
L 137.7 -151.577699 
L 137.7 -149.618356 
L 137.7 -147.659014 
L 137.7 -145.699671 
L 137.7 -143.740329 
L 137.7 -141.780986 
L 137.7 -139.821644 
L 137.7 -137.862301 
L 137.7 -135.902959 
L 137.7 -133.943616 
L 137.7 -131.984273 
L 137.7 -130.024931 
L 137.7 -128.065588 
L 137.7 -126.106246 
L 137.7 -124.146903 
L 137.7 -122.187561 
L 137.7 -120.228218 
L 137.7 -118.268876 
L 137.7 -116.309533 
L 137.7 -114.350191 
L 137.7 -112.390848 
L 137.7 -110.431506 
L 137.7 -108.472163 
L 137.700002 -106.51282 
L 137.700008 -104.553478 
L 137.700029 -102.594135 
L 137.700103 -100.634793 
L 137.700344 -98.67545 
L 137.701078 -96.716108 
L 137.703167 -94.756765 
L 137.708721 -92.797423 
L 137.722508 -90.83808 
L 137.754446 -88.878738 
L 137.823445 -86.919395 
L 137.962338 -84.960052 
L 138.222544 -83.00071 
L 138.675575 -81.041367 
L 139.40716 -79.082025 
L 140.500037 -77.122682 
L 142.004563 -75.16334 
L 143.902548 -73.203997 
L 146.076972 -71.244655 
L 148.304245 -69.285312 
L 150.281959 -67.32597 
L 151.692412 -65.366627 
L 152.285209 -63.407284 
L 151.949793 -61.447942 
L 150.749091 -59.488599 
L 148.900251 -57.529257 
L 146.710545 -55.569914 
L 144.494385 -53.610572 
L 142.502032 -51.651229 
L 140.881088 -49.691887 
L 139.67516 -47.732544 
z
" style="stroke: #7a7a7a; stroke-width: 1.5"/>
    </defs>
    <g clip-path="url(#pe2f5b1636b)">
     <use xlink:href="#m66ffd7a0d2" x="0" y="288" style="fill: #f1bcb8; stroke: #7a7a7a; stroke-width: 1.5"/>
    </g>
   </g>
   <g id="PolyCollection_2">
    <defs>
     <path id="mf8d86a07d1" d="M 307.501635 -45.883636 
L 302.698365 -45.883636 
L 301.384903 -47.880331 
L 299.65306 -49.877025 
L 297.530721 -51.873719 
L 295.130446 -53.870413 
L 292.654386 -55.867107 
L 290.374287 -57.863802 
L 288.585871 -59.860496 
L 287.546877 -61.85719 
L 287.416327 -63.853884 
L 288.214655 -65.850579 
L 289.818473 -67.847273 
L 291.991804 -69.843967 
L 294.442913 -71.840661 
L 296.887915 -73.837355 
L 299.102259 -75.83405 
L 300.948153 -77.830744 
L 302.375954 -79.827438 
L 303.406026 -81.824132 
L 304.101568 -83.820826 
L 304.542237 -85.817521 
L 304.804675 -87.814215 
L 304.951793 -89.810909 
L 305.029505 -91.807603 
L 305.068219 -93.804298 
L 305.08642 -95.800992 
L 305.0945 -97.797686 
L 305.097889 -99.79438 
L 305.099232 -101.791074 
L 305.099735 -103.787769 
L 305.099913 -105.784463 
L 305.099973 -107.781157 
L 305.099992 -109.777851 
L 305.099998 -111.774545 
L 305.099999 -113.77124 
L 305.1 -115.767934 
L 305.1 -117.764628 
L 305.1 -119.761322 
L 305.1 -121.758017 
L 305.1 -123.754711 
L 305.1 -125.751405 
L 305.1 -127.748099 
L 305.1 -129.744793 
L 305.1 -131.741488 
L 305.1 -133.738182 
L 305.1 -135.734876 
L 305.1 -137.73157 
L 305.1 -139.728264 
L 305.1 -141.724959 
L 305.1 -143.721653 
L 305.1 -145.718347 
L 305.1 -147.715041 
L 305.1 -149.711736 
L 305.1 -151.70843 
L 305.1 -153.705124 
L 305.1 -155.701818 
L 305.1 -157.698512 
L 305.1 -159.695207 
L 305.1 -161.691901 
L 305.1 -163.688595 
L 305.1 -165.685289 
L 305.1 -167.681983 
L 305.1 -169.678678 
L 305.1 -171.675372 
L 305.1 -173.672066 
L 305.099998 -175.66876 
L 305.099993 -177.665455 
L 305.099976 -179.662149 
L 305.099917 -181.658843 
L 305.099731 -183.655537 
L 305.099178 -185.652231 
L 305.097615 -187.648926 
L 305.093445 -189.64562 
L 305.082922 -191.642314 
L 305.057831 -193.639008 
L 305.001313 -195.635702 
L 304.881097 -197.632397 
L 304.639782 -199.629091 
L 304.182949 -201.625785 
L 303.368019 -203.622479 
L 301.999642 -205.619174 
L 299.839826 -207.615868 
L 296.64122 -209.612562 
L 292.207573 -211.609256 
L 286.475655 -213.60595 
L 279.599617 -215.602645 
L 272.007332 -217.599339 
L 264.396081 -219.596033 
L 257.647398 -221.592727 
L 252.667181 -223.589421 
L 250.188191 -225.586116 
L 250.593579 -227.58281 
L 253.81989 -229.579504 
L 259.373327 -231.576198 
L 266.453549 -233.572893 
L 274.142277 -235.569587 
L 281.595676 -237.566281 
L 288.186017 -239.562975 
L 293.563784 -241.559669 
L 297.64238 -243.556364 
L 312.55762 -243.556364 
L 312.55762 -243.556364 
L 316.636216 -241.559669 
L 322.013983 -239.562975 
L 328.604324 -237.566281 
L 336.057723 -235.569587 
L 343.746451 -233.572893 
L 350.826673 -231.576198 
L 356.38011 -229.579504 
L 359.606421 -227.58281 
L 360.011809 -225.586116 
L 357.532819 -223.589421 
L 352.552602 -221.592727 
L 345.803919 -219.596033 
L 338.192668 -217.599339 
L 330.600383 -215.602645 
L 323.724345 -213.60595 
L 317.992427 -211.609256 
L 313.55878 -209.612562 
L 310.360174 -207.615868 
L 308.200358 -205.619174 
L 306.831981 -203.622479 
L 306.017051 -201.625785 
L 305.560218 -199.629091 
L 305.318903 -197.632397 
L 305.198687 -195.635702 
L 305.142169 -193.639008 
L 305.117078 -191.642314 
L 305.106555 -189.64562 
L 305.102385 -187.648926 
L 305.100822 -185.652231 
L 305.100269 -183.655537 
L 305.100083 -181.658843 
L 305.100024 -179.662149 
L 305.100007 -177.665455 
L 305.100002 -175.66876 
L 305.1 -173.672066 
L 305.1 -171.675372 
L 305.1 -169.678678 
L 305.1 -167.681983 
L 305.1 -165.685289 
L 305.1 -163.688595 
L 305.1 -161.691901 
L 305.1 -159.695207 
L 305.1 -157.698512 
L 305.1 -155.701818 
L 305.1 -153.705124 
L 305.1 -151.70843 
L 305.1 -149.711736 
L 305.1 -147.715041 
L 305.1 -145.718347 
L 305.1 -143.721653 
L 305.1 -141.724959 
L 305.1 -139.728264 
L 305.1 -137.73157 
L 305.1 -135.734876 
L 305.1 -133.738182 
L 305.1 -131.741488 
L 305.1 -129.744793 
L 305.1 -127.748099 
L 305.1 -125.751405 
L 305.1 -123.754711 
L 305.1 -121.758017 
L 305.1 -119.761322 
L 305.1 -117.764628 
L 305.1 -115.767934 
L 305.100001 -113.77124 
L 305.100002 -111.774545 
L 305.100008 -109.777851 
L 305.100027 -107.781157 
L 305.100087 -105.784463 
L 305.100265 -103.787769 
L 305.100768 -101.791074 
L 305.102111 -99.79438 
L 305.1055 -97.797686 
L 305.11358 -95.800992 
L 305.131781 -93.804298 
L 305.170495 -91.807603 
L 305.248207 -89.810909 
L 305.395325 -87.814215 
L 305.657763 -85.817521 
L 306.098432 -83.820826 
L 306.793974 -81.824132 
L 307.824046 -79.827438 
L 309.251847 -77.830744 
L 311.097741 -75.83405 
L 313.312085 -73.837355 
L 315.757087 -71.840661 
L 318.208196 -69.843967 
L 320.381527 -67.847273 
L 321.985345 -65.850579 
L 322.783673 -63.853884 
L 322.653123 -61.85719 
L 321.614129 -59.860496 
L 319.825713 -57.863802 
L 317.545614 -55.867107 
L 315.069554 -53.870413 
L 312.669279 -51.873719 
L 310.54694 -49.877025 
L 308.815097 -47.880331 
L 307.501635 -45.883636 
z
" style="stroke: #7a7a7a; stroke-width: 1.5"/>
    </defs>
    <g clip-path="url(#pe2f5b1636b)">
     <use xlink:href="#mf8d86a07d1" x="0" y="288" style="fill: #b9ccdd; stroke: #7a7a7a; stroke-width: 1.5"/>
    </g>
   </g>
   <g id="matplotlib.axis_1">
    <g id="xtick_1">
     <g id="line2d_1">
      <defs>
       <path id="m6ccf8ac43d" d="M 0 0 
L 0 3.5 
" style="stroke: #000000; stroke-width: 0.8"/>
      </defs>
      <g>
       <use xlink:href="#m6ccf8ac43d" x="137.7" y="252" style="stroke: #000000; stroke-width: 0.8"/>
      </g>
     </g>
     <g id="text_1">
      <!-- 0.0 -->
      <g transform="translate(129.748437 266.598437)scale(0.1 -0.1)">
       <defs>
        <path id="DejaVuSans-30" d="M 2034 4250 
Q 1547 4250 1301 3770 
Q 1056 3291 1056 2328 
Q 1056 1369 1301 889 
Q 1547 409 2034 409 
Q 2525 409 2770 889 
Q 3016 1369 3016 2328 
Q 3016 3291 2770 3770 
Q 2525 4250 2034 4250 
z
M 2034 4750 
Q 2819 4750 3233 4129 
Q 3647 3509 3647 2328 
Q 3647 1150 3233 529 
Q 2819 -91 2034 -91 
Q 1250 -91 836 529 
Q 422 1150 422 2328 
Q 422 3509 836 4129 
Q 1250 4750 2034 4750 
z
" transform="scale(0.015625)"/>
        <path id="DejaVuSans-2e" d="M 684 794 
L 1344 794 
L 1344 0 
L 684 0 
L 684 794 
z
" transform="scale(0.015625)"/>
       </defs>
       <use xlink:href="#DejaVuSans-30"/>
       <use xlink:href="#DejaVuSans-2e" x="63.623047"/>
       <use xlink:href="#DejaVuSans-30" x="95.410156"/>
      </g>
     </g>
    </g>
    <g id="xtick_2">
     <g id="line2d_2">
      <g>
       <use xlink:href="#m6ccf8ac43d" x="305.1" y="252" style="stroke: #000000; stroke-width: 0.8"/>
      </g>
     </g>
     <g id="text_2">
      <!-- 1.0 -->
      <g transform="translate(297.148438 266.598437)scale(0.1 -0.1)">
       <defs>
        <path id="DejaVuSans-31" d="M 794 531 
L 1825 531 
L 1825 4091 
L 703 3866 
L 703 4441 
L 1819 4666 
L 2450 4666 
L 2450 531 
L 3481 531 
L 3481 0 
L 794 0 
L 794 531 
z
" transform="scale(0.015625)"/>
       </defs>
       <use xlink:href="#DejaVuSans-31"/>
       <use xlink:href="#DejaVuSans-2e" x="63.623047"/>
       <use xlink:href="#DejaVuSans-30" x="95.410156"/>
      </g>
     </g>
    </g>
    <g id="text_3">
     <!-- Diabetes_binary -->
     <g transform="translate(180.89375 280.276563)scale(0.1 -0.1)">
      <defs>
       <path id="DejaVuSans-44" d="M 1259 4147 
L 1259 519 
L 2022 519 
Q 2988 519 3436 956 
Q 3884 1394 3884 2338 
Q 3884 3275 3436 3711 
Q 2988 4147 2022 4147 
L 1259 4147 
z
M 628 4666 
L 1925 4666 
Q 3281 4666 3915 4102 
Q 4550 3538 4550 2338 
Q 4550 1131 3912 565 
Q 3275 0 1925 0 
L 628 0 
L 628 4666 
z
" transform="scale(0.015625)"/>
       <path id="DejaVuSans-69" d="M 603 3500 
L 1178 3500 
L 1178 0 
L 603 0 
L 603 3500 
z
M 603 4863 
L 1178 4863 
L 1178 4134 
L 603 4134 
L 603 4863 
z
" transform="scale(0.015625)"/>
       <path id="DejaVuSans-61" d="M 2194 1759 
Q 1497 1759 1228 1600 
Q 959 1441 959 1056 
Q 959 750 1161 570 
Q 1363 391 1709 391 
Q 2188 391 2477 730 
Q 2766 1069 2766 1631 
L 2766 1759 
L 2194 1759 
z
M 3341 1997 
L 3341 0 
L 2766 0 
L 2766 531 
Q 2569 213 2275 61 
Q 1981 -91 1556 -91 
Q 1019 -91 701 211 
Q 384 513 384 1019 
Q 384 1609 779 1909 
Q 1175 2209 1959 2209 
L 2766 2209 
L 2766 2266 
Q 2766 2663 2505 2880 
Q 2244 3097 1772 3097 
Q 1472 3097 1187 3025 
Q 903 2953 641 2809 
L 641 3341 
Q 956 3463 1253 3523 
Q 1550 3584 1831 3584 
Q 2591 3584 2966 3190 
Q 3341 2797 3341 1997 
z
" transform="scale(0.015625)"/>
       <path id="DejaVuSans-62" d="M 3116 1747 
Q 3116 2381 2855 2742 
Q 2594 3103 2138 3103 
Q 1681 3103 1420 2742 
Q 1159 2381 1159 1747 
Q 1159 1113 1420 752 
Q 1681 391 2138 391 
Q 2594 391 2855 752 
Q 3116 1113 3116 1747 
z
M 1159 2969 
Q 1341 3281 1617 3432 
Q 1894 3584 2278 3584 
Q 2916 3584 3314 3078 
Q 3713 2572 3713 1747 
Q 3713 922 3314 415 
Q 2916 -91 2278 -91 
Q 1894 -91 1617 61 
Q 1341 213 1159 525 
L 1159 0 
L 581 0 
L 581 4863 
L 1159 4863 
L 1159 2969 
z
" transform="scale(0.015625)"/>
       <path id="DejaVuSans-65" d="M 3597 1894 
L 3597 1613 
L 953 1613 
Q 991 1019 1311 708 
Q 1631 397 2203 397 
Q 2534 397 2845 478 
Q 3156 559 3463 722 
L 3463 178 
Q 3153 47 2828 -22 
Q 2503 -91 2169 -91 
Q 1331 -91 842 396 
Q 353 884 353 1716 
Q 353 2575 817 3079 
Q 1281 3584 2069 3584 
Q 2775 3584 3186 3129 
Q 3597 2675 3597 1894 
z
M 3022 2063 
Q 3016 2534 2758 2815 
Q 2500 3097 2075 3097 
Q 1594 3097 1305 2825 
Q 1016 2553 972 2059 
L 3022 2063 
z
" transform="scale(0.015625)"/>
       <path id="DejaVuSans-74" d="M 1172 4494 
L 1172 3500 
L 2356 3500 
L 2356 3053 
L 1172 3053 
L 1172 1153 
Q 1172 725 1289 603 
Q 1406 481 1766 481 
L 2356 481 
L 2356 0 
L 1766 0 
Q 1100 0 847 248 
Q 594 497 594 1153 
L 594 3053 
L 172 3053 
L 172 3500 
L 594 3500 
L 594 4494 
L 1172 4494 
z
" transform="scale(0.015625)"/>
       <path id="DejaVuSans-73" d="M 2834 3397 
L 2834 2853 
Q 2591 2978 2328 3040 
Q 2066 3103 1784 3103 
Q 1356 3103 1142 2972 
Q 928 2841 928 2578 
Q 928 2378 1081 2264 
Q 1234 2150 1697 2047 
L 1894 2003 
Q 2506 1872 2764 1633 
Q 3022 1394 3022 966 
Q 3022 478 2636 193 
Q 2250 -91 1575 -91 
Q 1294 -91 989 -36 
Q 684 19 347 128 
L 347 722 
Q 666 556 975 473 
Q 1284 391 1588 391 
Q 1994 391 2212 530 
Q 2431 669 2431 922 
Q 2431 1156 2273 1281 
Q 2116 1406 1581 1522 
L 1381 1569 
Q 847 1681 609 1914 
Q 372 2147 372 2553 
Q 372 3047 722 3315 
Q 1072 3584 1716 3584 
Q 2034 3584 2315 3537 
Q 2597 3491 2834 3397 
z
" transform="scale(0.015625)"/>
       <path id="DejaVuSans-5f" d="M 3263 -1063 
L 3263 -1509 
L -63 -1509 
L -63 -1063 
L 3263 -1063 
z
" transform="scale(0.015625)"/>
       <path id="DejaVuSans-6e" d="M 3513 2113 
L 3513 0 
L 2938 0 
L 2938 2094 
Q 2938 2591 2744 2837 
Q 2550 3084 2163 3084 
Q 1697 3084 1428 2787 
Q 1159 2491 1159 1978 
L 1159 0 
L 581 0 
L 581 3500 
L 1159 3500 
L 1159 2956 
Q 1366 3272 1645 3428 
Q 1925 3584 2291 3584 
Q 2894 3584 3203 3211 
Q 3513 2838 3513 2113 
z
" transform="scale(0.015625)"/>
       <path id="DejaVuSans-72" d="M 2631 2963 
Q 2534 3019 2420 3045 
Q 2306 3072 2169 3072 
Q 1681 3072 1420 2755 
Q 1159 2438 1159 1844 
L 1159 0 
L 581 0 
L 581 3500 
L 1159 3500 
L 1159 2956 
Q 1341 3275 1631 3429 
Q 1922 3584 2338 3584 
Q 2397 3584 2469 3576 
Q 2541 3569 2628 3553 
L 2631 2963 
z
" transform="scale(0.015625)"/>
       <path id="DejaVuSans-79" d="M 2059 -325 
Q 1816 -950 1584 -1140 
Q 1353 -1331 966 -1331 
L 506 -1331 
L 506 -850 
L 844 -850 
Q 1081 -850 1212 -737 
Q 1344 -625 1503 -206 
L 1606 56 
L 191 3500 
L 800 3500 
L 1894 763 
L 2988 3500 
L 3597 3500 
L 2059 -325 
z
" transform="scale(0.015625)"/>
      </defs>
      <use xlink:href="#DejaVuSans-44"/>
      <use xlink:href="#DejaVuSans-69" x="77.001953"/>
      <use xlink:href="#DejaVuSans-61" x="104.785156"/>
      <use xlink:href="#DejaVuSans-62" x="166.064453"/>
      <use xlink:href="#DejaVuSans-65" x="229.541016"/>
      <use xlink:href="#DejaVuSans-74" x="291.064453"/>
      <use xlink:href="#DejaVuSans-65" x="330.273438"/>
      <use xlink:href="#DejaVuSans-73" x="391.796875"/>
      <use xlink:href="#DejaVuSans-5f" x="443.896484"/>
      <use xlink:href="#DejaVuSans-62" x="493.896484"/>
      <use xlink:href="#DejaVuSans-69" x="557.373047"/>
      <use xlink:href="#DejaVuSans-6e" x="585.15625"/>
      <use xlink:href="#DejaVuSans-61" x="648.535156"/>
      <use xlink:href="#DejaVuSans-72" x="709.814453"/>
      <use xlink:href="#DejaVuSans-79" x="750.927734"/>
     </g>
    </g>
   </g>
   <g id="matplotlib.axis_2">
    <g id="ytick_1">
     <g id="line2d_3">
      <defs>
       <path id="m66152eb48c" d="M 0 0 
L -3.5 0 
" style="stroke: #000000; stroke-width: 0.8"/>
      </defs>
      <g>
       <use xlink:href="#m66152eb48c" x="54" y="224.868459" style="stroke: #000000; stroke-width: 0.8"/>
      </g>
     </g>
     <g id="text_4">
      <!-- 0.0 -->
      <g transform="translate(31.096875 228.667678)scale(0.1 -0.1)">
       <use xlink:href="#DejaVuSans-30"/>
       <use xlink:href="#DejaVuSans-2e" x="63.623047"/>
       <use xlink:href="#DejaVuSans-30" x="95.410156"/>
      </g>
     </g>
    </g>
    <g id="ytick_2">
     <g id="line2d_4">
      <g>
       <use xlink:href="#m66152eb48c" x="54" y="192.233076" style="stroke: #000000; stroke-width: 0.8"/>
      </g>
     </g>
     <g id="text_5">
      <!-- 0.2 -->
      <g transform="translate(31.096875 196.032294)scale(0.1 -0.1)">
       <defs>
        <path id="DejaVuSans-32" d="M 1228 531 
L 3431 531 
L 3431 0 
L 469 0 
L 469 531 
Q 828 903 1448 1529 
Q 2069 2156 2228 2338 
Q 2531 2678 2651 2914 
Q 2772 3150 2772 3378 
Q 2772 3750 2511 3984 
Q 2250 4219 1831 4219 
Q 1534 4219 1204 4116 
Q 875 4013 500 3803 
L 500 4441 
Q 881 4594 1212 4672 
Q 1544 4750 1819 4750 
Q 2544 4750 2975 4387 
Q 3406 4025 3406 3419 
Q 3406 3131 3298 2873 
Q 3191 2616 2906 2266 
Q 2828 2175 2409 1742 
Q 1991 1309 1228 531 
z
" transform="scale(0.015625)"/>
       </defs>
       <use xlink:href="#DejaVuSans-30"/>
       <use xlink:href="#DejaVuSans-2e" x="63.623047"/>
       <use xlink:href="#DejaVuSans-32" x="95.410156"/>
      </g>
     </g>
    </g>
    <g id="ytick_3">
     <g id="line2d_5">
      <g>
       <use xlink:href="#m66152eb48c" x="54" y="159.597692" style="stroke: #000000; stroke-width: 0.8"/>
      </g>
     </g>
     <g id="text_6">
      <!-- 0.4 -->
      <g transform="translate(31.096875 163.396911)scale(0.1 -0.1)">
       <defs>
        <path id="DejaVuSans-34" d="M 2419 4116 
L 825 1625 
L 2419 1625 
L 2419 4116 
z
M 2253 4666 
L 3047 4666 
L 3047 1625 
L 3713 1625 
L 3713 1100 
L 3047 1100 
L 3047 0 
L 2419 0 
L 2419 1100 
L 313 1100 
L 313 1709 
L 2253 4666 
z
" transform="scale(0.015625)"/>
       </defs>
       <use xlink:href="#DejaVuSans-30"/>
       <use xlink:href="#DejaVuSans-2e" x="63.623047"/>
       <use xlink:href="#DejaVuSans-34" x="95.410156"/>
      </g>
     </g>
    </g>
    <g id="ytick_4">
     <g id="line2d_6">
      <g>
       <use xlink:href="#m66152eb48c" x="54" y="126.962308" style="stroke: #000000; stroke-width: 0.8"/>
      </g>
     </g>
     <g id="text_7">
      <!-- 0.6 -->
      <g transform="translate(31.096875 130.761527)scale(0.1 -0.1)">
       <defs>
        <path id="DejaVuSans-36" d="M 2113 2584 
Q 1688 2584 1439 2293 
Q 1191 2003 1191 1497 
Q 1191 994 1439 701 
Q 1688 409 2113 409 
Q 2538 409 2786 701 
Q 3034 994 3034 1497 
Q 3034 2003 2786 2293 
Q 2538 2584 2113 2584 
z
M 3366 4563 
L 3366 3988 
Q 3128 4100 2886 4159 
Q 2644 4219 2406 4219 
Q 1781 4219 1451 3797 
Q 1122 3375 1075 2522 
Q 1259 2794 1537 2939 
Q 1816 3084 2150 3084 
Q 2853 3084 3261 2657 
Q 3669 2231 3669 1497 
Q 3669 778 3244 343 
Q 2819 -91 2113 -91 
Q 1303 -91 875 529 
Q 447 1150 447 2328 
Q 447 3434 972 4092 
Q 1497 4750 2381 4750 
Q 2619 4750 2861 4703 
Q 3103 4656 3366 4563 
z
" transform="scale(0.015625)"/>
       </defs>
       <use xlink:href="#DejaVuSans-30"/>
       <use xlink:href="#DejaVuSans-2e" x="63.623047"/>
       <use xlink:href="#DejaVuSans-36" x="95.410156"/>
      </g>
     </g>
    </g>
    <g id="ytick_5">
     <g id="line2d_7">
      <g>
       <use xlink:href="#m66152eb48c" x="54" y="94.326924" style="stroke: #000000; stroke-width: 0.8"/>
      </g>
     </g>
     <g id="text_8">
      <!-- 0.8 -->
      <g transform="translate(31.096875 98.126143)scale(0.1 -0.1)">
       <defs>
        <path id="DejaVuSans-38" d="M 2034 2216 
Q 1584 2216 1326 1975 
Q 1069 1734 1069 1313 
Q 1069 891 1326 650 
Q 1584 409 2034 409 
Q 2484 409 2743 651 
Q 3003 894 3003 1313 
Q 3003 1734 2745 1975 
Q 2488 2216 2034 2216 
z
M 1403 2484 
Q 997 2584 770 2862 
Q 544 3141 544 3541 
Q 544 4100 942 4425 
Q 1341 4750 2034 4750 
Q 2731 4750 3128 4425 
Q 3525 4100 3525 3541 
Q 3525 3141 3298 2862 
Q 3072 2584 2669 2484 
Q 3125 2378 3379 2068 
Q 3634 1759 3634 1313 
Q 3634 634 3220 271 
Q 2806 -91 2034 -91 
Q 1263 -91 848 271 
Q 434 634 434 1313 
Q 434 1759 690 2068 
Q 947 2378 1403 2484 
z
M 1172 3481 
Q 1172 3119 1398 2916 
Q 1625 2713 2034 2713 
Q 2441 2713 2670 2916 
Q 2900 3119 2900 3481 
Q 2900 3844 2670 4047 
Q 2441 4250 2034 4250 
Q 1625 4250 1398 4047 
Q 1172 3844 1172 3481 
z
" transform="scale(0.015625)"/>
       </defs>
       <use xlink:href="#DejaVuSans-30"/>
       <use xlink:href="#DejaVuSans-2e" x="63.623047"/>
       <use xlink:href="#DejaVuSans-38" x="95.410156"/>
      </g>
     </g>
    </g>
    <g id="ytick_6">
     <g id="line2d_8">
      <g>
       <use xlink:href="#m66152eb48c" x="54" y="61.691541" style="stroke: #000000; stroke-width: 0.8"/>
      </g>
     </g>
     <g id="text_9">
      <!-- 1.0 -->
      <g transform="translate(31.096875 65.490759)scale(0.1 -0.1)">
       <use xlink:href="#DejaVuSans-31"/>
       <use xlink:href="#DejaVuSans-2e" x="63.623047"/>
       <use xlink:href="#DejaVuSans-30" x="95.410156"/>
      </g>
     </g>
    </g>
    <g id="text_10">
     <!-- Veggies -->
     <g transform="translate(25.017187 162.808125)rotate(-90)scale(0.1 -0.1)">
      <defs>
       <path id="DejaVuSans-56" d="M 1831 0 
L 50 4666 
L 709 4666 
L 2188 738 
L 3669 4666 
L 4325 4666 
L 2547 0 
L 1831 0 
z
" transform="scale(0.015625)"/>
       <path id="DejaVuSans-67" d="M 2906 1791 
Q 2906 2416 2648 2759 
Q 2391 3103 1925 3103 
Q 1463 3103 1205 2759 
Q 947 2416 947 1791 
Q 947 1169 1205 825 
Q 1463 481 1925 481 
Q 2391 481 2648 825 
Q 2906 1169 2906 1791 
z
M 3481 434 
Q 3481 -459 3084 -895 
Q 2688 -1331 1869 -1331 
Q 1566 -1331 1297 -1286 
Q 1028 -1241 775 -1147 
L 775 -588 
Q 1028 -725 1275 -790 
Q 1522 -856 1778 -856 
Q 2344 -856 2625 -561 
Q 2906 -266 2906 331 
L 2906 616 
Q 2728 306 2450 153 
Q 2172 0 1784 0 
Q 1141 0 747 490 
Q 353 981 353 1791 
Q 353 2603 747 3093 
Q 1141 3584 1784 3584 
Q 2172 3584 2450 3431 
Q 2728 3278 2906 2969 
L 2906 3500 
L 3481 3500 
L 3481 434 
z
" transform="scale(0.015625)"/>
      </defs>
      <use xlink:href="#DejaVuSans-56"/>
      <use xlink:href="#DejaVuSans-65" x="60.658203"/>
      <use xlink:href="#DejaVuSans-67" x="122.181641"/>
      <use xlink:href="#DejaVuSans-67" x="185.658203"/>
      <use xlink:href="#DejaVuSans-69" x="249.134766"/>
      <use xlink:href="#DejaVuSans-65" x="276.917969"/>
      <use xlink:href="#DejaVuSans-73" x="338.441406"/>
     </g>
    </g>
   </g>
   <g id="line2d_9">
    <path d="M 137.7 61.691541 
L 137.7 61.691541 
" clip-path="url(#pe2f5b1636b)" style="fill: none; stroke: #7a7a7a; stroke-width: 1.5; stroke-linecap: square"/>
   </g>
   <g id="line2d_10">
    <path d="M 137.7 61.691541 
L 137.7 61.691541 
" clip-path="url(#pe2f5b1636b)" style="fill: none; stroke: #7a7a7a; stroke-width: 4.5; stroke-linecap: square"/>
   </g>
   <g id="line2d_11">
    <path d="M 305.1 61.691541 
L 305.1 61.691541 
" clip-path="url(#pe2f5b1636b)" style="fill: none; stroke: #7a7a7a; stroke-width: 1.5; stroke-linecap: square"/>
   </g>
   <g id="line2d_12">
    <path d="M 305.1 61.691541 
L 305.1 61.691541 
" clip-path="url(#pe2f5b1636b)" style="fill: none; stroke: #7a7a7a; stroke-width: 4.5; stroke-linecap: square"/>
   </g>
   <g id="patch_3">
    <path d="M 54 252 
L 54 34.56 
" style="fill: none; stroke: #000000; stroke-width: 0.8; stroke-linejoin: miter; stroke-linecap: square"/>
   </g>
   <g id="patch_4">
    <path d="M 388.8 252 
L 388.8 34.56 
" style="fill: none; stroke: #000000; stroke-width: 0.8; stroke-linejoin: miter; stroke-linecap: square"/>
   </g>
   <g id="patch_5">
    <path d="M 54 252 
L 388.8 252 
" style="fill: none; stroke: #000000; stroke-width: 0.8; stroke-linejoin: miter; stroke-linecap: square"/>
   </g>
   <g id="patch_6">
    <path d="M 54 34.56 
L 388.8 34.56 
" style="fill: none; stroke: #000000; stroke-width: 0.8; stroke-linejoin: miter; stroke-linecap: square"/>
   </g>
   <g id="PathCollection_1">
    <defs>
     <path id="mbbf3702853" d="M 0 1.5 
C 0.397805 1.5 0.77937 1.341951 1.06066 1.06066 
C 1.341951 0.77937 1.5 0.397805 1.5 0 
C 1.5 -0.397805 1.341951 -0.77937 1.06066 -1.06066 
C 0.77937 -1.341951 0.397805 -1.5 0 -1.5 
C -0.397805 -1.5 -0.77937 -1.341951 -1.06066 -1.06066 
C -1.341951 -0.77937 -1.5 -0.397805 -1.5 0 
C -1.5 0.397805 -1.341951 0.77937 -1.06066 1.06066 
C -0.77937 1.341951 -0.397805 1.5 0 1.5 
z
" style="stroke: #7a7a7a"/>
    </defs>
    <g clip-path="url(#pe2f5b1636b)">
     <use xlink:href="#mbbf3702853" x="137.7" y="61.691541" style="fill: #ffffff; stroke: #7a7a7a"/>
    </g>
   </g>
   <g id="PathCollection_2">
    <g clip-path="url(#pe2f5b1636b)">
     <use xlink:href="#mbbf3702853" x="305.1" y="61.691541" style="fill: #ffffff; stroke: #7a7a7a"/>
    </g>
   </g>
  </g>
 </g>
 <defs>
  <clipPath id="pe2f5b1636b">
   <rect x="54" y="34.56" width="334.8" height="217.44"/>
  </clipPath>
 </defs>
</svg>
